<?xml version="1.0" encoding="UTF-8"?>
<svg width="362px" height="35px" viewBox="0 0 362 35" version="1.1" xmlns="http://www.w3.org/2000/svg" xmlns:xlink="http://www.w3.org/1999/xlink">
    <title>BERLIN MOVES (1)</title>
    <g id="Page-1" stroke="none" stroke-width="1" fill="none" fill-rule="evenodd">
        <g id="BERLIN-MOVES-(1)" fill="#FFFFFF" fill-rule="nonzero">
            <path d="M27.453125,23.7617188 C27.453125,26.5872396 26.7695312,28.8020833 25.4023438,30.40625 C24.2721354,31.71875 22.6588542,32.6302083 20.5625,33.140625 C19.1223958,33.4869792 17.2447917,33.6601562 14.9296875,33.6601562 C14.4921875,33.6601562 13.8997396,33.6510417 13.1523438,33.6328125 C12.4049479,33.6145833 11.8854167,33.6054688 11.59375,33.6054688 C11.2473958,33.6054688 10.6503906,33.6145833 9.80273438,33.6328125 C8.95507812,33.6510417 8.48567708,33.6601562 8.39453125,33.6601562 C5.44140625,33.6601562 3.34505208,33.3138021 2.10546875,32.6210938 C1.04817708,32.0377604 0.51953125,31.1901042 0.51953125,30.078125 C0.51953125,29.3671875 0.761067708,28.6835938 1.24414062,28.0273438 C1.72721354,27.3710938 2.32421875,27.0429688 3.03515625,27.0429688 L16.3515625,27.0429688 C17.3359375,27.0429688 18.1289062,26.5598958 18.7304688,25.59375 C19.1679688,24.9010417 19.3867188,24.2903646 19.3867188,23.7617188 C19.3867188,22.7408854 18.8626302,21.9798177 17.8144531,21.4785156 C16.766276,20.9772135 15.3671875,20.7265625 13.6171875,20.7265625 L3.03515625,20.7265625 C2.14192708,20.7265625 1.38541667,20.2434896 0.765625,19.2773438 C0.255208333,18.4934896 0,17.8007812 0,17.1992188 C0,16.4335938 0.24609375,15.6953125 0.73828125,14.984375 C1.33984375,14.109375 2.10546875,13.671875 3.03515625,13.671875 L16.3515625,13.671875 C16.9895833,13.671875 17.6549479,13.3255208 18.3476562,12.6328125 C19.0403646,11.9401042 19.3867188,11.2747396 19.3867188,10.6367188 C19.3867188,10.0351562 18.9583333,9.296875 18.1015625,8.421875 C17.2447917,7.546875 16.4973958,7.109375 15.859375,7.109375 L2.2421875,7.109375 C1.82291667,6.76302083 1.42643229,6.42122396 1.05273438,6.08398438 C0.679036458,5.74674479 0.4921875,5.359375 0.4921875,4.921875 C0.510416667,4.61197917 0.51953125,4.33854167 0.51953125,4.1015625 C0.51953125,3.0078125 1.05729167,2.16927083 2.1328125,1.5859375 C3.4453125,0.875 5.56901042,0.51953125 8.50390625,0.51953125 C8.90494792,0.51953125 9.34244792,0.524088542 9.81640625,0.533203125 C10.2903646,0.542317708 10.7916667,0.555989583 11.3203125,0.57421875 C11.8125,0.57421875 12.3092448,0.57421875 12.8105469,0.57421875 C13.311849,0.57421875 13.8177083,0.565104167 14.328125,0.546875 C16.9895833,0.546875 19.0494792,0.7109375 20.5078125,1.0390625 C22.6770833,1.53125 24.3177083,2.44270833 25.4296875,3.7734375 C26.7786458,5.39583333 27.453125,7.68359375 27.453125,10.6367188 C27.453125,11.0742188 27.2845052,12.2089844 26.9472656,14.0410156 C26.610026,15.8730469 26.4414062,17.0169271 26.4414062,17.4726562 C26.4414062,17.8919271 26.610026,18.953776 26.9472656,20.6582031 C27.2845052,22.3626302 27.453125,23.3971354 27.453125,23.7617188 Z" id="Path"></path>
            <path d="M57.0354167,30.078125 C57.0354167,31.4817708 56.0328125,32.4752604 54.0276042,33.0585938 C52.6604167,33.4596354 50.8101562,33.6601562 48.4768229,33.6601562 C48.0210937,33.6601562 47.5015625,33.6510417 46.9182292,33.6328125 C46.3348958,33.6145833 46.0067708,33.6054688 45.9338542,33.6054688 C40.665625,33.6054688 37.05625,33.2591146 35.1057292,32.5664062 C32.9,31.7825521 31.4690104,30.2148438 30.8127604,27.8632812 C30.3023437,26.0221354 30.0471354,22.4674479 30.0471354,17.1992188 C30.0471354,11.8945312 30.2932292,8.33984375 30.7854167,6.53515625 C31.4416667,4.14713542 32.8361979,2.55664062 34.9690104,1.76367188 C37.1018229,0.970703125 40.7567708,0.57421875 45.9338542,0.57421875 C46.1526042,0.57421875 46.6128906,0.565104167 47.3147135,0.546875 C48.0165365,0.528645833 48.5861979,0.51953125 49.0236979,0.51953125 C52.0315104,0.51953125 54.1734375,0.865885417 55.4494792,1.55859375 C56.5067708,2.14192708 57.0354167,2.98958333 57.0354167,4.1015625 C57.0354167,4.94010417 56.9625,5.51432292 56.8166667,5.82421875 C56.5979167,6.31640625 56.0692708,6.74479167 55.2307292,7.109375 L41.1213542,7.109375 C40.5197917,7.109375 39.868099,7.53320312 39.166276,8.38085938 C38.4644531,9.22851562 38.1135417,9.98046875 38.1135417,10.6367188 C38.1135417,11.3476562 38.3550781,12.03125 38.838151,12.6875 C39.321224,13.34375 39.9182292,13.671875 40.6291667,13.671875 L54.7385417,13.671875 C55.6864583,14.0546875 56.3335937,14.5559896 56.6799479,15.1757812 C56.9169271,15.5950521 57.0354167,16.1236979 57.0354167,16.7617188 L57.0354167,17.1992188 C57.0354167,18.1106771 56.6389323,18.9264323 55.8459635,19.6464844 C55.0529948,20.3665365 54.1005208,20.7265625 52.9885417,20.7265625 L40.6291667,20.7265625 C39.8817708,20.7265625 39.2893229,21.0182292 38.8518229,21.6015625 C38.3596354,22.2578125 38.1135417,22.9778646 38.1135417,23.7617188 C38.1135417,24.5455729 38.4279948,25.2884115 39.056901,25.9902344 C39.6858073,26.6920573 40.3739583,27.0429688 41.1213542,27.0429688 L55.2307292,27.0429688 C56.0510417,27.4440104 56.5796875,27.8997396 56.8166667,28.4101562 C56.9625,28.7200521 57.0354167,29.2760417 57.0354167,30.078125 Z" id="Path"></path>
            <path d="M88.8325521,30.9804688 C88.8325521,32.1106771 88.6092448,32.8990885 88.1626302,33.3457031 C87.7160156,33.7923177 86.9276042,34.015625 85.7973958,34.015625 C85.4145833,34.015625 84.0473958,33.4414062 81.6958333,32.2929688 C79.5083333,31.2174479 77.3208333,30.1328125 75.1333333,29.0390625 C72.7088542,27.8723958 71.2869792,27.2890625 70.8677083,27.2890625 C69.51875,27.2890625 68.4705729,27.8085938 67.7231771,28.8476562 C67.1763021,29.8320312 66.6385417,30.8164062 66.1098958,31.8007812 C65.4354167,32.8580729 64.5057292,33.3867188 63.3208333,33.3867188 C62.1723958,33.3867188 61.3703125,32.8398438 60.9145833,31.7460937 C60.5864583,30.9622396 60.4223958,29.8138021 60.4223958,28.3007812 C60.4223958,27.8085938 60.4315104,27.3574219 60.4497396,26.9472656 C60.4679688,26.5371094 60.4861979,26.140625 60.5044271,25.7578125 C60.5044271,21.9114583 61.1606771,19.0039062 62.4731771,17.0351562 C63.5486979,15.4127604 65.1255208,14.3463542 67.2036458,13.8359375 C68.3885417,13.5442708 70.2661458,13.3984375 72.8364583,13.3984375 C75.2427083,13.3984375 76.7921875,13.2890625 77.4848958,13.0703125 C78.7973958,12.6510417 79.4536458,11.6757812 79.4536458,10.1445312 C79.4536458,8.99609375 79.1346354,8.17578125 78.4966146,7.68359375 C78.0044271,7.30078125 77.3117188,7.109375 76.4184896,7.109375 L64.5513021,7.109375 C63.2205729,7.109375 62.3,6.84505208 61.7895833,6.31640625 C61.2791667,5.78776042 61.0239583,4.87630208 61.0239583,3.58203125 C61.0239583,2.48828125 61.5708333,1.64973958 62.6645833,1.06640625 C63.9953125,0.35546875 66.1463542,0 69.1177083,0 C69.5369792,0 70.0610677,0.00911458333 70.689974,0.02734375 C71.3188802,0.0455729167 71.7153646,0.0546875 71.8794271,0.0546875 C75.8716146,0.0546875 78.8065104,0.24609375 80.6841146,0.62890625 C83.1815104,1.13932292 85.0044271,2.08723958 86.1528646,3.47265625 C87.3924479,4.96744792 88.0122396,7.19140625 88.0122396,10.1445312 C88.0122396,12.1861979 87.2739583,14.1914062 85.7973958,16.1601562 C84.175,17.9466146 82.5617188,19.7330729 80.9575521,21.5195312 C80.9575521,22.1757812 81.6320313,23.0598958 82.9809896,24.171875 C84.2388021,25.2109375 85.5057292,26.2408854 86.7817708,27.2617188 C88.1489583,28.5742188 88.8325521,29.8138021 88.8325521,30.9804688 Z" id="Path"></path>
            <path d="M118.770312,30.296875 C118.770312,31.6276042 117.877083,32.5664062 116.090625,33.1132812 C114.905729,33.4778646 113.328906,33.6601562 111.360156,33.6601562 C111.013802,33.6601562 110.685677,33.655599 110.375781,33.6464844 C110.065885,33.6373698 109.765104,33.6236979 109.473437,33.6054688 C108.54375,33.6054688 107.778125,33.6145833 107.176562,33.6328125 C106.575,33.6510417 106.009896,33.6692708 105.48125,33.6875 C103.895312,33.6875 102.546354,33.578125 101.434375,33.359375 C99.9578125,33.0677083 98.6088542,32.5481771 97.3875,31.8007812 C95.2729167,30.5247396 93.6049479,28.8932292 92.3835937,26.90625 C91.1622396,24.9192708 90.5515625,22.9505208 90.5515625,21 L90.5515625,3.58203125 C90.5515625,3.03515625 91.0893229,2.4609375 92.1648437,1.859375 C93.1127604,1.33072917 93.8419271,1.06640625 94.3523437,1.06640625 C95.4460937,1.06640625 96.3438802,1.49023438 97.0457031,2.33789062 C97.747526,3.18554688 98.0984375,4.20182292 98.0984375,5.38671875 L98.0984375,19.7148438 C98.0984375,21.7747396 99.1557292,23.5703125 101.270312,25.1015625 C103.056771,26.3958333 104.688281,27.0429688 106.164844,27.0429688 L116.282031,27.0429688 C117.011198,27.0429688 117.621875,27.4257812 118.114062,28.1914062 C118.551563,28.8658854 118.770312,29.5677083 118.770312,30.296875 Z" id="Path"></path>
            <path d="M128.336979,17.1992188 C128.336979,17.6002604 128.346094,18.3111979 128.364323,19.3320312 C128.382552,20.3528646 128.391667,20.9635417 128.391667,21.1640625 C128.391667,23.3151042 128.31875,25.0833333 128.172917,26.46875 C127.972396,28.4375 127.607812,29.9869792 127.079167,31.1171875 C126.459375,32.4479167 125.620833,33.1132812 124.563542,33.1132812 C123.907292,33.1132812 123.333073,32.9947917 122.840885,32.7578125 C122.221094,32.375 121.692448,32.0559896 121.254948,31.8007812 L121.254948,2.3515625 C121.43724,2.27864583 121.965885,2.00520833 122.840885,1.53125 C123.40599,1.22135417 123.980208,1.06640625 124.563542,1.06640625 C125.620833,1.06640625 126.459375,1.79557292 127.079167,3.25390625 C127.571354,4.40234375 127.926823,6.07942708 128.145573,8.28515625 C128.309635,9.92578125 128.391667,11.7395833 128.391667,13.7265625 C128.391667,14.2916667 128.387109,14.8613281 128.377995,15.4355469 C128.36888,16.0097656 128.355208,16.5976562 128.336979,17.1992188 Z" id="Path"></path>
            <path d="M164.290365,15.4492188 C164.290365,16.0872396 164.313151,17.0898438 164.358724,18.4570313 C164.404297,19.8242188 164.427083,20.7083333 164.427083,21.109375 C164.427083,23.4791667 164.244792,25.4479167 163.880208,27.015625 C163.388021,29.1302083 162.540365,30.7434896 161.33724,31.8554688 C159.897135,33.1861979 157.928385,33.8515625 155.43099,33.8515625 C154.647135,33.8515625 153.667318,33.610026 152.491536,33.1269531 C151.315755,32.6438802 150.28125,32.0195312 149.388021,31.2539062 C148.768229,30.7070312 148.157552,30.1601562 147.55599,29.6132812 C147.11849,29.0846354 146.817708,28.4739583 146.653646,27.78125 C146.325521,26.8515625 145.723958,24.5911458 144.848958,21 C143.973958,17.4088542 143.253906,14.8932292 142.688802,13.453125 C141.777344,11.1015625 140.820313,9.92578125 139.817708,9.92578125 C138.851563,9.92578125 138.14974,10.7825521 137.71224,12.4960938 C137.438802,13.5716146 137.302083,14.8020833 137.302083,16.1875 L137.302083,30.84375 C137.302083,31.7552083 136.901042,32.4296875 136.098958,32.8671875 C135.479167,33.2135417 134.704427,33.3867188 133.77474,33.3867188 C132.790365,33.3867188 132.061198,33.2408854 131.58724,32.9492188 C130.949219,32.5664062 130.59375,31.9466146 130.520833,31.0898438 C130.393229,30.1419271 130.306641,29.0345052 130.261068,27.7675781 C130.215495,26.500651 130.192708,24.9648438 130.192708,23.1601562 C130.192708,22.3763021 130.197266,21.5696615 130.20638,20.7402344 C130.215495,19.9108073 130.229167,19.0677083 130.247396,18.2109375 C130.247396,17.9010417 130.20638,16.9667969 130.124349,15.4082031 C130.042318,13.8496094 130.001302,12.6966146 130.001302,11.9492188 C130.001302,9.74348958 130.183594,7.89322917 130.548177,6.3984375 C131.040365,4.41145833 131.851563,2.90755208 132.981771,1.88671875 C134.330729,0.665364583 136.199219,0.0546875 138.58724,0.0546875 C141.121094,0.0546875 143.144531,0.68359375 144.657552,1.94140625 C145.951823,3.01692708 147.063802,4.7578125 147.99349,7.1640625 C148.485677,8.421875 149.28776,11.0195312 150.39974,14.9570312 C150.764323,16.3242188 151.138021,17.6914062 151.520833,19.0585938 C151.994792,20.6080729 152.559896,21.9296875 153.216146,23.0234375 C153.325521,23.3333333 153.44401,23.6432292 153.571615,23.953125 C153.826823,24.3359375 154.282552,24.5273438 154.938802,24.5273438 C155.467448,24.5273438 155.845703,24.358724 156.073568,24.0214844 C156.301432,23.6842448 156.52474,23.3515625 156.74349,23.0234375 L156.74349,4.1015625 C156.74349,3.15364583 157.208333,2.22395833 158.138021,1.3125 C158.994792,0.473958333 159.778646,0.0546875 160.489583,0.0546875 C161.546875,0.0546875 162.394531,0.729166667 163.032552,2.078125 C163.542969,3.15364583 163.907552,4.703125 164.126302,6.7265625 C164.290365,8.203125 164.372396,9.8984375 164.372396,11.8125 C164.372396,12.7604167 164.363281,13.4986979 164.345052,14.0273438 C164.326823,14.5559896 164.308594,15.0299479 164.290365,15.4492188 Z" id="Path"></path>
            <path d="M234.884635,33.1132812 C234.665885,33.2955729 234.378776,33.4322917 234.023307,33.5234375 C233.667839,33.6145833 233.316927,33.6601562 232.970573,33.6601562 C232.38724,33.6601562 231.73099,33.5690104 231.001823,33.3867188 C230.764844,33.3320312 230.454948,33.2408854 230.072135,33.1132812 C228.796094,31.2356771 227.747917,28.6927083 226.927604,25.484375 C225.560417,20.1979167 224.858594,17.5 224.822135,17.390625 C223.801302,14.3463542 222.352083,11.8580729 220.474479,9.92578125 C220.109896,9.92578125 219.763542,10.0625 219.435417,10.3359375 C218.979688,10.71875 218.751823,11.2473958 218.751823,11.921875 L218.751823,26.7695312 C218.751823,29.1210938 217.630729,30.9166667 215.388542,32.15625 C213.675,33.1041667 211.842969,33.578125 209.892448,33.578125 C206.939323,33.578125 204.633333,32.5299479 202.974479,30.4335938 C201.789583,28.9388021 200.759635,26.5963542 199.884635,23.40625 C198.69974,19.0677083 198.007031,16.6614583 197.80651,16.1875 C197.80651,15.5130208 197.441927,14.4101562 196.71276,12.8789062 C195.764844,10.9101562 194.707552,9.92578125 193.540885,9.92578125 C192.921094,9.92578125 192.433464,10.171875 192.077995,10.6640625 C191.722526,11.15625 191.544792,11.7486979 191.544792,12.4414062 L191.544792,31.5820312 C191.253125,32.3294271 190.815625,32.8398438 190.232292,33.1132812 C189.849479,33.2955729 189.384635,33.3867188 188.83776,33.3867188 L188.509635,33.3867188 L187.607292,33.3867188 C186.76875,33.3867188 186.199089,33.281901 185.898307,33.0722656 C185.597526,32.8626302 185.365104,32.5299479 185.201042,32.0742188 C184.927604,31.1992188 184.740755,30.1783854 184.640495,29.0117188 C184.540234,27.8450521 184.490104,26.5416667 184.490104,25.1015625 C184.490104,23.953125 184.512891,22.8776042 184.558464,21.875 C184.604036,20.8723958 184.654167,19.8151042 184.708854,18.703125 C184.708854,18.15625 184.68151,17.4179688 184.626823,16.4882812 C184.499219,14.3007812 184.435417,12.796875 184.435417,11.9765625 C184.435417,9.69791667 184.608594,7.82942708 184.954948,6.37109375 C185.428906,4.40234375 186.221875,2.90755208 187.333854,1.88671875 C188.664583,0.665364583 190.478385,0.0546875 192.77526,0.0546875 C197.077344,0.0546875 200.23099,2.16927083 202.236198,6.3984375 C203.020052,8.05729167 204.077344,11.9765625 205.408073,18.15625 C206.319531,22.4036458 207.577344,24.5273438 209.18151,24.5273438 C209.746615,24.5273438 210.147656,24.422526 210.384635,24.2128906 C210.621615,24.0032552 210.885938,23.6067708 211.177604,23.0234375 L211.177604,7.90234375 C211.177604,5.89713542 212.048047,4.08789062 213.788932,2.47460938 C215.529818,0.861328125 217.430208,0.0546875 219.490104,0.0546875 C219.690625,0.0546875 219.886589,0.0546875 220.077995,0.0546875 C220.269401,0.0546875 220.45625,0.0455729167 220.638542,0.02734375 C221.786979,0.02734375 222.725781,0.227864583 223.454948,0.62890625 C224.475781,1.19401042 225.669792,2.3515625 227.036979,4.1015625 C227.583854,4.79427083 228.513542,6.95898438 229.826042,10.5957031 C231.138542,14.2324219 232.277865,17.6822917 233.24401,20.9453125 C234.33776,24.609375 234.884635,26.8151042 234.884635,27.5625 C235.048698,28 235.167188,28.3645833 235.240104,28.65625 C235.495313,29.5677083 235.622917,30.3515625 235.622917,31.0078125 C235.622917,31.4453125 235.563672,31.8463542 235.445182,32.2109375 C235.326693,32.5755208 235.139844,32.8763021 234.884635,33.1132812 Z" id="Path"></path>
            <path d="M269.170052,17.1992188 C269.170052,21.6653646 268.468229,25.1380208 267.064583,27.6171875 C265.770312,29.8958333 263.765104,31.5 261.048958,32.4296875 C258.733854,33.2135417 255.561979,33.6054688 251.533333,33.6054688 C251.278125,33.6054688 250.790495,33.6145833 250.070443,33.6328125 C249.350391,33.6510417 248.780729,33.6601562 248.361458,33.6601562 C245.845833,33.6601562 243.95,33.500651 242.673958,33.1816406 C241.397917,32.8626302 240.395312,32.4023438 239.666146,31.8007812 C238.48125,30.8893229 237.159635,28.8203125 235.701302,25.59375 C234.170052,22.2213542 233.404427,19.5143229 233.404427,17.4726562 C233.404427,11.3111979 234.935677,6.8359375 237.998177,4.046875 C240.914844,1.38541667 245.426562,0.0546875 251.533333,0.0546875 C257.548958,0.0546875 262.024219,1.55859375 264.959115,4.56640625 C267.766406,7.44661458 269.170052,11.6575521 269.170052,17.1992188 Z M261.623177,16.9804688 C261.623177,13.5716146 260.784635,11.0742188 259.107552,9.48828125 C257.430469,7.90234375 254.814583,7.109375 251.259896,7.109375 C247.723437,7.109375 245.244271,7.75651042 243.822396,9.05078125 C242.254687,10.4726562 241.470833,13.0247396 241.470833,16.7070312 C241.470833,20.0429688 242.09974,22.53125 243.357552,24.171875 C244.94349,26.25 247.66875,27.2890625 251.533333,27.2890625 C254.632292,27.2890625 257.038542,26.5143229 258.752083,24.9648438 C260.666146,23.2330729 261.623177,20.5716146 261.623177,16.9804688 Z" id="Shape"></path>
            <path d="M299.107813,3.8828125 C299.107813,5.32291667 298.333073,8.35807292 296.783594,12.9882812 C295.598698,16.5247396 294.113021,20.5716146 292.326563,25.1289062 C290.777083,29.0664062 289.847396,31.2903646 289.5375,31.8007812 C288.844792,32.9309896 287.805729,33.6875 286.420313,34.0703125 C285.636458,34.2890625 284.661198,34.3984375 283.494531,34.3984375 C282.236719,34.3984375 280.851302,34.0794271 279.338281,33.4414062 C277.515365,32.6757812 276.376042,31.71875 275.920313,30.5703125 C274.899479,28.0364583 273.659896,24.6458333 272.201563,20.3984375 C270.907292,16.625 269.73151,13.047526 268.674219,9.66601562 C267.616927,6.28450521 267.088281,4.35677083 267.088281,3.8828125 C267.088281,2.97135417 267.507552,2.16927083 268.346094,1.4765625 C269.07526,0.875 269.758854,0.57421875 270.396875,0.57421875 C271.126042,0.57421875 271.928125,0.838541667 272.803125,1.3671875 C273.678125,1.89583333 274.307031,2.47005208 274.689844,3.08984375 C275.090885,3.94661458 275.897526,6.44401042 277.109766,10.5820312 C278.322005,14.7200521 279.310938,17.7096354 280.076563,19.5507812 C281.297917,22.5403646 282.43724,24.0351562 283.494531,24.0351562 C284.442448,24.0351562 285.6,22.0117188 286.967188,17.9648438 C288.225,14.2096354 289.491927,10.4453125 290.767969,6.671875 C292.408594,2.60677083 294.01276,0.57421875 295.580469,0.57421875 C296.911198,0.57421875 297.877344,0.993489583 298.478906,1.83203125 C298.898177,2.41536458 299.107813,3.09895833 299.107813,3.8828125 Z" id="Path"></path>
            <path d="M328.416667,30.078125 C328.416667,31.4817708 327.414063,32.4752604 325.408854,33.0585938 C324.041667,33.4596354 322.191406,33.6601562 319.858073,33.6601562 C319.402344,33.6601562 318.882813,33.6510417 318.299479,33.6328125 C317.716146,33.6145833 317.388021,33.6054688 317.315104,33.6054688 C312.046875,33.6054688 308.4375,33.2591146 306.486979,32.5664062 C304.28125,31.7825521 302.85026,30.2148438 302.19401,27.8632812 C301.683594,26.0221354 301.428385,22.4674479 301.428385,17.1992188 C301.428385,11.8945312 301.674479,8.33984375 302.166667,6.53515625 C302.822917,4.14713542 304.217448,2.55664062 306.35026,1.76367188 C308.483073,0.970703125 312.138021,0.57421875 317.315104,0.57421875 C317.533854,0.57421875 317.994141,0.565104167 318.695964,0.546875 C319.397786,0.528645833 319.967448,0.51953125 320.404948,0.51953125 C323.41276,0.51953125 325.554688,0.865885417 326.830729,1.55859375 C327.888021,2.14192708 328.416667,2.98958333 328.416667,4.1015625 C328.416667,4.94010417 328.34375,5.51432292 328.197917,5.82421875 C327.979167,6.31640625 327.450521,6.74479167 326.611979,7.109375 L312.502604,7.109375 C311.901042,7.109375 311.249349,7.53320312 310.547526,8.38085938 C309.845703,9.22851562 309.494792,9.98046875 309.494792,10.6367188 C309.494792,11.3476562 309.736328,12.03125 310.219401,12.6875 C310.702474,13.34375 311.299479,13.671875 312.010417,13.671875 L326.119792,13.671875 C327.067708,14.0546875 327.714844,14.5559896 328.061198,15.1757812 C328.298177,15.5950521 328.416667,16.1236979 328.416667,16.7617188 L328.416667,17.1992188 C328.416667,18.1106771 328.020182,18.9264323 327.227214,19.6464844 C326.434245,20.3665365 325.481771,20.7265625 324.369792,20.7265625 L312.010417,20.7265625 C311.263021,20.7265625 310.670573,21.0182292 310.233073,21.6015625 C309.740885,22.2578125 309.494792,22.9778646 309.494792,23.7617188 C309.494792,24.5455729 309.809245,25.2884115 310.438151,25.9902344 C311.067057,26.6920573 311.755208,27.0429688 312.502604,27.0429688 L326.611979,27.0429688 C327.432292,27.4440104 327.960938,27.8997396 328.197917,28.4101562 C328.34375,28.7200521 328.416667,29.2760417 328.416667,30.078125 Z" id="Path"></path>
            <path d="M361.034115,23.7617188 C361.034115,26.5872396 360.48724,28.7838542 359.39349,30.3515625 C358.482031,31.6640625 357.105729,32.5846354 355.264583,33.1132812 C353.860937,33.5143229 352.065365,33.7148438 349.877865,33.7148438 C349.130469,33.7148438 348.301042,33.7011719 347.389583,33.6738281 C346.478125,33.6464844 345.739844,33.6236979 345.17474,33.6054688 C344.974219,33.6054688 344.513932,33.6145833 343.79388,33.6328125 C343.073828,33.6510417 342.476823,33.6601562 342.002865,33.6601562 C339.03151,33.6601562 336.926042,33.3411458 335.686458,32.703125 C334.629167,32.15625 334.100521,31.3541667 334.100521,30.296875 C334.100521,29.4765625 334.164323,28.9205729 334.291927,28.6289062 C334.510677,28.1002604 335.021094,27.6536458 335.823177,27.2890625 L349.932552,27.2890625 C350.588802,27.2890625 351.340755,26.9016927 352.188411,26.1269531 C353.036068,25.3522135 353.459896,24.6549479 353.459896,24.0351562 C353.459896,21.8841146 351.591406,20.6992188 347.854427,20.4804688 C341.984635,20.1523438 338.511979,19.796875 337.436458,19.4140625 C333.68125,18.0833333 331.803646,14.9934896 331.803646,10.1445312 C331.803646,7.19140625 332.715104,4.90364583 334.538021,3.28125 C336.032812,1.95052083 338.15651,1.0390625 340.909115,0.546875 C342.75026,0.21875 345.183854,0.0546875 348.209896,0.0546875 C348.428646,0.0546875 348.843359,0.0455729167 349.454036,0.02734375 C350.064714,0.00911458333 350.479427,0 350.698177,0 C353.04974,0 354.945573,0.200520833 356.385677,0.6015625 C358.463802,1.18489583 359.502865,2.17838542 359.502865,3.58203125 C359.502865,4.74869792 359.065365,5.65104167 358.190365,6.2890625 C357.442969,6.8359375 356.540625,7.109375 355.483333,7.109375 L343.670833,7.109375 C343.032812,7.109375 342.367448,7.45572917 341.67474,8.1484375 C340.982031,8.84114583 340.635677,9.50651042 340.635677,10.1445312 C340.635677,11.6757812 341.228125,12.7239583 342.413021,13.2890625 C343.30625,13.7083333 344.755469,13.9179688 346.760677,13.9179688 C347.107031,13.9179688 347.658464,13.9088542 348.414974,13.890625 C349.171484,13.8723958 349.741146,13.8632812 350.123958,13.8632812 C352.366146,13.8632812 354.097917,14.0273438 355.319271,14.3554688 C357.105729,14.8476562 358.463802,15.75 359.39349,17.0625 C360.48724,18.6302083 361.034115,20.8632812 361.034115,23.7617188 Z" id="Path"></path>
        </g>
    </g>
</svg>