<?xml version="1.0" encoding="UTF-8"?>
<svg width="197px" height="61px" viewBox="0 0 197 61" version="1.1" xmlns="http://www.w3.org/2000/svg" xmlns:xlink="http://www.w3.org/1999/xlink">
    <title>Group</title>
    <g id="Page-1" stroke="none" stroke-width="1" fill="none" fill-rule="evenodd">
        <g id="BKM_2017_DTP_Grau_de" transform="translate(-23.000000, -21.000000)">
            <g id="Group" transform="translate(23.073000, 21.044000)">
                <path d="M40.367,8.956 L40.367,0.745 L41.914,0.745 C42.581,0.745 43.162,0.816 43.657,0.959 C44.153,1.102 44.566,1.328 44.895,1.638 C45.224,1.947 45.468,2.349 45.627,2.845 C45.786,3.341 45.865,3.942 45.865,4.648 C45.865,5.402 45.77,6.05 45.579,6.594 C45.389,7.137 45.119,7.584 44.77,7.933 C44.421,8.282 43.995,8.54 43.491,8.706 C42.987,8.873 42.422,8.956 41.795,8.956 L40.367,8.956 Z M41.402,1.566 L41.402,8.099 L41.795,8.099 C42.271,8.099 42.692,8.038 43.057,7.915 C43.421,7.792 43.731,7.593 43.985,7.32 C44.239,7.046 44.431,6.689 44.562,6.249 C44.693,5.808 44.758,5.275 44.758,4.648 C44.758,4.069 44.695,3.583 44.568,3.19 C44.441,2.798 44.256,2.48 44.015,2.238 C43.772,1.996 43.475,1.824 43.122,1.721 C42.769,1.618 42.366,1.566 41.914,1.566 L41.402,1.566 Z M47.162,8.956 L48.126,8.956 L48.126,3.244 L47.162,3.244 L47.162,8.956 Z M47.65,1.864 C47.452,1.864 47.293,1.8 47.174,1.673 C47.055,1.546 46.995,1.38 46.995,1.173 C46.995,0.975 47.055,0.812 47.174,0.685 C47.293,0.559 47.452,0.495 47.65,0.495 C47.84,0.495 47.995,0.559 48.114,0.685 C48.233,0.812 48.293,0.975 48.293,1.173 C48.293,1.38 48.233,1.546 48.114,1.673 C47.995,1.8 47.84,1.864 47.65,1.864 Z M53.267,5.172 C53.267,5.418 53.259,5.63 53.243,5.808 C53.227,5.987 53.211,6.144 53.195,6.279 L50.28,6.279 C50.312,6.953 50.456,7.449 50.714,7.766 C50.972,8.083 51.343,8.242 51.827,8.242 C51.993,8.242 52.144,8.222 52.279,8.183 C52.414,8.143 52.531,8.095 52.63,8.04 C52.729,7.984 52.813,7.929 52.88,7.873 C52.947,7.818 52.997,7.774 53.029,7.742 L53.386,8.421 C53.346,8.46 53.286,8.518 53.207,8.593 C53.128,8.668 53.021,8.744 52.886,8.819 C52.751,8.894 52.584,8.96 52.386,9.016 C52.188,9.071 51.954,9.099 51.684,9.099 C51.327,9.099 51.004,9.039 50.714,8.92 C50.425,8.801 50.179,8.617 49.976,8.367 C49.774,8.117 49.617,7.8 49.506,7.415 C49.395,7.03 49.34,6.568 49.34,6.029 C49.34,5.521 49.397,5.083 49.512,4.714 C49.627,4.345 49.784,4.041 49.982,3.803 C50.181,3.565 50.411,3.389 50.672,3.274 C50.934,3.159 51.216,3.101 51.517,3.101 C52.065,3.101 52.493,3.274 52.803,3.619 C53.112,3.964 53.267,4.482 53.267,5.172 Z M51.458,3.887 C51.117,3.887 50.843,4.029 50.637,4.315 C50.431,4.601 50.312,5.013 50.28,5.553 L52.362,5.553 C52.37,5.513 52.376,5.455 52.38,5.38 C52.384,5.305 52.386,5.223 52.386,5.136 C52.386,4.739 52.307,4.432 52.148,4.214 C51.989,3.996 51.759,3.887 51.458,3.887 Z M61.585,2.839 C61.585,3.125 61.549,3.375 61.478,3.589 C61.406,3.803 61.309,3.988 61.186,4.142 C61.063,4.297 60.92,4.422 60.758,4.517 C60.595,4.612 60.426,4.684 60.252,4.731 L60.252,4.755 C60.466,4.795 60.667,4.87 60.853,4.981 C61.039,5.092 61.202,5.231 61.341,5.398 C61.48,5.565 61.591,5.761 61.674,5.987 C61.757,6.213 61.799,6.461 61.799,6.731 C61.799,7.056 61.743,7.353 61.632,7.623 C61.521,7.893 61.349,8.127 61.115,8.325 C60.881,8.524 60.585,8.678 60.228,8.789 C59.871,8.901 59.447,8.956 58.955,8.956 L57.277,8.956 L57.277,0.745 L58.86,0.745 C59.344,0.745 59.758,0.795 60.103,0.894 C60.448,0.993 60.732,1.134 60.954,1.316 C61.176,1.499 61.337,1.719 61.436,1.977 C61.535,2.235 61.585,2.522 61.585,2.839 Z M60.538,2.875 C60.538,2.494 60.403,2.181 60.133,1.935 C59.863,1.689 59.439,1.566 58.86,1.566 L58.312,1.566 L58.312,4.398 L58.848,4.398 C59.403,4.398 59.824,4.263 60.109,3.994 C60.395,3.724 60.538,3.351 60.538,2.875 Z M60.692,6.659 C60.692,6.215 60.547,5.864 60.258,5.606 C59.968,5.348 59.554,5.219 59.014,5.219 L58.312,5.219 L58.312,8.099 L58.955,8.099 C59.566,8.099 60.008,7.978 60.282,7.736 C60.556,7.494 60.692,7.135 60.692,6.659 Z M66.738,5.172 C66.738,5.418 66.73,5.63 66.714,5.808 C66.698,5.987 66.682,6.144 66.666,6.279 L63.751,6.279 C63.782,6.953 63.927,7.449 64.185,7.766 C64.443,8.083 64.814,8.242 65.298,8.242 C65.464,8.242 65.615,8.222 65.75,8.183 C65.885,8.143 66.002,8.095 66.101,8.04 C66.2,7.984 66.283,7.929 66.351,7.873 C66.418,7.818 66.468,7.774 66.5,7.742 L66.856,8.421 C66.817,8.46 66.757,8.518 66.678,8.593 C66.599,8.668 66.492,8.744 66.357,8.819 C66.222,8.894 66.055,8.96 65.857,9.016 C65.659,9.071 65.424,9.099 65.155,9.099 C64.798,9.099 64.475,9.039 64.185,8.92 C63.895,8.801 63.65,8.617 63.447,8.367 C63.245,8.117 63.088,7.8 62.977,7.415 C62.866,7.03 62.81,6.568 62.81,6.029 C62.81,5.521 62.868,5.083 62.983,4.714 C63.098,4.345 63.255,4.041 63.453,3.803 C63.651,3.565 63.881,3.389 64.143,3.274 C64.405,3.159 64.687,3.101 64.988,3.101 C65.536,3.101 65.964,3.274 66.273,3.619 C66.583,3.964 66.738,4.482 66.738,5.172 Z M64.929,3.887 C64.588,3.887 64.314,4.029 64.108,4.315 C63.901,4.601 63.782,5.013 63.751,5.553 L65.833,5.553 C65.841,5.513 65.847,5.455 65.851,5.38 C65.855,5.305 65.857,5.223 65.857,5.136 C65.857,4.739 65.778,4.432 65.619,4.214 C65.46,3.996 65.23,3.887 64.929,3.887 Z M67.689,7.504 C67.689,7.171 67.753,6.893 67.88,6.671 C68.007,6.449 68.177,6.269 68.392,6.13 C68.606,5.991 68.858,5.892 69.147,5.832 C69.437,5.773 69.744,5.743 70.07,5.743 L70.367,5.743 L70.367,5.196 C70.367,4.712 70.282,4.379 70.111,4.196 C69.941,4.014 69.701,3.922 69.391,3.922 C69.106,3.922 68.868,3.984 68.677,4.107 C68.487,4.23 68.336,4.339 68.225,4.434 L67.82,3.791 C67.884,3.728 67.965,3.657 68.064,3.577 C68.164,3.498 68.284,3.422 68.427,3.351 C68.57,3.28 68.733,3.22 68.915,3.173 C69.098,3.125 69.304,3.101 69.534,3.101 C70.121,3.101 70.565,3.264 70.867,3.589 C71.168,3.914 71.319,4.438 71.319,5.16 L71.319,7.766 C71.319,8.012 71.327,8.252 71.343,8.486 C71.359,8.72 71.375,8.877 71.39,8.956 L70.474,8.956 L70.438,8.325 L70.415,8.325 C70.383,8.397 70.335,8.478 70.272,8.569 C70.208,8.66 70.129,8.744 70.034,8.819 C69.939,8.894 69.824,8.96 69.689,9.016 C69.554,9.071 69.395,9.099 69.213,9.099 C68.999,9.099 68.798,9.059 68.612,8.98 C68.425,8.901 68.263,8.789 68.124,8.647 C67.985,8.504 67.878,8.335 67.803,8.141 C67.727,7.947 67.689,7.734 67.689,7.504 Z M69.415,8.278 C69.55,8.278 69.669,8.258 69.772,8.218 C69.875,8.179 69.964,8.131 70.04,8.075 C70.115,8.02 70.179,7.958 70.23,7.891 C70.282,7.824 70.327,7.766 70.367,7.718 L70.367,6.457 L70.058,6.469 C69.598,6.485 69.248,6.564 69.01,6.707 C68.772,6.85 68.653,7.08 68.653,7.397 C68.653,7.691 68.721,7.911 68.856,8.058 C68.991,8.204 69.177,8.278 69.415,8.278 Z M76.769,8.956 L75.889,8.956 L75.889,8.313 L75.865,8.313 C75.841,8.361 75.789,8.43 75.71,8.522 C75.631,8.613 75.53,8.7 75.407,8.783 C75.284,8.867 75.135,8.94 74.96,9.004 C74.786,9.067 74.592,9.099 74.377,9.099 C74.123,9.099 73.895,9.061 73.693,8.986 C73.491,8.91 73.318,8.789 73.175,8.623 C73.033,8.456 72.923,8.24 72.848,7.974 C72.773,7.709 72.735,7.381 72.735,6.992 L72.735,3.244 L73.699,3.244 L73.699,6.921 C73.699,7.397 73.776,7.736 73.931,7.939 C74.086,8.141 74.326,8.242 74.651,8.242 C74.929,8.242 75.163,8.173 75.353,8.034 C75.544,7.895 75.694,7.758 75.805,7.623 L75.805,3.244 L76.769,3.244 L76.769,8.956 Z M80.649,4.029 L79.482,4.029 L79.482,8.956 L78.519,8.956 L78.519,4.029 L77.828,4.029 L77.828,3.387 L78.519,3.256 L78.519,2.114 C78.519,1.804 78.562,1.538 78.649,1.316 C78.737,1.094 78.852,0.912 78.994,0.769 C79.137,0.626 79.304,0.523 79.494,0.459 C79.685,0.396 79.887,0.364 80.101,0.364 C80.308,0.364 80.482,0.392 80.625,0.448 C80.768,0.503 80.863,0.547 80.91,0.578 L80.708,1.376 C80.661,1.344 80.593,1.31 80.506,1.274 C80.419,1.239 80.311,1.221 80.184,1.221 C79.954,1.221 79.78,1.292 79.661,1.435 C79.542,1.578 79.482,1.84 79.482,2.221 L79.482,3.244 L80.768,3.244 L80.649,4.029 Z M84.04,4.029 L82.791,4.029 L82.791,7.195 C82.791,7.599 82.842,7.875 82.945,8.022 C83.048,8.169 83.223,8.242 83.469,8.242 C83.612,8.242 83.735,8.222 83.838,8.183 C83.941,8.143 84.016,8.107 84.064,8.075 L84.195,8.849 C84.155,8.881 84.06,8.93 83.909,8.998 C83.758,9.065 83.556,9.099 83.302,9.099 C82.81,9.099 82.442,8.962 82.196,8.688 C81.95,8.415 81.827,7.96 81.827,7.326 L81.827,4.029 L81.137,4.029 L81.137,3.387 L81.827,3.244 L81.934,1.649 L82.791,1.649 L82.791,3.244 L84.159,3.244 L84.04,4.029 Z M87.646,4.089 C87.622,4.073 87.57,4.053 87.491,4.029 C87.412,4.006 87.305,3.994 87.17,3.994 C86.868,3.994 86.632,4.075 86.462,4.238 C86.291,4.4 86.17,4.577 86.099,4.767 L86.099,8.956 L85.135,8.956 L85.135,3.244 L86.016,3.244 L86.016,4.018 L86.039,4.018 C86.079,3.906 86.13,3.797 86.194,3.69 C86.258,3.583 86.337,3.488 86.432,3.405 C86.527,3.321 86.64,3.256 86.771,3.208 C86.902,3.161 87.059,3.137 87.241,3.137 C87.376,3.137 87.485,3.149 87.569,3.173 C87.652,3.196 87.717,3.216 87.765,3.232 L87.646,4.089 Z M88.205,7.504 C88.205,7.171 88.269,6.893 88.395,6.671 C88.522,6.449 88.693,6.269 88.907,6.13 C89.121,5.991 89.373,5.892 89.663,5.832 C89.952,5.773 90.26,5.743 90.585,5.743 L90.883,5.743 L90.883,5.196 C90.883,4.712 90.797,4.379 90.627,4.196 C90.456,4.014 90.216,3.922 89.907,3.922 C89.621,3.922 89.383,3.984 89.193,4.107 C89.002,4.23 88.852,4.339 88.741,4.434 L88.336,3.791 C88.4,3.728 88.481,3.657 88.58,3.577 C88.679,3.498 88.8,3.422 88.943,3.351 C89.086,3.28 89.248,3.22 89.431,3.173 C89.613,3.125 89.82,3.101 90.05,3.101 C90.637,3.101 91.081,3.264 91.382,3.589 C91.684,3.914 91.835,4.438 91.835,5.16 L91.835,7.766 C91.835,8.012 91.842,8.252 91.858,8.486 C91.874,8.72 91.89,8.877 91.906,8.956 L90.99,8.956 L90.954,8.325 L90.93,8.325 C90.899,8.397 90.851,8.478 90.787,8.569 C90.724,8.66 90.645,8.744 90.549,8.819 C90.454,8.894 90.339,8.96 90.204,9.016 C90.069,9.071 89.911,9.099 89.728,9.099 C89.514,9.099 89.314,9.059 89.127,8.98 C88.941,8.901 88.778,8.789 88.64,8.647 C88.501,8.504 88.393,8.335 88.318,8.141 C88.243,7.947 88.205,7.734 88.205,7.504 Z M89.931,8.278 C90.065,8.278 90.184,8.258 90.288,8.218 C90.391,8.179 90.48,8.131 90.555,8.075 C90.631,8.02 90.694,7.958 90.746,7.891 C90.797,7.824 90.843,7.766 90.883,7.718 L90.883,6.457 L90.573,6.469 C90.113,6.485 89.764,6.564 89.526,6.707 C89.288,6.85 89.169,7.08 89.169,7.397 C89.169,7.691 89.236,7.911 89.371,8.058 C89.506,8.204 89.693,8.278 89.931,8.278 Z M97.38,3.994 L96.666,3.994 C96.849,4.295 96.94,4.636 96.94,5.017 C96.94,5.319 96.89,5.59 96.791,5.832 C96.692,6.074 96.553,6.279 96.375,6.445 C96.196,6.612 95.986,6.739 95.744,6.826 C95.502,6.913 95.242,6.957 94.964,6.957 C94.909,6.957 94.857,6.957 94.81,6.957 C94.762,6.957 94.71,6.953 94.655,6.945 C94.56,6.985 94.461,7.048 94.357,7.135 C94.254,7.223 94.203,7.338 94.203,7.48 C94.203,7.599 94.248,7.697 94.34,7.772 C94.431,7.847 94.579,7.885 94.786,7.885 L95.512,7.885 C95.781,7.885 96.031,7.913 96.261,7.968 C96.491,8.024 96.692,8.113 96.862,8.236 C97.033,8.359 97.166,8.516 97.261,8.706 C97.356,8.896 97.404,9.127 97.404,9.396 C97.404,9.706 97.338,9.987 97.208,10.241 C97.077,10.495 96.892,10.713 96.654,10.896 C96.416,11.078 96.127,11.221 95.785,11.324 C95.444,11.427 95.063,11.479 94.643,11.479 C94.032,11.479 93.568,11.346 93.251,11.08 C92.933,10.814 92.775,10.432 92.775,9.932 C92.775,9.718 92.812,9.533 92.888,9.379 C92.963,9.224 93.052,9.089 93.156,8.974 C93.259,8.859 93.364,8.768 93.471,8.7 C93.578,8.633 93.663,8.579 93.727,8.54 L93.727,8.516 C93.481,8.333 93.358,8.068 93.358,7.718 C93.358,7.568 93.388,7.437 93.447,7.326 C93.507,7.215 93.574,7.123 93.649,7.052 C93.725,6.981 93.8,6.923 93.876,6.879 C93.951,6.836 94.008,6.806 94.048,6.79 L94.048,6.766 C93.754,6.631 93.518,6.419 93.34,6.13 C93.162,5.84 93.072,5.469 93.072,5.017 C93.072,4.7 93.124,4.42 93.227,4.178 C93.33,3.936 93.469,3.736 93.643,3.577 C93.818,3.419 94.022,3.299 94.256,3.22 C94.49,3.141 94.742,3.101 95.012,3.101 C95.282,3.101 95.535,3.149 95.774,3.244 L97.511,3.244 L97.38,3.994 Z M94.726,8.778 C94.56,8.778 94.413,8.766 94.286,8.742 C94.215,8.782 94.145,8.829 94.078,8.885 C94.01,8.94 93.949,9.008 93.893,9.087 C93.838,9.166 93.792,9.259 93.756,9.367 C93.721,9.474 93.703,9.599 93.703,9.741 C93.703,10.352 94.04,10.658 94.714,10.658 C95.294,10.658 95.722,10.545 96,10.319 C96.277,10.093 96.416,9.833 96.416,9.539 C96.416,9.261 96.329,9.065 96.154,8.95 C95.98,8.835 95.746,8.778 95.452,8.778 L94.726,8.778 Z M96,5.017 C96,4.605 95.902,4.311 95.708,4.136 C95.514,3.962 95.286,3.875 95.024,3.875 C94.746,3.875 94.508,3.962 94.31,4.136 C94.112,4.311 94.012,4.605 94.012,5.017 C94.012,5.43 94.112,5.723 94.31,5.898 C94.508,6.072 94.738,6.159 95,6.159 C95.278,6.159 95.514,6.072 95.708,5.898 C95.902,5.723 96,5.43 96,5.017 Z M100.914,4.029 L99.665,4.029 L99.665,7.195 C99.665,7.599 99.716,7.875 99.82,8.022 C99.923,8.169 100.097,8.242 100.343,8.242 C100.486,8.242 100.609,8.222 100.712,8.183 C100.815,8.143 100.891,8.107 100.938,8.075 L101.069,8.849 C101.029,8.881 100.934,8.93 100.783,8.998 C100.633,9.065 100.43,9.099 100.176,9.099 C99.685,9.099 99.316,8.962 99.07,8.688 C98.824,8.415 98.701,7.96 98.701,7.326 L98.701,4.029 L98.011,4.029 L98.011,3.387 L98.701,3.244 L98.808,1.649 L99.665,1.649 L99.665,3.244 L101.033,3.244 L100.914,4.029 Z M105.591,5.172 C105.591,5.418 105.583,5.63 105.567,5.808 C105.551,5.987 105.536,6.144 105.52,6.279 L102.604,6.279 C102.636,6.953 102.781,7.449 103.039,7.766 C103.296,8.083 103.667,8.242 104.151,8.242 C104.318,8.242 104.468,8.222 104.603,8.183 C104.738,8.143 104.855,8.095 104.954,8.04 C105.053,7.984 105.137,7.929 105.204,7.873 C105.272,7.818 105.321,7.774 105.353,7.742 L105.71,8.421 C105.67,8.46 105.611,8.518 105.532,8.593 C105.452,8.668 105.345,8.744 105.21,8.819 C105.075,8.894 104.909,8.96 104.71,9.016 C104.512,9.071 104.278,9.099 104.008,9.099 C103.651,9.099 103.328,9.039 103.039,8.92 C102.749,8.801 102.503,8.617 102.301,8.367 C102.098,8.117 101.942,7.8 101.831,7.415 C101.72,7.03 101.664,6.568 101.664,6.029 C101.664,5.521 101.722,5.083 101.837,4.714 C101.952,4.345 102.108,4.041 102.307,3.803 C102.505,3.565 102.735,3.389 102.997,3.274 C103.259,3.159 103.54,3.101 103.842,3.101 C104.389,3.101 104.818,3.274 105.127,3.619 C105.436,3.964 105.591,4.482 105.591,5.172 Z M103.782,3.887 C103.441,3.887 103.167,4.029 102.961,4.315 C102.755,4.601 102.636,5.013 102.604,5.553 L104.687,5.553 C104.695,5.513 104.701,5.455 104.704,5.38 C104.708,5.305 104.71,5.223 104.71,5.136 C104.71,4.739 104.631,4.432 104.472,4.214 C104.314,3.996 104.084,3.887 103.782,3.887 Z M109.137,6.183 C109.137,5.604 109.213,5.12 109.363,4.731 C109.514,4.343 109.708,4.029 109.946,3.791 C110.184,3.553 110.454,3.385 110.756,3.286 C111.057,3.186 111.359,3.137 111.66,3.137 C111.842,3.137 112.001,3.151 112.136,3.179 C112.271,3.206 112.382,3.24 112.469,3.28 L112.469,0.543 L113.433,0.436 L113.433,8.956 L112.553,8.956 L112.553,8.349 L112.529,8.349 C112.505,8.397 112.461,8.462 112.398,8.545 C112.334,8.629 112.247,8.712 112.136,8.795 C112.025,8.879 111.886,8.95 111.719,9.01 C111.553,9.069 111.359,9.099 111.136,9.099 C110.867,9.099 110.611,9.045 110.369,8.938 C110.127,8.831 109.915,8.66 109.732,8.426 C109.55,8.192 109.405,7.891 109.298,7.522 C109.191,7.153 109.137,6.707 109.137,6.183 Z M111.398,8.242 C111.549,8.242 111.684,8.222 111.803,8.183 C111.922,8.143 112.025,8.093 112.112,8.034 C112.2,7.974 112.273,7.913 112.332,7.849 C112.392,7.786 112.438,7.73 112.469,7.683 L112.469,4.16 C112.382,4.105 112.281,4.057 112.166,4.018 C112.051,3.978 111.906,3.958 111.731,3.958 C111.509,3.958 111.301,3.996 111.107,4.071 C110.912,4.146 110.744,4.271 110.601,4.446 C110.458,4.62 110.345,4.847 110.262,5.124 C110.178,5.402 110.137,5.743 110.137,6.148 C110.137,6.544 110.17,6.875 110.238,7.141 C110.305,7.407 110.399,7.621 110.518,7.784 C110.637,7.947 110.771,8.063 110.922,8.135 C111.073,8.206 111.232,8.242 111.398,8.242 Z M118.574,5.172 C118.574,5.418 118.566,5.63 118.55,5.808 C118.534,5.987 118.518,6.144 118.503,6.279 L115.587,6.279 C115.619,6.953 115.764,7.449 116.021,7.766 C116.279,8.083 116.65,8.242 117.134,8.242 C117.301,8.242 117.451,8.222 117.586,8.183 C117.721,8.143 117.838,8.095 117.937,8.04 C118.036,7.984 118.12,7.929 118.187,7.873 C118.255,7.818 118.304,7.774 118.336,7.742 L118.693,8.421 C118.653,8.46 118.594,8.518 118.514,8.593 C118.435,8.668 118.328,8.744 118.193,8.819 C118.058,8.894 117.892,8.96 117.693,9.016 C117.495,9.071 117.261,9.099 116.991,9.099 C116.634,9.099 116.311,9.039 116.021,8.92 C115.732,8.801 115.486,8.617 115.284,8.367 C115.081,8.117 114.925,7.8 114.814,7.415 C114.702,7.03 114.647,6.568 114.647,6.029 C114.647,5.521 114.704,5.083 114.82,4.714 C114.935,4.345 115.091,4.041 115.29,3.803 C115.488,3.565 115.718,3.389 115.98,3.274 C116.241,3.159 116.523,3.101 116.825,3.101 C117.372,3.101 117.8,3.274 118.11,3.619 C118.419,3.964 118.574,4.482 118.574,5.172 Z M116.765,3.887 C116.424,3.887 116.15,4.029 115.944,4.315 C115.738,4.601 115.619,5.013 115.587,5.553 L117.669,5.553 C117.677,5.513 117.683,5.455 117.687,5.38 C117.691,5.305 117.693,5.223 117.693,5.136 C117.693,4.739 117.614,4.432 117.455,4.214 C117.297,3.996 117.067,3.887 116.765,3.887 Z M122.37,4.089 C122.346,4.073 122.295,4.053 122.215,4.029 C122.136,4.006 122.029,3.994 121.894,3.994 C121.592,3.994 121.357,4.075 121.186,4.238 C121.015,4.4 120.894,4.577 120.823,4.767 L120.823,8.956 L119.859,8.956 L119.859,3.244 L120.74,3.244 L120.74,4.018 L120.764,4.018 C120.803,3.906 120.855,3.797 120.918,3.69 C120.982,3.583 121.061,3.488 121.156,3.405 C121.251,3.321 121.364,3.256 121.495,3.208 C121.626,3.161 121.783,3.137 121.965,3.137 C122.1,3.137 122.209,3.149 122.293,3.173 C122.376,3.196 122.441,3.216 122.489,3.232 L122.37,4.089 Z M130.081,2.839 C130.081,3.125 130.045,3.375 129.974,3.589 C129.903,3.803 129.805,3.988 129.683,4.142 C129.56,4.297 129.417,4.422 129.254,4.517 C129.092,4.612 128.923,4.684 128.748,4.731 L128.748,4.755 C128.963,4.795 129.163,4.87 129.349,4.981 C129.536,5.092 129.698,5.231 129.837,5.398 C129.976,5.565 130.087,5.761 130.171,5.987 C130.254,6.213 130.295,6.461 130.295,6.731 C130.295,7.056 130.24,7.353 130.129,7.623 C130.018,7.893 129.845,8.127 129.611,8.325 C129.377,8.524 129.082,8.678 128.725,8.789 C128.368,8.901 127.943,8.956 127.451,8.956 L125.773,8.956 L125.773,0.745 L127.356,0.745 C127.84,0.745 128.255,0.795 128.6,0.894 C128.945,0.993 129.228,1.134 129.45,1.316 C129.673,1.499 129.833,1.719 129.933,1.977 C130.032,2.235 130.081,2.522 130.081,2.839 Z M129.034,2.875 C129.034,2.494 128.899,2.181 128.629,1.935 C128.36,1.689 127.935,1.566 127.356,1.566 L126.809,1.566 L126.809,4.398 L127.344,4.398 C127.9,4.398 128.32,4.263 128.606,3.994 C128.891,3.724 129.034,3.351 129.034,2.875 Z M129.189,6.659 C129.189,6.215 129.044,5.864 128.754,5.606 C128.465,5.348 128.05,5.219 127.511,5.219 L126.809,5.219 L126.809,8.099 L127.451,8.099 C128.062,8.099 128.504,7.978 128.778,7.736 C129.052,7.494 129.189,7.135 129.189,6.659 Z M135.567,8.956 L134.687,8.956 L134.687,8.313 L134.663,8.313 C134.639,8.361 134.587,8.43 134.508,8.522 C134.429,8.613 134.327,8.7 134.205,8.783 C134.082,8.867 133.933,8.94 133.758,9.004 C133.584,9.067 133.389,9.099 133.175,9.099 C132.921,9.099 132.693,9.061 132.491,8.986 C132.289,8.91 132.116,8.789 131.973,8.623 C131.831,8.456 131.721,8.24 131.646,7.974 C131.571,7.709 131.533,7.381 131.533,6.992 L131.533,3.244 L132.497,3.244 L132.497,6.921 C132.497,7.397 132.574,7.736 132.729,7.939 C132.884,8.141 133.124,8.242 133.449,8.242 C133.727,8.242 133.961,8.173 134.151,8.034 C134.341,7.895 134.492,7.758 134.603,7.623 L134.603,3.244 L135.567,3.244 L135.567,8.956 Z M140.161,8.956 L140.161,5.279 C140.161,4.795 140.079,4.448 139.917,4.238 C139.754,4.027 139.506,3.922 139.173,3.922 C138.887,3.922 138.649,3.994 138.459,4.136 C138.268,4.279 138.118,4.418 138.007,4.553 L138.007,8.956 L137.043,8.956 L137.043,3.244 L137.923,3.244 L137.923,3.887 L137.947,3.887 C137.971,3.839 138.023,3.77 138.102,3.678 C138.181,3.587 138.284,3.5 138.411,3.417 C138.538,3.333 138.689,3.26 138.863,3.196 C139.038,3.133 139.236,3.101 139.458,3.101 C139.712,3.101 139.942,3.139 140.149,3.214 C140.355,3.29 140.529,3.411 140.672,3.577 C140.815,3.744 140.926,3.96 141.005,4.226 C141.085,4.492 141.124,4.819 141.124,5.208 L141.124,8.956 L140.161,8.956 Z M142.303,6.183 C142.303,5.604 142.378,5.12 142.529,4.731 C142.679,4.343 142.874,4.029 143.112,3.791 C143.35,3.553 143.619,3.385 143.921,3.286 C144.222,3.186 144.524,3.137 144.825,3.137 C145.008,3.137 145.166,3.151 145.301,3.179 C145.436,3.206 145.547,3.24 145.635,3.28 L145.635,0.543 L146.598,0.436 L146.598,8.956 L145.718,8.956 L145.718,8.349 L145.694,8.349 C145.67,8.397 145.627,8.462 145.563,8.545 C145.5,8.629 145.412,8.712 145.301,8.795 C145.19,8.879 145.051,8.95 144.885,9.01 C144.718,9.069 144.524,9.099 144.302,9.099 C144.032,9.099 143.776,9.045 143.534,8.938 C143.292,8.831 143.08,8.66 142.898,8.426 C142.715,8.192 142.57,7.891 142.463,7.522 C142.356,7.153 142.303,6.707 142.303,6.183 Z M144.564,8.242 C144.714,8.242 144.849,8.222 144.968,8.183 C145.087,8.143 145.19,8.093 145.277,8.034 C145.365,7.974 145.438,7.913 145.498,7.849 C145.557,7.786 145.603,7.73 145.635,7.683 L145.635,4.16 C145.547,4.105 145.446,4.057 145.331,4.018 C145.216,3.978 145.071,3.958 144.897,3.958 C144.675,3.958 144.466,3.996 144.272,4.071 C144.078,4.146 143.909,4.271 143.766,4.446 C143.623,4.62 143.51,4.847 143.427,5.124 C143.344,5.402 143.302,5.743 143.302,6.148 C143.302,6.544 143.336,6.875 143.403,7.141 C143.471,7.407 143.564,7.621 143.683,7.784 C143.802,7.947 143.937,8.063 144.088,8.135 C144.238,8.206 144.397,8.242 144.564,8.242 Z M151.739,5.172 C151.739,5.418 151.731,5.63 151.715,5.808 C151.7,5.987 151.684,6.144 151.668,6.279 L148.752,6.279 C148.784,6.953 148.929,7.449 149.187,7.766 C149.445,8.083 149.815,8.242 150.299,8.242 C150.466,8.242 150.617,8.222 150.751,8.183 C150.886,8.143 151.003,8.095 151.103,8.04 C151.202,7.984 151.285,7.929 151.353,7.873 C151.42,7.818 151.469,7.774 151.501,7.742 L151.858,8.421 C151.818,8.46 151.759,8.518 151.68,8.593 C151.6,8.668 151.493,8.744 151.358,8.819 C151.223,8.894 151.057,8.96 150.859,9.016 C150.66,9.071 150.426,9.099 150.157,9.099 C149.799,9.099 149.476,9.039 149.187,8.92 C148.897,8.801 148.651,8.617 148.449,8.367 C148.247,8.117 148.09,7.8 147.979,7.415 C147.868,7.03 147.812,6.568 147.812,6.029 C147.812,5.521 147.87,5.083 147.985,4.714 C148.1,4.345 148.256,4.041 148.455,3.803 C148.653,3.565 148.883,3.389 149.145,3.274 C149.407,3.159 149.688,3.101 149.99,3.101 C150.537,3.101 150.966,3.274 151.275,3.619 C151.585,3.964 151.739,4.482 151.739,5.172 Z M149.93,3.887 C149.589,3.887 149.316,4.029 149.109,4.315 C148.903,4.601 148.784,5.013 148.752,5.553 L150.835,5.553 C150.843,5.513 150.849,5.455 150.853,5.38 C150.857,5.305 150.859,5.223 150.859,5.136 C150.859,4.739 150.779,4.432 150.621,4.214 C150.462,3.996 150.232,3.887 149.93,3.887 Z M155.488,4.398 C155.424,4.327 155.309,4.23 155.143,4.107 C154.976,3.984 154.758,3.922 154.488,3.922 C154.234,3.922 154.04,3.982 153.905,4.101 C153.77,4.22 153.703,4.363 153.703,4.529 C153.703,4.743 153.764,4.92 153.887,5.059 C154.01,5.198 154.198,5.346 154.452,5.505 L154.809,5.719 C155.198,5.949 155.504,6.197 155.726,6.463 C155.948,6.729 156.059,7.072 156.059,7.492 C156.059,7.945 155.902,8.325 155.589,8.635 C155.275,8.944 154.825,9.099 154.238,9.099 C154.008,9.099 153.806,9.075 153.631,9.027 C153.457,8.98 153.304,8.924 153.173,8.861 C153.042,8.797 152.933,8.728 152.846,8.653 C152.759,8.577 152.687,8.508 152.632,8.444 L153.096,7.683 C153.143,7.73 153.201,7.786 153.268,7.849 C153.336,7.913 153.417,7.974 153.512,8.034 C153.607,8.093 153.715,8.143 153.834,8.183 C153.953,8.222 154.091,8.242 154.25,8.242 C154.536,8.242 154.754,8.179 154.905,8.052 C155.055,7.925 155.131,7.77 155.131,7.588 C155.131,7.453 155.113,7.336 155.077,7.236 C155.042,7.137 154.988,7.048 154.917,6.969 C154.845,6.889 154.758,6.814 154.655,6.743 C154.552,6.671 154.433,6.592 154.298,6.505 L153.941,6.279 C153.584,6.048 153.304,5.807 153.102,5.553 C152.9,5.299 152.798,4.974 152.798,4.577 C152.798,4.363 152.84,4.166 152.923,3.988 C153.007,3.809 153.124,3.655 153.274,3.524 C153.425,3.393 153.602,3.29 153.804,3.214 C154.006,3.139 154.222,3.101 154.452,3.101 C154.674,3.101 154.865,3.123 155.024,3.167 C155.182,3.21 155.319,3.266 155.434,3.333 C155.549,3.401 155.644,3.468 155.72,3.535 C155.795,3.603 155.857,3.66 155.904,3.708 L155.488,4.398 Z M159.7,4.089 C159.676,4.073 159.625,4.053 159.546,4.029 C159.466,4.006 159.359,3.994 159.224,3.994 C158.923,3.994 158.687,4.075 158.516,4.238 C158.346,4.4 158.225,4.577 158.153,4.767 L158.153,8.956 L157.189,8.956 L157.189,3.244 L158.07,3.244 L158.07,4.018 L158.094,4.018 C158.133,3.906 158.185,3.797 158.249,3.69 C158.312,3.583 158.391,3.488 158.486,3.405 C158.582,3.321 158.695,3.256 158.826,3.208 C158.957,3.161 159.113,3.137 159.296,3.137 C159.431,3.137 159.54,3.149 159.623,3.173 C159.706,3.196 159.772,3.216 159.819,3.232 L159.7,4.089 Z M164.175,5.172 C164.175,5.418 164.167,5.63 164.151,5.808 C164.135,5.987 164.119,6.144 164.103,6.279 L161.188,6.279 C161.219,6.953 161.364,7.449 161.622,7.766 C161.88,8.083 162.251,8.242 162.735,8.242 C162.901,8.242 163.052,8.222 163.187,8.183 C163.322,8.143 163.439,8.095 163.538,8.04 C163.637,7.984 163.721,7.929 163.788,7.873 C163.855,7.818 163.905,7.774 163.937,7.742 L164.294,8.421 C164.254,8.46 164.195,8.518 164.115,8.593 C164.036,8.668 163.929,8.744 163.794,8.819 C163.659,8.894 163.492,8.96 163.294,9.016 C163.096,9.071 162.862,9.099 162.592,9.099 C162.235,9.099 161.912,9.039 161.622,8.92 C161.333,8.801 161.087,8.617 160.884,8.367 C160.682,8.117 160.525,7.8 160.414,7.415 C160.303,7.03 160.248,6.568 160.248,6.029 C160.248,5.521 160.305,5.083 160.42,4.714 C160.535,4.345 160.692,4.041 160.89,3.803 C161.089,3.565 161.319,3.389 161.581,3.274 C161.842,3.159 162.124,3.101 162.425,3.101 C162.973,3.101 163.401,3.274 163.711,3.619 C164.02,3.964 164.175,4.482 164.175,5.172 Z M162.366,3.887 C162.025,3.887 161.751,4.029 161.545,4.315 C161.338,4.601 161.219,5.013 161.188,5.553 L163.27,5.553 C163.278,5.513 163.284,5.455 163.288,5.38 C163.292,5.305 163.294,5.223 163.294,5.136 C163.294,4.739 163.215,4.432 163.056,4.214 C162.897,3.996 162.667,3.887 162.366,3.887 Z M169.553,3.994 L168.84,3.994 C169.022,4.295 169.113,4.636 169.113,5.017 C169.113,5.319 169.064,5.59 168.965,5.832 C168.865,6.074 168.726,6.279 168.548,6.445 C168.37,6.612 168.159,6.739 167.917,6.826 C167.675,6.913 167.415,6.957 167.138,6.957 C167.082,6.957 167.031,6.957 166.983,6.957 C166.935,6.957 166.884,6.953 166.828,6.945 C166.733,6.985 166.634,7.048 166.531,7.135 C166.428,7.223 166.376,7.338 166.376,7.48 C166.376,7.599 166.422,7.697 166.513,7.772 C166.604,7.847 166.753,7.885 166.959,7.885 L167.685,7.885 C167.955,7.885 168.205,7.913 168.435,7.968 C168.665,8.024 168.865,8.113 169.036,8.236 C169.206,8.359 169.339,8.516 169.435,8.706 C169.53,8.896 169.577,9.127 169.577,9.396 C169.577,9.706 169.512,9.987 169.381,10.241 C169.25,10.495 169.066,10.713 168.828,10.896 C168.59,11.078 168.3,11.221 167.959,11.324 C167.618,11.427 167.237,11.479 166.816,11.479 C166.206,11.479 165.741,11.346 165.424,11.08 C165.107,10.814 164.948,10.432 164.948,9.932 C164.948,9.718 164.986,9.533 165.061,9.379 C165.137,9.224 165.226,9.089 165.329,8.974 C165.432,8.859 165.537,8.768 165.644,8.7 C165.751,8.633 165.837,8.579 165.9,8.54 L165.9,8.516 C165.654,8.333 165.531,8.068 165.531,7.718 C165.531,7.568 165.561,7.437 165.621,7.326 C165.68,7.215 165.747,7.123 165.823,7.052 C165.898,6.981 165.974,6.923 166.049,6.879 C166.124,6.836 166.182,6.806 166.221,6.79 L166.221,6.766 C165.928,6.631 165.692,6.419 165.514,6.13 C165.335,5.84 165.246,5.469 165.246,5.017 C165.246,4.7 165.297,4.42 165.4,4.178 C165.504,3.936 165.642,3.736 165.817,3.577 C165.991,3.419 166.196,3.299 166.43,3.22 C166.664,3.141 166.916,3.101 167.185,3.101 C167.455,3.101 167.709,3.149 167.947,3.244 L169.684,3.244 L169.553,3.994 Z M166.9,8.778 C166.733,8.778 166.586,8.766 166.46,8.742 C166.388,8.782 166.319,8.829 166.251,8.885 C166.184,8.94 166.122,9.008 166.067,9.087 C166.011,9.166 165.966,9.259 165.93,9.367 C165.894,9.474 165.876,9.599 165.876,9.741 C165.876,10.352 166.214,10.658 166.888,10.658 C167.467,10.658 167.895,10.545 168.173,10.319 C168.451,10.093 168.59,9.833 168.59,9.539 C168.59,9.261 168.502,9.065 168.328,8.95 C168.153,8.835 167.919,8.778 167.626,8.778 L166.9,8.778 Z M168.173,5.017 C168.173,4.605 168.076,4.311 167.882,4.136 C167.687,3.962 167.459,3.875 167.197,3.875 C166.92,3.875 166.682,3.962 166.483,4.136 C166.285,4.311 166.186,4.605 166.186,5.017 C166.186,5.43 166.285,5.723 166.483,5.898 C166.682,6.072 166.912,6.159 167.174,6.159 C167.451,6.159 167.687,6.072 167.882,5.898 C168.076,5.723 168.173,5.43 168.173,5.017 Z M170.648,8.956 L171.612,8.956 L171.612,3.244 L170.648,3.244 L170.648,8.956 Z M171.136,1.864 C170.938,1.864 170.779,1.8 170.66,1.673 C170.541,1.546 170.482,1.38 170.482,1.173 C170.482,0.975 170.541,0.812 170.66,0.685 C170.779,0.559 170.938,0.495 171.136,0.495 C171.327,0.495 171.481,0.559 171.6,0.685 C171.719,0.812 171.779,0.975 171.779,1.173 C171.779,1.38 171.719,1.546 171.6,1.673 C171.481,1.8 171.327,1.864 171.136,1.864 Z M176.753,5.172 C176.753,5.418 176.745,5.63 176.729,5.808 C176.713,5.987 176.697,6.144 176.682,6.279 L173.766,6.279 C173.798,6.953 173.943,7.449 174.2,7.766 C174.458,8.083 174.829,8.242 175.313,8.242 C175.48,8.242 175.63,8.222 175.765,8.183 C175.9,8.143 176.017,8.095 176.116,8.04 C176.216,7.984 176.299,7.929 176.366,7.873 C176.434,7.818 176.483,7.774 176.515,7.742 L176.872,8.421 C176.832,8.46 176.773,8.518 176.693,8.593 C176.614,8.668 176.507,8.744 176.372,8.819 C176.237,8.894 176.071,8.96 175.872,9.016 C175.674,9.071 175.44,9.099 175.17,9.099 C174.813,9.099 174.49,9.039 174.2,8.92 C173.911,8.801 173.665,8.617 173.463,8.367 C173.26,8.117 173.104,7.8 172.993,7.415 C172.881,7.03 172.826,6.568 172.826,6.029 C172.826,5.521 172.883,5.083 172.999,4.714 C173.114,4.345 173.27,4.041 173.469,3.803 C173.667,3.565 173.897,3.389 174.159,3.274 C174.421,3.159 174.702,3.101 175.004,3.101 C175.551,3.101 175.98,3.274 176.289,3.619 C176.598,3.964 176.753,4.482 176.753,5.172 Z M174.944,3.887 C174.603,3.887 174.329,4.029 174.123,4.315 C173.917,4.601 173.798,5.013 173.766,5.553 L175.849,5.553 C175.857,5.513 175.863,5.455 175.867,5.38 C175.87,5.305 175.872,5.223 175.872,5.136 C175.872,4.739 175.793,4.432 175.634,4.214 C175.476,3.996 175.246,3.887 174.944,3.887 Z M180.549,4.089 C180.525,4.073 180.474,4.053 180.394,4.029 C180.315,4.006 180.208,3.994 180.073,3.994 C179.772,3.994 179.536,4.075 179.365,4.238 C179.195,4.4 179.073,4.577 179.002,4.767 L179.002,8.956 L178.038,8.956 L178.038,3.244 L178.919,3.244 L178.919,4.018 L178.943,4.018 C178.982,3.906 179.034,3.797 179.097,3.69 C179.161,3.583 179.24,3.488 179.335,3.405 C179.43,3.321 179.544,3.256 179.674,3.208 C179.805,3.161 179.962,3.137 180.144,3.137 C180.279,3.137 180.389,3.149 180.472,3.173 C180.555,3.196 180.621,3.216 180.668,3.232 L180.549,4.089 Z M185.499,8.956 L184.619,8.956 L184.619,8.313 L184.595,8.313 C184.571,8.361 184.52,8.43 184.44,8.522 C184.361,8.613 184.26,8.7 184.137,8.783 C184.014,8.867 183.865,8.94 183.691,9.004 C183.516,9.067 183.322,9.099 183.108,9.099 C182.854,9.099 182.626,9.061 182.423,8.986 C182.221,8.91 182.049,8.789 181.906,8.623 C181.763,8.456 181.654,8.24 181.579,7.974 C181.503,7.709 181.465,7.381 181.465,6.992 L181.465,3.244 L182.429,3.244 L182.429,6.921 C182.429,7.397 182.507,7.736 182.661,7.939 C182.816,8.141 183.056,8.242 183.381,8.242 C183.659,8.242 183.893,8.173 184.083,8.034 C184.274,7.895 184.424,7.758 184.536,7.623 L184.536,3.244 L185.499,3.244 L185.499,8.956 Z M190.093,8.956 L190.093,5.279 C190.093,4.795 190.012,4.448 189.849,4.238 C189.686,4.027 189.438,3.922 189.105,3.922 C188.82,3.922 188.582,3.994 188.391,4.136 C188.201,4.279 188.05,4.418 187.939,4.553 L187.939,8.956 L186.975,8.956 L186.975,3.244 L187.856,3.244 L187.856,3.887 L187.879,3.887 C187.903,3.839 187.955,3.77 188.034,3.678 C188.113,3.587 188.217,3.5 188.344,3.417 C188.471,3.333 188.621,3.26 188.796,3.196 C188.97,3.133 189.169,3.101 189.391,3.101 C189.645,3.101 189.875,3.139 190.081,3.214 C190.287,3.29 190.462,3.411 190.605,3.577 C190.747,3.744 190.859,3.96 190.938,4.226 C191.017,4.492 191.057,4.819 191.057,5.208 L191.057,8.956 L190.093,8.956 Z M196.59,3.994 L195.876,3.994 C196.059,4.295 196.15,4.636 196.15,5.017 C196.15,5.319 196.1,5.59 196.001,5.832 C195.902,6.074 195.763,6.279 195.585,6.445 C195.406,6.612 195.196,6.739 194.954,6.826 C194.712,6.913 194.452,6.957 194.175,6.957 C194.119,6.957 194.068,6.957 194.02,6.957 C193.972,6.957 193.921,6.953 193.865,6.945 C193.77,6.985 193.671,7.048 193.568,7.135 C193.465,7.223 193.413,7.338 193.413,7.48 C193.413,7.599 193.459,7.697 193.55,7.772 C193.641,7.847 193.79,7.885 193.996,7.885 L194.722,7.885 C194.992,7.885 195.242,7.913 195.472,7.968 C195.702,8.024 195.902,8.113 196.073,8.236 C196.243,8.359 196.376,8.516 196.471,8.706 C196.566,8.896 196.614,9.127 196.614,9.396 C196.614,9.706 196.549,9.987 196.418,10.241 C196.287,10.495 196.102,10.713 195.864,10.896 C195.626,11.078 195.337,11.221 194.996,11.324 C194.655,11.427 194.274,11.479 193.853,11.479 C193.242,11.479 192.778,11.346 192.461,11.08 C192.144,10.814 191.985,10.432 191.985,9.932 C191.985,9.718 192.023,9.533 192.098,9.379 C192.173,9.224 192.263,9.089 192.366,8.974 C192.469,8.859 192.574,8.768 192.681,8.7 C192.788,8.633 192.874,8.579 192.937,8.54 L192.937,8.516 C192.691,8.333 192.568,8.068 192.568,7.718 C192.568,7.568 192.598,7.437 192.657,7.326 C192.717,7.215 192.784,7.123 192.86,7.052 C192.935,6.981 193.01,6.923 193.086,6.879 C193.161,6.836 193.219,6.806 193.258,6.79 L193.258,6.766 C192.965,6.631 192.729,6.419 192.55,6.13 C192.372,5.84 192.282,5.469 192.282,5.017 C192.282,4.7 192.334,4.42 192.437,4.178 C192.54,3.936 192.679,3.736 192.854,3.577 C193.028,3.419 193.233,3.299 193.467,3.22 C193.701,3.141 193.953,3.101 194.222,3.101 C194.492,3.101 194.746,3.149 194.984,3.244 L196.721,3.244 L196.59,3.994 Z M193.937,8.778 C193.77,8.778 193.623,8.766 193.496,8.742 C193.425,8.782 193.355,8.829 193.288,8.885 C193.221,8.94 193.159,9.008 193.104,9.087 C193.048,9.166 193.003,9.259 192.967,9.367 C192.931,9.474 192.913,9.599 192.913,9.741 C192.913,10.352 193.25,10.658 193.925,10.658 C194.504,10.658 194.932,10.545 195.21,10.319 C195.488,10.093 195.626,9.833 195.626,9.539 C195.626,9.261 195.539,9.065 195.365,8.95 C195.19,8.835 194.956,8.778 194.663,8.778 L193.937,8.778 Z M195.21,5.017 C195.21,4.605 195.113,4.311 194.918,4.136 C194.724,3.962 194.496,3.875 194.234,3.875 C193.956,3.875 193.718,3.962 193.52,4.136 C193.322,4.311 193.223,4.605 193.223,5.017 C193.223,5.43 193.322,5.723 193.52,5.898 C193.718,6.072 193.949,6.159 194.21,6.159 C194.488,6.159 194.724,6.072 194.918,5.898 C195.113,5.723 195.21,5.43 195.21,5.017 Z M42.569,16.029 L41.402,16.029 L41.402,20.956 L40.439,20.956 L40.439,16.029 L39.748,16.029 L39.748,15.387 L40.439,15.256 L40.439,14.114 C40.439,13.804 40.482,13.538 40.569,13.316 C40.657,13.094 40.772,12.912 40.914,12.769 C41.057,12.626 41.224,12.523 41.414,12.459 C41.605,12.396 41.807,12.364 42.021,12.364 C42.227,12.364 42.402,12.392 42.545,12.448 C42.688,12.503 42.783,12.547 42.83,12.578 L42.628,13.376 C42.581,13.344 42.513,13.31 42.426,13.274 C42.338,13.239 42.231,13.221 42.105,13.221 C41.874,13.221 41.7,13.292 41.581,13.435 C41.462,13.578 41.402,13.84 41.402,14.221 L41.402,15.244 L42.688,15.244 L42.569,16.029 Z M47.519,20.956 L46.638,20.956 L46.638,20.313 L46.615,20.313 C46.591,20.361 46.539,20.43 46.46,20.522 C46.381,20.613 46.279,20.7 46.157,20.783 C46.033,20.867 45.885,20.94 45.71,21.004 C45.536,21.067 45.341,21.099 45.127,21.099 C44.873,21.099 44.645,21.061 44.443,20.986 C44.241,20.91 44.068,20.789 43.925,20.623 C43.782,20.456 43.673,20.24 43.598,19.974 C43.523,19.708 43.485,19.381 43.485,18.992 L43.485,15.244 L44.449,15.244 L44.449,18.921 C44.449,19.397 44.526,19.736 44.681,19.939 C44.836,20.141 45.075,20.242 45.401,20.242 C45.679,20.242 45.912,20.173 46.103,20.034 C46.293,19.895 46.444,19.758 46.555,19.623 L46.555,15.244 L47.519,15.244 L47.519,20.956 Z M45.151,13.602 C45.151,13.784 45.095,13.931 44.984,14.042 C44.873,14.153 44.738,14.209 44.58,14.209 C44.421,14.209 44.286,14.153 44.175,14.042 C44.064,13.931 44.008,13.784 44.008,13.602 C44.008,13.419 44.064,13.273 44.175,13.161 C44.286,13.05 44.421,12.995 44.58,12.995 C44.738,12.995 44.873,13.05 44.984,13.161 C45.095,13.273 45.151,13.419 45.151,13.602 Z M46.984,13.602 C46.984,13.784 46.928,13.931 46.817,14.042 C46.706,14.153 46.571,14.209 46.412,14.209 C46.254,14.209 46.119,14.153 46.008,14.042 C45.897,13.931 45.841,13.784 45.841,13.602 C45.841,13.419 45.897,13.273 46.008,13.161 C46.119,13.05 46.254,12.995 46.412,12.995 C46.571,12.995 46.706,13.05 46.817,13.161 C46.928,13.273 46.984,13.419 46.984,13.602 Z M51.506,16.089 C51.482,16.073 51.43,16.053 51.351,16.029 C51.271,16.006 51.164,15.994 51.03,15.994 C50.728,15.994 50.492,16.075 50.322,16.238 C50.151,16.4 50.03,16.577 49.959,16.767 L49.959,20.956 L48.995,20.956 L48.995,15.244 L49.875,15.244 L49.875,16.018 L49.899,16.018 C49.939,15.906 49.99,15.797 50.054,15.69 C50.117,15.583 50.197,15.488 50.292,15.405 C50.387,15.321 50.5,15.256 50.631,15.208 C50.762,15.161 50.918,15.137 51.101,15.137 C51.236,15.137 51.345,15.149 51.428,15.173 C51.512,15.196 51.577,15.216 51.625,15.232 L51.506,16.089 Z M57.432,16.755 L60.216,20.956 L58.943,20.956 L56.563,17.219 L55.944,17.219 L55.944,20.956 L54.909,20.956 L54.909,12.745 L55.944,12.745 L55.944,16.398 L56.575,16.398 L58.872,12.745 L60.026,12.745 L57.432,16.755 Z M64.893,20.956 L64.012,20.956 L64.012,20.313 L63.989,20.313 C63.965,20.361 63.913,20.43 63.834,20.522 C63.755,20.613 63.653,20.7 63.531,20.783 C63.407,20.867 63.259,20.94 63.084,21.004 C62.91,21.067 62.715,21.099 62.501,21.099 C62.247,21.099 62.019,21.061 61.817,20.986 C61.615,20.91 61.442,20.789 61.299,20.623 C61.156,20.456 61.047,20.24 60.972,19.974 C60.897,19.708 60.859,19.381 60.859,18.992 L60.859,15.244 L61.823,15.244 L61.823,18.921 C61.823,19.397 61.9,19.736 62.055,19.939 C62.21,20.141 62.449,20.242 62.775,20.242 C63.053,20.242 63.287,20.173 63.477,20.034 C63.667,19.895 63.818,19.758 63.929,19.623 L63.929,15.244 L64.893,15.244 L64.893,20.956 Z M67.321,19.623 C67.321,19.861 67.354,20.028 67.422,20.123 C67.489,20.218 67.606,20.266 67.773,20.266 C67.86,20.266 67.934,20.258 67.993,20.242 C68.053,20.226 68.098,20.21 68.13,20.194 L68.213,20.908 C68.166,20.932 68.078,20.964 67.951,21.004 C67.824,21.043 67.654,21.063 67.44,21.063 C67.114,21.063 66.853,20.964 66.654,20.766 C66.456,20.567 66.357,20.214 66.357,19.706 L66.357,12.543 L67.321,12.436 L67.321,19.623 Z M71.521,16.029 L70.272,16.029 L70.272,19.195 C70.272,19.599 70.323,19.875 70.426,20.022 C70.53,20.169 70.704,20.242 70.95,20.242 C71.093,20.242 71.216,20.222 71.319,20.183 C71.422,20.143 71.498,20.107 71.545,20.075 L71.676,20.849 C71.636,20.881 71.541,20.93 71.39,20.998 C71.24,21.065 71.037,21.099 70.783,21.099 C70.292,21.099 69.923,20.962 69.677,20.688 C69.431,20.415 69.308,19.96 69.308,19.326 L69.308,16.029 L68.618,16.029 L68.618,15.387 L69.308,15.244 L69.415,13.649 L70.272,13.649 L70.272,15.244 L71.64,15.244 L71.521,16.029 Z M76.614,20.956 L75.734,20.956 L75.734,20.313 L75.71,20.313 C75.686,20.361 75.635,20.43 75.555,20.522 C75.476,20.613 75.375,20.7 75.252,20.783 C75.129,20.867 74.98,20.94 74.806,21.004 C74.631,21.067 74.437,21.099 74.223,21.099 C73.969,21.099 73.741,21.061 73.538,20.986 C73.336,20.91 73.164,20.789 73.021,20.623 C72.878,20.456 72.769,20.24 72.694,19.974 C72.618,19.708 72.58,19.381 72.58,18.992 L72.58,15.244 L73.544,15.244 L73.544,18.921 C73.544,19.397 73.622,19.736 73.776,19.939 C73.931,20.141 74.171,20.242 74.496,20.242 C74.774,20.242 75.008,20.173 75.198,20.034 C75.389,19.895 75.54,19.758 75.651,19.623 L75.651,15.244 L76.614,15.244 L76.614,20.956 Z M80.601,16.089 C80.577,16.073 80.526,16.053 80.446,16.029 C80.367,16.006 80.26,15.994 80.125,15.994 C79.824,15.994 79.588,16.075 79.417,16.238 C79.246,16.4 79.125,16.577 79.054,16.767 L79.054,20.956 L78.09,20.956 L78.09,15.244 L78.971,15.244 L78.971,16.018 L78.994,16.018 C79.034,15.906 79.086,15.797 79.149,15.69 C79.213,15.583 79.292,15.488 79.387,15.405 C79.482,15.321 79.595,15.256 79.726,15.208 C79.857,15.161 80.014,15.137 80.196,15.137 C80.331,15.137 80.44,15.149 80.524,15.173 C80.607,15.196 80.672,15.216 80.72,15.232 L80.601,16.089 Z M87.801,20.956 L86.92,20.956 L86.92,20.313 L86.896,20.313 C86.872,20.361 86.821,20.43 86.741,20.522 C86.662,20.613 86.561,20.7 86.438,20.783 C86.315,20.867 86.166,20.94 85.992,21.004 C85.817,21.067 85.623,21.099 85.409,21.099 C85.155,21.099 84.927,21.061 84.724,20.986 C84.522,20.91 84.35,20.789 84.207,20.623 C84.064,20.456 83.955,20.24 83.88,19.974 C83.804,19.708 83.766,19.381 83.766,18.992 L83.766,15.244 L84.73,15.244 L84.73,18.921 C84.73,19.397 84.808,19.736 84.962,19.939 C85.117,20.141 85.357,20.242 85.682,20.242 C85.96,20.242 86.194,20.173 86.384,20.034 C86.575,19.895 86.726,19.758 86.837,19.623 L86.837,15.244 L87.801,15.244 L87.801,20.956 Z M92.394,20.956 L92.394,17.279 C92.394,16.795 92.313,16.448 92.15,16.238 C91.987,16.027 91.739,15.922 91.406,15.922 C91.121,15.922 90.883,15.994 90.692,16.136 C90.502,16.279 90.351,16.418 90.24,16.553 L90.24,20.956 L89.276,20.956 L89.276,15.244 L90.157,15.244 L90.157,15.887 L90.181,15.887 C90.204,15.839 90.256,15.77 90.335,15.678 C90.415,15.587 90.518,15.5 90.645,15.417 C90.771,15.333 90.922,15.26 91.097,15.196 C91.271,15.133 91.47,15.101 91.692,15.101 C91.946,15.101 92.176,15.139 92.382,15.214 C92.588,15.29 92.763,15.411 92.906,15.577 C93.048,15.744 93.16,15.96 93.239,16.226 C93.318,16.492 93.358,16.819 93.358,17.208 L93.358,20.956 L92.394,20.956 Z M94.536,18.183 C94.536,17.604 94.611,17.12 94.762,16.731 C94.913,16.343 95.107,16.029 95.345,15.791 C95.583,15.553 95.853,15.385 96.154,15.286 C96.456,15.186 96.757,15.137 97.059,15.137 C97.241,15.137 97.4,15.151 97.535,15.179 C97.67,15.206 97.781,15.24 97.868,15.28 L97.868,12.543 L98.832,12.436 L98.832,20.956 L97.951,20.956 L97.951,20.349 L97.927,20.349 C97.904,20.397 97.86,20.462 97.796,20.545 C97.733,20.629 97.646,20.712 97.535,20.795 C97.424,20.879 97.285,20.95 97.118,21.01 C96.952,21.069 96.757,21.099 96.535,21.099 C96.265,21.099 96.01,21.045 95.768,20.938 C95.526,20.831 95.313,20.66 95.131,20.426 C94.948,20.192 94.804,19.891 94.697,19.522 C94.59,19.153 94.536,18.707 94.536,18.183 Z M96.797,20.242 C96.948,20.242 97.083,20.222 97.201,20.183 C97.321,20.143 97.424,20.093 97.511,20.034 C97.598,19.974 97.672,19.913 97.731,19.849 C97.791,19.786 97.836,19.73 97.868,19.683 L97.868,16.16 C97.781,16.105 97.68,16.057 97.564,16.018 C97.449,15.978 97.305,15.958 97.13,15.958 C96.908,15.958 96.7,15.996 96.505,16.071 C96.311,16.146 96.142,16.271 96,16.446 C95.857,16.62 95.744,16.847 95.661,17.124 C95.577,17.402 95.535,17.743 95.535,18.148 C95.535,18.544 95.569,18.876 95.637,19.141 C95.704,19.407 95.797,19.621 95.916,19.784 C96.035,19.946 96.17,20.063 96.321,20.135 C96.472,20.206 96.63,20.242 96.797,20.242 Z M109.875,12.745 L109.875,20.956 L108.875,20.956 L108.875,17.053 C108.875,16.807 108.875,16.565 108.875,16.327 C108.875,16.089 108.877,15.867 108.881,15.66 C108.885,15.454 108.891,15.272 108.899,15.113 C108.907,14.954 108.915,14.832 108.923,14.744 L108.887,14.744 C108.848,14.927 108.766,15.222 108.643,15.631 C108.52,16.039 108.38,16.478 108.221,16.946 L106.864,20.956 L106.043,20.956 L104.687,16.946 C104.528,16.478 104.387,16.039 104.264,15.631 C104.141,15.222 104.06,14.927 104.02,14.744 L103.985,14.744 C103.992,14.839 104,14.966 104.008,15.125 C104.016,15.284 104.022,15.464 104.026,15.666 C104.03,15.869 104.032,16.089 104.032,16.327 C104.032,16.565 104.032,16.807 104.032,17.053 L104.032,20.956 L103.033,20.956 L103.033,12.745 L104.187,12.745 L106.126,18.409 C106.214,18.671 106.291,18.927 106.359,19.177 C106.426,19.427 106.468,19.643 106.484,19.826 L106.507,19.826 C106.515,19.643 106.553,19.429 106.62,19.183 C106.688,18.937 106.765,18.683 106.852,18.421 L108.792,12.745 L109.875,12.745 Z M115.171,17.172 C115.171,17.418 115.163,17.63 115.147,17.808 C115.131,17.987 115.115,18.144 115.099,18.279 L112.184,18.279 C112.215,18.953 112.36,19.449 112.618,19.766 C112.876,20.083 113.247,20.242 113.731,20.242 C113.897,20.242 114.048,20.222 114.183,20.183 C114.318,20.143 114.435,20.095 114.534,20.04 C114.633,19.984 114.716,19.929 114.784,19.873 C114.851,19.818 114.901,19.774 114.932,19.742 L115.29,20.421 C115.25,20.46 115.19,20.518 115.111,20.593 C115.032,20.668 114.925,20.744 114.79,20.819 C114.655,20.894 114.488,20.96 114.29,21.016 C114.092,21.071 113.857,21.099 113.588,21.099 C113.231,21.099 112.907,21.039 112.618,20.92 C112.328,20.801 112.083,20.617 111.88,20.367 C111.678,20.117 111.521,19.8 111.41,19.415 C111.299,19.03 111.243,18.568 111.243,18.029 C111.243,17.521 111.301,17.083 111.416,16.714 C111.531,16.345 111.688,16.041 111.886,15.803 C112.084,15.565 112.314,15.389 112.576,15.274 C112.838,15.159 113.12,15.101 113.421,15.101 C113.969,15.101 114.397,15.274 114.706,15.619 C115.016,15.964 115.171,16.482 115.171,17.172 Z M113.362,15.887 C113.021,15.887 112.747,16.029 112.541,16.315 C112.334,16.601 112.215,17.013 112.184,17.553 L114.266,17.553 C114.274,17.513 114.28,17.455 114.284,17.38 C114.288,17.305 114.29,17.223 114.29,17.136 C114.29,16.739 114.211,16.432 114.052,16.214 C113.893,15.996 113.663,15.887 113.362,15.887 Z M116.194,18.183 C116.194,17.604 116.269,17.12 116.42,16.731 C116.571,16.343 116.765,16.029 117.003,15.791 C117.241,15.553 117.511,15.385 117.812,15.286 C118.114,15.186 118.415,15.137 118.717,15.137 C118.899,15.137 119.058,15.151 119.193,15.179 C119.328,15.206 119.439,15.24 119.526,15.28 L119.526,12.543 L120.49,12.436 L120.49,20.956 L119.609,20.956 L119.609,20.349 L119.585,20.349 C119.562,20.397 119.518,20.462 119.454,20.545 C119.391,20.629 119.304,20.712 119.193,20.795 C119.082,20.879 118.943,20.95 118.776,21.01 C118.61,21.069 118.415,21.099 118.193,21.099 C117.923,21.099 117.667,21.045 117.426,20.938 C117.184,20.831 116.971,20.66 116.789,20.426 C116.606,20.192 116.462,19.891 116.355,19.522 C116.247,19.153 116.194,18.707 116.194,18.183 Z M118.455,20.242 C118.606,20.242 118.741,20.222 118.859,20.183 C118.978,20.143 119.082,20.093 119.169,20.034 C119.256,19.974 119.33,19.913 119.389,19.849 C119.449,19.786 119.494,19.73 119.526,19.683 L119.526,16.16 C119.439,16.105 119.338,16.057 119.223,16.018 C119.107,15.978 118.963,15.958 118.788,15.958 C118.566,15.958 118.358,15.996 118.163,16.071 C117.969,16.146 117.8,16.271 117.658,16.446 C117.515,16.62 117.402,16.847 117.318,17.124 C117.235,17.402 117.194,17.743 117.194,18.148 C117.194,18.544 117.227,18.876 117.295,19.141 C117.362,19.407 117.455,19.621 117.574,19.784 C117.693,19.946 117.828,20.063 117.979,20.135 C118.13,20.206 118.288,20.242 118.455,20.242 Z M121.965,20.956 L122.929,20.956 L122.929,15.244 L121.965,15.244 L121.965,20.956 Z M122.453,13.864 C122.255,13.864 122.096,13.8 121.977,13.673 C121.858,13.546 121.799,13.38 121.799,13.173 C121.799,12.975 121.858,12.812 121.977,12.685 C122.096,12.559 122.255,12.495 122.453,12.495 C122.644,12.495 122.798,12.559 122.917,12.685 C123.036,12.812 123.096,12.975 123.096,13.173 C123.096,13.38 123.036,13.546 122.917,13.673 C122.798,13.8 122.644,13.864 122.453,13.864 Z M128.07,17.172 C128.07,17.418 128.062,17.63 128.046,17.808 C128.03,17.987 128.015,18.144 127.999,18.279 L125.083,18.279 C125.115,18.953 125.26,19.449 125.518,19.766 C125.775,20.083 126.146,20.242 126.63,20.242 C126.797,20.242 126.948,20.222 127.082,20.183 C127.217,20.143 127.334,20.095 127.434,20.04 C127.533,19.984 127.616,19.929 127.683,19.873 C127.751,19.818 127.8,19.774 127.832,19.742 L128.189,20.421 C128.149,20.46 128.09,20.518 128.011,20.593 C127.931,20.668 127.824,20.744 127.689,20.819 C127.554,20.894 127.388,20.96 127.189,21.016 C126.991,21.071 126.757,21.099 126.487,21.099 C126.13,21.099 125.807,21.039 125.518,20.92 C125.228,20.801 124.982,20.617 124.78,20.367 C124.577,20.117 124.421,19.8 124.31,19.415 C124.199,19.03 124.143,18.568 124.143,18.029 C124.143,17.521 124.201,17.083 124.316,16.714 C124.431,16.345 124.587,16.041 124.786,15.803 C124.984,15.565 125.214,15.389 125.476,15.274 C125.738,15.159 126.019,15.101 126.321,15.101 C126.868,15.101 127.297,15.274 127.606,15.619 C127.915,15.964 128.07,16.482 128.07,17.172 Z M126.261,15.887 C125.92,15.887 125.646,16.029 125.44,16.315 C125.234,16.601 125.115,17.013 125.083,17.553 L127.166,17.553 C127.174,17.513 127.18,17.455 127.184,17.38 C127.187,17.305 127.189,17.223 127.189,17.136 C127.189,16.739 127.11,16.432 126.952,16.214 C126.793,15.996 126.563,15.887 126.261,15.887 Z M132.473,20.956 L132.473,17.279 C132.473,16.795 132.392,16.448 132.229,16.238 C132.066,16.027 131.819,15.922 131.485,15.922 C131.2,15.922 130.962,15.994 130.771,16.136 C130.581,16.279 130.43,16.418 130.319,16.553 L130.319,20.956 L129.355,20.956 L129.355,15.244 L130.236,15.244 L130.236,15.887 L130.26,15.887 C130.284,15.839 130.335,15.77 130.414,15.678 C130.494,15.587 130.597,15.5 130.724,15.417 C130.851,15.333 131.001,15.26 131.176,15.196 C131.35,15.133 131.549,15.101 131.771,15.101 C132.025,15.101 132.255,15.139 132.461,15.214 C132.667,15.29 132.842,15.411 132.985,15.577 C133.128,15.744 133.239,15.96 133.318,16.226 C133.397,16.492 133.437,16.819 133.437,17.208 L133.437,20.956 L132.473,20.956 L132.473,20.956 Z" id="Fill-2" fill="#1A1919"></path>
                <polygon id="Fill-3" fill="#1A1919" points="29.427 20.956 32.927 20.956 32.927 0.956 29.427 0.956"></polygon>
                <polyline id="Fill-4" fill="#8A8B8A" points="30.927 20.956 32.927 20.956 32.927 40.956 29.427 40.956 29.427 20.956 30.927 20.956"></polyline>
                <polyline id="Fill-5" fill="#BFC0BF" points="31.427 40.956 32.927 40.956 32.927 60.956 29.427 60.956 29.427 40.956 31.427 40.956"></polyline>
                <path d="M20.319,7.947 C21.343,9.566 22.144,9.539 23.354,9.539 C22.353,8.771 21.691,7.789 21.375,7.287 L19.505,4.295 C19.323,3.371 18.845,2.507 18.129,1.864 C18.369,1.773 18.57,1.677 18.69,1.586 C17.469,1.586 16.259,0.966 15.593,0.966 C15.165,0.966 14.889,1.222 14.889,1.56 C14.917,1.936 15.305,2.32 16.022,2.32 C16.184,2.32 16.392,2.299 16.62,2.261 C17.008,2.802 17.321,3.291 17.321,3.989 C17.321,5.299 15.755,6.32 14.174,6.32 C14.084,6.32 13.999,6.316 13.91,6.31 C13.766,5.985 13.29,5.439 13.29,4.82 C13.29,3.779 13.969,2.929 13.969,1.897 C13.969,1.257 13.657,0.86 13.536,0.695 C13.731,0.515 13.943,0.293 13.992,0.142 C13.88,0.19 13.746,0.197 13.55,0.197 C12.793,0.197 12.175,0 11.573,0 C11.229,0 11.137,0.106 11.137,0.207 C11.137,0.244 11.142,0.282 11.152,0.3 C11.024,0.25 10.904,0.217 10.761,0.19 C10.583,0.157 10.391,0.14 10.188,0.14 C9.456,0.14 9.196,0.447 9.196,0.709 C9.196,0.932 9.371,1.338 9.57,1.647 C9.855,1.504 10.198,1.407 10.354,1.407 C10.742,1.407 11.088,1.777 11.271,2.215 C11.01,2.246 10.96,2.258 10.696,2.258 C9.983,2.258 9.498,2.003 9.398,2.003 C9.388,2.003 9.369,2.008 9.369,2.023 C9.369,2.124 9.572,2.388 9.97,2.533 C10.494,2.725 11.281,2.805 11.412,2.827 C11.412,2.85 11.279,3.098 11.13,3.145 C11.098,3.156 11.074,3.157 11.037,3.149 C10.489,3.041 10.336,2.995 9.641,2.73 C9.619,2.723 9.607,2.736 9.607,2.758 C9.607,3.033 10.319,3.64 10.957,3.872 C10.424,4.553 9.759,5.249 9.445,6.31 C9.356,6.316 9.27,6.32 9.181,6.32 C7.6,6.32 6.033,5.299 6.033,3.989 C6.033,3.291 6.347,2.802 6.735,2.261 C6.963,2.299 7.17,2.32 7.333,2.32 C8.05,2.32 8.438,1.936 8.466,1.56 C8.466,1.222 8.191,0.966 7.762,0.966 C7.096,0.966 5.887,1.586 4.664,1.586 C4.785,1.677 4.985,1.773 5.225,1.864 C4.51,2.507 4.032,3.371 3.849,4.295 L1.98,7.287 C1.665,7.789 1.001,8.771 -7.10542736e-15,9.539 C1.21,9.539 2.012,9.566 3.036,7.947 L3.994,6.413 C4.066,6.612 4.153,6.806 4.256,6.996 L2.349,10.047 C2.031,10.553 1.374,11.527 0.369,12.299 C1.579,12.299 2.381,12.327 3.405,10.709 L5.046,8.081 C5.169,8.212 5.298,8.34 5.434,8.462 L3.118,12.17 C2.8,12.677 2.146,13.648 1.138,14.42 C2.348,14.42 3.151,14.449 4.174,12.83 L6.432,9.215 C6.581,9.309 6.733,9.4 6.89,9.486 L4.134,13.896 C3.816,14.404 3.162,15.373 2.155,16.146 C3.365,16.146 4.167,16.175 5.191,14.557 L8.029,10.014 C8.197,10.078 8.367,10.14 8.54,10.195 L5.333,15.328 C5.02,15.828 4.351,16.814 3.355,17.578 C4.564,17.578 5.367,17.605 6.39,15.988 L9.808,10.518 C9.843,10.523 9.877,10.529 9.911,10.536 C10.004,10.832 10.069,11.107 10.069,11.383 C10.069,13.102 8.941,14.62 7.587,15.792 C7.674,15.83 7.824,15.843 7.964,15.843 C8.243,15.843 8.424,15.828 8.551,15.806 C8.237,16.519 7.563,17.439 7.223,17.916 C6.78,17.836 6.135,17.773 5.713,17.773 C5.271,17.773 5.221,18.032 5.221,18.263 C5.221,18.664 5.408,18.983 5.627,19.161 C5.709,18.956 5.874,18.682 6.69,18.682 C6.706,18.682 6.734,18.684 6.772,18.686 C6.533,18.952 5.786,19.556 5.786,20.042 C5.786,20.364 6.14,20.847 6.605,20.847 C6.577,20.743 6.581,20.647 6.581,20.576 C6.581,20.182 6.93,19.721 7.225,19.399 C7.216,19.495 7.221,19.485 7.221,19.597 C7.221,20.528 7.305,20.956 7.896,20.956 C8.186,20.956 8.386,20.797 8.455,20.749 C8.071,20.396 8.051,20.118 8.051,19.596 C8.052,19.46 8.053,19.327 8.054,19.144 C8.056,19.024 8.054,18.866 8.034,18.752 C8.246,18.723 8.332,18.723 8.494,18.723 C8.494,18.723 9.334,18.656 9.536,19.093 C9.764,18.884 10.096,18.589 10.096,18.264 C10.096,18.049 9.993,17.806 9.561,17.806 C9.397,17.806 8.882,17.906 8.451,17.906 C8.567,17.648 9.082,16.894 9.529,16.348 C9.596,16.56 9.702,16.789 9.936,16.977 C9.969,16.625 10.175,15.512 10.725,14.861 C10.789,15.301 10.875,15.752 10.875,16.703 C10.875,19.016 10.319,20.726 9.138,21.052 C9.292,21.319 9.616,21.56 9.954,21.56 C10.386,21.56 10.621,21.071 10.861,20.61 C10.986,20.95 11.331,21.784 11.677,21.784 C12.023,21.784 12.368,20.95 12.493,20.61 C12.733,21.071 12.969,21.56 13.401,21.56 C13.738,21.56 14.063,21.319 14.217,21.052 C13.036,20.726 12.479,19.016 12.479,16.703 C12.479,15.752 12.565,15.301 12.629,14.861 C13.179,15.512 13.387,16.625 13.418,16.977 C13.653,16.789 13.759,16.56 13.826,16.348 C14.272,16.894 14.788,17.648 14.904,17.906 C14.472,17.906 13.957,17.806 13.794,17.806 C13.362,17.806 13.26,18.049 13.26,18.264 C13.26,18.589 13.591,18.884 13.819,19.093 C14.02,18.656 14.861,18.723 14.861,18.723 C15.023,18.723 15.109,18.723 15.321,18.752 C15.301,18.866 15.3,19.024 15.301,19.144 C15.302,19.327 15.303,19.46 15.304,19.596 C15.304,20.118 15.284,20.396 14.9,20.749 C14.969,20.797 15.169,20.956 15.459,20.956 C16.05,20.956 16.134,20.528 16.134,19.597 C16.134,19.485 16.138,19.495 16.13,19.399 C16.425,19.721 16.774,20.182 16.774,20.576 C16.774,20.647 16.778,20.743 16.749,20.847 C17.215,20.847 17.569,20.364 17.569,20.042 C17.569,19.556 16.822,18.952 16.582,18.686 C16.621,18.684 16.649,18.682 16.664,18.682 C17.481,18.682 17.646,18.956 17.728,19.161 C17.946,18.983 18.133,18.664 18.133,18.263 C18.133,18.032 18.084,17.773 17.642,17.773 C17.22,17.773 16.575,17.836 16.132,17.916 C15.791,17.439 15.118,16.519 14.804,15.806 C14.93,15.828 15.112,15.843 15.39,15.843 C15.531,15.843 15.681,15.83 15.768,15.792 C14.414,14.62 13.285,13.102 13.285,11.383 C13.285,11.107 13.351,10.832 13.444,10.536 C13.477,10.529 13.512,10.523 13.547,10.518 L16.965,15.988 C17.988,17.605 18.791,17.578 20,17.578 C19.004,16.814 18.335,15.828 18.022,15.328 L14.814,10.195 C14.988,10.14 15.158,10.078 15.326,10.014 L18.164,14.557 C19.188,16.175 19.99,16.146 21.2,16.146 C20.193,15.373 19.539,14.404 19.221,13.896 L16.465,9.486 C16.621,9.4 16.774,9.309 16.922,9.215 L19.181,12.83 C20.205,14.449 21.006,14.42 22.216,14.42 C21.209,13.648 20.555,12.677 20.237,12.17 L17.921,8.462 C18.057,8.34 18.187,8.212 18.308,8.081 L19.95,10.709 C20.974,12.327 21.776,12.299 22.986,12.299 C21.98,11.527 21.324,10.553 21.006,10.047 L19.099,6.996 C19.202,6.806 19.289,6.612 19.361,6.413 L20.319,7.947 Z M5.013,4.434 C5.013,3.294 5.842,2.393 6.133,2.139 C6.204,2.156 6.274,2.172 6.344,2.187 C6.033,2.565 5.486,3.2 5.486,4.04 C5.486,5.708 7.268,7.156 9.286,7.156 C9.273,7.299 9.266,7.449 9.266,7.603 C9.266,7.85 9.28,8.079 9.304,8.295 C7.022,8.281 5.013,6.429 5.013,4.434 Z M8.105,18.107 L8.092,18.146 L8.132,18.146 C8.772,18.146 9.084,18.101 9.291,18.07 C9.399,18.057 9.477,18.045 9.561,18.045 C9.726,18.045 9.853,18.06 9.853,18.264 C9.853,18.401 9.693,18.618 9.537,18.744 C9.301,18.521 8.974,18.477 8.494,18.477 C8.27,18.477 7.976,18.518 7.819,18.54 L7.794,18.543 L7.766,18.547 L7.775,18.622 C7.794,18.755 7.817,18.92 7.817,19.143 L7.814,19.345 L7.811,19.596 C7.811,20.14 7.886,20.45 8.076,20.685 C8.027,20.703 7.948,20.718 7.896,20.718 C7.558,20.718 7.46,20.57 7.46,19.597 C7.46,19.401 7.449,19.218 7.443,19.096 L7.433,18.915 L7.39,18.948 C6.888,19.331 6.371,20.015 6.34,20.526 C6.189,20.429 6.025,20.21 6.025,20.042 C6.025,19.763 6.445,19.344 6.93,18.858 L7.21,18.579 L7.245,18.543 L7.154,18.52 C7.049,18.493 6.855,18.444 6.69,18.444 C6.145,18.444 5.804,18.547 5.594,18.776 C5.518,18.667 5.455,18.412 5.455,18.263 C5.455,18.166 5.474,18.098 5.512,18.059 C5.56,18.013 5.634,18.013 5.699,18.013 L5.713,18.013 C6.313,18.013 7.031,18.121 7.311,18.166 L7.327,18.17 L7.338,18.156 C7.387,18.091 8.531,16.566 8.828,15.758 C8.897,15.732 8.956,15.713 9.075,15.713 C9.301,15.713 9.364,15.865 9.429,16.098 C8.713,16.967 8.267,17.643 8.105,18.107 Z M14.279,15.713 C14.399,15.713 14.457,15.732 14.527,15.758 C14.824,16.566 15.969,18.091 16.016,18.156 L16.027,18.17 L16.044,18.166 C16.325,18.121 17.042,18.013 17.642,18.013 L17.656,18.013 C17.721,18.013 17.795,18.013 17.842,18.059 C17.881,18.098 17.9,18.166 17.9,18.263 C17.9,18.412 17.837,18.667 17.761,18.776 C17.551,18.547 17.21,18.444 16.664,18.444 C16.5,18.444 16.306,18.493 16.201,18.52 L16.158,18.53 L16.109,18.543 L16.424,18.858 C16.91,19.344 17.33,19.763 17.33,20.042 C17.33,20.21 17.166,20.429 17.015,20.526 C16.983,20.015 16.467,19.331 15.964,18.948 L15.921,18.916 L15.913,19.096 C15.906,19.218 15.895,19.401 15.895,19.597 C15.895,20.57 15.796,20.718 15.459,20.718 C15.407,20.718 15.328,20.703 15.279,20.685 C15.469,20.45 15.544,20.14 15.544,19.596 L15.541,19.345 L15.538,19.143 C15.538,18.92 15.561,18.755 15.579,18.622 L15.589,18.547 L15.536,18.54 C15.378,18.518 15.085,18.477 14.861,18.477 C14.38,18.477 14.054,18.521 13.818,18.744 C13.662,18.618 13.502,18.401 13.502,18.264 C13.502,18.06 13.628,18.045 13.794,18.045 C13.878,18.045 13.956,18.057 14.064,18.07 C14.271,18.101 14.582,18.146 15.223,18.146 L15.262,18.146 L15.25,18.107 C15.088,17.643 14.642,16.967 13.927,16.098 C13.991,15.865 14.054,15.713 14.279,15.713 Z M11.629,2.412 C11.557,2.117 11.406,1.812 11.213,1.583 C11.037,1.376 10.746,1.129 10.354,1.129 C10.175,1.129 9.875,1.213 9.684,1.293 C9.613,1.164 9.473,0.851 9.473,0.709 C9.473,0.564 9.719,0.417 10.188,0.417 C11.22,0.417 11.836,0.884 11.836,1.666 C11.836,1.94 11.727,2.191 11.629,2.412 Z M12.092,1.395 C12.055,1.175 11.971,0.975 11.843,0.803 C11.849,0.601 11.932,0.408 12.258,0.567 C12.082,0.747 12.218,1.065 12.218,1.065 C12.218,1.065 12.577,0.898 12.503,0.661 C13.037,0.789 12.653,1.506 12.092,1.395 Z M14.1,8.295 C14.127,8.071 14.143,7.84 14.143,7.603 C14.143,7.475 14.144,7.325 14.128,7.155 C16.121,7.127 17.869,5.691 17.869,4.04 C17.869,3.2 17.321,2.565 17.012,2.187 C17.081,2.172 17.151,2.156 17.221,2.139 C17.513,2.393 18.342,3.294 18.342,4.434 C18.342,6.415 16.362,8.254 14.1,8.295 L14.1,8.295 Z" id="Fill-6" fill="#000000"></path>
            </g>
        </g>
    </g>
</svg>