<?xml version="1.0" encoding="UTF-8"?>
<svg width="183px" height="139px" viewBox="0 0 183 139" version="1.1" xmlns="http://www.w3.org/2000/svg" xmlns:xlink="http://www.w3.org/1999/xlink">
    <title>svgexport-1</title>
    <g id="Page-1" stroke="none" stroke-width="1" fill="none" fill-rule="evenodd">
        <g id="svgexport-1" fill-rule="nonzero">
            <path d="M153.4,117 L150.3,117 L150.3,124.1 L153.4,124.1 C155.6,124.1 156.9,123 156.9,120.5 C156.9,118.1 155.4,117 153.4,117 M118.4,117.1 L116,117.1 L116,134.5 L118.5,134.5 C121.7,134.5 122.6,129.9 122.6,125.7 C122.7,121.4 121.8,117.1 118.4,117.1 M70.8,89.4 C70.8,85.2 69.9,80.8 66.6,80.8 L64.2,80.8 L64.2,98.2 L66.7,98.2 C69.9,98.2 70.8,93.6 70.8,89.4 M80.9,124.2 L80,128.2 L83.8,128.2 L82.9,124.2 C82.6,122.6 82,119.9 81.9,119 C81.8,119.8 81.3,122.6 80.9,124.2 M101.5,80.8 L98.4,80.8 L98.4,87.9 L101.5,87.9 C103.7,87.9 105,86.8 105,84.3 C105,81.8 103.5,80.8 101.5,80.8 M153,11.8 C153,9.3 151.5,8.3 149.5,8.3 L146.4,8.3 L146.4,15.4 L149.5,15.4 C151.7,15.3 153,14.3 153,11.8 M182.4,58.2 C182.4,62.2 180.5,65.6 175.7,65.6 C170.6,65.6 168.5,60.1 168.5,53.2 C168.5,46 170.8,40.8 175.8,40.8 C179.7,40.8 181.5,43.1 182.2,46.7 L178.9,47.6 C178.4,45.1 177.5,44.2 175.8,44.2 C173.2,44.2 172,48 172,53.2 C172,57.3 172.9,62.2 176,62.2 C178.3,62.2 179.1,60.8 179.1,57.9 L179.1,56.2 L176.4,56.2 L176.4,52.9 L182.5,52.9 L182.5,58.2 L182.4,58.2 Z M163.7,65.2 L161,65.2 L155.2,52.4 C154.7,51.4 153.8,49.1 153.5,48.5 C153.5,49.4 153.6,52.1 153.6,53.3 L153.6,65.3 L150.3,65.3 L150.3,41.3 L153.6,41.3 L158.8,52.7 C159.3,53.7 160.2,56 160.5,56.6 C160.5,55.7 160.4,53 160.4,51.8 L160.4,41.3 L163.7,41.3 L163.7,65.2 Z M152.7,18 L156.5,29 L152.8,29 L149.2,18.6 L146.4,18.6 L146.4,29 L143.1,29 L143.1,5 L149.8,5 C153.3,5 156.5,6.9 156.5,11.6 C156.4,15.1 154.9,17.1 152.7,18 M141.5,58.2 L141.5,41.3 L144.8,41.3 L144.8,58.1 C144.8,62.8 142.2,65.6 138.1,65.6 C134.1,65.6 131.4,62.7 131.4,58.3 L131.4,41.3 L134.7,41.3 L134.7,58.2 C134.7,60.2 135.6,62.2 138,62.2 C140.7,62.2 141.5,60.1 141.5,58.2 M137.5,21.9 C137.5,26.6 134.9,29.4 130.8,29.4 C126.8,29.4 124.1,26.5 124.1,22.1 L124.1,5 L127.4,5 L127.4,21.9 C127.4,23.9 128.3,25.9 130.7,25.9 C133.3,25.9 134.1,23.7 134.1,21.9 L134.1,5 L137.4,5 L137.4,21.9 L137.5,21.9 Z M119.8,8.3 L115.4,8.3 L115.4,29 L112.1,29 L112.1,8.3 L107.7,8.3 L107.7,5 L119.9,5 L119.9,8.3 L119.8,8.3 Z M107.6,29 L96.6,29 L96.6,5 L99.9,5 L99.9,25.7 L107.6,25.7 L107.6,29 Z M95.1,77.5 L101.8,77.5 C105.3,77.5 108.5,79.4 108.5,84.1 C108.5,87.6 107,89.5 104.7,90.4 L108.5,101.4 L104.8,101.4 L101.2,91 L98.4,91 L98.4,101.4 L95.1,101.4 L95.1,77.5 Z M95,65.2 L91.7,65.2 L91.7,41.2 L95,41.2 L95,65.2 Z M75,41.3 L87.2,41.3 L87.2,44.6 L82.7,44.6 L82.7,65.3 L79.4,65.3 L79.4,44.6 L75,44.6 L75,41.3 Z M74.4,137.7 L80.3,113.7 L83.8,113.7 L89.6,137.7 L85.9,137.7 L84.5,131.4 L79.3,131.4 L77.9,137.7 L74.4,137.7 Z M74.2,89.4 C74.2,96.5 71.7,101.5 66.6,101.5 L60.8,101.5 L60.8,77.5 L66.6,77.5 C71.9,77.5 74.2,82.3 74.2,89.4 M68.6,13.4 L74.3,28.9 L70.7,28.9 L66.3,16.9 L64.3,20.1 L64.3,28.9 L61,28.9 L61,4.9 L64.3,4.9 L64.3,11.1 C64.3,12 64.3,14.2 64.2,14.9 C64.6,14.2 65.6,12.4 66.1,11.5 L70,5 L73.8,5 L68.6,13.4 Z M68.8,59.2 C68.8,57.4 68,56.3 64.8,54.2 C62.1,52.4 60,50.7 60,46.9 C60,43.4 62.3,40.9 66,40.9 C68.8,40.9 70.4,42.1 71.8,44.2 L69.3,46.4 C68.1,44.9 67.4,44.3 65.8,44.3 C64.2,44.3 63.3,45.3 63.3,46.8 C63.3,48.6 64.1,49.6 66.8,51.3 C69.8,53.2 72.1,55.1 72.1,59.1 C72.1,62.9 69.8,65.7 65.6,65.7 C62.6,65.7 60.6,64.1 59.3,61.8 L61.9,59.7 C63.2,61.8 64.3,62.4 65.8,62.4 C67.7,62.3 68.8,61.2 68.8,59.2 M60.8,113.8 L64.1,113.8 L64.1,134.5 L71.8,134.5 L71.8,137.8 L60.8,137.8 L60.8,113.8 Z M85.1,108 C86.2,108 87.2,109 87.2,110.2 C87.2,111.3 86.2,112.3 85.1,112.3 C83.9,112.3 82.9,111.3 82.9,110.2 C82.9,108.9 83.9,108 85.1,108 M79,108 C80.1,108 81.1,109 81.1,110.2 C81.1,111.3 80.1,112.3 79,112.3 C77.8,112.3 76.8,111.3 76.8,110.2 C76.9,108.9 77.8,108 79,108 M82.4,90.4 L82.4,98.2 L90.7,98.2 L90.7,101.5 L79,101.5 L79,77.5 L90.2,77.5 L90.2,80.8 L82.3,80.8 L82.3,87.2 L87.5,87.2 L87.5,90.4 L82.4,90.4 L82.4,90.4 Z M93.7,113.8 L97,113.8 L102.2,125.2 C102.7,126.2 103.6,128.5 103.9,129.1 C103.9,128.2 103.8,125.5 103.8,124.3 L103.8,113.8 L107.1,113.8 L107.1,137.8 L104.4,137.8 L98.6,125 C98.1,124 97.2,121.7 96.9,121.1 C96.9,122 97,124.7 97,125.9 L97,137.9 L93.7,137.9 L93.7,113.8 Z M104.1,44.5 L104.1,51.1 L109.3,51.1 L109.3,54.3 L104.1,54.3 L104.1,65.2 L100.8,65.2 L100.8,41.2 L112.2,41.2 L112.2,44.5 L104.1,44.5 Z M112.7,113.8 L118.5,113.8 C123.8,113.8 126.1,118.6 126.1,125.7 C126.1,132.8 123.6,137.8 118.5,137.8 L112.7,137.8 L112.7,113.8 Z M122.7,44.6 L122.7,65.3 L119.4,65.3 L119.4,44.6 L115,44.6 L115,41.3 L127.2,41.3 L127.2,44.6 L122.7,44.6 Z M130.9,113.8 L142.1,113.8 L142.1,117.1 L134.2,117.1 L134.2,123.5 L139.4,123.5 L139.4,126.7 L134.2,126.7 L134.2,134.5 L142.5,134.5 L142.5,137.8 L130.8,137.8 L130.8,113.8 L130.9,113.8 Z M147,113.8 L153.7,113.8 C157.2,113.8 160.4,115.7 160.4,120.4 C160.4,123.9 158.9,125.8 156.6,126.7 L160.4,137.7 L156.7,137.7 L153.1,127.3 L150.3,127.3 L150.3,137.7 L147,137.7 L147,113.8 L147,113.8 Z M91.1,21.9 C91.1,26.6 88.5,29.4 84.4,29.4 C80.4,29.4 77.7,26.5 77.7,22.1 L77.7,5 L81,5 L81,21.9 C81,23.9 81.9,25.9 84.3,25.9 C86.9,25.9 87.7,23.7 87.7,21.9 L87.7,5 L91,5 L91,21.9 L91.1,21.9 Z" id="Shape" fill="#D7B41E"></path>
            <g id="Group" transform="translate(-0.000000, 0.000000)">
                <path d="M13.3,91.1 C4.8,105 -7.10542736e-15,121.2 -7.10542736e-15,138.7 L13.3,138.7 L13.3,91.1 Z" id="Path" fill="#EBD98E"></path>
                <path d="M46.5,58.9 C41.8,61.6 37.3,64.6 33.2,68 L33.2,138.5 L46.5,138.5 L46.5,58.9 Z" id="Path" fill="#EBD98E"></path>
                <path d="M29.9,70.9 L29.9,1.42108547e-14 L16.6,14.2 L16.6,14.2 L16.6,86.1 C20.5,80.6 24.9,75.5 29.9,70.9 Z" id="Path" fill="#D7B41E"></path>
                <path d="M46.5,58.9 L46.5,17.1 L33.2,31.4 L33.2,68.1 C37.4,64.7 41.8,61.6 46.5,58.9 Z" id="Path" fill="#D7B41E"></path>
                <path d="M13.3,17.1 L-7.10542736e-15,31.4 L-7.10542736e-15,138.6 C-7.10542736e-15,121.2 4.9,104.9 13.3,91 L13.3,17.1 Z" id="Path" fill="#D7B41E"></path>
            </g>
        </g>
    </g>
</svg>