<?xml version="1.0" encoding="utf-8"?>
<!-- Generator: Adobe Illustrator 15.0.2, SVG Export Plug-In . SVG Version: 6.00 Build 0)  -->
<!DOCTYPE svg PUBLIC "-//W3C//DTD SVG 1.1//EN" "http://www.w3.org/Graphics/SVG/1.1/DTD/svg11.dtd">
<svg version="1.1" id="Ebene_1" xmlns="http://www.w3.org/2000/svg" xmlns:xlink="http://www.w3.org/1999/xlink" x="0px" y="0px"
	 width="1698.965px" height="362px" viewBox="0 0 1698.965 362" enable-background="new 0 0 1698.965 362" xml:space="preserve">
<g id="Ebene_7">
	
		<radialGradient id="SVGID_1_" cx="171.9001" cy="55.6111" r="616.0329" fx="119.4574" fy="17.0584" gradientTransform="matrix(0.9261 0 0 -1 166.3478 128.5776)" gradientUnits="userSpaceOnUse">
		<stop  offset="0.2824" style="stop-color:#BDC4C8;stop-opacity:0.5"/>
		<stop  offset="0.3067" style="stop-color:#C3C9CD;stop-opacity:0.479"/>
		<stop  offset="0.4385" style="stop-color:#DDE1E3;stop-opacity:0.3651"/>
		<stop  offset="0.5736" style="stop-color:#F0F2F2;stop-opacity:0.2484"/>
		<stop  offset="0.7125" style="stop-color:#FBFCFC;stop-opacity:0.1284"/>
		<stop  offset="0.8612" style="stop-color:#FFFFFF;stop-opacity:0"/>
	</radialGradient>
	<rect x="-141.866" y="-19.28" display="none" fill="url(#SVGID_1_)" width="1624.421" height="397.479"/>
</g>
<g>
	<path fill="#4D4D4D" d="M481.162,265.037v-93.889h14.112v38.448h0.384l18.622-38.448h15.555l-18.912,37.439l22.365,56.448h-15.453
		l-15.266-39.601l-7.297,14.399v25.2h-14.11V265.037z"/>
	<path fill="#4D4D4D" d="M562.57,266.763c-8.128,0-14.337-3.601-18.626-10.801c-4.288-7.199-6.43-18.67-6.43-34.415v-50.399h14.207
		v52.56c0,9.216,0.925,15.649,2.785,19.296c1.854,3.649,4.543,5.473,8.062,5.473s6.24-1.822,8.159-5.473
		c1.921-3.646,2.881-10.08,2.881-19.296v-52.56h13.63v50.399c0,15.746-2.098,27.216-6.286,34.415
		C576.761,263.164,570.635,266.763,562.57,266.763z"/>
	<path fill="#4D4D4D" d="M601.26,265.037v-93.889h14.11v76.032h24.769v17.854L601.26,265.037L601.26,265.037z"/>
	<path fill="#4D4D4D" d="M651.177,265.037v-76.031h-17.186V171.15h48.577v17.855h-17.185v76.031H651.177z"/>
	<path fill="#4D4D4D" d="M716.552,266.763c-8.127,0-14.335-3.601-18.624-10.801c-4.289-7.199-6.434-18.67-6.434-34.415v-50.399
		h14.21v52.56c0,9.216,0.926,15.649,2.782,19.296c1.855,3.649,4.543,5.473,8.063,5.473s6.239-1.822,8.162-5.473
		c1.921-3.646,2.878-10.08,2.878-19.296v-52.56h13.633v50.399c0,15.746-2.099,27.216-6.288,34.415
		C730.742,263.164,724.618,266.763,716.552,266.763z"/>
	<path fill="#4D4D4D" d="M755.239,265.037v-93.889H777.8c4.418,0,8.447,0.89,12.097,2.664c3.647,1.776,6.561,4.775,8.736,9
		c2.175,4.226,3.264,10.08,3.264,17.568c0,6.912-1.008,12.602-3.025,17.063c-2.016,4.464-4.723,7.802-8.11,10.008l14.208,37.584
		H789.13l-12-33.841h-7.774v33.841L755.239,265.037L755.239,265.037z M769.352,214.348h7.293c3.714,0,6.543-1.177,8.496-3.528
		c1.951-2.352,2.928-5.83,2.928-10.438c0-4.609-0.977-7.824-2.928-9.646c-1.953-1.825-4.782-2.736-8.496-2.736h-7.293V214.348z"/>
	<path fill="#4D4D4D" d="M820.617,266.189c-2.433,0-4.465-0.851-6.097-2.545s-2.447-3.791-2.447-6.287
		c0-2.561,0.815-4.688,2.447-6.385c1.632-1.694,3.664-2.541,6.097-2.541c2.43,0,4.464,0.847,6.097,2.541
		c1.63,1.696,2.447,3.825,2.447,6.385c0,2.496-0.817,4.593-2.447,6.287C825.079,265.34,823.047,266.189,820.617,266.189z"/>
	<path fill="#4D4D4D" d="M870.055,266.763c-5.697,0-10.866-1.822-15.504-5.472c-4.643-3.646-8.322-9.047-11.04-16.2
		c-2.725-7.148-4.08-15.959-4.08-26.426c0-10.368,1.392-19.224,4.177-26.566c2.781-7.346,6.477-12.96,11.086-16.85
		c4.608-3.888,9.695-5.832,15.266-5.832c4.541,0,8.448,1.249,11.713,3.744c3.264,2.498,5.919,5.328,7.968,8.496l-7.393,13.536
		c-1.601-2.11-3.298-3.889-5.086-5.328c-1.793-1.44-4.031-2.16-6.723-2.16c-4.864,0-8.829,2.689-11.904,8.063
		c-3.07,5.378-4.606,12.771-4.606,22.177c0,9.602,1.473,17.09,4.417,22.464c2.941,5.378,7.325,8.063,13.15,8.063
		c1.278,0,2.526-0.236,3.743-0.721c1.217-0.479,2.209-1.199,2.978-2.158v-16.13h-10.37v-17.277h22.849v43.2
		c-2.176,3.168-5.073,5.856-8.687,8.062C878.389,265.659,874.407,266.763,870.055,266.763z"/>
	<path fill="#4D4D4D" d="M903.176,265.037v-93.889h39.167v17.854h-25.057v18.864h21.312v17.714h-21.312v21.601h26.018v17.854
		L903.176,265.037L903.176,265.037z"/>
	<path fill="#4D4D4D" d="M955.301,265.037v-93.889h15.458l10.078,41.76c0.639,2.689,1.248,5.523,1.824,8.496
		c0.574,2.977,1.183,5.904,1.825,8.784h0.383c0.639-2.88,1.229-5.808,1.774-8.784c0.543-2.975,1.136-5.807,1.775-8.496l9.887-41.76
		h15.361v93.889h-12.865v-34.418c0-3.07,0.113-6.502,0.336-10.297c0.225-3.789,0.479-7.607,0.769-11.447
		c0.288-3.837,0.527-7.247,0.722-10.224h-0.383l-5.088,22.319l-8.928,35.856h-7.775l-8.928-35.856l-4.992-22.319h-0.382
		c0.255,2.974,0.513,6.386,0.77,10.224c0.256,3.84,0.495,7.658,0.721,11.447c0.225,3.794,0.335,7.227,0.335,10.297v34.418H955.301z"
		/>
	<path fill="#4D4D4D" d="M1027.971,265.037v-93.889h39.168v17.854h-25.057v18.864h21.312v17.714h-21.312v21.601h26.018v17.854
		L1027.971,265.037L1027.971,265.037z"/>
	<path fill="#4D4D4D" d="M1080.096,265.037v-93.889h14.113v93.889H1080.096z"/>
	<path fill="#4D4D4D" d="M1108.513,265.037v-93.889h14.496l16.318,46.656l6.146,20.735h0.383c-0.258-4.991-0.61-10.559-1.057-16.704
		c-0.449-6.144-0.674-12-0.674-17.569v-33.119h13.44v93.888h-14.496l-16.322-46.8l-6.144-20.448h-0.382
		c0.318,5.184,0.687,10.752,1.104,16.704c0.416,5.953,0.626,11.713,0.626,17.278v33.266h-13.438V265.037z"/>
	<path fill="#4D4D4D" d="M1190.976,266.763c-4.097,0-8.175-1.151-12.24-3.455c-4.064-2.306-7.697-5.663-10.896-10.081l8.065-14.542
		c2.238,2.879,4.733,5.23,7.485,7.057c2.752,1.824,5.411,2.733,7.972,2.733c2.942,0,5.134-0.814,6.574-2.445
		c1.44-1.632,2.161-3.839,2.161-6.626c0-2.975-0.817-5.158-2.447-6.552c-1.631-1.393-3.826-2.952-6.575-4.682l-8.159-5.182
		c-2.114-1.344-4.129-3.144-6.049-5.4c-1.923-2.255-3.489-5.063-4.703-8.426c-1.22-3.357-1.825-7.295-1.825-11.808
		c0-5.186,0.942-9.888,2.832-14.112c1.887-4.225,4.512-7.582,7.871-10.08c3.36-2.495,7.217-3.744,11.57-3.744
		c3.58,0,7.166,1.06,10.752,3.17c3.581,2.113,6.721,5.183,9.408,9.217l-7.2,13.392c-2.05-2.398-4.097-4.248-6.145-5.544
		c-2.049-1.296-4.322-1.944-6.815-1.944c-2.434,0-4.37,0.746-5.812,2.232c-1.438,1.49-2.159,3.576-2.159,6.264
		c0,2.881,0.911,5.041,2.736,6.48c1.822,1.438,4.079,2.975,6.768,4.607l8.067,4.896c3.773,2.305,6.779,5.472,9.022,9.504
		c2.239,4.03,3.359,9.36,3.359,15.981c0,5.186-0.927,9.985-2.781,14.4c-1.857,4.418-4.545,7.971-8.066,10.656
		C1200.223,265.419,1195.969,266.763,1190.976,266.763z"/>
	<path fill="#4D4D4D" d="M1250.881,266.763c-5.248,0-10.08-1.822-14.496-5.472c-4.415-3.646-7.952-9.047-10.607-16.2
		c-2.656-7.148-3.983-15.959-3.983-26.426c0-10.368,1.36-19.224,4.079-26.566c2.72-7.346,6.337-12.96,10.85-16.85
		c4.512-3.888,9.392-5.832,14.64-5.832c4.029,0,7.646,1.227,10.85,3.674c3.198,2.448,5.854,5.306,7.968,8.567l-7.488,13.536
		c-1.603-2.206-3.278-4.007-5.038-5.399c-1.763-1.392-3.763-2.089-6-2.089c-2.818,0-5.392,1.201-7.728,3.602
		c-2.337,2.398-4.193,5.854-5.567,10.366c-1.378,4.517-2.067,9.938-2.067,16.273c0,9.602,1.376,17.09,4.13,22.464
		c2.75,5.378,6.43,8.063,11.039,8.063c2.559,0,4.849-0.863,6.863-2.59c2.017-1.729,3.792-3.791,5.325-6.191l7.488,13.248
		C1265.887,262.156,1259.135,266.763,1250.881,266.763z"/>
	<path fill="#4D4D4D" d="M1280.159,265.037v-93.889h14.112v36.145h21.601v-36.145h14.207v93.889h-14.207v-39.17h-21.601v39.17
		H1280.159z"/>
	<path fill="#4D4D4D" d="M1336.415,265.037l19.582-93.889h16.992l19.585,93.889h-14.977l-3.838-22.322h-19.105l-3.839,22.322
		H1336.415z M1359.072,217.515l-1.536,8.641h13.345l-1.439-8.641c-0.83-4.701-1.679-9.694-2.545-14.975
		c-0.863-5.277-1.713-10.37-2.543-15.267h-0.382c-0.771,4.994-1.553,10.105-2.354,15.337
		C1360.815,207.845,1359.969,212.814,1359.072,217.515z"/>
	<path fill="#4D4D4D" d="M1398.911,265.037v-93.889h39.456v17.854h-25.344v21.744h21.696v17.856h-21.696v36.431L1398.911,265.037
		L1398.911,265.037z"/>
	<path fill="#4D4D4D" d="M1460.927,265.037v-76.031h-17.186V171.15h48.577v17.855h-17.185v76.031H1460.927z"/>
	<path fill="#4D4D4D" d="M1501.63,265.037v-93.889h39.167v17.854h-25.057v18.864h21.312v17.714h-21.312v21.601h26.02v17.854
		L1501.63,265.037L1501.63,265.037z"/>
	<path fill="#4D4D4D" d="M1553.757,265.037v-93.889h14.496l16.318,46.656l6.146,20.735h0.382
		c-0.257-4.991-0.609-10.559-1.057-16.704c-0.448-6.144-0.673-12-0.673-17.569v-33.119h13.439v93.888h-14.495l-16.322-46.8
		l-6.144-20.448h-0.382c0.318,5.184,0.684,10.752,1.104,16.704c0.416,5.953,0.625,11.713,0.625,17.278v33.266h-13.438V265.037
		L1553.757,265.037z"/>
</g>
<g>
	<path fill="#999999" d="M476.807,309.906v-23.937h14.456v3.586h-10.212v6.771h8.711v3.587h-8.711v9.992L476.807,309.906
		L476.807,309.906z"/>
	<path fill="#999999" d="M501.88,310.344c-1.489,0-2.882-0.375-4.176-1.115c-1.292-0.744-2.341-1.82-3.146-3.223
		c-0.807-1.404-1.209-3.095-1.209-5.069c0-2.002,0.403-3.703,1.209-5.106c0.806-1.402,1.854-2.476,3.146-3.224
		c1.292-0.743,2.684-1.115,4.176-1.115c1.512,0,2.914,0.372,4.208,1.115c1.294,0.745,2.343,1.82,3.146,3.224
		c0.806,1.403,1.208,3.104,1.208,5.106c0,1.975-0.402,3.665-1.208,5.069c-0.805,1.401-1.854,2.476-3.146,3.223
		C504.792,309.972,503.389,310.344,501.88,310.344z M498.11,288.752c-0.636,0-1.169-0.221-1.593-0.66
		c-0.427-0.438-0.64-0.965-0.64-1.573c0-0.632,0.213-1.165,0.64-1.593c0.424-0.424,0.957-0.639,1.593-0.639
		c0.658,0,1.195,0.215,1.609,0.639c0.415,0.428,0.623,0.961,0.623,1.593c0,0.609-0.208,1.134-0.623,1.573
		C499.305,288.533,498.768,288.752,498.11,288.752z M501.88,306.904c1.316,0,2.354-0.549,3.109-1.646
		c0.756-1.098,1.134-2.537,1.134-4.318c0-1.806-0.378-3.258-1.134-4.355c-0.756-1.099-1.793-1.646-3.109-1.646
		c-1.318,0-2.351,0.548-3.095,1.646c-0.743,1.099-1.115,2.551-1.115,4.355c0,1.779,0.372,3.221,1.115,4.318
		C499.529,306.355,500.561,306.904,501.88,306.904z M505.646,288.752c-0.659,0-1.194-0.221-1.61-0.66
		c-0.415-0.438-0.622-0.965-0.622-1.573c0-0.632,0.207-1.165,0.622-1.593c0.416-0.424,0.951-0.639,1.61-0.639
		c0.635,0,1.168,0.215,1.593,0.639c0.426,0.428,0.642,0.961,0.642,1.593c0,0.609-0.216,1.134-0.642,1.573
		C506.814,288.533,506.282,288.752,505.646,288.752z"/>
	<path fill="#999999" d="M514.616,309.906v-17.972h3.476l0.293,3.183h0.146c0.634-1.172,1.402-2.068,2.306-2.689
		c0.901-0.621,1.829-0.932,2.781-0.932c0.854,0,1.537,0.122,2.05,0.366l-0.731,3.661c-0.316-0.1-0.609-0.172-0.876-0.221
		c-0.271-0.05-0.599-0.075-0.987-0.075c-0.709,0-1.453,0.274-2.233,0.825c-0.777,0.549-1.451,1.507-2.013,2.873v10.979
		L514.616,309.906L514.616,309.906z"/>
	<path fill="#999999" d="M534.193,310.344c-2.245,0-4.036-0.829-5.378-2.489c-1.343-1.658-2.014-3.964-2.014-6.916
		c0-1.952,0.359-3.635,1.077-5.051c0.72-1.418,1.665-2.501,2.837-3.259c1.171-0.758,2.401-1.135,3.695-1.135
		c1.024,0,1.897,0.175,2.617,0.527c0.723,0.354,1.424,0.837,2.104,1.446l-0.146-2.89v-6.515h4.212v25.84h-3.478l-0.293-1.939h-0.146
		c-0.658,0.658-1.425,1.224-2.306,1.685C536.096,310.113,535.172,310.344,534.193,310.344z M535.219,306.868
		c1.342,0,2.6-0.671,3.77-2.013v-8.381c-0.608-0.562-1.22-0.951-1.826-1.172c-0.61-0.222-1.224-0.329-1.83-0.329
		c-1.147,0-2.128,0.521-2.946,1.558c-0.817,1.035-1.226,2.493-1.226,4.373c0,1.929,0.354,3.404,1.062,4.43
		C532.927,306.355,533.927,306.868,535.219,306.868z"/>
	<path fill="#999999" d="M556.227,310.344c-1.66,0-3.16-0.375-4.502-1.115c-1.342-0.744-2.403-1.82-3.185-3.223
		c-0.778-1.404-1.171-3.095-1.171-5.069c0-1.953,0.396-3.636,1.189-5.051c0.79-1.418,1.823-2.501,3.093-3.261
		c1.269-0.757,2.596-1.133,3.986-1.133c1.635,0,3.001,0.359,4.1,1.077c1.099,0.723,1.926,1.723,2.488,3.001
		c0.561,1.282,0.842,2.767,0.842,4.447c0,0.878-0.061,1.563-0.183,2.05h-11.42c0.194,1.587,0.769,2.819,1.72,3.696
		c0.952,0.879,2.146,1.319,3.588,1.319c0.78,0,1.507-0.117,2.175-0.348c0.674-0.231,1.336-0.556,1.995-0.973l1.428,2.635
		c-0.854,0.562-1.806,1.024-2.854,1.393C558.473,310.162,557.376,310.344,556.227,310.344z M551.432,299.219h7.979
		c0-1.39-0.306-2.479-0.918-3.273c-0.609-0.793-1.523-1.188-2.742-1.188c-1.05,0-1.981,0.385-2.801,1.153
		C552.135,296.675,551.629,297.781,551.432,299.219z"/>
	<path fill="#999999" d="M567.095,309.906v-17.972h3.478l0.293,3.183h0.146c0.631-1.172,1.401-2.068,2.305-2.689
		c0.902-0.621,1.828-0.932,2.779-0.932c0.854,0,1.538,0.122,2.05,0.366l-0.729,3.661c-0.317-0.1-0.608-0.172-0.878-0.221
		c-0.27-0.05-0.599-0.075-0.986-0.075c-0.71,0-1.454,0.274-2.232,0.825c-0.78,0.549-1.451,1.507-2.012,2.873v10.979L567.095,309.906
		L567.095,309.906z"/>
	<path fill="#999999" d="M580.747,317.007v-25.071h3.478l0.293,1.902h0.146c0.757-0.633,1.604-1.183,2.543-1.646
		c0.938-0.465,1.897-0.695,2.875-0.695c2.243,0,3.982,0.828,5.216,2.489c1.23,1.659,1.848,3.877,1.848,6.661
		c0,2.05-0.365,3.801-1.098,5.252c-0.73,1.451-1.677,2.558-2.835,3.312c-1.159,0.755-2.41,1.134-3.751,1.134
		c-0.78,0-1.564-0.177-2.344-0.529c-0.779-0.354-1.536-0.835-2.271-1.446l0.112,3.001v5.637L580.747,317.007L580.747,317.007z
		 M588.581,306.868c1.195,0,2.196-0.523,3.001-1.573c0.807-1.049,1.207-2.585,1.207-4.611c0-1.809-0.305-3.21-0.915-4.21
		c-0.608-1.001-1.598-1.502-2.964-1.502c-1.271,0-2.587,0.674-3.952,2.015v8.379c0.658,0.538,1.29,0.925,1.902,1.153
		C587.471,306.753,588.042,306.868,588.581,306.868z"/>
	<path fill="#999999" d="M601.389,309.906v-17.972h3.477l0.293,3.183h0.146c0.632-1.172,1.402-2.068,2.306-2.689
		c0.902-0.621,1.828-0.932,2.779-0.932c0.854,0,1.538,0.122,2.05,0.366l-0.729,3.661c-0.318-0.1-0.61-0.172-0.878-0.221
		c-0.27-0.05-0.6-0.075-0.987-0.075c-0.709,0-1.453,0.274-2.231,0.825c-0.779,0.549-1.452,1.507-2.015,2.873v10.979L601.389,309.906
		L601.389,309.906z"/>
	<path fill="#999999" d="M622.033,310.344c-1.488,0-2.88-0.375-4.173-1.115c-1.294-0.744-2.343-1.82-3.146-3.223
		c-0.807-1.404-1.207-3.095-1.207-5.069c0-2.002,0.4-3.703,1.207-5.106c0.805-1.402,1.854-2.476,3.146-3.224
		c1.293-0.743,2.683-1.115,4.173-1.115c1.513,0,2.915,0.372,4.208,1.115c1.294,0.745,2.344,1.82,3.148,3.224
		s1.208,3.104,1.208,5.106c0,1.975-0.403,3.665-1.208,5.069c-0.807,1.401-1.854,2.476-3.148,3.223
		C624.946,309.972,623.545,310.344,622.033,310.344z M622.033,306.904c1.317,0,2.354-0.549,3.11-1.646
		c0.756-1.098,1.135-2.537,1.135-4.318c0-1.806-0.379-3.258-1.135-4.355c-0.756-1.099-1.793-1.646-3.11-1.646
		s-2.35,0.548-3.094,1.646c-0.744,1.099-1.115,2.551-1.115,4.355c0,1.779,0.371,3.221,1.115,4.318
		C619.683,306.355,620.717,306.904,622.033,306.904z"/>
	<path fill="#999999" d="M641.028,317.848c-1.416,0-2.689-0.171-3.826-0.513c-1.132-0.343-2.024-0.859-2.672-1.557
		c-0.646-0.695-0.971-1.57-0.971-2.619c0-1.487,0.854-2.77,2.562-3.843v-0.146c-0.464-0.291-0.849-0.682-1.152-1.171
		c-0.307-0.488-0.458-1.1-0.458-1.83c0-0.708,0.201-1.349,0.604-1.923s0.86-1.043,1.372-1.408v-0.146
		c-0.609-0.463-1.152-1.108-1.626-1.938c-0.477-0.829-0.717-1.771-0.717-2.819c0-1.391,0.33-2.563,0.988-3.517
		c0.657-0.95,1.53-1.675,2.616-2.175c1.087-0.499,2.253-0.75,3.495-0.75c0.487,0,0.96,0.042,1.411,0.125
		c0.451,0.086,0.86,0.189,1.226,0.313h6.44v3.111h-3.294c0.293,0.342,0.536,0.773,0.731,1.3c0.194,0.522,0.293,1.104,0.293,1.737
		c0,1.317-0.308,2.432-0.918,3.351c-0.609,0.914-1.426,1.604-2.451,2.067c-1.024,0.464-2.173,0.695-3.44,0.695
		c-0.388,0-0.791-0.038-1.208-0.109c-0.415-0.075-0.828-0.196-1.245-0.368c-0.269,0.244-0.479,0.486-0.638,0.73
		c-0.161,0.243-0.237,0.574-0.237,0.987c0,0.513,0.214,0.916,0.641,1.209c0.424,0.293,1.188,0.438,2.285,0.438h3.186
		c2.171,0,3.812,0.348,4.922,1.041c1.113,0.695,1.667,1.825,1.667,3.387c0,1.173-0.39,2.238-1.173,3.201
		c-0.779,0.967-1.891,1.728-3.328,2.287C644.677,317.569,642.979,317.848,641.028,317.848z M641.686,315.102
		c1.439,0,2.611-0.293,3.514-0.875c0.903-0.586,1.357-1.258,1.357-2.016c0-0.708-0.275-1.183-0.826-1.426
		c-0.55-0.245-1.336-0.368-2.361-0.368h-2.452c-0.976,0-1.793-0.082-2.451-0.257c-0.929,0.708-1.392,1.5-1.392,2.379
		c0,0.808,0.414,1.435,1.244,1.886C639.147,314.881,640.272,315.102,641.686,315.102z M641.246,301.56
		c0.856,0,1.586-0.316,2.196-0.951c0.61-0.633,0.918-1.522,0.918-2.672c0-1.124-0.301-1.995-0.896-2.618
		c-0.601-0.624-1.336-0.932-2.219-0.932c-0.878,0-1.623,0.306-2.229,0.915c-0.611,0.608-0.918,1.487-0.918,2.635
		c0,1.148,0.307,2.036,0.918,2.672C639.626,301.244,640.37,301.56,641.246,301.56z"/>
	<path fill="#999999" d="M653.801,309.906v-17.972h3.477l0.293,3.183h0.146c0.632-1.172,1.401-2.068,2.305-2.689
		c0.902-0.621,1.831-0.932,2.782-0.932c0.854,0,1.535,0.122,2.049,0.366l-0.731,3.661c-0.315-0.1-0.608-0.172-0.878-0.221
		c-0.27-0.05-0.599-0.075-0.984-0.075c-0.711,0-1.453,0.274-2.233,0.825c-0.78,0.55-1.452,1.507-2.013,2.873v10.979L653.801,309.906
		L653.801,309.906z"/>
	<path fill="#999999" d="M670.858,310.344c-1.564,0-2.837-0.487-3.826-1.464c-0.988-0.978-1.481-2.244-1.481-3.81
		c0-1.925,0.842-3.423,2.524-4.479c1.685-1.062,4.367-1.787,8.053-2.18c-0.024-0.952-0.274-1.773-0.75-2.471
		c-0.476-0.694-1.324-1.043-2.545-1.043c-0.875,0-1.737,0.171-2.577,0.514c-0.843,0.342-1.668,0.757-2.474,1.244l-1.537-2.819
		c1-0.633,2.129-1.183,3.386-1.646s2.593-0.695,4.008-0.695c2.246,0,3.925,0.666,5.033,1.995c1.108,1.327,1.666,3.251,1.666,5.766
		v10.649h-3.476l-0.293-1.975h-0.146c-0.807,0.682-1.666,1.258-2.581,1.721C672.927,310.114,671.93,310.344,670.858,310.344z
		 M672.213,307.052c0.729,0,1.396-0.179,1.993-0.532c0.598-0.353,1.236-0.832,1.923-1.444v-4.023
		c-2.439,0.315-4.136,0.786-5.087,1.408c-0.951,0.623-1.426,1.386-1.426,2.287c0,0.806,0.244,1.391,0.729,1.758
		C670.833,306.868,671.456,307.052,672.213,307.052z"/>
	<path fill="#999999" d="M685.385,309.906v-17.972h3.478l0.293,2.453h0.145c0.759-0.807,1.58-1.487,2.473-2.051
		c0.892-0.562,1.897-0.842,3.021-0.842c1.318,0,2.374,0.287,3.167,0.86c0.791,0.575,1.396,1.358,1.812,2.359
		c0.854-0.925,1.75-1.693,2.69-2.307c0.937-0.609,1.97-0.914,3.093-0.914c1.902,0,3.306,0.621,4.208,1.866
		c0.903,1.244,1.354,3.002,1.354,5.273v11.272h-4.245V299.18c0-1.488-0.227-2.535-0.678-3.147c-0.45-0.611-1.138-0.916-2.066-0.916
		c-1.123,0-2.378,0.744-3.771,2.232v12.554h-4.212v-10.725c0-1.488-0.226-2.536-0.675-3.147c-0.451-0.612-1.152-0.917-2.104-0.917
		c-1.125,0-2.381,0.744-3.771,2.232v12.555L685.385,309.906L685.385,309.906z"/>
	<path fill="#999999" d="M716.239,309.906v-17.972h3.478l0.293,2.453h0.146c0.756-0.807,1.578-1.487,2.472-2.051
		c0.891-0.562,1.896-0.842,3.02-0.842c1.32,0,2.375,0.287,3.168,0.86c0.792,0.575,1.396,1.358,1.812,2.359
		c0.854-0.925,1.751-1.693,2.689-2.307c0.939-0.609,1.972-0.914,3.093-0.914c1.903,0,3.307,0.621,4.208,1.866
		c0.904,1.244,1.355,3.002,1.355,5.273v11.272h-4.246V299.18c0-1.488-0.225-2.535-0.675-3.147c-0.452-0.611-1.141-0.916-2.069-0.916
		c-1.123,0-2.377,0.744-3.771,2.232v12.554h-4.209v-10.725c0-1.488-0.228-2.536-0.678-3.147c-0.451-0.612-1.151-0.917-2.104-0.917
		c-1.125,0-2.38,0.744-3.771,2.232v12.555L716.239,309.906L716.239,309.906z"/>
	<path fill="#999999" d="M755.143,309.906v-14.641h-2.417v-3.148l2.417-0.18v-1.868c0-1.878,0.465-3.422,1.39-4.628
		c0.928-1.207,2.452-1.812,4.575-1.812c0.633,0,1.243,0.062,1.828,0.183c0.586,0.125,1.075,0.271,1.466,0.438l-0.808,3.147
		c-0.658-0.293-1.317-0.439-1.976-0.439c-1.514,0-2.271,1.015-2.271,3.038v1.938h3.517v3.328h-3.517v14.642L755.143,309.906
		L755.143,309.906z"/>
	<path fill="#999999" d="M771.358,310.344c-1.928,0-3.33-0.623-4.212-1.865c-0.875-1.245-1.317-3.005-1.317-5.273v-11.272h4.209
		v10.725c0,1.488,0.224,2.538,0.659,3.147c0.438,0.608,1.146,0.914,2.125,0.914c0.779,0,1.47-0.194,2.068-0.583
		c0.598-0.391,1.237-1.025,1.923-1.903v-12.298h4.209v17.972h-3.44l-0.327-2.635h-0.111c-0.778,0.927-1.632,1.673-2.562,2.232
		C773.649,310.063,772.577,310.344,771.358,310.344z M769.746,288.752c-0.633,0-1.166-0.221-1.592-0.66
		c-0.427-0.438-0.64-0.965-0.64-1.573c0-0.632,0.213-1.165,0.64-1.593c0.426-0.424,0.959-0.639,1.592-0.639
		c0.661,0,1.195,0.215,1.612,0.639c0.415,0.428,0.622,0.961,0.622,1.593c0,0.609-0.207,1.134-0.622,1.573
		C770.941,288.533,770.407,288.752,769.746,288.752z M777.286,288.752c-0.658,0-1.194-0.221-1.609-0.66
		c-0.415-0.438-0.622-0.965-0.622-1.573c0-0.632,0.207-1.165,0.622-1.593c0.415-0.424,0.951-0.639,1.609-0.639
		c0.636,0,1.164,0.215,1.593,0.639c0.427,0.428,0.642,0.961,0.642,1.593c0,0.609-0.215,1.134-0.642,1.573
		C778.449,288.533,777.923,288.752,777.286,288.752z"/>
	<path fill="#999999" d="M786.364,309.906v-17.972h3.476l0.293,3.183h0.146c0.634-1.172,1.402-2.068,2.305-2.689
		s1.831-0.932,2.782-0.932c0.854,0,1.538,0.122,2.05,0.366l-0.731,3.661c-0.316-0.1-0.609-0.172-0.875-0.221
		c-0.272-0.05-0.601-0.075-0.988-0.075c-0.709,0-1.453,0.274-2.232,0.825c-0.778,0.549-1.452,1.507-2.014,2.873v10.979
		L786.364,309.906L786.364,309.906z"/>
	<path fill="#999999" d="M813.63,310.344c-2.245,0-4.038-0.829-5.381-2.489c-1.342-1.658-2.014-3.964-2.014-6.916
		c0-1.952,0.36-3.635,1.08-5.051c0.718-1.418,1.665-2.501,2.837-3.259c1.171-0.758,2.402-1.135,3.693-1.135
		c1.024,0,1.896,0.175,2.619,0.527c0.72,0.354,1.422,0.837,2.104,1.446l-0.146-2.89v-6.515h4.21v25.84h-3.476l-0.293-1.939h-0.146
		c-0.659,0.658-1.427,1.224-2.308,1.685C815.532,310.113,814.605,310.344,813.63,310.344z M814.654,306.868
		c1.34,0,2.601-0.671,3.771-2.013v-8.381c-0.609-0.562-1.222-0.951-1.83-1.172c-0.61-0.222-1.222-0.329-1.828-0.329
		c-1.146,0-2.129,0.521-2.945,1.558c-0.818,1.035-1.227,2.493-1.227,4.373c0,1.929,0.354,3.404,1.062,4.43
		C812.361,306.355,813.36,306.868,814.654,306.868z"/>
	<path fill="#999999" d="M830.097,288.788c-0.756,0-1.366-0.222-1.827-0.661c-0.465-0.436-0.696-1.022-0.696-1.755
		c0-0.708,0.231-1.28,0.696-1.721c0.463-0.44,1.073-0.659,1.827-0.659c0.759,0,1.368,0.219,1.83,0.659
		c0.463,0.438,0.694,1.013,0.694,1.721c0,0.731-0.231,1.319-0.694,1.755C831.467,288.568,830.856,288.788,830.097,288.788z
		 M827.977,309.906v-17.972h4.209v17.972H827.977z"/>
	<path fill="#999999" d="M843.826,317.848c-1.416,0-2.689-0.171-3.825-0.513c-1.133-0.343-2.025-0.859-2.673-1.557
		c-0.646-0.695-0.971-1.57-0.971-2.619c0-1.487,0.854-2.77,2.563-3.843v-0.146c-0.466-0.291-0.85-0.682-1.153-1.171
		c-0.306-0.488-0.458-1.1-0.458-1.83c0-0.708,0.201-1.349,0.604-1.923c0.401-0.574,0.86-1.043,1.372-1.408v-0.146
		c-0.609-0.463-1.152-1.108-1.627-1.938c-0.476-0.829-0.716-1.771-0.716-2.819c0-1.391,0.329-2.563,0.988-3.517
		c0.658-0.95,1.531-1.675,2.616-2.175c1.087-0.499,2.253-0.75,3.495-0.75c0.487,0,0.957,0.042,1.411,0.125
		c0.45,0.086,0.86,0.189,1.226,0.313h6.44v3.111h-3.294c0.293,0.342,0.535,0.773,0.731,1.3c0.193,0.522,0.293,1.104,0.293,1.737
		c0,1.317-0.309,2.432-0.918,3.351c-0.609,0.914-1.425,1.604-2.451,2.067c-1.024,0.464-2.173,0.695-3.44,0.695
		c-0.389,0-0.791-0.038-1.209-0.109c-0.414-0.075-0.826-0.196-1.242-0.368c-0.271,0.244-0.48,0.486-0.641,0.73
		c-0.159,0.243-0.236,0.574-0.236,0.987c0,0.513,0.214,0.916,0.64,1.209c0.425,0.293,1.188,0.438,2.286,0.438h3.185
		c2.173,0,3.813,0.348,4.924,1.041c1.111,0.695,1.666,1.825,1.666,3.387c0,1.173-0.391,2.238-1.172,3.201
		c-0.78,0.967-1.892,1.728-3.329,2.287C847.472,317.569,845.777,317.848,843.826,317.848z M844.483,315.102
		c1.439,0,2.611-0.293,3.514-0.875c0.902-0.586,1.354-1.258,1.354-2.016c0-0.708-0.274-1.183-0.824-1.426
		c-0.55-0.245-1.336-0.368-2.361-0.368h-2.45c-0.978,0-1.793-0.082-2.453-0.257c-0.928,0.708-1.391,1.5-1.391,2.379
		c0,0.808,0.414,1.435,1.243,1.886C841.944,314.881,843.069,315.102,844.483,315.102z M844.044,301.56
		c0.854,0,1.585-0.316,2.195-0.951c0.61-0.633,0.916-1.522,0.916-2.672c0-1.124-0.3-1.995-0.896-2.618
		c-0.6-0.624-1.336-0.932-2.217-0.932c-0.878,0-1.623,0.306-2.23,0.915c-0.61,0.608-0.916,1.487-0.916,2.635
		c0,1.148,0.306,2.036,0.916,2.672C842.423,301.244,843.167,301.56,844.044,301.56z"/>
	<path fill="#999999" d="M858.72,288.788c-0.756,0-1.368-0.222-1.829-0.661c-0.465-0.436-0.696-1.022-0.696-1.755
		c0-0.708,0.231-1.28,0.696-1.721c0.465-0.441,1.075-0.659,1.829-0.659c0.757,0,1.366,0.219,1.828,0.659
		c0.465,0.438,0.693,1.013,0.693,1.721c0,0.731-0.229,1.319-0.693,1.755C860.087,288.568,859.477,288.788,858.72,288.788z
		 M856.595,309.906v-17.972h4.212v17.972H856.595z"/>
	<path fill="#999999" d="M872.519,310.344c-2.075,0-3.545-0.604-4.41-1.812c-0.869-1.209-1.3-2.774-1.3-4.703v-8.566h-2.563v-3.147
		l2.78-0.181l0.514-4.903h3.516v4.903h4.573v3.328h-4.573v8.566c0,2.098,0.84,3.146,2.523,3.146c0.316,0,0.646-0.04,0.987-0.125
		c0.341-0.086,0.632-0.177,0.877-0.275l0.731,3.112c-0.488,0.171-1.043,0.323-1.666,0.457
		C873.887,310.275,873.227,310.344,872.519,310.344z"/>
	<path fill="#999999" d="M882.986,310.344c-1.562,0-2.836-0.487-3.825-1.464c-0.987-0.978-1.481-2.244-1.481-3.81
		c0-1.925,0.842-3.423,2.524-4.479c1.683-1.062,4.368-1.787,8.054-2.18c-0.026-0.952-0.275-1.773-0.75-2.471
		c-0.478-0.694-1.326-1.043-2.545-1.043c-0.877,0-1.737,0.171-2.58,0.514c-0.843,0.342-1.665,0.757-2.472,1.244l-1.537-2.819
		c1.002-0.633,2.129-1.183,3.387-1.646c1.256-0.463,2.591-0.695,4.008-0.695c2.245,0,3.922,0.666,5.032,1.995
		c1.109,1.327,1.666,3.251,1.666,5.766v10.649h-3.478l-0.293-1.975h-0.146c-0.808,0.682-1.667,1.258-2.579,1.721
		C885.058,310.115,884.061,310.344,882.986,310.344z M884.341,307.052c0.731,0,1.396-0.179,1.995-0.532
		c0.598-0.353,1.237-0.832,1.924-1.444v-4.023c-2.439,0.315-4.136,0.786-5.087,1.408c-0.952,0.623-1.429,1.386-1.429,2.287
		c0,0.806,0.244,1.391,0.731,1.758C882.964,306.868,883.585,307.052,884.341,307.052z"/>
	<path fill="#999999" d="M901.616,310.344c-1.487,0-2.545-0.45-3.169-1.354c-0.622-0.901-0.931-2.134-0.931-3.695v-21.229h4.209
		v21.448c0,0.512,0.098,0.874,0.292,1.079c0.196,0.207,0.403,0.311,0.622,0.311c0.098,0,0.188-0.005,0.274-0.018
		c0.084-0.017,0.215-0.03,0.385-0.056l0.548,3.146c-0.243,0.098-0.558,0.184-0.933,0.258
		C902.536,310.308,902.102,310.344,901.616,310.344z"/>
	<path fill="#999999" d="M915.122,310.344c-1.66,0-3.16-0.375-4.503-1.115c-1.342-0.744-2.402-1.82-3.184-3.223
		c-0.779-1.404-1.171-3.095-1.171-5.069c0-1.953,0.396-3.636,1.188-5.051c0.791-1.418,1.824-2.501,3.094-3.261
		c1.269-0.757,2.597-1.133,3.986-1.133c1.635,0,3.001,0.359,4.101,1.077c1.098,0.723,1.927,1.723,2.488,3.001
		c0.561,1.282,0.842,2.767,0.842,4.447c0,0.878-0.062,1.563-0.184,2.05h-11.42c0.195,1.587,0.77,2.819,1.721,3.696
		c0.951,0.879,2.146,1.319,3.587,1.319c0.779,0,1.508-0.117,2.176-0.348c0.674-0.231,1.336-0.556,1.996-0.973l1.427,2.635
		c-0.854,0.562-1.807,1.024-2.854,1.393C917.366,310.162,916.267,310.344,915.122,310.344z M910.326,299.219h7.979
		c0-1.39-0.308-2.479-0.918-3.273c-0.61-0.793-1.524-1.188-2.743-1.188c-1.05,0-1.981,0.385-2.801,1.153
		C911.027,296.675,910.522,297.781,910.326,299.219z"/>
	<path fill="#999999" d="M943.227,310.344c-2.001,0-3.818-0.477-5.453-1.427c-1.635-0.952-2.935-2.35-3.898-4.191
		c-0.964-1.84-1.444-4.078-1.444-6.717c0-2.608,0.494-4.849,1.481-6.716c0.986-1.869,2.312-3.294,3.972-4.281
		c1.659-0.989,3.488-1.479,5.489-1.479c1.513,0,2.855,0.306,4.024,0.915c1.175,0.609,2.136,1.317,2.893,2.122l-2.271,2.746
		c-0.609-0.633-1.286-1.143-2.03-1.521c-0.745-0.378-1.579-0.565-2.508-0.565c-1.293,0-2.446,0.344-3.458,1.04
		c-1.013,0.694-1.807,1.689-2.379,2.981c-0.574,1.294-0.86,2.844-0.86,4.649c0,2.732,0.599,4.872,1.793,6.422
		c1.195,1.55,2.794,2.326,4.795,2.326c1.073,0,2.025-0.227,2.854-0.678c0.828-0.451,1.586-1.041,2.27-1.774l2.271,2.671
		c-0.977,1.125-2.093,1.982-3.35,2.58C946.162,310.047,944.766,310.344,943.227,310.344z"/>
	<path fill="#999999" d="M961.746,310.344c-1.486,0-2.878-0.375-4.173-1.115c-1.294-0.744-2.343-1.82-3.147-3.223
		c-0.806-1.404-1.207-3.095-1.207-5.069c0-2.002,0.401-3.703,1.207-5.106c0.806-1.402,1.854-2.476,3.147-3.224
		c1.292-0.743,2.685-1.115,4.173-1.115c1.515,0,2.917,0.372,4.209,1.115c1.293,0.745,2.343,1.82,3.147,3.224
		c0.807,1.403,1.21,3.104,1.21,5.106c0,1.975-0.403,3.665-1.21,5.069c-0.807,1.401-1.854,2.476-3.147,3.223
		C964.663,309.972,963.26,310.344,961.746,310.344z M961.746,306.904c1.319,0,2.354-0.549,3.112-1.646
		c0.756-1.099,1.132-2.537,1.132-4.318c0-1.806-0.376-3.258-1.132-4.355c-0.757-1.099-1.793-1.646-3.112-1.646
		c-1.317,0-2.35,0.548-3.092,1.646c-0.744,1.099-1.118,2.551-1.118,4.355c0,1.779,0.374,3.221,1.118,4.318
		C959.396,306.355,960.428,306.904,961.746,306.904z"/>
	<path fill="#999999" d="M974.483,309.906v-17.972h3.477l0.294,2.417h0.145c0.807-0.781,1.683-1.451,2.634-2.015
		c0.952-0.562,2.038-0.842,3.258-0.842c1.929,0,3.331,0.621,4.211,1.866c0.877,1.244,1.318,3.002,1.318,5.273v11.272h-4.211v-10.726
		c0-1.488-0.22-2.535-0.659-3.147c-0.437-0.611-1.159-0.916-2.159-0.916c-0.778,0-1.471,0.189-2.067,0.569
		c-0.599,0.376-1.274,0.931-2.03,1.665v12.555L974.483,309.906L974.483,309.906z"/>
	<path fill="#999999" d="M1001.311,310.344c-2.075,0-3.545-0.604-4.412-1.812c-0.867-1.209-1.299-2.774-1.299-4.703v-8.566h-2.562
		v-3.147l2.781-0.181l0.514-4.903h3.514v4.903h4.575v3.328h-4.575v8.566c0,2.098,0.842,3.146,2.524,3.146
		c0.316,0,0.646-0.04,0.987-0.125c0.34-0.086,0.633-0.177,0.877-0.275l0.731,3.112c-0.487,0.171-1.043,0.323-1.667,0.457
		C1002.68,310.275,1002.019,310.344,1001.311,310.344z"/>
	<path fill="#999999" d="M1015.292,310.344c-1.66,0-3.16-0.375-4.503-1.115c-1.342-0.744-2.402-1.82-3.182-3.223
		c-0.782-1.404-1.173-3.095-1.173-5.069c0-1.953,0.396-3.636,1.189-5.051c0.791-1.418,1.823-2.501,3.092-3.261
		c1.269-0.757,2.599-1.133,3.988-1.133c1.634,0,3.001,0.359,4.101,1.077c1.098,0.723,1.924,1.723,2.485,3.001
		c0.562,1.282,0.843,2.767,0.843,4.447c0,0.878-0.062,1.563-0.182,2.05h-11.422c0.195,1.587,0.771,2.819,1.724,3.696
		c0.95,0.879,2.146,1.319,3.584,1.319c0.78,0,1.508-0.117,2.178-0.348c0.672-0.231,1.336-0.556,1.996-0.973l1.425,2.635
		c-0.854,0.562-1.806,1.024-2.854,1.393C1017.536,310.162,1016.438,310.344,1015.292,310.344z M1010.496,299.219h7.979
		c0-1.39-0.307-2.479-0.916-3.273c-0.611-0.793-1.525-1.188-2.744-1.188c-1.05,0-1.982,0.385-2.801,1.153
		C1011.198,296.675,1010.691,297.781,1010.496,299.219z"/>
	<path fill="#999999" d="M1026.163,309.906v-17.972h3.476l0.293,2.417h0.146c0.806-0.781,1.684-1.451,2.635-2.015
		c0.951-0.562,2.035-0.842,3.258-0.842c1.926,0,3.328,0.621,4.21,1.866c0.876,1.244,1.315,3.002,1.315,5.273v11.272h-4.209v-10.726
		c0-1.488-0.219-2.535-0.657-3.147c-0.438-0.611-1.159-0.916-2.159-0.916c-0.781,0-1.474,0.189-2.07,0.569
		c-0.597,0.376-1.273,0.931-2.027,1.665v12.555L1026.163,309.906L1026.163,309.906z"/>
	<path fill="#999999" d="M1052.989,310.344c-2.074,0-3.545-0.604-4.41-1.812c-0.866-1.209-1.299-2.774-1.299-4.703v-8.566h-2.562
		v-3.147l2.778-0.181l0.517-4.903h3.513v4.903h4.574v3.328h-4.574v8.566c0,2.098,0.842,3.146,2.524,3.146
		c0.317,0,0.646-0.04,0.987-0.125c0.342-0.086,0.635-0.177,0.88-0.275l0.729,3.112c-0.485,0.171-1.043,0.323-1.665,0.457
		C1054.359,310.275,1053.696,310.344,1052.989,310.344z"/>
	<path fill="#999999" d="M1057.602,302.22v-3.074h8.712v3.074H1057.602z"/>
	<path fill="#999999" d="M1070.887,309.906v-23.937h7.539c1.78,0,3.366,0.231,4.758,0.694c1.392,0.466,2.489,1.232,3.295,2.307
		c0.805,1.075,1.208,2.536,1.208,4.392c0,1.758-0.403,3.21-1.208,4.354c-0.806,1.147-1.892,2.003-3.258,2.565
		c-1.368,0.562-2.917,0.839-4.648,0.839h-3.439v8.784L1070.887,309.906L1070.887,309.906z M1075.134,297.718h3.11
		c3.517,0,5.272-1.451,5.272-4.354c0-1.512-0.457-2.555-1.375-3.127c-0.915-0.574-2.263-0.862-4.044-0.862h-2.965L1075.134,297.718
		L1075.134,297.718z"/>
	<path fill="#999999" d="M1091.824,309.906v-17.972h3.476l0.293,3.183h0.146c0.634-1.172,1.402-2.068,2.306-2.689
		c0.901-0.621,1.83-0.932,2.781-0.932c0.854,0,1.537,0.122,2.051,0.366l-0.732,3.661c-0.316-0.1-0.609-0.172-0.876-0.221
		c-0.271-0.05-0.599-0.075-0.987-0.075c-0.709,0-1.453,0.274-2.232,0.825c-0.778,0.549-1.452,1.507-2.014,2.873v10.979
		L1091.824,309.906L1091.824,309.906z"/>
	<path fill="#999999" d="M1112.467,310.344c-1.49,0-2.882-0.375-4.177-1.115c-1.294-0.744-2.343-1.82-3.146-3.223
		c-0.807-1.404-1.207-3.095-1.207-5.069c0-2.002,0.4-3.703,1.207-5.106c0.805-1.402,1.854-2.476,3.146-3.224
		c1.293-0.743,2.685-1.115,4.177-1.115c1.512,0,2.913,0.372,4.208,1.115c1.294,0.745,2.343,1.82,3.146,3.224
		c0.804,1.404,1.208,3.104,1.208,5.106c0,1.975-0.403,3.665-1.208,5.069c-0.805,1.401-1.854,2.476-3.146,3.223
		C1115.38,309.972,1113.977,310.344,1112.467,310.344z M1112.467,306.904c1.315,0,2.354-0.549,3.108-1.646
		c0.755-1.098,1.135-2.537,1.135-4.318c0-1.806-0.379-3.258-1.135-4.355c-0.756-1.099-1.793-1.646-3.108-1.646
		c-1.321,0-2.351,0.548-3.095,1.646c-0.744,1.099-1.115,2.551-1.115,4.355c0,1.779,0.371,3.221,1.115,4.318
		C1110.116,306.355,1111.144,306.904,1112.467,306.904z"/>
	<path fill="#999999" d="M1131.494,310.344c-2.243,0-4.036-0.829-5.378-2.489c-1.343-1.658-2.014-3.964-2.014-6.916
		c0-1.952,0.359-3.635,1.078-5.051c0.719-1.418,1.665-2.501,2.837-3.259c1.171-0.758,2.401-1.135,3.696-1.135
		c1.022,0,1.896,0.175,2.615,0.527c0.723,0.354,1.424,0.837,2.104,1.446l-0.146-2.89v-6.515h4.212v25.84h-3.477l-0.293-1.939h-0.146
		c-0.658,0.658-1.425,1.224-2.307,1.685C1133.397,310.113,1132.471,310.344,1131.494,310.344z M1132.52,306.868
		c1.342,0,2.6-0.671,3.771-2.013v-8.381c-0.609-0.562-1.221-0.951-1.827-1.172c-0.611-0.222-1.225-0.329-1.83-0.329
		c-1.147,0-2.129,0.521-2.946,1.558c-0.818,1.035-1.225,2.493-1.225,4.373c0,1.929,0.353,3.404,1.061,4.43
		C1130.227,306.355,1131.227,306.868,1132.52,306.868z"/>
	<path fill="#999999" d="M1151.186,310.344c-1.926,0-3.328-0.623-4.209-1.865c-0.877-1.245-1.317-3.005-1.317-5.273v-11.272h4.208
		v10.725c0,1.488,0.222,2.538,0.66,3.147c0.438,0.608,1.146,0.914,2.123,0.914c0.779,0,1.471-0.194,2.069-0.583
		c0.598-0.391,1.237-1.025,1.921-1.903v-12.298h4.211v17.972h-3.438l-0.33-2.635h-0.109c-0.781,0.927-1.635,1.673-2.562,2.232
		C1153.479,310.063,1152.407,310.344,1151.186,310.344z"/>
	<path fill="#999999" d="M1166.191,309.906v-25.84h4.136v16.141h0.109l6.662-8.271h4.613l-6.149,7.321l6.771,10.649h-4.573
		l-4.613-7.796l-2.818,3.225v4.573h-4.137V309.906z"/>
	<path fill="#999999" d="M1190.606,310.344c-2.076,0-3.545-0.604-4.412-1.812c-0.867-1.209-1.3-2.774-1.3-4.703v-8.566h-2.562
		v-3.147l2.78-0.181l0.514-4.903h3.514v4.903h4.574v3.328h-4.574v8.566c0,2.098,0.842,3.146,2.524,3.146
		c0.316,0,0.646-0.04,0.987-0.125c0.34-0.086,0.633-0.177,0.878-0.275l0.73,3.112c-0.487,0.171-1.043,0.323-1.666,0.457
		C1191.974,310.275,1191.313,310.344,1190.606,310.344z"/>
	<path fill="#999999" d="M1199.609,288.788c-0.756,0-1.368-0.222-1.829-0.661c-0.464-0.436-0.695-1.022-0.695-1.755
		c0-0.708,0.231-1.28,0.695-1.721c0.463-0.44,1.073-0.659,1.829-0.659c0.757,0,1.366,0.219,1.828,0.659
		c0.466,0.438,0.695,1.013,0.695,1.721c0,0.731-0.229,1.319-0.695,1.755C1200.975,288.568,1200.366,288.788,1199.609,288.788z
		 M1197.486,309.906v-17.972h4.209v17.972H1197.486z"/>
	<path fill="#999999" d="M1214.432,310.344c-1.489,0-2.881-0.375-4.173-1.115c-1.294-0.744-2.343-1.82-3.147-3.223
		c-0.806-1.404-1.209-3.095-1.209-5.069c0-2.002,0.403-3.703,1.209-5.106c0.806-1.402,1.854-2.476,3.147-3.224
		c1.292-0.743,2.681-1.115,4.173-1.115c1.512,0,2.914,0.372,4.208,1.115c1.294,0.745,2.343,1.82,3.146,3.224
		c0.807,1.403,1.209,3.104,1.209,5.106c0,1.975-0.402,3.665-1.209,5.069c-0.805,1.401-1.854,2.476-3.146,3.223
		C1217.345,309.972,1215.943,310.344,1214.432,310.344z M1214.432,306.904c1.316,0,2.354-0.549,3.109-1.646
		c0.758-1.099,1.135-2.537,1.135-4.318c0-1.806-0.377-3.258-1.135-4.355c-0.756-1.099-1.793-1.646-3.109-1.646
		c-1.318,0-2.35,0.548-3.094,1.646c-0.744,1.099-1.115,2.551-1.115,4.355c0,1.779,0.371,3.221,1.115,4.318
		C1212.083,306.355,1213.115,306.904,1214.432,306.904z"/>
	<path fill="#999999" d="M1227.171,309.906v-17.972h3.475l0.293,2.417h0.146c0.805-0.781,1.683-1.451,2.634-2.015
		c0.952-0.562,2.036-0.842,3.258-0.842c1.926,0,3.33,0.621,4.21,1.866c0.878,1.244,1.318,3.002,1.318,5.273v11.272h-4.211v-10.726
		c0-1.488-0.22-2.535-0.658-3.147c-0.438-0.611-1.159-0.916-2.159-0.916c-0.781,0-1.471,0.189-2.068,0.569
		c-0.598,0.376-1.273,0.931-2.03,1.665v12.555L1227.171,309.906L1227.171,309.906z"/>
	<path fill="#999999" d="M1257.107,288.788c-0.757,0-1.368-0.222-1.829-0.661c-0.464-0.436-0.695-1.022-0.695-1.755
		c0-0.708,0.231-1.28,0.695-1.721c0.463-0.44,1.074-0.659,1.829-0.659c0.757,0,1.366,0.219,1.828,0.659
		c0.464,0.438,0.695,1.013,0.695,1.721c0,0.731-0.231,1.319-0.695,1.755C1258.473,288.568,1257.864,288.788,1257.107,288.788z
		 M1254.984,309.906v-17.972h4.209v17.972H1254.984z"/>
	<path fill="#999999" d="M1264.575,309.906v-17.972h3.477l0.292,2.417h0.146c0.805-0.781,1.684-1.451,2.634-2.015
		c0.952-0.562,2.038-0.842,3.259-0.842c1.927,0,3.331,0.621,4.21,1.866c0.877,1.244,1.318,3.002,1.318,5.273v11.272h-4.212v-10.726
		c0-1.488-0.219-2.535-0.658-3.147c-0.437-0.611-1.158-0.916-2.158-0.916c-0.78,0-1.472,0.189-2.068,0.569
		c-0.598,0.376-1.274,0.931-2.03,1.665v12.555L1264.575,309.906L1264.575,309.906z"/>
	<path fill="#999999" d="M1292.757,309.906v-23.937h4.244v10.872h0.111l8.525-10.872h4.724l-7.356,9.333l8.602,14.604h-4.686
		l-6.479-11.272l-3.438,4.279v6.991L1292.757,309.906L1292.757,309.906z"/>
	<path fill="#999999" d="M1319.141,310.344c-1.925,0-3.328-0.623-4.209-1.865c-0.877-1.245-1.317-3.005-1.317-5.273v-11.272h4.208
		v10.725c0,1.488,0.221,2.538,0.66,3.147c0.438,0.608,1.146,0.914,2.123,0.914c0.779,0,1.471-0.194,2.07-0.583
		c0.598-0.391,1.236-1.025,1.92-1.903v-12.298h4.211v17.972h-3.439l-0.328-2.635h-0.11c-0.78,0.927-1.635,1.673-2.562,2.232
		C1321.436,310.063,1320.364,310.344,1319.141,310.344z"/>
	<path fill="#999999" d="M1338.247,310.344c-1.485,0-2.542-0.45-3.166-1.354c-0.625-0.901-0.934-2.134-0.934-3.695v-21.229h4.212
		v21.448c0,0.512,0.099,0.874,0.292,1.079c0.193,0.207,0.403,0.311,0.622,0.311c0.098,0,0.188-0.005,0.275-0.018
		c0.082-0.017,0.214-0.03,0.382-0.056l0.549,3.146c-0.244,0.098-0.557,0.184-0.932,0.258
		C1339.172,310.308,1338.735,310.344,1338.247,310.344z"/>
	<path fill="#999999" d="M1350.4,310.344c-2.075,0-3.545-0.604-4.412-1.812c-0.866-1.209-1.3-2.774-1.3-4.703v-8.566h-2.562v-3.147
		l2.781-0.181l0.514-4.903h3.514v4.903h4.575v3.328h-4.575v8.566c0,2.098,0.842,3.146,2.525,3.146c0.315,0,0.645-0.04,0.984-0.125
		c0.341-0.086,0.634-0.177,0.879-0.275l0.731,3.112c-0.487,0.171-1.043,0.323-1.668,0.457
		C1351.769,310.275,1351.108,310.344,1350.4,310.344z"/>
	<path fill="#999999" d="M1362.626,310.344c-1.927,0-3.33-0.623-4.209-1.865c-0.879-1.245-1.319-3.005-1.319-5.273v-11.272h4.209
		v10.725c0,1.488,0.222,2.538,0.661,3.147c0.438,0.608,1.146,0.914,2.122,0.914c0.78,0,1.473-0.194,2.07-0.583
		c0.599-0.391,1.235-1.025,1.921-1.903v-12.298h4.209v17.972h-3.438l-0.328-2.635h-0.11c-0.779,0.927-1.635,1.673-2.562,2.232
		C1364.921,310.062,1363.844,310.344,1362.626,310.344z"/>
	<path fill="#999999" d="M1377.631,309.906v-17.972h3.477l0.291,3.183h0.146c0.635-1.172,1.402-2.068,2.306-2.689
		c0.902-0.621,1.83-0.932,2.782-0.932c0.854,0,1.537,0.122,2.049,0.366l-0.732,3.661c-0.315-0.1-0.608-0.172-0.875-0.221
		c-0.27-0.05-0.599-0.075-0.987-0.075c-0.709,0-1.453,0.274-2.232,0.825c-0.779,0.549-1.453,1.507-2.013,2.873v10.979
		L1377.631,309.906L1377.631,309.906z"/>
	<path fill="#999999" d="M1398.602,310.344c-1.662,0-3.162-0.375-4.503-1.115c-1.341-0.744-2.404-1.82-3.183-3.223
		c-0.781-1.404-1.174-3.095-1.174-5.069c0-1.953,0.396-3.636,1.189-5.051c0.792-1.418,1.825-2.501,3.093-3.261
		c1.267-0.757,2.599-1.133,3.988-1.133c1.635,0,3.002,0.359,4.1,1.077c1.099,0.723,1.924,1.723,2.488,3.001
		c0.562,1.282,0.841,2.767,0.841,4.447c0,0.878-0.062,1.563-0.182,2.05h-11.422c0.194,1.587,0.771,2.819,1.723,3.696
		c0.951,0.879,2.146,1.319,3.587,1.319c0.778,0,1.507-0.117,2.175-0.348c0.674-0.231,1.336-0.556,1.996-0.973l1.428,2.635
		c-0.856,0.562-1.809,1.024-2.856,1.393C1400.844,310.162,1399.747,310.344,1398.602,310.344z M1393.807,299.219h7.978
		c0-1.39-0.306-2.479-0.915-3.273c-0.61-0.793-1.525-1.188-2.744-1.188c-1.051,0-1.982,0.385-2.802,1.153
		C1394.51,296.675,1394.005,297.781,1393.807,299.219z"/>
	<path fill="#999999" d="M1411.594,288.788c-0.756,0-1.367-0.222-1.827-0.661c-0.464-0.436-0.696-1.022-0.696-1.755
		c0-0.708,0.232-1.28,0.696-1.721c0.463-0.44,1.073-0.659,1.827-0.659c0.757,0,1.368,0.219,1.83,0.659
		c0.463,0.438,0.694,1.013,0.694,1.721c0,0.731-0.231,1.319-0.694,1.755C1412.962,288.568,1412.35,288.788,1411.594,288.788z
		 M1409.472,309.906v-17.972h4.209v17.972H1409.472z"/>
	<path fill="#999999" d="M1419.061,309.906v-17.972h3.475l0.293,2.417h0.146c0.806-0.781,1.682-1.451,2.634-2.015
		c0.951-0.562,2.036-0.842,3.259-0.842c1.927,0,3.328,0.621,4.209,1.866c0.876,1.244,1.317,3.002,1.317,5.273v11.272h-4.209v-10.726
		c0-1.488-0.22-2.535-0.659-3.147c-0.438-0.611-1.158-0.916-2.158-0.916c-0.78,0-1.473,0.189-2.069,0.569
		c-0.599,0.376-1.274,0.931-2.029,1.665v12.555L1419.061,309.906L1419.061,309.906z"/>
	<path fill="#999999" d="M1439.557,309.906v-17.972h3.475l0.293,3.183h0.146c0.632-1.172,1.402-2.068,2.306-2.689
		c0.902-0.621,1.83-0.932,2.782-0.932c0.854,0,1.535,0.122,2.049,0.366l-0.732,3.661c-0.315-0.1-0.608-0.172-0.876-0.221
		c-0.271-0.05-0.598-0.075-0.986-0.075c-0.709,0-1.453,0.274-2.233,0.825c-0.778,0.549-1.452,1.507-2.012,2.873v10.979
		L1439.557,309.906L1439.557,309.906z"/>
	<path fill="#999999" d="M1455.33,288.788c-0.756,0-1.365-0.222-1.829-0.661c-0.464-0.436-0.694-1.022-0.694-1.755
		c0-0.708,0.23-1.28,0.694-1.721c0.466-0.44,1.076-0.659,1.829-0.659c0.757,0,1.366,0.219,1.831,0.659
		c0.463,0.438,0.693,1.013,0.693,1.721c0,0.731-0.23,1.319-0.693,1.755C1456.695,288.568,1456.088,288.788,1455.33,288.788z
		 M1453.21,309.906v-17.972h4.209v17.972H1453.21z"/>
	<path fill="#999999" d="M1470.3,310.344c-1.634,0-3.104-0.375-4.41-1.115c-1.307-0.744-2.344-1.82-3.111-3.223
		c-0.77-1.404-1.15-3.095-1.15-5.069c0-2.002,0.412-3.703,1.242-5.106c0.828-1.402,1.934-2.476,3.312-3.224
		c1.378-0.743,2.859-1.115,4.447-1.115c1.146,0,2.146,0.194,3.001,0.584c0.854,0.391,1.609,0.867,2.271,1.427l-2.051,2.744
		c-0.464-0.415-0.938-0.737-1.425-0.972c-0.489-0.23-1.014-0.346-1.575-0.346c-1.439,0-2.618,0.548-3.531,1.646
		c-0.914,1.099-1.374,2.551-1.374,4.357c0,1.778,0.445,3.22,1.336,4.318c0.892,1.098,2.042,1.646,3.458,1.646
		c0.708,0,1.374-0.152,1.994-0.457c0.624-0.305,1.189-0.666,1.703-1.081l1.72,2.782c-0.827,0.729-1.758,1.28-2.778,1.646
		C1472.35,310.162,1471.326,310.344,1470.3,310.344z"/>
	<path fill="#999999" d="M1479.708,309.906v-25.84h4.209v6.661l-0.146,3.478c0.756-0.707,1.598-1.336,2.525-1.886
		c0.925-0.549,1.999-0.823,3.221-0.823c1.925,0,3.33,0.621,4.209,1.866c0.878,1.244,1.317,3.002,1.317,5.273v11.272h-4.211v-10.726
		c0-1.488-0.219-2.535-0.657-3.147c-0.438-0.611-1.159-0.916-2.158-0.916c-0.782,0-1.471,0.189-2.068,0.569
		c-0.598,0.376-1.274,0.931-2.03,1.665v12.555L1479.708,309.906L1479.708,309.906z"/>
	<path fill="#999999" d="M1506.463,310.344c-2.076,0-3.546-0.604-4.412-1.812c-0.867-1.209-1.3-2.774-1.3-4.703v-8.566h-2.562
		v-3.147l2.78-0.181l0.514-4.903h3.513v4.903h4.575v3.328h-4.575v8.566c0,2.098,0.843,3.146,2.525,3.146
		c0.316,0,0.646-0.04,0.987-0.125c0.34-0.086,0.633-0.177,0.878-0.275l0.729,3.112c-0.486,0.171-1.043,0.323-1.666,0.457
		C1507.83,310.275,1507.169,310.344,1506.463,310.344z"/>
	<path fill="#999999" d="M1518.685,310.344c-1.926,0-3.329-0.623-4.21-1.865c-0.877-1.245-1.318-3.005-1.318-5.273v-11.272h4.21
		v10.725c0,1.488,0.221,2.538,0.659,3.147c0.438,0.608,1.146,0.914,2.123,0.914c0.78,0,1.473-0.194,2.07-0.583
		c0.598-0.391,1.237-1.025,1.921-1.903v-12.298h4.209v17.972h-3.438l-0.328-2.635h-0.11c-0.78,0.927-1.635,1.673-2.562,2.232
		C1520.979,310.062,1519.906,310.344,1518.685,310.344z"/>
	<path fill="#999999" d="M1533.69,309.906v-17.972h3.477l0.293,2.417h0.146c0.806-0.781,1.682-1.451,2.633-2.015
		c0.952-0.562,2.038-0.842,3.258-0.842c1.929,0,3.332,0.621,4.212,1.866c0.876,1.244,1.317,3.002,1.317,5.273v11.272h-4.21v-10.726
		c0-1.488-0.221-2.535-0.659-3.147c-0.438-0.611-1.16-0.916-2.16-0.916c-0.778,0-1.471,0.189-2.067,0.569
		c-0.599,0.376-1.274,0.931-2.03,1.665v12.555L1533.69,309.906L1533.69,309.906z"/>
	<path fill="#999999" d="M1560.445,317.848c-1.416,0-2.688-0.171-3.825-0.513c-1.135-0.343-2.025-0.859-2.674-1.557
		c-0.646-0.695-0.971-1.57-0.971-2.619c0-1.487,0.854-2.77,2.562-3.843v-0.146c-0.465-0.291-0.849-0.682-1.152-1.171
		c-0.307-0.488-0.459-1.1-0.459-1.83c0-0.708,0.202-1.349,0.604-1.923c0.401-0.574,0.859-1.043,1.374-1.408v-0.146
		c-0.611-0.463-1.153-1.108-1.629-1.938c-0.475-0.829-0.714-1.771-0.714-2.819c0-1.391,0.327-2.563,0.987-3.517
		c0.659-0.95,1.53-1.675,2.618-2.175c1.086-0.499,2.251-0.75,3.495-0.75c0.485,0,0.958,0.042,1.408,0.125
		c0.451,0.086,0.859,0.189,1.226,0.313h6.44v3.111h-3.293c0.293,0.342,0.534,0.773,0.73,1.3c0.195,0.522,0.293,1.104,0.293,1.737
		c0,1.317-0.305,2.432-0.916,3.351c-0.611,0.914-1.427,1.604-2.451,2.067c-1.025,0.464-2.175,0.695-3.439,0.695
		c-0.392,0-0.794-0.038-1.208-0.109c-0.415-0.075-0.83-0.196-1.245-0.368c-0.271,0.244-0.481,0.486-0.641,0.73
		c-0.158,0.243-0.237,0.574-0.237,0.987c0,0.513,0.216,0.916,0.641,1.209c0.426,0.293,1.188,0.438,2.287,0.438h3.186
		c2.171,0,3.812,0.348,4.923,1.041c1.109,0.695,1.664,1.825,1.664,3.387c0,1.173-0.388,2.238-1.171,3.201
		c-0.78,0.967-1.892,1.728-3.329,2.287C1564.093,317.569,1562.396,317.848,1560.445,317.848z M1561.106,315.102
		c1.438,0,2.61-0.293,3.513-0.875c0.902-0.586,1.354-1.258,1.354-2.016c0-0.708-0.273-1.183-0.824-1.426
		c-0.549-0.245-1.335-0.368-2.363-0.368h-2.451c-0.974,0-1.793-0.082-2.453-0.257c-0.924,0.708-1.389,1.5-1.389,2.379
		c0,0.808,0.415,1.435,1.242,1.886C1558.567,314.881,1559.689,315.102,1561.106,315.102z M1560.667,301.56
		c0.854,0,1.586-0.316,2.195-0.951c0.609-0.633,0.916-1.522,0.916-2.672c0-1.124-0.301-1.995-0.896-2.618
		c-0.601-0.624-1.337-0.932-2.216-0.932c-0.881,0-1.625,0.306-2.231,0.915c-0.611,0.608-0.916,1.487-0.916,2.635
		c0,1.148,0.305,2.036,0.916,2.672C1559.042,301.244,1559.786,301.56,1560.667,301.56z"/>
	<path fill="#999999" d="M1580.321,310.344c-1.66,0-3.16-0.375-4.502-1.115c-1.342-0.744-2.404-1.82-3.185-3.223
		c-0.779-1.404-1.171-3.095-1.171-5.069c0-1.953,0.396-3.636,1.188-5.051c0.793-1.418,1.824-2.501,3.092-3.261
		c1.271-0.757,2.601-1.133,3.988-1.133c1.635,0,3.001,0.359,4.099,1.077c1.1,0.723,1.928,1.723,2.489,3.001
		c0.562,1.282,0.843,2.767,0.843,4.447c0,0.878-0.062,1.563-0.185,2.05h-11.42c0.196,1.587,0.771,2.819,1.721,3.696
		c0.951,0.879,2.146,1.319,3.587,1.319c0.78,0,1.508-0.117,2.178-0.348c0.672-0.231,1.334-0.556,1.994-0.973l1.428,2.635
		c-0.854,0.562-1.808,1.024-2.855,1.393C1582.565,310.162,1581.469,310.344,1580.321,310.344z M1575.526,299.219h7.979
		c0-1.39-0.308-2.479-0.917-3.273c-0.61-0.793-1.524-1.188-2.745-1.188c-1.05,0-1.98,0.385-2.802,1.153
		C1576.227,296.675,1575.721,297.781,1575.526,299.219z"/>
	<path fill="#999999" d="M1591.189,309.906v-17.972h3.478l0.293,2.417h0.146c0.807-0.781,1.682-1.451,2.633-2.015
		c0.952-0.562,2.038-0.842,3.259-0.842c1.928,0,3.33,0.621,4.211,1.866c0.877,1.244,1.317,3.002,1.317,5.273v11.272h-4.209v-10.726
		c0-1.488-0.222-2.535-0.661-3.147c-0.437-0.611-1.158-0.916-2.158-0.916c-0.779,0-1.472,0.189-2.068,0.569
		c-0.598,0.376-1.274,0.931-2.03,1.665v12.555L1591.189,309.906L1591.189,309.906z"/>
</g>
<g>
	<path fill="none" stroke="#F7AC39" stroke-width="31.2" stroke-linejoin="bevel" stroke-miterlimit="99" d="M199.487,108.032
		c11.225,0,20.409,9.182,20.409,20.409v129.26c0,11.227-9.185,20.41-20.409,20.41H70.224c-11.225,0-20.409-9.182-20.409-20.41
		v-129.26c0-11.226,9.183-20.409,20.409-20.409H199.487L199.487,108.032z"/>
</g>
<g>
	<path fill="none" stroke="#298BB5" stroke-width="31.2" stroke-linejoin="bevel" stroke-miterlimit="99" d="M284.527,39.84
		c11.225,0,20.41,9.185,20.41,20.409v129.26c0,11.227-9.185,20.412-20.41,20.412H155.264c-11.226,0-20.409-9.185-20.409-20.412
		V60.249c0-11.225,9.184-20.409,20.409-20.409H284.527z"/>
</g>
<g>
	<path fill="none" stroke="#B51B62" stroke-width="31.2" stroke-linejoin="bevel" stroke-miterlimit="99" d="M369.567,148.997
		c11.226,0,20.412,9.186,20.412,20.409v129.265c0,11.225-9.186,20.409-20.412,20.409h-129.26c-11.227,0-20.409-9.185-20.409-20.409
		V169.406c0-11.224,9.183-20.409,20.409-20.409H369.567L369.567,148.997z"/>
</g>
<g opacity="0.8">
	<path fill="#F7AC39" d="M199.487,108.032c11.225,0,20.409,9.185,20.409,20.409v129.26c0,11.227-9.185,20.41-20.409,20.41H70.224
		c-11.225,0-20.409-9.182-20.409-20.41v-129.26c0-11.226,9.183-20.409,20.409-20.409H199.487L199.487,108.032z"/>
	<path fill="#F7AC39" stroke="#FFFFFF" stroke-width="24" stroke-linejoin="bevel" stroke-miterlimit="99" d="M199.487,108.032
		c11.225,0,20.409,9.185,20.409,20.409v129.26c0,11.227-9.185,20.41-20.409,20.41H70.224c-11.225,0-20.409-9.182-20.409-20.41
		v-129.26c0-11.226,9.183-20.409,20.409-20.409H199.487L199.487,108.032z"/>
</g>
<g opacity="0.8">
	<path fill="#298BB5" d="M284.527,39.84c11.225,0,20.41,9.185,20.41,20.409v129.26c0,11.227-9.187,20.412-20.41,20.412H155.264
		c-11.226,0-20.409-9.185-20.409-20.412V60.249c0-11.225,9.184-20.409,20.409-20.409H284.527z"/>
	<path fill="#298BB5" stroke="#FFFFFF" stroke-width="24" stroke-linejoin="bevel" stroke-miterlimit="99" d="M284.527,39.84
		c11.225,0,20.41,9.185,20.41,20.409v129.26c0,11.227-9.187,20.412-20.41,20.412H155.264c-11.226,0-20.409-9.185-20.409-20.412
		V60.249c0-11.225,9.184-20.409,20.409-20.409H284.527z"/>
</g>
<g opacity="0.8">
	<path fill="#B51B62" d="M369.567,148.997c11.226,0,20.412,9.186,20.412,20.409v129.265c0,11.225-9.187,20.409-20.412,20.409
		h-129.26c-11.227,0-20.409-9.185-20.409-20.409V169.406c0-11.224,9.184-20.409,20.409-20.409H369.567L369.567,148.997z"/>
	<path fill="#B51B62" stroke="#FFFFFF" stroke-width="24" stroke-linejoin="bevel" stroke-miterlimit="99" d="M369.567,148.997
		c11.226,0,20.412,9.186,20.412,20.409v129.265c0,11.225-9.187,20.409-20.412,20.409h-129.26c-11.227,0-20.409-9.185-20.409-20.409
		V169.406c0-11.224,9.184-20.409,20.409-20.409H369.567L369.567,148.997z"/>
</g>
</svg>
