<?xml version="1.0" encoding="UTF-8"?>
<svg width="143px" height="139px" viewBox="0 0 143 139" version="1.1" xmlns="http://www.w3.org/2000/svg" xmlns:xlink="http://www.w3.org/1999/xlink">
    <title>Group</title>
    <g id="Page-1" stroke="none" stroke-width="1" fill="none" fill-rule="evenodd">
        <g id="BKM_Neustart_Kultur_Wortmarke_neg_RGB_RZ" transform="translate(-8.000000, -9.000000)">
            <g id="Group" transform="translate(8.504000, 9.165000)">
                <polyline id="Fill-1" fill="#AD9C82" points="7.10542736e-15 125.678 7.10542736e-15 89.294 6.249 89.294 6.249 102.749 6.35 102.749 12.901 89.294 19.149 89.294 12.397 102.85 20.006 125.678 13.657 125.678 8.567 108.745 8.466 108.745 6.249 112.777 6.249 125.678 7.10542736e-15 125.678"></polyline>
                <path d="M22.934,89.294 L29.183,89.294 L29.183,116.758 C29.183,119.412 30.291,120.739 32.509,120.739 C34.727,120.739 35.835,119.412 35.835,116.758 L35.835,89.294 L42.084,89.294 L42.084,116.506 C42.084,119.664 41.234,122.067 39.539,123.712 C37.842,125.359 35.499,126.182 32.509,126.182 C29.519,126.182 27.175,125.359 25.479,123.712 C23.781,122.067 22.934,119.664 22.934,116.506 L22.934,89.294" id="Fill-2" fill="#AD9C82"></path>
                <polyline id="Fill-3" fill="#AD9C82" points="47.043 125.678 47.043 89.294 53.291 89.294 53.291 120.235 63.118 120.235 63.118 125.678 47.043 125.678"></polyline>
                <polyline id="Fill-4" fill="#AD9C82" points="68.702 94.736 62.654 94.736 62.654 89.294 80.998 89.294 80.998 94.736 74.951 94.736 74.951 125.678 68.702 125.678 68.702 94.736"></polyline>
                <path d="M84.879,89.294 L91.127,89.294 L91.127,116.758 C91.127,119.412 92.235,120.739 94.453,120.739 C96.671,120.739 97.779,119.412 97.779,116.758 L97.779,89.294 L104.028,89.294 L104.028,116.506 C104.028,119.664 103.179,122.067 101.483,123.712 C99.786,125.359 97.443,126.182 94.453,126.182 C91.463,126.182 89.119,125.359 87.423,123.712 C85.727,122.067 84.879,119.664 84.879,116.506 L84.879,89.294" id="Fill-5" fill="#AD9C82"></path>
                <path d="M115.372,105.621 L117.59,105.621 C118.429,105.621 119.144,105.537 119.732,105.369 C120.318,105.202 120.797,104.9 121.167,104.462 C121.537,104.026 121.806,103.446 121.974,102.724 C122.142,102.001 122.226,101.104 122.226,100.027 C122.226,97.878 121.873,96.408 121.167,95.618 C120.462,94.829 119.269,94.434 117.59,94.434 L115.372,94.434 L115.372,105.621 Z M115.372,125.678 L109.123,125.678 L109.123,89.294 L117.892,89.294 C121.385,89.294 124.023,90.117 125.804,91.763 C127.584,93.409 128.475,96.165 128.475,100.027 C128.475,101.507 128.349,102.767 128.097,103.807 C127.845,104.849 127.509,105.731 127.089,106.453 C126.668,107.175 126.198,107.755 125.678,108.192 C125.157,108.628 124.627,108.965 124.09,109.199 L129.382,125.678 L123.032,125.678 L118.598,110.61 C118.194,110.678 117.698,110.72 117.111,110.736 C116.523,110.754 115.943,110.762 115.372,110.762 L115.372,125.678 L115.372,125.678 Z" id="Fill-6" fill="#AD9C82"></path>
                <path d="M38.885,53.748 C38.818,52.986 38.677,52.349 38.462,51.834 C38.246,51.32 37.981,50.914 37.666,50.616 C37.351,50.317 37.012,50.103 36.647,49.97 C36.282,49.838 35.934,49.771 35.604,49.771 C34.609,49.771 33.847,50.078 33.316,50.691 C32.786,51.305 32.521,52.174 32.521,53.301 C32.521,54.328 32.827,55.274 33.44,56.134 C34.054,56.996 34.824,57.858 35.752,58.72 C36.68,59.582 37.691,60.452 38.785,61.33 C39.879,62.208 40.89,63.178 41.817,64.238 C42.745,65.299 43.516,66.467 44.13,67.743 C44.742,69.02 45.049,70.47 45.049,72.093 C45.049,73.584 44.809,74.902 44.328,76.046 C43.848,77.189 43.185,78.15 42.34,78.929 C41.494,79.708 40.467,80.296 39.258,80.693 C38.047,81.092 36.73,81.29 35.305,81.29 C33.879,81.29 32.603,81.024 31.478,80.495 C30.351,79.965 29.396,79.244 28.618,78.333 C27.839,77.421 27.234,76.369 26.804,75.175 C26.373,73.982 26.124,72.706 26.058,71.348 L31.924,70.502 C32.057,72.325 32.454,73.684 33.117,74.579 C33.78,75.474 34.609,75.921 35.604,75.921 C36.664,75.921 37.525,75.64 38.188,75.076 C38.852,74.513 39.183,73.701 39.183,72.64 C39.183,71.447 38.876,70.387 38.263,69.458 C37.649,68.53 36.879,67.636 35.951,66.774 C35.023,65.912 34.013,65.051 32.919,64.189 C31.824,63.327 30.814,62.382 29.886,61.355 C28.958,60.327 28.188,59.167 27.574,57.874 C26.961,56.582 26.654,55.074 26.654,53.351 C26.654,50.467 27.482,48.255 29.141,46.713 C30.797,45.172 33.15,44.401 36.2,44.401 C37.459,44.401 38.586,44.617 39.581,45.048 C40.575,45.48 41.428,46.084 42.141,46.862 C42.854,47.642 43.434,48.562 43.881,49.622 C44.328,50.683 44.618,51.843 44.751,53.102 L38.885,53.748" id="Fill-7" fill="#BC395F"></path>
                <polyline id="Fill-8" fill="#BC395F" points="53.833 50.268 47.867 50.268 47.867 44.899 65.964 44.899 65.964 50.268 59.998 50.268 59.998 80.793 53.833 80.793 53.833 50.268"></polyline>
                <path d="M73.664,67.47 L78.636,67.47 L76.199,52.058 L76.1,52.058 L73.664,67.47 Z M71.676,80.793 L65.71,80.793 L72.322,44.899 L79.978,44.899 L86.59,80.793 L80.624,80.793 L79.53,72.839 L72.769,72.839 L71.676,80.793 L71.676,80.793 Z" id="Fill-9" fill="#BC395F"></path>
                <polyline id="Fill-10" fill="#BC395F" points="118.839 50.268 112.873 50.268 112.873 44.899 130.971 44.899 130.971 50.268 125.004 50.268 125.004 80.793 118.839 80.793 118.839 50.268"></polyline>
                <path d="M96.532,61.007 L98.72,61.007 C99.548,61.007 100.252,60.924 100.833,60.758 C101.412,60.593 101.884,60.295 102.249,59.863 C102.614,59.433 102.879,58.861 103.045,58.148 C103.21,57.436 103.294,56.55 103.294,55.488 C103.294,53.368 102.945,51.917 102.249,51.139 C101.553,50.36 100.376,49.97 98.72,49.97 L96.532,49.97 L96.532,61.007 Z M96.532,80.793 L90.367,80.793 L90.367,44.899 L99.018,44.899 C102.465,44.899 105.065,45.711 106.823,47.335 C108.58,48.959 109.458,51.678 109.458,55.488 C109.458,56.947 109.334,58.191 109.085,59.217 C108.836,60.245 108.505,61.114 108.091,61.827 C107.676,62.54 107.213,63.112 106.699,63.542 C106.185,63.973 105.662,64.305 105.133,64.536 L110.354,80.793 L104.089,80.793 L99.714,65.929 C99.316,65.995 98.827,66.036 98.247,66.053 C97.667,66.07 97.095,66.077 96.532,66.077 L96.532,80.793 L96.532,80.793 Z" id="Fill-11" fill="#BC395F"></path>
                <polyline id="Fill-12" fill="#4B5555" points="63.535 36.409 63.535 0.025 69.33 0.025 76.939 20.837 77.04 20.837 77.04 0.025 82.685 0.025 82.685 36.409 77.242 36.409 69.279 13.681 69.179 13.681 69.179 36.409 63.535 36.409"></polyline>
                <polyline id="Fill-13" fill="#4B5555" points="87.805 36.409 87.805 0.025 104.535 0.025 104.535 5.467 94.053 5.467 94.053 14.84 102.116 14.84 102.116 20.283 94.053 20.283 94.053 30.966 105.24 30.966 105.24 36.409 87.805 36.409"></polyline>
                <path d="M109.524,0.025 L115.774,0.025 L115.774,27.489 C115.774,30.144 116.882,31.471 119.1,31.471 C121.316,31.471 122.425,30.144 122.425,27.489 L122.425,0.025 L128.674,0.025 L128.674,27.237 C128.674,30.396 127.825,32.798 126.129,34.443 C124.433,36.09 122.088,36.912 119.1,36.912 C116.108,36.912 113.765,36.09 112.068,34.443 C110.372,32.798 109.524,30.396 109.524,27.237 L109.524,0.025" id="Fill-14" fill="#4B5555"></path>
                <polyline id="Fill-15" fill="#AEB7B6" points="4.124 80.78 7.10542736e-15 80.787 7.10542736e-15 0 54.992 0 54.992 4.039 4.124 4.039 4.124 80.78"></polyline>
                <polyline id="Fill-16" fill="#AEB7B6" points="141.732 138.33 1.42108547e-14 138.33 1.42108547e-14 134.078 137.481 134.078 137.481 0 141.732 0 141.732 138.33"></polyline>
            </g>
        </g>
    </g>
</svg>