<svg fill="none" viewBox="0 0 439 604" xmlns="http://www.w3.org/2000/svg" xmlns:xlink="http://www.w3.org/1999/xlink"><mask id="a" height="596" maskUnits="userSpaceOnUse" width="428" x="2" y="6"><rect fill="#ccb36d" height="592" rx="212" stroke="#ccb36d" stroke-dasharray="1 16" stroke-linecap="round" stroke-width="3" width="424" x="4" y="8"/></mask><path d="m0 0h439v604h-439z" fill="#e8e4cf"/><g mask="url(#a)" opacity=".1"><path d="m93.551-138.484 5.825 1.561-232.814 868.875-5.825-1.56zm15.812 4.237 5.825 1.56-232.814 868.876-5.825-1.56zm15.814 4.236 5.825 1.56-232.814 868.876-5.825-1.56zm15.812 4.238 5.825 1.56-232.814 868.877-5.825-1.56zm15.814 4.237 5.825 1.56-232.814 868.876-5.825-1.56zm15.812 4.237 5.825 1.56-232.814 868.876-5.825-1.56zm15.813 4.237 5.825 1.56-232.813 868.877-5.825-1.56zm15.813 4.237 5.825 1.56-232.814 868.876-5.825-1.56zm15.813 4.237 5.825 1.56-232.814 868.877-5.825-1.56zm15.812 4.237 5.825 1.56-232.814 868.877-5.825-1.56zm15.814 4.237 5.825 1.56-232.814 868.877-5.826-1.56zm15.812 4.237 5.825 1.56-232.814 868.877-5.825-1.56zm15.814 4.237 5.826 1.561-232.815 868.875-5.825-1.56zm15.812 4.238 5.825 1.56-232.813 868.877-5.826-1.56zm15.813 4.236 5.825 1.56-232.814 868.876-5.825-1.56zm15.813 4.237 5.826 1.56-232.815 868.876-5.825-1.56zm15.813 4.238 5.825 1.56-232.814 868.876-5.826-1.56zm15.812 4.236 5.825 1.56-232.814 868.877-5.825-1.56zm15.814 4.237 5.826 1.56-232.815 868.876-5.825-1.56zm15.812 4.238 5.825 1.56-232.814 868.876-5.826-1.56zm15.814 4.237 5.825 1.56-232.814 868.877-5.826-1.56zm15.812 4.236 5.826 1.56-232.815 868.877-5.825-1.56zm15.813 4.237 5.826 1.561-232.815 868.875-5.825-1.56zm15.813 4.238 5.825 1.56-232.814 868.876-5.826-1.56zm15.813 4.237 5.826 1.56-232.816 868.877-5.825-1.56zm15.813 4.236 5.826 1.561-232.815 868.875-5.825-1.56zm15.813 4.238 5.825 1.56-232.814 868.876-5.826-1.56zm15.812 4.237 5.825 1.56-232.813 868.877-5.825-1.56zm15.814 4.237 5.826 1.56-232.815 868.877-5.825-1.56zm15.812 4.237 5.825 1.56-232.814 868.876-5.826-1.56zm15.813 4.237 5.825 1.56-232.814 868.876-5.825-1.56zm15.813 4.237 5.826 1.56-232.816 868.876-5.825-1.56zm15.812 4.238 5.825 1.56-232.814 868.876-5.826-1.56zm15.814 4.236 5.825 1.56-232.814 868.876-5.825-1.56z" fill="#b5a26c"/><path d="m93.855-137.957 479.38 128.45-232.592 868.043-479.38-128.45z" stroke="#ccb36d" stroke-width=".862"/></g></svg>