<svg fill="none" viewBox="0 0 512 753" xmlns="http://www.w3.org/2000/svg" xmlns:xlink="http://www.w3.org/1999/xlink"><linearGradient id="a" gradientUnits="userSpaceOnUse" x1="257" x2="257" y1="743" y2="715.133"><stop offset="0" stop-color="#12485c"/><stop offset="1" stop-color="#12485c" stop-opacity="0"/></linearGradient><path clip-rule="evenodd" d="m0 110c0-60.751 49.249-110 110-110h292c60.751 0 110 49.249 110 110v472.527c0 60.752-49.249 110-110 110h-40.585c-9.809 0-18.394 6.134-23.531 14.49-16.954 27.578-47.509 45.983-82.384 45.983s-65.43-18.405-82.384-45.983c-5.137-8.356-13.722-14.49-23.531-14.49h-39.585c-60.751 0-110-49.248-110-110zm256.5-60c-117.361 0-212.5 95.14-212.5 212.5v168c0 117.361 95.139 212.5 212.5 212.5s212.5-95.14 212.5-212.5v-168c0-117.361-95.139-212.5-212.5-212.5z" fill="#f8f8ed" fill-rule="evenodd"/><g stroke-linecap="round"><rect height="593" rx="212.5" stroke="#b5a26c" stroke-dasharray="4 18" stroke-width="4" width="425" x="44" y="50"/><rect height="659" rx="100" stroke="#a99558" stroke-opacity=".4" width="473.991" x="19" y="17"/><rect height="659" rx="236.996" stroke="#a99558" stroke-opacity=".4" width="473.991" x="19" y="17"/><rect height="675" rx="101" stroke="#a99558" stroke-dasharray=".1 13" stroke-opacity=".4" stroke-width="3" width="491.878" x="10" y="9"/></g><path d="m230.922 687h52.335a23.999 23.999 0 0 1 20.672 11.808l2.478 4.202 9.33 15.82c-9.373 8.825-33.021 23.17-59.618 23.17-13.27 0-26.164-4.166-36.626-9.238-9.943-4.82-17.604-10.416-21.233-13.917l9.472-15.83 2.595-4.338a24 24 0 0 1 20.595-11.677z" opacity=".2" stroke="url(#a)" stroke-width="2"/></svg>