<svg fill="none" viewBox="0 0 452 477" xmlns="http://www.w3.org/2000/svg" xmlns:xlink="http://www.w3.org/1999/xlink"><mask id="a" height="477" maskUnits="userSpaceOnUse" width="431" x="10" y="0"><path d="m12.292 2h426.708v472.818h-426.708z" fill="#ccb36d" stroke="#ccb36d" stroke-dasharray="4 16" stroke-linecap="round" stroke-width="4"/></mask><path d="m0 2h452v473h-452z" fill="#e5e1cd"/><g mask="url(#a)" opacity=".1"><path d="m90.352-137.463 5.825 1.561-232.813 868.877-5.826-1.561zm22.186 5.776 5.826 1.56-232.814 868.877-5.826-1.56zm22.187 5.777 5.825 1.561-232.813 868.877-5.826-1.561zm22.186 5.776 5.826 1.56-232.814 868.877-5.826-1.56zm22.187 5.776 5.825 1.561-232.813 868.877-5.826-1.561zm22.187 5.776 5.825 1.561-232.813 868.876-5.826-1.56zm22.187 5.776 5.826 1.561-232.814 868.877-5.826-1.561zm22.186 5.777 5.825 1.56-232.813 868.878-5.826-1.56zm22.187 5.776 5.825 1.561-232.813 868.877-5.826-1.561zm22.186 5.776 5.826 1.561-232.814 868.877-5.826-1.561zm22.187 5.777 5.825 1.56-232.813 868.877-5.826-1.561zm22.186 5.775 5.826 1.561-232.814 868.877-5.826-1.561zm22.186 5.777 5.826 1.561-232.813 868.877-5.826-1.561zm22.188 5.776 5.825 1.56-232.813 868.878-5.826-1.56zm22.187 5.776 5.826 1.561-232.814 868.877-5.826-1.561zm22.185 5.776 5.826 1.561-232.813 868.877-5.826-1.56zm22.188 5.776 5.825 1.561-232.813 868.877-5.826-1.561zm22.186 5.776 5.826 1.56-232.814 868.878-5.826-1.56zm22.186 5.778 5.826 1.56-232.813 868.877-5.826-1.561zm22.187 5.776 5.826 1.56-232.814 868.877-5.826-1.56zm22.188 5.775 5.826 1.561-232.814 868.878-5.826-1.561zm22.185 5.777 5.826 1.56-232.813 868.877-5.826-1.56zm22.188 5.775 5.826 1.561-232.814 868.877-5.826-1.561zm22.187 5.777 5.825 1.561-232.813 868.876-5.826-1.56zm22.186 5.776 5.825 1.561-232.813 868.877-5.826-1.561zm22.187 5.776 5.826 1.561-232.814 868.876-5.826-1.56zm22.186 5.778 5.825 1.56-232.813 868.877-5.826-1.561z" fill="#b5a26c"/><path d="m.302.524h495.758v875.579h-495.758z" stroke="#ccb36d" stroke-width=".862" transform="matrix(.96774 .25195 -.26585 .96401 90.5 -137.52)"/></g></svg>