<svg fill="none" viewBox="0 0 511 619" xmlns="http://www.w3.org/2000/svg" xmlns:xlink="http://www.w3.org/1999/xlink"><linearGradient id="a" gradientUnits="userSpaceOnUse" x1="255.865" x2="255.865" y1="608.999" y2="588.466"><stop offset="0" stop-color="#12485c"/><stop offset="1" stop-color="#12485c" stop-opacity="0"/></linearGradient><path clip-rule="evenodd" d="m0 110c0-60.751 49.249-110 110-110h290.625c60.751 0 110 49.249 110 110v335.325c0 60.751-49.249 110-110 110-.816 0-1.554.486-1.876 1.236l-7.6 17.672c-11.681 27.164-38.411 44.767-67.981 44.767h-136.161a74.002 74.002 0 0 1 -64.197-37.193l-8.451-14.739c-4.187-7.303-11.934-11.678-20.265-12.884-53.214-7.708-94.094-53.509-94.094-108.859zm254.839-56.43c-111.854 0-202.53 90.675-202.53 202.529v43.703c0 111.854 90.676 202.529 202.53 202.529s202.529-90.675 202.529-202.529v-43.703c0-111.854-90.675-202.53-202.529-202.53z" fill="#f8f8ed" fill-rule="evenodd"/><g stroke-linecap="round"><rect height="448.762" rx="202.529" stroke="#ccb36d" stroke-dasharray="4 16" stroke-width="4" width="405.058" x="52.31" y="53.569"/><rect height="524.993" rx="99" stroke="#a99558" stroke-dasharray=".1 16" stroke-opacity=".4" stroke-width="3" width="475.257" x="17.684" y="15.667"/><rect height="497.362" rx="100" stroke="#a99558" stroke-opacity=".4" width="452.047" x="29.841" y="28.93"/><rect height="497.362" rx="226.023" stroke="#a99558" stroke-opacity=".4" width="452.047" x="29.999" y="29"/></g><path d="m311.183 608.079h-108.422a67.138 67.138 0 0 1 -53.403-26.447l-10.45-13.713h234.187l-3.62 6.334a67.14 67.14 0 0 1 -58.292 33.826z" opacity=".2" stroke="url(#a)" stroke-width="1.839"/></svg>