<svg fill="none" viewBox="0 0 30 30" xmlns="http://www.w3.org/2000/svg"><path d="m5.9 18.63c1.72 3.25 6.62 4.11 9.59 3.94 4.28 0 7.36-2.61 8.9-4.96" stroke="#657a4b" stroke-linecap="round" stroke-width="2.18"/><path d="m24.38 10.22c-.27 1.67-4.7 2.32-9.9 1.45-2.46-.4-5.11-.38-6.7-1.15-1.78-.87-2.36-2.55-2.21-3.42.27-1.67 4.7-2.32 9.9-1.45 1.65.27 3.66.5 4.97.97 2.8 1 4.12 2.47 3.93 3.6z" fill="#657a4b"/><path d="m10.14 23c-.46.61-1.1 1.15-1.5 1.77m6.16-.83c0 .75-.17 1.57-.11 2.3m-8.47-6.27c-.46.27-.88.67-1.35.9-.33.17-.17.13.13.08m14.68 1.65c.37.32.72.68 1.1.98.24.2.24.4.56.52m1.61-4.42c.69.39 1.36.97 2.1 1.24" stroke="#657a4b" stroke-linecap="round" stroke-width="2.18"/></svg>