<svg fill="none" viewBox="0 0 30 30" xmlns="http://www.w3.org/2000/svg"><path d="m14.8 10.86c-4.16 0-7.29 4.27-8.6 6.9-.2.4-.18.86.07 1.22 1.96 2.76 6.44 3.5 9.22 3.34 3.83 0 6.7-2.09 8.36-4.22.35-.44.36-1.05.04-1.5-1.63-2.28-5.05-5.74-9.08-5.74z" stroke="#657a4b" stroke-linecap="round" stroke-width="2.18"/><path clip-rule="evenodd" d="m11.11 12.71c-.04.5-.07 1-.07 1.52 0 4.47 1.84 8.1 4.1 8.1 2.28 0 4.11-3.63 4.11-8.1 0-.63-.03-1.24-.1-1.83-2.02-1.32-4.94-1.82-8.04.31z" fill="#657a4b" fill-rule="evenodd"/><path d="m19.7 11.05c.46-.6 1.1-1.13 1.5-1.76m-6.16.83c0-.75.17-1.57.11-2.3m8.47 6.28c.46-.28.88-.68 1.35-.92.33-.16.17-.12-.14-.07m-14.67-1.66c-.37-.31-.72-.67-1.1-.97-.24-.2-.24-.4-.56-.52m-1.62 4.78c-.68-.38-1.35-.96-2.09-1.23" stroke="#657a4b" stroke-linecap="round" stroke-width="2.18"/></svg>