<svg fill="none" viewBox="0 0 30 30" xmlns="http://www.w3.org/2000/svg"><path d="m9.7 14.36c-.25.34-.55.68-.85.99-.28.3-.49.82-.68 1.19-.2.38-.3.8-.4 1.2-.14.5-.43 1.04-.49 1.54-.05.44-.17.91-.25 1.36-.07.4-.04.82-.04 1.22 0 1.43.8 2.5 1.72 3.54a6.97 6.97 0 0 0 1.68 1.51c.3.17.55.43.89.51.71.18 1.65.54 2.37.74a4.7 4.7 0 0 0 3.16 0c.26-.1.57-.12.82-.25.27-.15.54-.33.82-.45.57-.25 1.09-.61 1.66-.85a7.34 7.34 0 0 0 4.36-6.2c.11-.98.05-2.1-.12-3.05a5.72 5.72 0 0 0 -1.21-2.43c-.42-.56-.89-1.07-1.3-1.64m-14.5 5.08c-.14-.85-.62-1.7-1.52-1.88-1.32-.27-2.14.9-2.31 2.11-.11.76.06 1.43.52 2.03.3.4.89.74 1.38.74.57 0 .88-.2 1.32-.5m17.8-2.71c.21-.65.72-1.7 1.47-1.7 1.07 0 1.33 1.4 1.33 2.35 0 1.08.16 2.24-1.04 2.53-.42.1-1.1-.1-1.31-.55" stroke="#657a4b" stroke-linecap="round" stroke-width="1.75"/><path d="m1.84 15.2c.19 1.1 1.01 1.97 1.43 2.98 1.12-.58 3.49-1.1 3.93 1.43.43-1.53 1.87-4.45 4.26-3.87 3 .71 7.44.03 8.47-2.08 1.27.93 3.84 3.14 4.01 4.52.93-.96 2.9-2.4 3.35-.5.13-.4.31-.9.57-1.23.23-.29.3-.96.39-1.32.11-.44.2-1.01.1-1.47-.1-.47-.3-1.15-.72-1.44-.33-.23-.77-.43-1.09-.1-.26.26-.4.58-.53.92l-.09-.4c-.06-.32-.08-.82-.24-1.1-.26-.5-.39-.83-.89-1.15-.26-.17-.53-.34-.85-.32-.03 0-.32.13-.32.13 0-.18.35-.44.47-.56.3-.3.51-.72.72-1.1.47-.84.79-1.74.54-2.7-.18-.73-1.43-1.06-2.05-1.28a8.63 8.63 0 0 0 -2.71-.37h-.66c-.17 0-.55.03-.23-.15.46-.25.9-.71 1.26-1.09.46-.47.47-1.52.18-2.1-.23-.47-1.43-.55-1.87-.55-1.2 0-2.3.17-3.43.61-1.4.55-2.85 1-4.07 1.92-.52.4-1.22.78-1.64 1.27-.23.27-.43.58-.63.87-.18.27-.46.83-.74.98-.11.06-.07-.22-.08-.27a3.56 3.56 0 0 0 -.44-1.22c-.2-.37-.67-.43-1.04-.43-.4 0-.82.53-1.05.82a8.2 8.2 0 0 0 -1.1 1.66 11.8 11.8 0 0 0 -.82 2.5c-.26 1.18-.54 2.4-.54 3.6 0 .14.06.4-.01.53-.1.2-.32-.04-.45-.06-.16-.03-.38-.1-.53-.17-.15-.06-.21.02-.36.02-.89 0-.58 1.77-.5 2.25z" fill="#657a4b"/></svg>