<svg fill="none" viewBox="0 0 30 30" xmlns="http://www.w3.org/2000/svg"><path d="m7.78 10.4c.33-.35.67-.73.96-1.1 1.74-2.29 5.78-6.5 12.4-1.97.46.63 2.09 1.98 2.56 2.6a6.37 6.37 0 0 1 1.35 2.7c.19 1.07.26 2.31.13 3.4a8.18 8.18 0 0 1 -4.86 6.9c-.63.27-1.21.67-1.84.95-.32.14-.62.34-.92.5-.27.15-.62.17-.9.28a5.2 5.2 0 0 1 -3.53 0c-.8-.22-1.85-.62-2.64-.82-.38-.1-.66-.38-1-.56a7.77 7.77 0 0 1 -1.87-1.69c-1.02-1.16-1.9-2.35-1.9-3.94 0-.45-.05-.92.04-1.36.09-.5.22-1.03.28-1.52.06-.55.38-1.16.53-1.7.13-.46.24-.92.46-1.35.2-.41.44-1 .75-1.33z" stroke="#657a4b" stroke-linecap="round" stroke-width="1.82"/><path d="m24.29 17.66c.35-.97.2-2.16-.73-2.68-.61-.34-1.43-.25-2.1-.06l-.32.09c-.06 0-.12.03-.17.03a.9.9 0 0 0 -.3.15c-.38.18-.7.46-.75.89v.03c-.3.79-.12 1.83.35 2.59.78 1.28 2.8.7 3.58-.24l.03-.03c.09-.13.18-.22.26-.37.1-.15.12-.28.15-.4zm-10.79.89c-.06-1.03-.25-2.56-1.38-2.88-1.21-.38-2.82.09-3.92.68-1.19.64-1.52 1.52-1.21 2.87v.06c.08.85.93 1.4 1.6 1.76a6.33 6.33 0 0 0 2.09.64c.5.15 1.07.15 1.58-.08 1.18-.5 1.33-1.91 1.24-3.05zm-2.71-6.15c-1.05 0-1.05 1.57 0 1.57 1.04 0 1.04-1.56 0-1.56zm11.32-.38c-1.03 0-1.03 1.56 0 1.56 1.04 0 1.07-1.56 0-1.56zm-5.05 4.56c-.25.35-.58.89-1.02.89-.39 0-.83-.41-1.13-.67-.72-.6-1.41.76-.7 1.36.59.47 1.28.95 2.02.88.78-.09 1.33-.69 1.8-1.35.58-.76-.39-1.9-.97-1.1zm.24-6.24c-.07-.9-1.53-.9-1.47 0 .03.69.06 1.38.06 2.05 0 .5.06 1.13 0 1.69-.56.08-1.17.02-1.67 0-.93-.06-.93 1.33 0 1.38.88.06 2.78.34 3.04-.8.32-1.33.09-2.97.03-4.32z" fill="#657a4b"/><path d="m6.1 13.85c-.14-.82-.63-1.62-1.54-1.8-1.33-.25-2.16.86-2.34 2.02-.11.72.06 1.36.53 1.94.3.37.9.7 1.4.7.58 0 .89-.18 1.34-.47m19.75-2.98c.21-.63.71-1.64 1.44-1.64 1.04 0 1.3 1.35 1.3 2.25 0 1.04.15 2.14-1.02 2.42-.4.1-1.08-.1-1.28-.52" stroke="#657a4b" stroke-linecap="round" stroke-width="1.82"/></svg>