{
  "asset": {
    "generator": "glTF-Transform v2.1.7",
    "version": "2.0"
  },
  "accessors": [
    {
      "type": "VEC3",
      "componentType": 5126,
      "count": 205,
      "max": [
        0.474609375,
        0.28125,
        0
      ],
      "min": [
        -0.4921875,
        -0.28125,
        0
      ],
      "bufferView": 0,
      "byteOffset": 0
    },
    {
      "type": "VEC2",
      "componentType": 5126,
      "count": 205,
      "bufferView": 0,
      "byteOffset": 12
    },
    {
      "type": "VEC3",
      "componentType": 5126,
      "count": 186,
      "max": [
        0.5,
        0.28125,
        0
      ],
      "min": [
        -0.4833984375,
        -0.28125,
        0
      ],
      "bufferView": 1,
      "byteOffset": 0
    },
    {
      "type": "VEC2",
      "componentType": 5126,
      "count": 186,
      "bufferView": 1,
      "byteOffset": 12
    },
    {
      "type": "VEC3",
      "componentType": 5126,
      "count": 189,
      "max": [
        0.4775390625,
        0.28125,
        0
      ],
      "min": [
        -0.4365234375,
        -0.28125,
        0
      ],
      "bufferView": 2,
      "byteOffset": 0
    },
    {
      "type": "VEC2",
      "componentType": 5126,
      "count": 189,
      "bufferView": 2,
      "byteOffset": 12
    },
    {
      "type": "SCALAR",
      "componentType": 5121,
      "count": 609,
      "bufferView": 3,
      "byteOffset": 0
    },
    {
      "type": "SCALAR",
      "componentType": 5121,
      "count": 546,
      "bufferView": 3,
      "byteOffset": 612
    },
    {
      "type": "SCALAR",
      "componentType": 5121,
      "count": 555,
      "bufferView": 3,
      "byteOffset": 1160
    }
  ],
  "bufferViews": [
    {
      "buffer": 0,
      "byteOffset": 0,
      "byteLength": 4100,
      "byteStride": 20,
      "target": 34962
    },
    {
      "buffer": 0,
      "byteOffset": 4100,
      "byteLength": 3720,
      "byteStride": 20,
      "target": 34962
    },
    {
      "buffer": 0,
      "byteOffset": 7820,
      "byteLength": 3780,
      "byteStride": 20,
      "target": 34962
    },
    {
      "buffer": 0,
      "byteOffset": 11600,
      "byteLength": 1716,
      "target": 34963
    }
  ],
  "samplers": [
    {
      "minFilter": 9987,
      "wrapS": 33071,
      "wrapT": 33071
    }
  ],
  "textures": [
    {
      "sampler": 0,
      "extensions": {
        "KHR_texture_basisu": {
          "source": 0
        }
      }
    }
  ],
  "images": [
    {
      "name": "sactx-0-1024x2048-Uncompressed-panel_1_atlas-f2912f9b",
      "mimeType": "image/ktx2",
      "uri": "sactx-0-1024x2048-Uncompressed-panel_1_atlas-f2912f9b.ktx2"
    }
  ],
  "buffers": [
    {
      "uri": "scene_panel.bin",
      "byteLength": 13316
    }
  ],
  "materials": [
    {
      "name": "Sprites-Default",
      "alphaMode": "BLEND",
      "pbrMetallicRoughness": {
        "baseColorTexture": {
          "index": 0
        }
      },
      "extensions": {
        "KHR_materials_unlit": {}
      }
    }
  ],
  "meshes": [
    {
      "name": "Story_1_transition_1",
      "primitives": [
        {
          "attributes": {
            "POSITION": 0,
            "TEXCOORD_0": 1
          },
          "mode": 4,
          "material": 0,
          "indices": 6
        }
      ]
    },
    {
      "name": "Story_1_transition_2",
      "primitives": [
        {
          "attributes": {
            "POSITION": 2,
            "TEXCOORD_0": 3
          },
          "mode": 4,
          "material": 0,
          "indices": 7
        }
      ]
    },
    {
      "name": "Story_1_transition_3",
      "primitives": [
        {
          "attributes": {
            "POSITION": 4,
            "TEXCOORD_0": 5
          },
          "mode": 4,
          "material": 0,
          "indices": 8
        }
      ]
    }
  ],
  "nodes": [
    {
      "name": "scene_panel",
      "translation": [
        -0.03,
        0,
        0
      ],
      "children": [
        1,
        2,
        3
      ]
    },
    {
      "name": "Story_1_transition_1",
      "extras": {
        "renderOrder": 102,
        "renderLayer": "Default"
      },
      "mesh": 0
    },
    {
      "name": "Story_1_transition_2",
      "extras": {
        "renderOrder": 101,
        "renderLayer": "Default"
      },
      "translation": [
        0,
        0,
        0.3
      ],
      "scale": [
        1.5,
        1.5,
        1.5
      ],
      "mesh": 1
    },
    {
      "name": "Story_1_transition_3",
      "extras": {
        "renderOrder": 100,
        "renderLayer": "Default"
      },
      "translation": [
        0,
        0,
        0.5
      ],
      "scale": [
        1.7,
        1.7,
        1.7
      ],
      "mesh": 2
    }
  ],
  "scenes": [
    {
      "name": "scene_panel",
      "nodes": [
        0
      ]
    }
  ],
  "scene": 0,
  "extensionsUsed": [
    "KHR_materials_unlit",
    "KHR_texture_basisu"
  ],
  "extensionsRequired": [
    "KHR_materials_unlit",
    "KHR_texture_basisu"
  ]
}