{
  "asset": {
    "generator": "glTF-Transform v2.1.7",
    "version": "2.0"
  },
  "accessors": [
    {
      "type": "VEC3",
      "componentType": 5126,
      "count": 4,
      "max": [
        0.06400000303983688,
        0.06400000303983688,
        0
      ],
      "min": [
        -0.06400000303983688,
        -0.06400000303983688,
        0
      ],
      "bufferView": 0,
      "byteOffset": 0
    },
    {
      "type": "VEC2",
      "componentType": 5126,
      "count": 4,
      "bufferView": 0,
      "byteOffset": 12
    },
    {
      "type": "VEC3",
      "componentType": 5126,
      "count": 17,
      "max": [
        0.03239062428474426,
        0.043187499046325684,
        0
      ],
      "min": [
        -0.03239062428474426,
        -0.043187499046325684,
        0
      ],
      "bufferView": 1,
      "byteOffset": 0
    },
    {
      "type": "VEC2",
      "componentType": 5126,
      "count": 17,
      "bufferView": 1,
      "byteOffset": 12
    },
    {
      "type": "VEC3",
      "componentType": 5126,
      "count": 21,
      "max": [
        0.17744702100753784,
        0.1341249942779541,
        0
      ],
      "min": [
        -0.17744702100753784,
        -0.1341249942779541,
        0
      ],
      "bufferView": 2,
      "byteOffset": 0
    },
    {
      "type": "VEC2",
      "componentType": 5126,
      "count": 21,
      "bufferView": 2,
      "byteOffset": 12
    },
    {
      "type": "VEC3",
      "componentType": 5126,
      "count": 14,
      "max": [
        0.20931249856948853,
        0.09525354206562042,
        0
      ],
      "min": [
        -0.20931249856948853,
        -0.09525354206562042,
        0
      ],
      "bufferView": 3,
      "byteOffset": 0
    },
    {
      "type": "VEC2",
      "componentType": 5126,
      "count": 14,
      "bufferView": 3,
      "byteOffset": 12
    },
    {
      "type": "VEC3",
      "componentType": 5126,
      "count": 43,
      "max": [
        0.05756250396370888,
        0.0771518349647522,
        0
      ],
      "min": [
        -0.05756250396370888,
        -0.0771518349647522,
        0
      ],
      "bufferView": 4,
      "byteOffset": 0
    },
    {
      "type": "VEC2",
      "componentType": 5126,
      "count": 43,
      "bufferView": 4,
      "byteOffset": 12
    },
    {
      "type": "VEC3",
      "componentType": 5126,
      "count": 48,
      "max": [
        0.08881568163633347,
        0.09337500482797623,
        0
      ],
      "min": [
        -0.08881568163633347,
        -0.09337500482797623,
        0
      ],
      "bufferView": 5,
      "byteOffset": 0
    },
    {
      "type": "VEC2",
      "componentType": 5126,
      "count": 48,
      "bufferView": 5,
      "byteOffset": 12
    },
    {
      "type": "VEC3",
      "componentType": 5126,
      "count": 79,
      "max": [
        0.2202594131231308,
        0.22331252694129944,
        0
      ],
      "min": [
        -0.2202594131231308,
        -0.22331252694129944,
        0
      ],
      "bufferView": 6,
      "byteOffset": 0
    },
    {
      "type": "VEC2",
      "componentType": 5126,
      "count": 79,
      "bufferView": 6,
      "byteOffset": 12
    },
    {
      "type": "VEC3",
      "componentType": 5126,
      "count": 28,
      "max": [
        0.114075668156147,
        0.08243749290704727,
        0
      ],
      "min": [
        -0.114075668156147,
        -0.08243749290704727,
        0
      ],
      "bufferView": 7,
      "byteOffset": 0
    },
    {
      "type": "VEC2",
      "componentType": 5126,
      "count": 28,
      "bufferView": 7,
      "byteOffset": 12
    },
    {
      "type": "VEC3",
      "componentType": 5126,
      "count": 27,
      "max": [
        0.05038062110543251,
        0.028437498956918716,
        0
      ],
      "min": [
        -0.05038062110543251,
        -0.028437498956918716,
        0
      ],
      "bufferView": 8,
      "byteOffset": 0
    },
    {
      "type": "VEC2",
      "componentType": 5126,
      "count": 27,
      "bufferView": 8,
      "byteOffset": 12
    },
    {
      "type": "VEC3",
      "componentType": 5126,
      "count": 41,
      "max": [
        0.2214374989271164,
        0.09385143965482712,
        0
      ],
      "min": [
        -0.2214374989271164,
        -0.09385143965482712,
        0
      ],
      "bufferView": 9,
      "byteOffset": 0
    },
    {
      "type": "VEC2",
      "componentType": 5126,
      "count": 41,
      "bufferView": 9,
      "byteOffset": 12
    },
    {
      "type": "VEC3",
      "componentType": 5126,
      "count": 128,
      "max": [
        0.3109511733055115,
        0.23625001311302185,
        0
      ],
      "min": [
        -0.3109511733055115,
        -0.23625001311302185,
        0
      ],
      "bufferView": 10,
      "byteOffset": 0
    },
    {
      "type": "VEC2",
      "componentType": 5126,
      "count": 128,
      "bufferView": 10,
      "byteOffset": 12
    },
    {
      "type": "VEC3",
      "componentType": 5126,
      "count": 25,
      "max": [
        0.2968587577342987,
        0.10262499749660492,
        0
      ],
      "min": [
        -0.2968587577342987,
        -0.10262499749660492,
        0
      ],
      "bufferView": 11,
      "byteOffset": 0
    },
    {
      "type": "VEC2",
      "componentType": 5126,
      "count": 25,
      "bufferView": 11,
      "byteOffset": 12
    },
    {
      "type": "VEC3",
      "componentType": 5126,
      "count": 30,
      "max": [
        0.3241061866283417,
        0.1430625021457672,
        0
      ],
      "min": [
        -0.3241061866283417,
        -0.1430625021457672,
        0
      ],
      "bufferView": 12,
      "byteOffset": 0
    },
    {
      "type": "VEC2",
      "componentType": 5126,
      "count": 30,
      "bufferView": 12,
      "byteOffset": 12
    },
    {
      "type": "VEC3",
      "componentType": 5126,
      "count": 4,
      "max": [
        0.5,
        0.28125,
        0
      ],
      "min": [
        -0.5,
        -0.28125,
        0
      ],
      "bufferView": 13,
      "byteOffset": 0
    },
    {
      "type": "VEC2",
      "componentType": 5126,
      "count": 4,
      "bufferView": 13,
      "byteOffset": 12
    },
    {
      "type": "SCALAR",
      "componentType": 5121,
      "count": 6,
      "bufferView": 14,
      "byteOffset": 0
    },
    {
      "type": "SCALAR",
      "componentType": 5121,
      "count": 45,
      "bufferView": 14,
      "byteOffset": 8
    },
    {
      "type": "SCALAR",
      "componentType": 5121,
      "count": 51,
      "bufferView": 14,
      "byteOffset": 56
    },
    {
      "type": "SCALAR",
      "componentType": 5121,
      "count": 30,
      "bufferView": 14,
      "byteOffset": 108
    },
    {
      "type": "SCALAR",
      "componentType": 5121,
      "count": 123,
      "bufferView": 14,
      "byteOffset": 140
    },
    {
      "type": "SCALAR",
      "componentType": 5121,
      "count": 138,
      "bufferView": 14,
      "byteOffset": 264
    },
    {
      "type": "SCALAR",
      "componentType": 5121,
      "count": 183,
      "bufferView": 14,
      "byteOffset": 404
    },
    {
      "type": "SCALAR",
      "componentType": 5121,
      "count": 72,
      "bufferView": 14,
      "byteOffset": 588
    },
    {
      "type": "SCALAR",
      "componentType": 5121,
      "count": 75,
      "bufferView": 14,
      "byteOffset": 660
    },
    {
      "type": "SCALAR",
      "componentType": 5121,
      "count": 93,
      "bufferView": 14,
      "byteOffset": 736
    },
    {
      "type": "SCALAR",
      "componentType": 5121,
      "count": 351,
      "bufferView": 14,
      "byteOffset": 832
    },
    {
      "type": "SCALAR",
      "componentType": 5121,
      "count": 69,
      "bufferView": 14,
      "byteOffset": 1184
    },
    {
      "type": "SCALAR",
      "componentType": 5121,
      "count": 84,
      "bufferView": 14,
      "byteOffset": 1256
    },
    {
      "type": "SCALAR",
      "componentType": 5121,
      "count": 6,
      "bufferView": 14,
      "byteOffset": 1340
    }
  ],
  "bufferViews": [
    {
      "buffer": 0,
      "byteOffset": 0,
      "byteLength": 80,
      "byteStride": 20,
      "target": 34962
    },
    {
      "buffer": 0,
      "byteOffset": 80,
      "byteLength": 340,
      "byteStride": 20,
      "target": 34962
    },
    {
      "buffer": 0,
      "byteOffset": 420,
      "byteLength": 420,
      "byteStride": 20,
      "target": 34962
    },
    {
      "buffer": 0,
      "byteOffset": 840,
      "byteLength": 280,
      "byteStride": 20,
      "target": 34962
    },
    {
      "buffer": 0,
      "byteOffset": 1120,
      "byteLength": 860,
      "byteStride": 20,
      "target": 34962
    },
    {
      "buffer": 0,
      "byteOffset": 1980,
      "byteLength": 960,
      "byteStride": 20,
      "target": 34962
    },
    {
      "buffer": 0,
      "byteOffset": 2940,
      "byteLength": 1580,
      "byteStride": 20,
      "target": 34962
    },
    {
      "buffer": 0,
      "byteOffset": 4520,
      "byteLength": 560,
      "byteStride": 20,
      "target": 34962
    },
    {
      "buffer": 0,
      "byteOffset": 5080,
      "byteLength": 540,
      "byteStride": 20,
      "target": 34962
    },
    {
      "buffer": 0,
      "byteOffset": 5620,
      "byteLength": 820,
      "byteStride": 20,
      "target": 34962
    },
    {
      "buffer": 0,
      "byteOffset": 6440,
      "byteLength": 2560,
      "byteStride": 20,
      "target": 34962
    },
    {
      "buffer": 0,
      "byteOffset": 9000,
      "byteLength": 500,
      "byteStride": 20,
      "target": 34962
    },
    {
      "buffer": 0,
      "byteOffset": 9500,
      "byteLength": 600,
      "byteStride": 20,
      "target": 34962
    },
    {
      "buffer": 0,
      "byteOffset": 10100,
      "byteLength": 80,
      "byteStride": 20,
      "target": 34962
    },
    {
      "buffer": 0,
      "byteOffset": 10180,
      "byteLength": 1348,
      "target": 34963
    }
  ],
  "samplers": [
    {
      "minFilter": 9985,
      "wrapS": 33071,
      "wrapT": 33071
    },
    {
      "minFilter": 9987,
      "wrapS": 33071,
      "wrapT": 33071
    }
  ],
  "textures": [
    {
      "sampler": 0,
      "extensions": {
        "KHR_texture_basisu": {
          "source": 0
        }
      }
    },
    {
      "sampler": 1,
      "extensions": {
        "KHR_texture_basisu": {
          "source": 1
        }
      }
    },
    {
      "sampler": 1,
      "extensions": {
        "KHR_texture_basisu": {
          "source": 2
        }
      }
    }
  ],
  "images": [
    {
      "name": "user_avatar",
      "mimeType": "image/ktx2",
      "uri": "user_avatar.ktx2"
    },
    {
      "name": "boy_hands_2_9",
      "mimeType": "image/ktx2",
      "uri": "boy_hands_2_9.ktx2"
    },
    {
      "name": "sactx-0-2048x2048-Uncompressed-scene_2_9_atlas-60f47110",
      "mimeType": "image/ktx2",
      "uri": "sactx-0-2048x2048-Uncompressed-scene_2_9_atlas-60f47110.ktx2"
    }
  ],
  "buffers": [
    {
      "uri": "scene_8.bin",
      "byteLength": 11528
    }
  ],
  "materials": [
    {
      "name": "avatar",
      "alphaMode": "BLEND",
      "pbrMetallicRoughness": {
        "baseColorTexture": {
          "index": 0
        }
      },
      "extensions": {
        "KHR_materials_unlit": {}
      }
    },
    {
      "name": "skin",
      "alphaMode": "BLEND",
      "pbrMetallicRoughness": {
        "baseColorTexture": {
          "index": 1
        }
      },
      "extensions": {
        "KHR_materials_unlit": {}
      }
    },
    {
      "name": "Sprites-Default",
      "alphaMode": "BLEND",
      "pbrMetallicRoughness": {
        "baseColorTexture": {
          "index": 2
        }
      },
      "extensions": {
        "KHR_materials_unlit": {}
      }
    }
  ],
  "meshes": [
    {
      "name": "user_avatar",
      "primitives": [
        {
          "attributes": {
            "POSITION": 0,
            "TEXCOORD_0": 1
          },
          "mode": 4,
          "material": 0,
          "indices": 28
        }
      ]
    },
    {
      "name": "boy_hands",
      "primitives": [
        {
          "attributes": {
            "POSITION": 2,
            "TEXCOORD_0": 3
          },
          "mode": 4,
          "material": 1,
          "indices": 29
        }
      ]
    },
    {
      "name": "boy_shirt",
      "primitives": [
        {
          "attributes": {
            "POSITION": 4,
            "TEXCOORD_0": 5
          },
          "mode": 4,
          "material": 2,
          "indices": 30
        }
      ]
    },
    {
      "name": "cups",
      "primitives": [
        {
          "attributes": {
            "POSITION": 6,
            "TEXCOORD_0": 7
          },
          "mode": 4,
          "material": 2,
          "indices": 31
        }
      ]
    },
    {
      "name": "bawl",
      "primitives": [
        {
          "attributes": {
            "POSITION": 8,
            "TEXCOORD_0": 9
          },
          "mode": 4,
          "material": 2,
          "indices": 32
        }
      ]
    },
    {
      "name": "bawl_2",
      "primitives": [
        {
          "attributes": {
            "POSITION": 10,
            "TEXCOORD_0": 11
          },
          "mode": 4,
          "material": 2,
          "indices": 33
        }
      ]
    },
    {
      "name": "feather",
      "primitives": [
        {
          "attributes": {
            "POSITION": 12,
            "TEXCOORD_0": 13
          },
          "mode": 4,
          "material": 2,
          "indices": 34
        }
      ]
    },
    {
      "name": "owl",
      "primitives": [
        {
          "attributes": {
            "POSITION": 14,
            "TEXCOORD_0": 15
          },
          "mode": 4,
          "material": 2,
          "indices": 35
        }
      ]
    },
    {
      "name": "feuilles_1",
      "primitives": [
        {
          "attributes": {
            "POSITION": 16,
            "TEXCOORD_0": 17
          },
          "mode": 4,
          "material": 2,
          "indices": 36
        }
      ]
    },
    {
      "name": "petites_feuilles",
      "primitives": [
        {
          "attributes": {
            "POSITION": 18,
            "TEXCOORD_0": 19
          },
          "mode": 4,
          "material": 2,
          "indices": 37
        }
      ]
    },
    {
      "name": "branche",
      "primitives": [
        {
          "attributes": {
            "POSITION": 20,
            "TEXCOORD_0": 21
          },
          "mode": 4,
          "material": 2,
          "indices": 38
        }
      ]
    },
    {
      "name": "plaine_verte",
      "primitives": [
        {
          "attributes": {
            "POSITION": 22,
            "TEXCOORD_0": 23
          },
          "mode": 4,
          "material": 2,
          "indices": 39
        }
      ]
    },
    {
      "name": "plaine_jaune",
      "primitives": [
        {
          "attributes": {
            "POSITION": 24,
            "TEXCOORD_0": 25
          },
          "mode": 4,
          "material": 2,
          "indices": 40
        }
      ]
    },
    {
      "name": "ciel",
      "primitives": [
        {
          "attributes": {
            "POSITION": 26,
            "TEXCOORD_0": 27
          },
          "mode": 4,
          "material": 2,
          "indices": 41
        }
      ]
    }
  ],
  "nodes": [
    {
      "name": "scene_8",
      "children": [
        1,
        6,
        10,
        13,
        15,
        19,
        22
      ]
    },
    {
      "name": "layer_01",
      "children": [
        2
      ]
    },
    {
      "name": "boy",
      "children": [
        3,
        4,
        5
      ]
    },
    {
      "name": "user_avatar",
      "extras": {
        "renderOrder": 17,
        "renderLayer": "Default"
      },
      "translation": [
        -0.404,
        -0.004,
        0
      ],
      "rotation": [
        0,
        0,
        0.057825312,
        0.9983267
      ],
      "scale": [
        6.3,
        6.3,
        6.3
      ],
      "mesh": 0
    },
    {
      "name": "boy_hands",
      "extras": {
        "renderOrder": 19,
        "renderLayer": "Default"
      },
      "translation": [
        -0.264125,
        -0.2380625,
        0
      ],
      "mesh": 1
    },
    {
      "name": "boy_shirt",
      "extras": {
        "renderOrder": 18,
        "renderLayer": "Default"
      },
      "translation": [
        -0.2825625,
        -0.147125,
        0
      ],
      "mesh": 2
    },
    {
      "name": "layer_02",
      "children": [
        7,
        8,
        9
      ]
    },
    {
      "name": "cups",
      "extras": {
        "renderOrder": 16,
        "renderLayer": "Default"
      },
      "translation": [
        0.107437491,
        -0.18599999,
        0
      ],
      "mesh": 3
    },
    {
      "name": "bawl",
      "extras": {
        "renderOrder": 15,
        "renderLayer": "Default"
      },
      "translation": [
        -0.202312529,
        -0.2041875,
        0
      ],
      "mesh": 4
    },
    {
      "name": "bawl_2",
      "extras": {
        "renderOrder": 14,
        "renderLayer": "Default"
      },
      "translation": [
        0.3800625,
        -0.163625,
        0
      ],
      "mesh": 5
    },
    {
      "name": "layer_03",
      "children": [
        11,
        12
      ]
    },
    {
      "name": "feather",
      "extras": {
        "renderOrder": 12,
        "renderLayer": "Default"
      },
      "translation": [
        0.0156874955,
        0.0281875134,
        0
      ],
      "mesh": 6
    },
    {
      "name": "particles",
      "extras": {
        "renderOrder": 11,
        "renderLayer": "Default"
      },
      "mesh": 0
    },
    {
      "name": "layer_04",
      "children": [
        14
      ]
    },
    {
      "name": "owl",
      "extras": {
        "renderOrder": 10,
        "renderLayer": "Default"
      },
      "translation": [
        0.14275,
        -0.1988125,
        0
      ],
      "mesh": 7
    },
    {
      "name": "layer_05",
      "children": [
        16,
        17,
        18
      ]
    },
    {
      "name": "feuilles_1",
      "extras": {
        "renderOrder": 8,
        "renderLayer": "Default"
      },
      "translation": [
        0.449625015,
        -0.2528125,
        0
      ],
      "mesh": 8
    },
    {
      "name": "petites_feuilles",
      "extras": {
        "renderOrder": 7,
        "renderLayer": "Default"
      },
      "translation": [
        0.2785625,
        -0.1875,
        0
      ],
      "mesh": 9
    },
    {
      "name": "branche",
      "extras": {
        "renderOrder": 6,
        "renderLayer": "Default"
      },
      "translation": [
        0.1890625,
        -0.045,
        0
      ],
      "mesh": 10
    },
    {
      "name": "layer_06",
      "children": [
        20,
        21
      ]
    },
    {
      "name": "plaine_verte",
      "extras": {
        "renderOrder": 4,
        "renderLayer": "Default"
      },
      "translation": [
        -0.2035625,
        -0.178625,
        0
      ],
      "mesh": 11
    },
    {
      "name": "plaine_jaune",
      "extras": {
        "renderOrder": 3,
        "renderLayer": "Default"
      },
      "translation": [
        0.176562488,
        -0.1381875,
        0
      ],
      "mesh": 12
    },
    {
      "name": "layer_07",
      "children": [
        23
      ]
    },
    {
      "name": "ciel",
      "extras": {
        "renderOrder": 1,
        "renderLayer": "Default"
      },
      "mesh": 13
    }
  ],
  "scenes": [
    {
      "name": "scene_8",
      "nodes": [
        0
      ]
    }
  ],
  "scene": 0,
  "extensionsUsed": [
    "KHR_materials_unlit",
    "KHR_texture_basisu"
  ],
  "extensionsRequired": [
    "KHR_materials_unlit",
    "KHR_texture_basisu"
  ]
}