{
  "asset": {
    "generator": "glTF-Transform v2.1.7",
    "version": "2.0"
  },
  "accessors": [
    {
      "type": "VEC3",
      "componentType": 5126,
      "count": 17,
      "max": [
        0.13617518544197083,
        0.0364375039935112,
        0
      ],
      "min": [
        -0.13617518544197083,
        -0.0364375039935112,
        0
      ],
      "bufferView": 0,
      "byteOffset": 0
    },
    {
      "type": "VEC2",
      "componentType": 5126,
      "count": 17,
      "bufferView": 0,
      "byteOffset": 12
    },
    {
      "type": "VEC3",
      "componentType": 5126,
      "count": 25,
      "max": [
        0.05493750050663948,
        0.1267027109861374,
        0
      ],
      "min": [
        -0.05493750050663948,
        -0.1267027109861374,
        0
      ],
      "bufferView": 1,
      "byteOffset": 0
    },
    {
      "type": "VEC2",
      "componentType": 5126,
      "count": 25,
      "bufferView": 1,
      "byteOffset": 12
    },
    {
      "type": "VEC3",
      "componentType": 5126,
      "count": 30,
      "max": [
        0.13117948174476624,
        0.07993749529123306,
        0
      ],
      "min": [
        -0.13117948174476624,
        -0.07993749529123306,
        0
      ],
      "bufferView": 2,
      "byteOffset": 0
    },
    {
      "type": "VEC2",
      "componentType": 5126,
      "count": 30,
      "bufferView": 2,
      "byteOffset": 12
    },
    {
      "type": "VEC3",
      "componentType": 5126,
      "count": 34,
      "max": [
        0.24187499284744263,
        0.13699950277805328,
        0
      ],
      "min": [
        -0.24187499284744263,
        -0.13699950277805328,
        0
      ],
      "bufferView": 3,
      "byteOffset": 0
    },
    {
      "type": "VEC2",
      "componentType": 5126,
      "count": 34,
      "bufferView": 3,
      "byteOffset": 12
    },
    {
      "type": "VEC3",
      "componentType": 5126,
      "count": 4,
      "max": [
        0.06400000303983688,
        0.06400000303983688,
        0
      ],
      "min": [
        -0.06400000303983688,
        -0.06400000303983688,
        0
      ],
      "bufferView": 4,
      "byteOffset": 0
    },
    {
      "type": "VEC2",
      "componentType": 5126,
      "count": 4,
      "bufferView": 4,
      "byteOffset": 12
    },
    {
      "type": "VEC3",
      "componentType": 5126,
      "count": 128,
      "max": [
        0.3697500228881836,
        0.2581750452518463,
        0
      ],
      "min": [
        -0.3697500228881836,
        -0.2581750452518463,
        0
      ],
      "bufferView": 5,
      "byteOffset": 0
    },
    {
      "type": "VEC2",
      "componentType": 5126,
      "count": 128,
      "bufferView": 5,
      "byteOffset": 12
    },
    {
      "type": "VEC3",
      "componentType": 5126,
      "count": 70,
      "max": [
        0.4208484888076782,
        0.08137500286102295,
        0
      ],
      "min": [
        -0.4208484888076782,
        -0.08137500286102295,
        0
      ],
      "bufferView": 6,
      "byteOffset": 0
    },
    {
      "type": "VEC2",
      "componentType": 5126,
      "count": 70,
      "bufferView": 6,
      "byteOffset": 12
    },
    {
      "type": "VEC3",
      "componentType": 5126,
      "count": 21,
      "max": [
        0.04524609446525574,
        0.14300000667572021,
        0
      ],
      "min": [
        -0.04524609446525574,
        -0.14300000667572021,
        0
      ],
      "bufferView": 7,
      "byteOffset": 0
    },
    {
      "type": "VEC2",
      "componentType": 5126,
      "count": 21,
      "bufferView": 7,
      "byteOffset": 12
    },
    {
      "type": "VEC3",
      "componentType": 5126,
      "count": 29,
      "max": [
        0.15037499368190765,
        0.07195678353309631,
        0
      ],
      "min": [
        -0.15037499368190765,
        -0.07195678353309631,
        0
      ],
      "bufferView": 8,
      "byteOffset": 0
    },
    {
      "type": "VEC2",
      "componentType": 5126,
      "count": 29,
      "bufferView": 8,
      "byteOffset": 12
    },
    {
      "type": "VEC3",
      "componentType": 5126,
      "count": 26,
      "max": [
        0.19369696080684662,
        0.09987499564886093,
        0
      ],
      "min": [
        -0.19369696080684662,
        -0.09987499564886093,
        0
      ],
      "bufferView": 9,
      "byteOffset": 0
    },
    {
      "type": "VEC2",
      "componentType": 5126,
      "count": 26,
      "bufferView": 9,
      "byteOffset": 12
    },
    {
      "type": "VEC3",
      "componentType": 5126,
      "count": 4,
      "max": [
        0.5,
        0.28125,
        0
      ],
      "min": [
        -0.5,
        -0.28125,
        0
      ],
      "bufferView": 10,
      "byteOffset": 0
    },
    {
      "type": "VEC2",
      "componentType": 5126,
      "count": 4,
      "bufferView": 10,
      "byteOffset": 12
    },
    {
      "type": "SCALAR",
      "componentType": 5121,
      "count": 39,
      "bufferView": 11,
      "byteOffset": 0
    },
    {
      "type": "SCALAR",
      "componentType": 5121,
      "count": 72,
      "bufferView": 11,
      "byteOffset": 40
    },
    {
      "type": "SCALAR",
      "componentType": 5121,
      "count": 99,
      "bufferView": 11,
      "byteOffset": 112
    },
    {
      "type": "SCALAR",
      "componentType": 5121,
      "count": 99,
      "bufferView": 11,
      "byteOffset": 212
    },
    {
      "type": "SCALAR",
      "componentType": 5121,
      "count": 6,
      "bufferView": 11,
      "byteOffset": 312
    },
    {
      "type": "SCALAR",
      "componentType": 5121,
      "count": 381,
      "bufferView": 11,
      "byteOffset": 320
    },
    {
      "type": "SCALAR",
      "componentType": 5121,
      "count": 204,
      "bufferView": 11,
      "byteOffset": 704
    },
    {
      "type": "SCALAR",
      "componentType": 5121,
      "count": 57,
      "bufferView": 11,
      "byteOffset": 908
    },
    {
      "type": "SCALAR",
      "componentType": 5121,
      "count": 81,
      "bufferView": 11,
      "byteOffset": 968
    },
    {
      "type": "SCALAR",
      "componentType": 5121,
      "count": 66,
      "bufferView": 11,
      "byteOffset": 1052
    },
    {
      "type": "SCALAR",
      "componentType": 5121,
      "count": 6,
      "bufferView": 11,
      "byteOffset": 1120
    }
  ],
  "bufferViews": [
    {
      "buffer": 0,
      "byteOffset": 0,
      "byteLength": 340,
      "byteStride": 20,
      "target": 34962
    },
    {
      "buffer": 0,
      "byteOffset": 340,
      "byteLength": 500,
      "byteStride": 20,
      "target": 34962
    },
    {
      "buffer": 0,
      "byteOffset": 840,
      "byteLength": 600,
      "byteStride": 20,
      "target": 34962
    },
    {
      "buffer": 0,
      "byteOffset": 1440,
      "byteLength": 680,
      "byteStride": 20,
      "target": 34962
    },
    {
      "buffer": 0,
      "byteOffset": 2120,
      "byteLength": 80,
      "byteStride": 20,
      "target": 34962
    },
    {
      "buffer": 0,
      "byteOffset": 2200,
      "byteLength": 2560,
      "byteStride": 20,
      "target": 34962
    },
    {
      "buffer": 0,
      "byteOffset": 4760,
      "byteLength": 1400,
      "byteStride": 20,
      "target": 34962
    },
    {
      "buffer": 0,
      "byteOffset": 6160,
      "byteLength": 420,
      "byteStride": 20,
      "target": 34962
    },
    {
      "buffer": 0,
      "byteOffset": 6580,
      "byteLength": 580,
      "byteStride": 20,
      "target": 34962
    },
    {
      "buffer": 0,
      "byteOffset": 7160,
      "byteLength": 520,
      "byteStride": 20,
      "target": 34962
    },
    {
      "buffer": 0,
      "byteOffset": 7680,
      "byteLength": 80,
      "byteStride": 20,
      "target": 34962
    },
    {
      "buffer": 0,
      "byteOffset": 7760,
      "byteLength": 1128,
      "target": 34963
    }
  ],
  "samplers": [
    {
      "minFilter": 9987,
      "wrapS": 33071,
      "wrapT": 33071
    },
    {
      "minFilter": 9985,
      "wrapS": 33071,
      "wrapT": 33071
    }
  ],
  "textures": [
    {
      "sampler": 0,
      "extensions": {
        "KHR_texture_basisu": {
          "source": 0
        }
      }
    },
    {
      "sampler": 1,
      "extensions": {
        "KHR_texture_basisu": {
          "source": 1
        }
      }
    }
  ],
  "images": [
    {
      "name": "sactx-0-1024x2048-Uncompressed-scene_2_2_atlas-efceea76",
      "mimeType": "image/ktx2",
      "uri": "sactx-0-1024x2048-Uncompressed-scene_2_2_atlas-efceea76.ktx2"
    },
    {
      "name": "user_avatar",
      "mimeType": "image/ktx2",
      "uri": "user_avatar.ktx2"
    }
  ],
  "buffers": [
    {
      "uri": "scene_1.bin",
      "byteLength": 8888
    }
  ],
  "materials": [
    {
      "name": "Sprites-Default",
      "alphaMode": "BLEND",
      "pbrMetallicRoughness": {
        "baseColorTexture": {
          "index": 0
        }
      },
      "extensions": {
        "KHR_materials_unlit": {}
      }
    },
    {
      "name": "Sprites-Default",
      "alphaMode": "BLEND",
      "pbrMetallicRoughness": {
        "baseColorTexture": {
          "index": 1
        }
      },
      "extensions": {
        "KHR_materials_unlit": {}
      }
    }
  ],
  "meshes": [
    {
      "name": "animal_2",
      "primitives": [
        {
          "attributes": {
            "POSITION": 0,
            "TEXCOORD_0": 1
          },
          "mode": 4,
          "material": 0,
          "indices": 22
        }
      ]
    },
    {
      "name": "brindille",
      "primitives": [
        {
          "attributes": {
            "POSITION": 2,
            "TEXCOORD_0": 3
          },
          "mode": 4,
          "material": 0,
          "indices": 23
        }
      ]
    },
    {
      "name": "sheep",
      "primitives": [
        {
          "attributes": {
            "POSITION": 4,
            "TEXCOORD_0": 5
          },
          "mode": 4,
          "material": 0,
          "indices": 24
        }
      ]
    },
    {
      "name": "animal",
      "primitives": [
        {
          "attributes": {
            "POSITION": 6,
            "TEXCOORD_0": 7
          },
          "mode": 4,
          "material": 0,
          "indices": 25
        }
      ]
    },
    {
      "name": "particles",
      "primitives": [
        {
          "attributes": {
            "POSITION": 8,
            "TEXCOORD_0": 9
          },
          "mode": 4,
          "material": 1,
          "indices": 26
        }
      ]
    },
    {
      "name": "owl",
      "primitives": [
        {
          "attributes": {
            "POSITION": 10,
            "TEXCOORD_0": 11
          },
          "mode": 4,
          "material": 0,
          "indices": 27
        }
      ]
    },
    {
      "name": "feuilles_hautes",
      "primitives": [
        {
          "attributes": {
            "POSITION": 12,
            "TEXCOORD_0": 13
          },
          "mode": 4,
          "material": 0,
          "indices": 28
        }
      ]
    },
    {
      "name": "feuilles_droites",
      "primitives": [
        {
          "attributes": {
            "POSITION": 14,
            "TEXCOORD_0": 15
          },
          "mode": 4,
          "material": 0,
          "indices": 29
        }
      ]
    },
    {
      "name": "feuilles_hautes_droites",
      "primitives": [
        {
          "attributes": {
            "POSITION": 16,
            "TEXCOORD_0": 17
          },
          "mode": 4,
          "material": 0,
          "indices": 30
        }
      ]
    },
    {
      "name": "buissons_hauts",
      "primitives": [
        {
          "attributes": {
            "POSITION": 18,
            "TEXCOORD_0": 19
          },
          "mode": 4,
          "material": 0,
          "indices": 31
        }
      ]
    },
    {
      "name": "ciel",
      "primitives": [
        {
          "attributes": {
            "POSITION": 20,
            "TEXCOORD_0": 21
          },
          "mode": 4,
          "material": 0,
          "indices": 32
        }
      ]
    }
  ],
  "nodes": [
    {
      "name": "scene_1",
      "children": [
        1,
        6,
        9,
        15,
        17
      ]
    },
    {
      "name": "layer_01",
      "children": [
        2,
        3,
        4,
        5
      ]
    },
    {
      "name": "animal_2",
      "extras": {
        "renderOrder": 15,
        "renderLayer": "Default"
      },
      "translation": [
        0.0604999959,
        -0.2448125,
        0
      ],
      "mesh": 0
    },
    {
      "name": "brindille",
      "extras": {
        "renderOrder": 14,
        "renderLayer": "Default"
      },
      "translation": [
        -0.445062518,
        -0.053875,
        0
      ],
      "mesh": 1
    },
    {
      "name": "sheep",
      "extras": {
        "renderOrder": 13,
        "renderLayer": "Default"
      },
      "translation": [
        0.369125,
        -0.2013125,
        0
      ],
      "mesh": 2
    },
    {
      "name": "animal",
      "extras": {
        "renderOrder": 12,
        "renderLayer": "Default"
      },
      "translation": [
        0.258125,
        -0.1443125,
        0
      ],
      "mesh": 3
    },
    {
      "name": "layer_02",
      "children": [
        7,
        8
      ]
    },
    {
      "name": "particles",
      "extras": {
        "renderOrder": 11,
        "renderLayer": "Default"
      },
      "mesh": 4
    },
    {
      "name": "owl",
      "extras": {
        "renderOrder": 10,
        "renderLayer": "Default"
      },
      "translation": [
        -0.130249977,
        -0.0231249928,
        0
      ],
      "mesh": 5
    },
    {
      "name": "layer_03",
      "children": [
        10,
        11,
        12,
        13,
        14
      ]
    },
    {
      "name": "feuilles_hautes",
      "extras": {
        "renderOrder": 8,
        "renderLayer": "Default"
      },
      "translation": [
        -0.07893747,
        0.199875,
        0
      ],
      "mesh": 6
    },
    {
      "name": "feuilles_droites",
      "extras": {
        "renderOrder": 7,
        "renderLayer": "Default"
      },
      "translation": [
        -0.454875,
        -0.084125,
        0
      ],
      "mesh": 7
    },
    {
      "name": "feuilles_hautes_droites",
      "extras": {
        "renderOrder": 6,
        "renderLayer": "Default"
      },
      "translation": [
        -0.320875,
        0.209375,
        0
      ],
      "mesh": 8
    },
    {
      "name": "buissons_hauts",
      "extras": {
        "renderOrder": 5,
        "renderLayer": "Default"
      },
      "translation": [
        -0.306375027,
        0.181375,
        0
      ],
      "mesh": 9
    },
    {
      "name": "light",
      "extras": {
        "renderOrder": 4,
        "renderLayer": "Default"
      },
      "translation": [
        -0.5,
        0.282,
        0
      ],
      "mesh": 4
    },
    {
      "name": "layer_04",
      "children": [
        16
      ]
    },
    {
      "name": "feuillages_épais",
      "extras": {
        "renderOrder": 3,
        "renderLayer": "Default"
      },
      "translation": [
        -0.2224375,
        0.114874989,
        0
      ]
    },
    {
      "name": "layer_05",
      "children": [
        18
      ]
    },
    {
      "name": "ciel",
      "extras": {
        "renderOrder": 1,
        "renderLayer": "Default"
      },
      "mesh": 10
    }
  ],
  "scenes": [
    {
      "name": "scene_1",
      "nodes": [
        0
      ]
    }
  ],
  "scene": 0,
  "extensionsUsed": [
    "KHR_materials_unlit",
    "KHR_texture_basisu"
  ],
  "extensionsRequired": [
    "KHR_materials_unlit",
    "KHR_texture_basisu"
  ]
}