{
  "asset": {
    "generator": "glTF-Transform v2.1.7",
    "version": "2.0"
  },
  "accessors": [
    {
      "type": "VEC3",
      "componentType": 5126,
      "count": 43,
      "max": [
        0.1433124989271164,
        0.17896585166454315,
        0
      ],
      "min": [
        -0.1433124989271164,
        -0.17896585166454315,
        0
      ],
      "bufferView": 0,
      "byteOffset": 0
    },
    {
      "type": "VEC2",
      "componentType": 5126,
      "count": 43,
      "bufferView": 0,
      "byteOffset": 12
    },
    {
      "type": "VEC3",
      "componentType": 5126,
      "count": 40,
      "max": [
        0.1749333292245865,
        0.020499998703598976,
        0
      ],
      "min": [
        -0.1749333292245865,
        -0.020499998703598976,
        0
      ],
      "bufferView": 1,
      "byteOffset": 0
    },
    {
      "type": "VEC2",
      "componentType": 5126,
      "count": 40,
      "bufferView": 1,
      "byteOffset": 12
    },
    {
      "type": "VEC3",
      "componentType": 5126,
      "count": 19,
      "max": [
        0.09754481911659241,
        0.02762499824166298,
        0
      ],
      "min": [
        -0.09754481911659241,
        -0.02762499824166298,
        0
      ],
      "bufferView": 2,
      "byteOffset": 0
    },
    {
      "type": "VEC2",
      "componentType": 5126,
      "count": 19,
      "bufferView": 2,
      "byteOffset": 12
    },
    {
      "type": "VEC3",
      "componentType": 5126,
      "count": 16,
      "max": [
        0.04362500086426735,
        0.011332275345921516,
        0
      ],
      "min": [
        -0.04362500086426735,
        -0.011332275345921516,
        0
      ],
      "bufferView": 3,
      "byteOffset": 0
    },
    {
      "type": "VEC2",
      "componentType": 5126,
      "count": 16,
      "bufferView": 3,
      "byteOffset": 12
    },
    {
      "type": "VEC3",
      "componentType": 5126,
      "count": 24,
      "max": [
        0.24987497925758362,
        0.07296153903007507,
        0
      ],
      "min": [
        -0.24987497925758362,
        -0.07296153903007507,
        0
      ],
      "bufferView": 4,
      "byteOffset": 0
    },
    {
      "type": "VEC2",
      "componentType": 5126,
      "count": 24,
      "bufferView": 4,
      "byteOffset": 12
    },
    {
      "type": "VEC3",
      "componentType": 5126,
      "count": 17,
      "max": [
        0.2763749957084656,
        0.05559887737035751,
        0
      ],
      "min": [
        -0.2763749957084656,
        -0.05559887737035751,
        0
      ],
      "bufferView": 5,
      "byteOffset": 0
    },
    {
      "type": "VEC2",
      "componentType": 5126,
      "count": 17,
      "bufferView": 5,
      "byteOffset": 12
    },
    {
      "type": "VEC3",
      "componentType": 5126,
      "count": 54,
      "max": [
        0.23281250894069672,
        0.07639160007238388,
        0
      ],
      "min": [
        -0.23281250894069672,
        -0.07639160007238388,
        0
      ],
      "bufferView": 6,
      "byteOffset": 0
    },
    {
      "type": "VEC2",
      "componentType": 5126,
      "count": 54,
      "bufferView": 6,
      "byteOffset": 12
    },
    {
      "type": "VEC3",
      "componentType": 5126,
      "count": 4,
      "max": [
        0.06400000303983688,
        0.06400000303983688,
        0
      ],
      "min": [
        -0.06400000303983688,
        -0.06400000303983688,
        0
      ],
      "bufferView": 7,
      "byteOffset": 0
    },
    {
      "type": "VEC2",
      "componentType": 5126,
      "count": 4,
      "bufferView": 7,
      "byteOffset": 12
    },
    {
      "type": "VEC3",
      "componentType": 5126,
      "count": 43,
      "max": [
        0.1135261282324791,
        0.13612499833106995,
        0
      ],
      "min": [
        -0.1135261282324791,
        -0.13612499833106995,
        0
      ],
      "bufferView": 8,
      "byteOffset": 0
    },
    {
      "type": "VEC2",
      "componentType": 5126,
      "count": 43,
      "bufferView": 8,
      "byteOffset": 12
    },
    {
      "type": "VEC3",
      "componentType": 5126,
      "count": 16,
      "max": [
        0.1287499964237213,
        0.14584070444107056,
        0
      ],
      "min": [
        -0.1287499964237213,
        -0.14584070444107056,
        0
      ],
      "bufferView": 9,
      "byteOffset": 0
    },
    {
      "type": "VEC2",
      "componentType": 5126,
      "count": 16,
      "bufferView": 9,
      "byteOffset": 12
    },
    {
      "type": "VEC3",
      "componentType": 5126,
      "count": 4,
      "max": [
        0.06400000303983688,
        0.06400000303983688,
        0
      ],
      "min": [
        -0.06400000303983688,
        -0.06400000303983688,
        0
      ],
      "bufferView": 10,
      "byteOffset": 0
    },
    {
      "type": "VEC2",
      "componentType": 5126,
      "count": 4,
      "bufferView": 10,
      "byteOffset": 12
    },
    {
      "type": "VEC3",
      "componentType": 5126,
      "count": 58,
      "max": [
        0.1272735595703125,
        0.13718749582767487,
        0
      ],
      "min": [
        -0.1272735595703125,
        -0.13718749582767487,
        0
      ],
      "bufferView": 11,
      "byteOffset": 0
    },
    {
      "type": "VEC2",
      "componentType": 5126,
      "count": 58,
      "bufferView": 11,
      "byteOffset": 12
    },
    {
      "type": "VEC3",
      "componentType": 5126,
      "count": 58,
      "max": [
        0.33143749833106995,
        0.17704717814922333,
        0
      ],
      "min": [
        -0.33143749833106995,
        -0.17704717814922333,
        0
      ],
      "bufferView": 12,
      "byteOffset": 0
    },
    {
      "type": "VEC2",
      "componentType": 5126,
      "count": 58,
      "bufferView": 12,
      "byteOffset": 12
    },
    {
      "type": "VEC3",
      "componentType": 5126,
      "count": 19,
      "max": [
        0.5006000399589539,
        0.15643750131130219,
        0
      ],
      "min": [
        -0.5006000399589539,
        -0.15643750131130219,
        0
      ],
      "bufferView": 13,
      "byteOffset": 0
    },
    {
      "type": "VEC2",
      "componentType": 5126,
      "count": 19,
      "bufferView": 13,
      "byteOffset": 12
    },
    {
      "type": "VEC3",
      "componentType": 5126,
      "count": 33,
      "max": [
        0.40037503838539124,
        0.18063795566558838,
        0
      ],
      "min": [
        -0.40037503838539124,
        -0.18063795566558838,
        0
      ],
      "bufferView": 14,
      "byteOffset": 0
    },
    {
      "type": "VEC2",
      "componentType": 5126,
      "count": 33,
      "bufferView": 14,
      "byteOffset": 12
    },
    {
      "type": "VEC3",
      "componentType": 5126,
      "count": 52,
      "max": [
        0.2150000035762787,
        0.16376954317092896,
        0
      ],
      "min": [
        -0.2150000035762787,
        -0.16376954317092896,
        0
      ],
      "bufferView": 15,
      "byteOffset": 0
    },
    {
      "type": "VEC2",
      "componentType": 5126,
      "count": 52,
      "bufferView": 15,
      "byteOffset": 12
    },
    {
      "type": "VEC3",
      "componentType": 5126,
      "count": 4,
      "max": [
        0.5,
        0.28125,
        0
      ],
      "min": [
        -0.5,
        -0.28125,
        0
      ],
      "bufferView": 16,
      "byteOffset": 0
    },
    {
      "type": "VEC2",
      "componentType": 5126,
      "count": 4,
      "bufferView": 16,
      "byteOffset": 12
    },
    {
      "type": "SCALAR",
      "componentType": 5121,
      "count": 123,
      "bufferView": 17,
      "byteOffset": 0
    },
    {
      "type": "SCALAR",
      "componentType": 5121,
      "count": 111,
      "bufferView": 17,
      "byteOffset": 124
    },
    {
      "type": "SCALAR",
      "componentType": 5121,
      "count": 45,
      "bufferView": 17,
      "byteOffset": 236
    },
    {
      "type": "SCALAR",
      "componentType": 5121,
      "count": 42,
      "bufferView": 17,
      "byteOffset": 284
    },
    {
      "type": "SCALAR",
      "componentType": 5121,
      "count": 60,
      "bufferView": 17,
      "byteOffset": 328
    },
    {
      "type": "SCALAR",
      "componentType": 5121,
      "count": 45,
      "bufferView": 17,
      "byteOffset": 388
    },
    {
      "type": "SCALAR",
      "componentType": 5121,
      "count": 150,
      "bufferView": 17,
      "byteOffset": 436
    },
    {
      "type": "SCALAR",
      "componentType": 5121,
      "count": 6,
      "bufferView": 17,
      "byteOffset": 588
    },
    {
      "type": "SCALAR",
      "componentType": 5121,
      "count": 111,
      "bufferView": 17,
      "byteOffset": 596
    },
    {
      "type": "SCALAR",
      "componentType": 5121,
      "count": 36,
      "bufferView": 17,
      "byteOffset": 708
    },
    {
      "type": "SCALAR",
      "componentType": 5121,
      "count": 6,
      "bufferView": 17,
      "byteOffset": 744
    },
    {
      "type": "SCALAR",
      "componentType": 5121,
      "count": 162,
      "bufferView": 17,
      "byteOffset": 752
    },
    {
      "type": "SCALAR",
      "componentType": 5121,
      "count": 168,
      "bufferView": 17,
      "byteOffset": 916
    },
    {
      "type": "SCALAR",
      "componentType": 5121,
      "count": 51,
      "bufferView": 17,
      "byteOffset": 1084
    },
    {
      "type": "SCALAR",
      "componentType": 5121,
      "count": 93,
      "bufferView": 17,
      "byteOffset": 1136
    },
    {
      "type": "SCALAR",
      "componentType": 5121,
      "count": 150,
      "bufferView": 17,
      "byteOffset": 1232
    },
    {
      "type": "SCALAR",
      "componentType": 5121,
      "count": 6,
      "bufferView": 17,
      "byteOffset": 1384
    }
  ],
  "bufferViews": [
    {
      "buffer": 0,
      "byteOffset": 0,
      "byteLength": 860,
      "byteStride": 20,
      "target": 34962
    },
    {
      "buffer": 0,
      "byteOffset": 860,
      "byteLength": 800,
      "byteStride": 20,
      "target": 34962
    },
    {
      "buffer": 0,
      "byteOffset": 1660,
      "byteLength": 380,
      "byteStride": 20,
      "target": 34962
    },
    {
      "buffer": 0,
      "byteOffset": 2040,
      "byteLength": 320,
      "byteStride": 20,
      "target": 34962
    },
    {
      "buffer": 0,
      "byteOffset": 2360,
      "byteLength": 480,
      "byteStride": 20,
      "target": 34962
    },
    {
      "buffer": 0,
      "byteOffset": 2840,
      "byteLength": 340,
      "byteStride": 20,
      "target": 34962
    },
    {
      "buffer": 0,
      "byteOffset": 3180,
      "byteLength": 1080,
      "byteStride": 20,
      "target": 34962
    },
    {
      "buffer": 0,
      "byteOffset": 4260,
      "byteLength": 80,
      "byteStride": 20,
      "target": 34962
    },
    {
      "buffer": 0,
      "byteOffset": 4340,
      "byteLength": 860,
      "byteStride": 20,
      "target": 34962
    },
    {
      "buffer": 0,
      "byteOffset": 5200,
      "byteLength": 320,
      "byteStride": 20,
      "target": 34962
    },
    {
      "buffer": 0,
      "byteOffset": 5520,
      "byteLength": 80,
      "byteStride": 20,
      "target": 34962
    },
    {
      "buffer": 0,
      "byteOffset": 5600,
      "byteLength": 1160,
      "byteStride": 20,
      "target": 34962
    },
    {
      "buffer": 0,
      "byteOffset": 6760,
      "byteLength": 1160,
      "byteStride": 20,
      "target": 34962
    },
    {
      "buffer": 0,
      "byteOffset": 7920,
      "byteLength": 380,
      "byteStride": 20,
      "target": 34962
    },
    {
      "buffer": 0,
      "byteOffset": 8300,
      "byteLength": 660,
      "byteStride": 20,
      "target": 34962
    },
    {
      "buffer": 0,
      "byteOffset": 8960,
      "byteLength": 1040,
      "byteStride": 20,
      "target": 34962
    },
    {
      "buffer": 0,
      "byteOffset": 10000,
      "byteLength": 80,
      "byteStride": 20,
      "target": 34962
    },
    {
      "buffer": 0,
      "byteOffset": 10080,
      "byteLength": 1392,
      "target": 34963
    }
  ],
  "samplers": [
    {
      "minFilter": 9985,
      "wrapS": 33071,
      "wrapT": 33071
    },
    {
      "minFilter": 9987,
      "wrapS": 33071,
      "wrapT": 33071
    }
  ],
  "textures": [
    {
      "sampler": 0,
      "extensions": {
        "KHR_texture_basisu": {
          "source": 0
        }
      }
    },
    {
      "sampler": 0,
      "extensions": {
        "KHR_texture_basisu": {
          "source": 1
        }
      }
    },
    {
      "sampler": 1,
      "extensions": {
        "KHR_texture_basisu": {
          "source": 2
        }
      }
    },
    {
      "sampler": 0,
      "extensions": {
        "KHR_texture_basisu": {
          "source": 3
        }
      }
    }
  ],
  "images": [
    {
      "name": "sactx-0-2048x2048-Uncompressed-scene_2_10_atlas-7b104712",
      "mimeType": "image/ktx2",
      "uri": "sactx-0-2048x2048-Uncompressed-scene_2_10_atlas-7b104712.ktx2"
    },
    {
      "name": "other",
      "mimeType": "image/ktx2",
      "uri": "other.ktx2"
    },
    {
      "name": "boy_hands_2_10",
      "mimeType": "image/ktx2",
      "uri": "boy_hands_2_10.ktx2"
    },
    {
      "name": "user_avatar",
      "mimeType": "image/ktx2",
      "uri": "user_avatar.ktx2"
    }
  ],
  "buffers": [
    {
      "uri": "scene_9.bin",
      "byteLength": 11472
    }
  ],
  "materials": [
    {
      "name": "Sprites-Default",
      "alphaMode": "BLEND",
      "pbrMetallicRoughness": {
        "baseColorTexture": {
          "index": 0
        }
      },
      "extensions": {
        "KHR_materials_unlit": {}
      }
    },
    {
      "name": "Sprites-Default",
      "alphaMode": "BLEND",
      "pbrMetallicRoughness": {
        "baseColorTexture": {
          "index": 1
        }
      },
      "extensions": {
        "KHR_materials_unlit": {}
      }
    },
    {
      "name": "skin",
      "alphaMode": "BLEND",
      "pbrMetallicRoughness": {
        "baseColorTexture": {
          "index": 2
        }
      },
      "extensions": {
        "KHR_materials_unlit": {}
      }
    },
    {
      "name": "avatar",
      "alphaMode": "BLEND",
      "pbrMetallicRoughness": {
        "baseColorTexture": {
          "index": 3
        }
      },
      "extensions": {
        "KHR_materials_unlit": {}
      }
    }
  ],
  "meshes": [
    {
      "name": "owl",
      "primitives": [
        {
          "attributes": {
            "POSITION": 0,
            "TEXCOORD_0": 1
          },
          "mode": 4,
          "material": 0,
          "indices": 34
        }
      ]
    },
    {
      "name": "leaves",
      "primitives": [
        {
          "attributes": {
            "POSITION": 2,
            "TEXCOORD_0": 3
          },
          "mode": 4,
          "material": 0,
          "indices": 35
        }
      ]
    },
    {
      "name": "feather",
      "primitives": [
        {
          "attributes": {
            "POSITION": 4,
            "TEXCOORD_0": 5
          },
          "mode": 4,
          "material": 0,
          "indices": 36
        }
      ]
    },
    {
      "name": "lombric",
      "primitives": [
        {
          "attributes": {
            "POSITION": 6,
            "TEXCOORD_0": 7
          },
          "mode": 4,
          "material": 0,
          "indices": 37
        }
      ]
    },
    {
      "name": "bawls",
      "primitives": [
        {
          "attributes": {
            "POSITION": 8,
            "TEXCOORD_0": 9
          },
          "mode": 4,
          "material": 0,
          "indices": 38
        }
      ]
    },
    {
      "name": "table",
      "primitives": [
        {
          "attributes": {
            "POSITION": 10,
            "TEXCOORD_0": 11
          },
          "mode": 4,
          "material": 0,
          "indices": 39
        }
      ]
    },
    {
      "name": "brindilles",
      "primitives": [
        {
          "attributes": {
            "POSITION": 12,
            "TEXCOORD_0": 13
          },
          "mode": 4,
          "material": 0,
          "indices": 40
        }
      ]
    },
    {
      "name": "particles",
      "primitives": [
        {
          "attributes": {
            "POSITION": 14,
            "TEXCOORD_0": 15
          },
          "mode": 4,
          "material": 1,
          "indices": 41
        }
      ]
    },
    {
      "name": "boy_shirt",
      "primitives": [
        {
          "attributes": {
            "POSITION": 16,
            "TEXCOORD_0": 17
          },
          "mode": 4,
          "material": 0,
          "indices": 42
        }
      ]
    },
    {
      "name": "boy_hands",
      "primitives": [
        {
          "attributes": {
            "POSITION": 18,
            "TEXCOORD_0": 19
          },
          "mode": 4,
          "material": 2,
          "indices": 43
        }
      ]
    },
    {
      "name": "user_avatar",
      "primitives": [
        {
          "attributes": {
            "POSITION": 20,
            "TEXCOORD_0": 21
          },
          "mode": 4,
          "material": 3,
          "indices": 44
        }
      ]
    },
    {
      "name": "raccoon",
      "primitives": [
        {
          "attributes": {
            "POSITION": 22,
            "TEXCOORD_0": 23
          },
          "mode": 4,
          "material": 0,
          "indices": 45
        }
      ]
    },
    {
      "name": "branche",
      "primitives": [
        {
          "attributes": {
            "POSITION": 24,
            "TEXCOORD_0": 25
          },
          "mode": 4,
          "material": 0,
          "indices": 46
        }
      ]
    },
    {
      "name": "plaine_1",
      "primitives": [
        {
          "attributes": {
            "POSITION": 26,
            "TEXCOORD_0": 27
          },
          "mode": 4,
          "material": 0,
          "indices": 47
        }
      ]
    },
    {
      "name": "plaine_2",
      "primitives": [
        {
          "attributes": {
            "POSITION": 28,
            "TEXCOORD_0": 29
          },
          "mode": 4,
          "material": 0,
          "indices": 48
        }
      ]
    },
    {
      "name": "plaine_3",
      "primitives": [
        {
          "attributes": {
            "POSITION": 30,
            "TEXCOORD_0": 31
          },
          "mode": 4,
          "material": 0,
          "indices": 49
        }
      ]
    },
    {
      "name": "ciel",
      "primitives": [
        {
          "attributes": {
            "POSITION": 32,
            "TEXCOORD_0": 33
          },
          "mode": 4,
          "material": 0,
          "indices": 50
        }
      ]
    }
  ],
  "nodes": [
    {
      "name": "scene_9",
      "children": [
        1,
        8,
        11,
        18,
        20,
        23
      ]
    },
    {
      "name": "layer_01",
      "children": [
        2,
        3,
        4,
        5,
        6,
        7
      ]
    },
    {
      "name": "owl",
      "extras": {
        "renderOrder": 22,
        "renderLayer": "Default"
      },
      "translation": [
        0.310687482,
        -0.037499994,
        0
      ],
      "mesh": 0
    },
    {
      "name": "leaves",
      "extras": {
        "renderOrder": 21,
        "renderLayer": "Default"
      },
      "translation": [
        0.2531875,
        -0.197375,
        0
      ],
      "mesh": 1
    },
    {
      "name": "feather",
      "extras": {
        "renderOrder": 20,
        "renderLayer": "Default"
      },
      "translation": [
        0.257875,
        -0.236625,
        0
      ],
      "mesh": 2
    },
    {
      "name": "lombric",
      "extras": {
        "renderOrder": 19,
        "renderLayer": "Default"
      },
      "translation": [
        0.084374994,
        -0.2135625,
        0
      ],
      "mesh": 3
    },
    {
      "name": "bawls",
      "extras": {
        "renderOrder": 18,
        "renderLayer": "Default"
      },
      "translation": [
        0.250125,
        -0.208375,
        0
      ],
      "mesh": 4
    },
    {
      "name": "table",
      "extras": {
        "renderOrder": 17,
        "renderLayer": "Default"
      },
      "translation": [
        0.223625,
        -0.2256875,
        0
      ],
      "mesh": 5
    },
    {
      "name": "layer_02",
      "children": [
        9,
        10
      ]
    },
    {
      "name": "brindilles",
      "extras": {
        "renderOrder": 15,
        "renderLayer": "Default"
      },
      "translation": [
        -0.267187476,
        -0.205062509,
        0
      ],
      "mesh": 6
    },
    {
      "name": "particles",
      "extras": {
        "renderOrder": 14,
        "renderLayer": "Default"
      },
      "mesh": 7
    },
    {
      "name": "layer_03",
      "children": [
        12,
        16,
        17
      ]
    },
    {
      "name": "boy",
      "children": [
        13,
        14,
        15
      ]
    },
    {
      "name": "boy_shirt",
      "extras": {
        "renderOrder": 11,
        "renderLayer": "Default"
      },
      "translation": [
        -0.325124979,
        -0.145125,
        0
      ],
      "mesh": 8
    },
    {
      "name": "boy_hands",
      "extras": {
        "renderOrder": 10,
        "renderLayer": "Default"
      },
      "translation": [
        -0.336125016,
        -0.1155625,
        0
      ],
      "mesh": 9
    },
    {
      "name": "user_avatar",
      "extras": {
        "renderOrder": 10,
        "renderLayer": "Default"
      },
      "translation": [
        -0.3618,
        -0.0216,
        0
      ],
      "rotation": [
        0,
        0,
        -0.0781815,
        -0.9969392
      ],
      "scale": [
        3.335655,
        3.335655,
        3.335655
      ],
      "mesh": 10
    },
    {
      "name": "raccoon",
      "extras": {
        "renderOrder": 9,
        "renderLayer": "Default"
      },
      "translation": [
        -0.155187488,
        -0.1440625,
        0
      ],
      "mesh": 11
    },
    {
      "name": "branche",
      "extras": {
        "renderOrder": 8,
        "renderLayer": "Default"
      },
      "translation": [
        -0.168562472,
        0.04331249,
        0
      ],
      "mesh": 12
    },
    {
      "name": "layer_04",
      "children": [
        19
      ]
    },
    {
      "name": "plaine_1",
      "extras": {
        "renderOrder": 6,
        "renderLayer": "Default"
      },
      "translation": [
        0,
        -0.1248125,
        0
      ],
      "mesh": 13
    },
    {
      "name": "layer_05",
      "children": [
        21,
        22
      ]
    },
    {
      "name": "plaine_2",
      "extras": {
        "renderOrder": 4,
        "renderLayer": "Default"
      },
      "translation": [
        -0.006375015,
        -0.100624993,
        0
      ],
      "mesh": 14
    },
    {
      "name": "plaine_3",
      "extras": {
        "renderOrder": 3,
        "renderLayer": "Default"
      },
      "translation": [
        -0.285000026,
        -0.1175625,
        0
      ],
      "mesh": 15
    },
    {
      "name": "layer_06",
      "children": [
        24
      ]
    },
    {
      "name": "ciel",
      "extras": {
        "renderOrder": 1,
        "renderLayer": "Default"
      },
      "mesh": 16
    }
  ],
  "scenes": [
    {
      "name": "scene_9",
      "nodes": [
        0
      ]
    }
  ],
  "scene": 0,
  "extensionsUsed": [
    "KHR_materials_unlit",
    "KHR_texture_basisu"
  ],
  "extensionsRequired": [
    "KHR_materials_unlit",
    "KHR_texture_basisu"
  ]
}