{
  "asset": {
    "generator": "glTF-Transform v2.1.7",
    "version": "2.0"
  },
  "accessors": [
    {
      "type": "VEC3",
      "componentType": 5126,
      "count": 31,
      "max": [
        0.25772151350975037,
        0.14798852801322937,
        0
      ],
      "min": [
        -0.25772151350975037,
        -0.15906250476837158,
        0
      ],
      "bufferView": 0,
      "byteOffset": 0
    },
    {
      "type": "VEC2",
      "componentType": 5126,
      "count": 31,
      "bufferView": 0,
      "byteOffset": 12
    },
    {
      "type": "VEC3",
      "componentType": 5126,
      "count": 60,
      "max": [
        0.05637500062584877,
        0.04140039160847664,
        0
      ],
      "min": [
        -0.05637500062584877,
        -0.04140039160847664,
        0
      ],
      "bufferView": 1,
      "byteOffset": 0
    },
    {
      "type": "VEC2",
      "componentType": 5126,
      "count": 60,
      "bufferView": 1,
      "byteOffset": 12
    },
    {
      "type": "VEC3",
      "componentType": 5126,
      "count": 22,
      "max": [
        0.11875000596046448,
        0.10460206121206284,
        0
      ],
      "min": [
        -0.11875000596046448,
        -0.10460206121206284,
        0
      ],
      "bufferView": 2,
      "byteOffset": 0
    },
    {
      "type": "VEC2",
      "componentType": 5126,
      "count": 22,
      "bufferView": 2,
      "byteOffset": 12
    },
    {
      "type": "VEC3",
      "componentType": 5126,
      "count": 65,
      "max": [
        0.10400000214576721,
        0.11525541543960571,
        0
      ],
      "min": [
        -0.10400000214576721,
        -0.11525541543960571,
        0
      ],
      "bufferView": 3,
      "byteOffset": 0
    },
    {
      "type": "VEC2",
      "componentType": 5126,
      "count": 65,
      "bufferView": 3,
      "byteOffset": 12
    },
    {
      "type": "VEC3",
      "componentType": 5126,
      "count": 49,
      "max": [
        0.040562503039836884,
        0.04677477851510048,
        0
      ],
      "min": [
        -0.040562503039836884,
        -0.04677477851510048,
        0
      ],
      "bufferView": 4,
      "byteOffset": 0
    },
    {
      "type": "VEC2",
      "componentType": 5126,
      "count": 49,
      "bufferView": 4,
      "byteOffset": 12
    },
    {
      "type": "VEC3",
      "componentType": 5126,
      "count": 185,
      "max": [
        0.17026208341121674,
        0.19243749976158142,
        0
      ],
      "min": [
        -0.17026208341121674,
        -0.19243749976158142,
        0
      ],
      "bufferView": 5,
      "byteOffset": 0
    },
    {
      "type": "VEC2",
      "componentType": 5126,
      "count": 185,
      "bufferView": 5,
      "byteOffset": 12
    },
    {
      "type": "VEC3",
      "componentType": 5126,
      "count": 142,
      "max": [
        0.27393749356269836,
        0.2813560664653778,
        0
      ],
      "min": [
        -0.27393749356269836,
        -0.2813560664653778,
        0
      ],
      "bufferView": 6,
      "byteOffset": 0
    },
    {
      "type": "VEC2",
      "componentType": 5126,
      "count": 142,
      "bufferView": 6,
      "byteOffset": 12
    },
    {
      "type": "VEC3",
      "componentType": 5126,
      "count": 4,
      "max": [
        0.06400000303983688,
        0.06400000303983688,
        0
      ],
      "min": [
        -0.06400000303983688,
        -0.06400000303983688,
        0
      ],
      "bufferView": 7,
      "byteOffset": 0
    },
    {
      "type": "VEC2",
      "componentType": 5126,
      "count": 4,
      "bufferView": 7,
      "byteOffset": 12
    },
    {
      "type": "VEC3",
      "componentType": 5126,
      "count": 30,
      "max": [
        0.5,
        0.28125,
        0
      ],
      "min": [
        -0.5,
        -0.28125,
        0
      ],
      "bufferView": 8,
      "byteOffset": 0
    },
    {
      "type": "VEC2",
      "componentType": 5126,
      "count": 30,
      "bufferView": 8,
      "byteOffset": 12
    },
    {
      "type": "VEC3",
      "componentType": 5126,
      "count": 24,
      "max": [
        0.42891570925712585,
        0.13906250894069672,
        0
      ],
      "min": [
        -0.42891570925712585,
        -0.13906250894069672,
        0
      ],
      "bufferView": 9,
      "byteOffset": 0
    },
    {
      "type": "VEC2",
      "componentType": 5126,
      "count": 24,
      "bufferView": 9,
      "byteOffset": 12
    },
    {
      "type": "VEC3",
      "componentType": 5126,
      "count": 60,
      "max": [
        0.22815857827663422,
        0.20231249928474426,
        0
      ],
      "min": [
        -0.22815857827663422,
        -0.20231249928474426,
        0
      ],
      "bufferView": 10,
      "byteOffset": 0
    },
    {
      "type": "VEC2",
      "componentType": 5126,
      "count": 60,
      "bufferView": 10,
      "byteOffset": 12
    },
    {
      "type": "VEC3",
      "componentType": 5126,
      "count": 4,
      "max": [
        0.5,
        0.28125,
        0
      ],
      "min": [
        -0.5,
        -0.28125,
        0
      ],
      "bufferView": 11,
      "byteOffset": 0
    },
    {
      "type": "VEC2",
      "componentType": 5126,
      "count": 4,
      "bufferView": 11,
      "byteOffset": 12
    },
    {
      "type": "SCALAR",
      "componentType": 5121,
      "count": 126,
      "bufferView": 12,
      "byteOffset": 0
    },
    {
      "type": "SCALAR",
      "componentType": 5121,
      "count": 213,
      "bufferView": 12,
      "byteOffset": 128
    },
    {
      "type": "SCALAR",
      "componentType": 5121,
      "count": 48,
      "bufferView": 12,
      "byteOffset": 344
    },
    {
      "type": "SCALAR",
      "componentType": 5121,
      "count": 189,
      "bufferView": 12,
      "byteOffset": 392
    },
    {
      "type": "SCALAR",
      "componentType": 5121,
      "count": 141,
      "bufferView": 12,
      "byteOffset": 584
    },
    {
      "type": "SCALAR",
      "componentType": 5121,
      "count": 549,
      "bufferView": 12,
      "byteOffset": 728
    },
    {
      "type": "SCALAR",
      "componentType": 5121,
      "count": 417,
      "bufferView": 12,
      "byteOffset": 1280
    },
    {
      "type": "SCALAR",
      "componentType": 5121,
      "count": 6,
      "bufferView": 12,
      "byteOffset": 1700
    },
    {
      "type": "SCALAR",
      "componentType": 5121,
      "count": 72,
      "bufferView": 12,
      "byteOffset": 1708
    },
    {
      "type": "SCALAR",
      "componentType": 5121,
      "count": 66,
      "bufferView": 12,
      "byteOffset": 1780
    },
    {
      "type": "SCALAR",
      "componentType": 5121,
      "count": 174,
      "bufferView": 12,
      "byteOffset": 1848
    },
    {
      "type": "SCALAR",
      "componentType": 5121,
      "count": 6,
      "bufferView": 12,
      "byteOffset": 2024
    }
  ],
  "bufferViews": [
    {
      "buffer": 0,
      "byteOffset": 0,
      "byteLength": 620,
      "byteStride": 20,
      "target": 34962
    },
    {
      "buffer": 0,
      "byteOffset": 620,
      "byteLength": 1200,
      "byteStride": 20,
      "target": 34962
    },
    {
      "buffer": 0,
      "byteOffset": 1820,
      "byteLength": 440,
      "byteStride": 20,
      "target": 34962
    },
    {
      "buffer": 0,
      "byteOffset": 2260,
      "byteLength": 1300,
      "byteStride": 20,
      "target": 34962
    },
    {
      "buffer": 0,
      "byteOffset": 3560,
      "byteLength": 980,
      "byteStride": 20,
      "target": 34962
    },
    {
      "buffer": 0,
      "byteOffset": 4540,
      "byteLength": 3700,
      "byteStride": 20,
      "target": 34962
    },
    {
      "buffer": 0,
      "byteOffset": 8240,
      "byteLength": 2840,
      "byteStride": 20,
      "target": 34962
    },
    {
      "buffer": 0,
      "byteOffset": 11080,
      "byteLength": 80,
      "byteStride": 20,
      "target": 34962
    },
    {
      "buffer": 0,
      "byteOffset": 11160,
      "byteLength": 600,
      "byteStride": 20,
      "target": 34962
    },
    {
      "buffer": 0,
      "byteOffset": 11760,
      "byteLength": 480,
      "byteStride": 20,
      "target": 34962
    },
    {
      "buffer": 0,
      "byteOffset": 12240,
      "byteLength": 1200,
      "byteStride": 20,
      "target": 34962
    },
    {
      "buffer": 0,
      "byteOffset": 13440,
      "byteLength": 80,
      "byteStride": 20,
      "target": 34962
    },
    {
      "buffer": 0,
      "byteOffset": 13520,
      "byteLength": 2032,
      "target": 34963
    }
  ],
  "samplers": [
    {
      "minFilter": 9987,
      "wrapS": 33071,
      "wrapT": 33071
    },
    {
      "minFilter": 9985,
      "wrapS": 33071,
      "wrapT": 33071
    }
  ],
  "textures": [
    {
      "sampler": 0,
      "extensions": {
        "KHR_texture_basisu": {
          "source": 0
        }
      }
    },
    {
      "sampler": 0,
      "extensions": {
        "KHR_texture_basisu": {
          "source": 1
        }
      }
    },
    {
      "sampler": 1,
      "extensions": {
        "KHR_texture_basisu": {
          "source": 2
        }
      }
    }
  ],
  "images": [
    {
      "name": "sactx-1-1024x1024-Uncompressed-scene_2_6_atlas-821f5894",
      "mimeType": "image/ktx2",
      "uri": "sactx-1-1024x1024-Uncompressed-scene_2_6_atlas-821f5894.ktx2"
    },
    {
      "name": "sactx-0-2048x2048-Uncompressed-scene_2_6_atlas-821f5894",
      "mimeType": "image/ktx2",
      "uri": "sactx-0-2048x2048-Uncompressed-scene_2_6_atlas-821f5894.ktx2"
    },
    {
      "name": "user_avatar",
      "mimeType": "image/ktx2",
      "uri": "user_avatar.ktx2"
    }
  ],
  "buffers": [
    {
      "uri": "scene_5.bin",
      "byteLength": 15552
    }
  ],
  "materials": [
    {
      "name": "Sprites-Default",
      "alphaMode": "BLEND",
      "pbrMetallicRoughness": {
        "baseColorTexture": {
          "index": 0
        }
      },
      "extensions": {
        "KHR_materials_unlit": {}
      }
    },
    {
      "name": "Sprites-Default",
      "alphaMode": "BLEND",
      "pbrMetallicRoughness": {
        "baseColorTexture": {
          "index": 1
        }
      },
      "extensions": {
        "KHR_materials_unlit": {}
      }
    },
    {
      "name": "Sprites-Default",
      "alphaMode": "BLEND",
      "pbrMetallicRoughness": {
        "baseColorTexture": {
          "index": 2
        }
      },
      "extensions": {
        "KHR_materials_unlit": {}
      }
    }
  ],
  "meshes": [
    {
      "name": "fummée",
      "primitives": [
        {
          "attributes": {
            "POSITION": 0,
            "TEXCOORD_0": 1
          },
          "mode": 4,
          "material": 0,
          "indices": 24
        }
      ]
    },
    {
      "name": "brindille",
      "primitives": [
        {
          "attributes": {
            "POSITION": 2,
            "TEXCOORD_0": 3
          },
          "mode": 4,
          "material": 0,
          "indices": 25
        }
      ]
    },
    {
      "name": "feuilles_tombent",
      "primitives": [
        {
          "attributes": {
            "POSITION": 4,
            "TEXCOORD_0": 5
          },
          "mode": 4,
          "material": 1,
          "indices": 26
        }
      ]
    },
    {
      "name": "feuilles_basses",
      "primitives": [
        {
          "attributes": {
            "POSITION": 6,
            "TEXCOORD_0": 7
          },
          "mode": 4,
          "material": 1,
          "indices": 27
        }
      ]
    },
    {
      "name": "feuilles_hautes",
      "primitives": [
        {
          "attributes": {
            "POSITION": 8,
            "TEXCOORD_0": 9
          },
          "mode": 4,
          "material": 1,
          "indices": 28
        }
      ]
    },
    {
      "name": "owl",
      "primitives": [
        {
          "attributes": {
            "POSITION": 10,
            "TEXCOORD_0": 11
          },
          "mode": 4,
          "material": 1,
          "indices": 29
        }
      ]
    },
    {
      "name": "arbre",
      "primitives": [
        {
          "attributes": {
            "POSITION": 12,
            "TEXCOORD_0": 13
          },
          "mode": 4,
          "material": 1,
          "indices": 30
        }
      ]
    },
    {
      "name": "particles",
      "primitives": [
        {
          "attributes": {
            "POSITION": 14,
            "TEXCOORD_0": 15
          },
          "mode": 4,
          "material": 2,
          "indices": 31
        }
      ]
    },
    {
      "name": "plaine_1",
      "primitives": [
        {
          "attributes": {
            "POSITION": 16,
            "TEXCOORD_0": 17
          },
          "mode": 4,
          "material": 0,
          "indices": 32
        }
      ]
    },
    {
      "name": "plaine_2",
      "primitives": [
        {
          "attributes": {
            "POSITION": 18,
            "TEXCOORD_0": 19
          },
          "mode": 4,
          "material": 0,
          "indices": 33
        }
      ]
    },
    {
      "name": "Group 2",
      "primitives": [
        {
          "attributes": {
            "POSITION": 20,
            "TEXCOORD_0": 21
          },
          "mode": 4,
          "material": 1,
          "indices": 34
        }
      ]
    },
    {
      "name": "ciel",
      "primitives": [
        {
          "attributes": {
            "POSITION": 22,
            "TEXCOORD_0": 23
          },
          "mode": 4,
          "material": 0,
          "indices": 35
        }
      ]
    }
  ],
  "nodes": [
    {
      "name": "scene_5",
      "children": [
        1,
        3,
        7,
        13,
        15,
        17,
        20
      ]
    },
    {
      "name": "layer_01",
      "children": [
        2
      ]
    },
    {
      "name": "fummée",
      "extras": {
        "renderOrder": 26,
        "renderLayer": "Default"
      },
      "translation": [
        0.1546875,
        -0.122187495,
        0
      ],
      "mesh": 0
    },
    {
      "name": "layer_02",
      "children": [
        4,
        5,
        6
      ]
    },
    {
      "name": "brindille",
      "extras": {
        "renderOrder": 24,
        "renderLayer": "Default"
      },
      "translation": [
        -0.259500027,
        -0.239875,
        0
      ],
      "mesh": 1
    },
    {
      "name": "feuilles_tombent",
      "extras": {
        "renderOrder": 23,
        "renderLayer": "Default"
      },
      "translation": [
        -0.120374978,
        -0.176687509,
        0
      ],
      "mesh": 2
    },
    {
      "name": "feuilles_basses",
      "extras": {
        "renderOrder": 22,
        "renderLayer": "Default"
      },
      "translation": [
        -0.396000028,
        -0.1660625,
        0
      ],
      "mesh": 3
    },
    {
      "name": "layer_03",
      "children": [
        8,
        9,
        10,
        11,
        12
      ]
    },
    {
      "name": "feuilles_hautes",
      "extras": {
        "renderOrder": 20,
        "renderLayer": "Default"
      },
      "translation": [
        -0.136562526,
        0.234499991,
        0
      ],
      "mesh": 4
    },
    {
      "name": "owl",
      "extras": {
        "renderOrder": 19,
        "renderLayer": "Default"
      },
      "translation": [
        0.0333125,
        0.029687494,
        0
      ],
      "mesh": 5
    },
    {
      "name": "arbre",
      "extras": {
        "renderOrder": 18,
        "renderLayer": "Default"
      },
      "translation": [
        -0.226062477,
        0,
        0
      ],
      "mesh": 6
    },
    {
      "name": "particles",
      "extras": {
        "renderOrder": 17,
        "renderLayer": "Default"
      },
      "mesh": 7
    },
    {
      "name": "light",
      "extras": {
        "renderOrder": 16,
        "renderLayer": "Default"
      },
      "translation": [
        -0.5,
        0.282,
        0
      ],
      "mesh": 7
    },
    {
      "name": "layer_04",
      "children": [
        14
      ]
    },
    {
      "name": "plaine_1",
      "extras": {
        "renderOrder": 16,
        "renderLayer": "Default"
      },
      "mesh": 8
    },
    {
      "name": "layer_05",
      "children": [
        16
      ]
    },
    {
      "name": "plaine_2",
      "extras": {
        "renderOrder": 14,
        "renderLayer": "Default"
      },
      "translation": [
        0.07212499,
        -0.1421875,
        0
      ],
      "mesh": 9
    },
    {
      "name": "layer_06",
      "children": [
        18
      ]
    },
    {
      "name": "plaine_gauche - Groupe d'objets dynamiques",
      "children": [
        19
      ]
    },
    {
      "name": "Group 2",
      "extras": {
        "renderOrder": 10,
        "renderLayer": "Default"
      },
      "translation": [
        0.3219375,
        -0.0358749926,
        0
      ],
      "mesh": 10
    },
    {
      "name": "layer_07",
      "children": [
        21
      ]
    },
    {
      "name": "ciel",
      "extras": {
        "renderOrder": 1,
        "renderLayer": "Default"
      },
      "mesh": 11
    }
  ],
  "scenes": [
    {
      "name": "scene_5",
      "nodes": [
        0
      ]
    }
  ],
  "scene": 0,
  "extensionsUsed": [
    "KHR_materials_unlit",
    "KHR_texture_basisu"
  ],
  "extensionsRequired": [
    "KHR_materials_unlit",
    "KHR_texture_basisu"
  ]
}