<svg xmlns="http://www.w3.org/2000/svg" viewBox="0 0 96 27.85" fill="#fff"><g id="svg-logo-zizo"><path d="M20.3 21.6h-5.21a1.4 1.4 0 01-1.37-2.16l8-17.29A1.4 1.4 0 0020.3 0H2.37A2.37 2.37 0 000 2.36v2.49a2.38 2.38 0 002.37 2.34h5a1.39 1.39 0 011.39 2.14L1 25.71a1.39 1.39 0 001.37 2.14H20.3a2.37 2.37 0 002.36-2.37v-1.52a2.36 2.36 0 00-2.36-2.36zM63.08 21.6h-5.22a1.4 1.4 0 01-1.37-2.16l8-17.29A1.4 1.4 0 0063.08 0H45.14a2.36 2.36 0 00-2.36 2.36v2.49a2.37 2.37 0 002.36 2.37h5a1.38 1.38 0 011.35 2.14l-7.7 16.35a1.38 1.38 0 001.35 2.14h17.94a2.37 2.37 0 002.36-2.37v-1.52a2.36 2.36 0 00-2.36-2.36zM34.73 0h-4a2.37 2.37 0 00-2.37 2.36v23.12a2.38 2.38 0 002.35 2.37h4a2.38 2.38 0 002.37-2.37V2.36A2.37 2.37 0 0034.73 0zM82.09 0A13.93 13.93 0 1096 13.92 13.92 13.92 0 0082.09 0zm0 19.84A5.92 5.92 0 1188 13.92a5.92 5.92 0 01-5.91 5.93z"/></g></svg>