<svg xmlns="http://www.w3.org/2000/svg" viewBox="0 0 924.7 293.9"><path id="brush" d="M924 225h-18l-3-1c-4 0-13 4-12 5h2l12-2 13-1 4-1h2zM833 118c-5-1-10-4-8-5l3-2c2-1 2-2 1-2l-3-1-2-1 6-1 7-1c0-1-4-5-7-6l-5-2c-2-2-2-2-1-3 2-1 1-3-2-2-2 1-3-1 0-2l1-3v-3l1-2-19-2-11-3-1-1c-2 0-3-2-2-3l4-2c3 0 3-2 0-2-2-1-2-3 0-3h2l-1-1c-1 0-2-1-2-3l4-1h3l-3-2c-3-1-4-3-2-3l6 1c4 1 5 1 5-1-1-1 0-1 3-1h5c1-2-3-3-10-3l-7-2-2-2c-1 0-2 0-1-1 0-2 0-3-2-4l-3-3c-1-2-2-2-24-2l-26 2a88 88 0 01-33-1l-6 1-15 2-13 1c-5 1-8 2-29 2a566 566 0 00-49 4c-2-1-18-2-34-1a1112 1112 0 01-65 5l-10 2-8 2-11 1-13 2c-1 1-2 0-3-1s-4-1-4 1v1l-1-1c0-1-1-2-2 0h-2l-16 3-9 1c-1-1-6-1-9 1l-7 1c-3 1-3 1-3-1l-1-1v1h-4c0 2-1 2-2 1h-5c-4 1-7 1-3-1l2-1-9 1-2 1c-2 0-2-1-2-2v-1l-1-1 5-3 1-1a496 496 0 0072-7 699 699 0 0191-13l12-2a593 593 0 0018-1c-9 1-13 3-5 2a165 165 0 0024-4 1014 1014 0 0169-11c13-2 17-3 18-1 1 1 3 2 4 0h3l17-1 21-2 12-2c17-2 18-2 17-3s0-1 3-2c3 0 5 0 9 2l5 1-1-1c-2-1-2-2 1-2l9 5 5 1 7 1c1 1 2 1 2-1-1-1 0-1 1-1 3 0 7 2 9 4s6 3 5 1l1-1 1 1c-1 2 3 2 6 0l5-2-9-4-1-1 2-1h2c0-1-2-2-5-2l-2-1-2-1-3-1 4-1c5 0 5-1 0-1l-5-1-4-1-3-1 1-1h3c2 0 2 0 0-1l-4-1h-3l-45 1-26 1a274 274 0 00-42 4c-12 0-24 2-26 3h11c0 1-1 2-4 2l-9 2a147 147 0 01-21 4 313 313 0 01-31 5l-5 1-5 2c-3 2-15 6-20 6a41 41 0 00-11 1l-10 2-30 4-25 3-12 2a157 157 0 00-25 3c-6-1-16 0-16 1l3 1h2l-3 1-14 1-15 1a445 445 0 01-44 0v-1l-2 1c0 1-4 4-5 3l-2 1h-4l-4 1c0 2-1 2-5 4l-9 3v-2c-1-2 0-2 5-3l5-1-3-1c-3 1-3 1-2-1l-1-1-5 3c-1 1-7 5-11 6l-6 1-8 1h-7c-3 0-3-1 1-1l1-1h2c0-2-5-3-6-2l-21 2 9-3v-2l-5 1-2 1c-3 0-3-3-1-4 12-3 30-6 41-6a569 569 0 0044-4c-3 0-4 0-3-1a173 173 0 0139-4l9-1 8-1c1-1 0-1-3-1l-5-1h-3l-3 1c-2-1-7 0-12 1l-17 1-13 1c-7 2-16 2-16 1l-2 1h-13l-2-3 3-2 2-1 9-2 8-2 24-5 24-4 4-1h-6l3-1c2-1 1-1-8-1l-15 2c-8 2-9 2-9 1s-1-2-4-1l-10 2h-1l-2-1v1c1 1-1 2-3 1l-1-1 2-1-9 1-11 3-11 2h21c-2 2-22 6-37 8a90 90 0 00-23 4l-9 3-13 3c-4 0-6 1-6 2s-2 2-6 2l-2-1v-1c-2 0-1-3 2-4l2-2c0-2-4-2-8 0-6 3-13 4-16 4h-3l-2 2c-1 1-4 2-4 0 0-1 1-3 3-3l1-2-1-1-3 3c-2 2-3 3-3 5 1 2 0 2-6 5l-12 7a597 597 0 01-13 12c0 2 2 2 5-1l3-1 2-1c0-2 6-4 10-4h3l-4 2-4 4c0 2-3 3-7 2-3 0-4 1-1 2l2 1-2 1-7 1-5 2 4-1h5l-3 3v1h3l3-1 2-1 2-2 3-1v1l1 2v-2l1-1 2 1c-1 1-2 3-5 4l-5 3-5 3-3 2-3 1-2 2c0 1-1 2 10-4l5-2c1 1 5-1 14-4 5-2 7-2 7-1s-1 2-3 2l-3 1c-1 2-8 5-12 6-5 0-10 2-11 3-3 3-7 4-9 3-1-1-2-1-2 1l-4 3h-4l-1-1-7 4-8 3c-2 2-2 2-2 0l-2 1-1 1-2 1-4 1h-2l2-2 3-3 1-1h-2c-1 1-2 0-1-2l-1-2-1 2-1 2c-3 1-4 2-4 4l-1 4v4c1 4 1 6-3 6l-4 1-2 1-2 1v7c-1 3-2 3-4 3l-1-1h-1v2c1 1 1 1-2 1s-6 2-6 5l-8 4-9 1c-2 0-2 0-1 1h4l1 1-7 1h-6l-4 1-7 1h-5l-2-1 2-1 3-2 8-2 23-5c3-1 3-3 0-3l-3 1-12 1-11-1 2-1 2-1c-1-1-14 3-20 8l-5 2-1 1c0 1 0 2-1 1-1 0-2 1-2 5l-1 3a166 166 0 00-29 5l2-2h1l5-3 5-3 2-2v-1l-2 1-8 5-11 6-6 6-3 3 3-1c2-2 2-2 1 2l-1 4 5-5c8-8 12-10 14-8v3l-6 3c-5 2-6 2-5 3h1l11-4c2 1 1 1-3 3l-4 2 11-3h1c0 2-5 5-8 6-4 1-5 2-3 2h2l-2 2-2 2c0 1 2 0 5-3l7-3c4-1 5-2 3-2-3 0-3-1-1-2l3-2 15-3a730 730 0 0044-5l-2 3c-2 2-3 2-5 2-4 0-6 3-6 6l2 1 2-1-1 3-3 5-1 3c0 2-3 3-11 3l-7 1-7 1a1136 1136 0 00-28 2c-2-2-1-3 0-3 1-1 0-1-3-1l-6-1c-2 0-2 0-2 3h9c1 3 1 4-1 4h-1l-3 1c-4 1-9 3-10 5-2 1-2 1 0 1l4-1c1 1 2 1 0 2h1c7-2 11-3 21-3a341 341 0 0027-4c4 0 5 0 4 1v1l5-2c4 0 4 0 4 2l-1 2-15 2c-14 1-22 2-23 4h1c7-2 32-3 33-1l2 1c1 0 1 0 0 0v-1l4-1c2 0 3 0 3 2 0 1 1 2 2 1l7-1 10-1c5-1 8 0 8 2s-5 4-8 4-6 2-6 3h2l12-2 5-1-2 2c-2 1-3 3-4 6-2 4-3 5-8 5l-6 1c-4 1-6 0-5-1l1-3 2-2 3-1h-4l-5-1v3l-1 5v6c0 6 1 9 1 5 0-1 1-2 4-2 2 0 3-1 2-2v-1l1-2 1-1 4-1 4-1 3 1-2 1c-2 2-4 6-3 9 0 2 2 3 6 3l3 1c1 1 8 0 17-1l2 1v2l-9 9-4 11c0 2 0 2 1 1h3l2-2v-2l2 5 1 2v-5-2l1-2c0-1 1-2 3-2l1-1c0-2 2-3 5-3 2 0 2 0 1-1v-1l3-2c1-2 2-3 4-3 3-1 2 1-1 2l-2 1 6-3 5-2 6-1 3 1c0 2 4 2 4 1l5-2 4-2h-3l-3-1h-2c1-1 15-3 16-2h6a25 25 0 019 0l8-1 11-1c3 0 4 0 4 2v3l-3 2-1 1c1 1 1 1 0 0l-5 1-8 1c-3 0-5 1-5 2l-3 2-3 1 3 1 9-1h5c4 0-3 1-4 2l-5 1h-3c-2 1 2 3 4 2l2 1-1 1c-1 0-1 4 1 4v1l-1 1-3 3c-3 2-3 3 0 2h18l16-1-3-1h-3l3-1 4-2 8-2 12-2 10-1c4 0 4 0 2 1l-2 3 5 1c12-2 26-2 25-1s-11 5-16 5a82 82 0 00-19 5l-10 3c-12 3-18 5-20 4l-16-1-16 1a284 284 0 01-48 4c-6 0-8-1-4-2l3-1h-5c-2 2-12 4-19 5-7 0-8 1-6 2l2 1h27a1370 1370 0 0067-3c2 1 2 1 1 2s0 1 1 1l28-2a1618 1618 0 0057 0c4 0 7 0 6 1l1 2h2c2 0 2-2 1-2l-1-1 10-1 17-1 16-2a2427 2427 0 0060-5c10 0 18-1 19-2a122 122 0 0133 0 240 240 0 0135 0l-4 1 5 1c6 0 9-1 6-2-2-1-2-1 0-1l5 1h1c1-1 5-2 17-3h7c2 2 2 2 2 0-1-1 1-1 10-1 12 0 10 1-2 2l-7 1 15 1a625 625 0 0153 3l2 1c2 0 3 0 2-1l6-1 8-1 4-2h-6l-7-1 21-1 23 1a372 372 0 0027 3l-26 1c2 1 2 1 0 1l-3-1h-1l-8 3-5-1c-3 0-3 0-2 1l37 2a486 486 0 012 2l-25 1a780 780 0 0075-1h-22l24-1a916 916 0 0053-1c12 2 34 0 33-3l1-2-1-1-3 1c-1 1-1 0-1-2l2-1c2-1 2-1 0-1-3-1-3-1 3-4 5-2 7-3 6-5v-2-1l-15 5 2-2c4-1 6-3 6-4l1-2 3-1 10-2 1-2c0-1 0-2 2-2l2-1h-1l-5 1h-4l2-2v-3c-1-1-1-1-7 1l-12 2c-4-1-5-1-4-2 2-1 1-1-2-1s-3 0-3-3c1-3 0-3-3 1-2 4-3 5-3 3h-4c-4 0-5-2-2-2l8-3 5-4c0-1 0-2 1-1l1-1-5-1-4-1 11-5c4 0 9-3 10-4l-2-1-3-1 8-6 1-1 2-1 2-1 2-2 2-1 3-3v-1c-6 3-14 3-22 2h-3l-1 1-2-1c1-1 0-2-4-1l-5-1 1-1 1-1v-1c-2 0-1 0 0-1l2-2 4-2 2-1h-4l-3-1c0-3-1-3-3-2l-2-1h-3l-4-1v-1l-7 1-10 2h-6c-2-2-2-2 1-2l10-3 9-2 6-1 4-2c2 0 5-2 5-3 0-2-1-3-5-1l-5 1h-2l-5 2-7 1h-3l-2-1c-2 1-2 1 0 1 3 1-8 3-18 4h-9l-5 1 1-1 2-1 5-1c4 0 14-3 16-5h-2l-4 1h-1c0-2 7-3 10-2 2 1 7-1 7-3h5l3-1h-6l17-6c2 0 3-1 6-4l1-1-2-2-3-2c-1 0 1-2 4-2l2-2 4-1 4-1c-1-1 3-2 11-2a92 92 0 0017-3l3-1-4-2c-3 0-3 0-2-1 3-1 1-2-5-2l-7-1-1-1 1-2c0-2 0-2-2-1l-3-1 3-1c3 0 4 0 4-2s0-2 9-3l8-1-2-1-1-1c0-1 2-2 5-2l5-1 2-1-2-1-2-1 1-1h5c4 1 5 0 5-2 0-4-7-7-15-8zM766 5c4 0 6 1 6 2h-4l-2-1h-2c-1-1 0-1 2-1zm-11 2h2l3 1-3 1-3-1 1-1zm-9-1c6 0 9 1 6 2h-15c0-1 2-2 9-2zm-18 9l-6-1 6-1 5 1-5 1zm0-7h4c1 0 1 1-3 1h-4l3-1zm-8 1h1-1zm-9-3c2 0 2 0 1 1h-2l1-1zm-10 0l7 1-8 1c-3 0-7 0-6-1l7-1zm-19 2l1-1v2l-1-1zm-4 0h2l-1 1-1-1zm6 9c6-2 34-3 34-2-1 1-11 3-22 3l-15 1c-7 1-5-1 3-2zm-12 0h-1 1zm-4-9h5c2 1 2 1 0 1h-6c-4 1-4 0 1-1zm-79 22l5-2a188 188 0 0125-5l22-4 11-1h15l-8 1-10 2-12 1-13 3-12 2-12 2c-10 2-12 2-11 1zM10 175l-1-1h2l-1 1zm45-15l-6 1c-1 0-2 0-1-1l3-2 2-3c0-1 0-2 2-2 2 1 3 1 3 3 1 3 0 3-3 4zm23 44h-2c0-2 2-3 2-2v2zm8-3c-2 2-7 3-7 1l4-2 3-1c2-1 2-1 0 2zm10-46c-2 0-2 0-1-1h1v1zm-11 82l-1-1 1 1c1 0 0 0 0 0zm21-4l-1 1-1-1 2-1v1zm2-80c-1 0-2 0-1-1l2-1h2l1 1-4 1zm1 57l1 1c1 0 0 0 0 0l-1-1zm7 12h-6 6zm-2 41l-1-1 1-1v2zm18-150l2-1 1 1-2 2-1-1v-1zm-11 35h2l-2 1c-2 0-2 0 0-1zm-1 2l1 1c-2 2-2 2-2 0l1-1zm-1 67c0-2 1-2 5-3 5 0 6 0 4 2l-5 2-4-1zm4 36c-3 3-4 3-2 0 1-2 5-4 5-3l-3 3zm5-8h-1l1-1h1l-1 1zm5-10h-12c-1-1-1-1 1-1 3 0 9-2 7-3l2-1h5l-3 5zm3-14h-5l5-2v2zm2-102v-1h1l-1 1zm2-1v-1h1l-1 1zm9 103l-7 1 7-3h2l-2 2zm11 1v-1h2l-2 1zm79 61h-1 1c1 0 0 0 0 0zm8 1c-1 0-1 0 0 0h0zm20-4l-13 1-11 1c4-2 10-3 17-4l11-1h4c0 2-2 3-8 3zm33-62c2-2 7-3 7-1l-1 1h-6zm3 8v-1h1l-1 1zM280 45l9-2 6-2 2-1 3-1c2-1 1 1-1 2-3 2-1 3 3 2a545 545 0 0023-3 100 100 0 01-26 6l-1 1-1 1-2 1-1-1-7-1h-9c-2-1-2-1 2-2zm4 4a162 162 0 008 0c1 1-1 1-9 4l-12 4c-8 3-7 3-8 2 0-2 1-3 6-5l6-3 9-2zm-8 179c-3 2-7 3-7 2l9-5-2 3zm-3-178l-1 1h-3l4-1zm-70 24c-1 2-2 3-4 3h-3l8-6-1 3zm10-15l3-1c-5 0 5-3 16-4l6-2c5-1 4 0-2 3l-4 1h-1l-2 1-7 3c-5 3-16 5-17 3-1-1 2-3 8-4zm-7 17l-1-1 1-1 1 1-1 1zm1-9c0-2 3-3 3-1v1h-3c0 1 0 0 0 0zm6 4l-6 2c0-2 13-7 20-7l4-2 6-2 7-3 9-3 9-3 3-2c2 1 3 3 1 3l-5 3-6 2-4 1-7 2-7 3-6 2-7 2-5 1-6 1zm47-10h-1l1-2c2-1 3-1 2 1l-2 1zm-36 21l-2 2-4 1h-1l1-2c2-2 6-3 6-1zm-10 166v2l-1-1 1-1zm-12 22l-1-1h1v1zm2-11l-5-1 3-1c4 0 5 1 2 2zm3 10l-1-1h2l-1 1zm11 0l-1-1h2l-1 1zm8-3l-6 1 3-1h3zm-5-11c-7 2-9 2-6 0l2-1h-3c-3 0-13-2-11-3 3-1 12 0 13 1h8c5-1 2 1-3 3zm14-5l-4 2-2-1 2-1h1l2-1c2 0 2 0 1 1zm-2-174l3-1c2-2 7-2 6-1l-5 2h-4zm16 168l-1 1-3 1-2 2c-1 1-2 1-2-1l2-2c1-2 7-4 7-2l-1 1zm12 16h-2 2c1 0 1 0 0 0zm16-1l-2 1-7 2-5 1 3-2c4-2 11-3 11-2zm-8-14l-11 3-7 1c-1 0-2 0-1-2l1-1 3-3 4-2h21c2 1-3 3-10 4zm16-17l-5 1c-3 1-1-2 2-4l3-2 6-2h11c-1 1-13 7-17 7zm18 55h-1 1c1 0 0 0 0 0zm3-16l-16 1c-1-2 7-3 16-2h2l-2 1zm4-45l-3 1c0-1 4-3 5-2l-2 1zm55-163l4-2 2 1-3 1-4 1h-1l2-1zm-8 195h-2c-1 0-1 0 0 0h2zm-4-15h2l-1 1-1-1zM313 67l4-1c2 0 2 0 1 1h-5zm0 152l5-1-1 1h-4zm9 47h-4l2-1c2 0 3 0 2 1zm12 2l-2 1c-1 0-2 0-1-1l2-1 1 1zm3-13c-4 2-14 3-13 2l8-2h5zm-2-13c-6 2-15 2-14 1 1-2 6-3 12-3h6l-4 2zm12 13c-5 0-5 0-3-1 3-1 10-1 9 1h-6zm49 11l-5 2-2-1-4-1c-3 1-4 1-2 2h-3l-11 1h-7-7c-7 0-9-1-3-2l14-1 11-1 13-1c8 0 10 1 6 2zm7 2h-3l7-1-4 1zm19-1l-2-3 3 2-1 1zm-2-28l-6 1h-3l3-1 6-1h3l-3 1zm17-43h2l-1 1-1-1zm3 69l-12 1-2-1 23-2c1 1-4 1-9 2zm9-204v-1h1l-1 1zm370 193l1-1v1l-1 1v-1zm-11 9h3l-2 1c-2 0-2 0-1-1zm-14-12h1-1zm10-23h-2c-1 0-1 0 0 0 2-2 3-2 2 0zm-7-5l11-2-5 2-5 1-2 1 1-2zm-7 2h-2 2zm-2-23h0zm-2 12l2 1h-1l-1-1zm-5-28h1l-1 1v-1zm-67-20h2-2zm14 28v1h-2l-16 1c1-1 17-3 18-2zm-10 62h-1 1zm-3 11v1l-3-1-2-1h3l2 1zm-9-100v1l-1 1v-1l1-1zm-8 9h-1 1zm-8-14h6c3 1 2 1-3 1s-6 0-3-1zm-1 6h1l-1 1v-1zm-6-6h2l-1 1-1-1zm-1 6h2-2zm-2 8h3-3zm7 38l-1-1h2c1 1 0 1-1 1zm-3-1l-3 1h-3c0-1 5-2 6-1zm-3 31l-3 1-3-1h6zm-10-29c-6 0-11 0-19 2l-12 1h-18a840 840 0 00-12-3l25-1a263 263 0 0136 1zm3 30l-1-1h1v1zm-27-3l-7-1c-5 0-6 0-4-1h15c5 0 5 0 3 1-2 2-6 2-7 1zm-33 2zm-4-15l-2-1 5-1h3l-2 1-4 1zm-49-12l-1-1h2l-1 1zm0 37c-1 0-1 0 0 0h0zm-5-36l-1-1h3l-2 1zm4 36l-6 1c-3 0-4 0-2-1h8zm0-56l-7 2-12 2c-11 2-11 2-11-1h-1-3l1-2c3-2 8-3 18-4l21-4c12-2 16-2 17-1h14c11-3 25-4 25-3 1 1-3 2-15 4l-16 2c-22 5-24 5-27 4l-4 1zm-10 40l-1-1 1 1c1 0 0 0 0 0zm-20 2l-4 1c-3 1-3 1-3-1 0-1 3-2 4-1h3c1 0 2 0 0 1zm-6-40l1 1h-1c-1 1-2 0 0-1zm64-11h1c1 1 0 1-1 1v-1zm-14 46l-4 1c-3 1-2-1 2-2h4l-2 1zm-6 17l12-1c8 0 10 0 7 1l-12 1c-7 1-8 0-7-1zm65-41h3c0 1-7 2-8 1l5-1zm7 0s0-1 0 0l1 1h-1v-1zm31-41h5l-7 1-4-1h6zm-34 0h8l-16 1 8-1zm-12 0h1c1 1 1 2-1 2s-1-1 0-2zm-8 1h2-2zM583 51h0s-1 0 0 0zm-15 125h-2 2zm-5-125h3c1 1 0 1-2 1-1 0-2 0-1-1zM457 267l-1-1c0-1 0-1 0 0l1 1zm0-72c-3-1-4-1 16-3a788 788 0 0059-10 138 138 0 0025-4l3 1c-2 1-1 2 1 1l9-1 17-2c8-2 8-2 9 0l2 1v-1c-1-2 22-4 35-4 7 0 10 1 4 1l-4 2h10a185 185 0 0116-1c0-2 17-1 18 0 0 1 0 2-2 2h-4a785 785 0 01-47 3l-50 4-9 1a169 169 0 00-22 3l-1-1-9 1c-6 1-7 1-4-1l7-1 8-3h-1l-6 1-12 2a527 527 0 01-34 6l-15 2a453 453 0 00-19 1zm56 48h-7l1-1 13-3c3 0 3 0 1 2-1 1-2 2-8 2zm-28-12h-1 1zm0 44c-1-1 1-1 5-1l6 1h-11zm1-11l-13 1h-13v-2l1 1h1l20-1h14l-10 1zm12-20l-2-1 5 1h-3zm64 28l-26 1a756 756 0 00-34-1l14-2 10-1 11-1a74 74 0 0014-2l8-1 2 1h1l61-1-49 6-12 1zm34 0l-1-1h3l-2 1zm-7 0v-1h1l-1 1zm-12 5l-1-1h2l-1 1zm25 1l-12-1h-11l15-1 15 1-7 1zm53-7c-26 0-24 0-23-1s0-1-1-1c-2 0-3 0-2 1l-5 1h-8-17l6-1 16-3 17-1h43l3 1h-3a305 305 0 01-18 2l6 1-14 1zm26 1l-8-1v-1c-1-1 2-1 7-1l9 2-8 1zm6-26c-1 0-1-1 1-1l3-1v1l-4 1zm6 31v-1h1l-1 1zm0-6l-2-1h3c3 1 2 2-1 1zm1-27h19l-9 1-10-1zm6 12h4-4zm4 11h-4l-3-1h4l3 1zm-4 21h-1 1zm3-7h-6c-1-1-1-1 2-1l4 1zm78-43l1 1h-1v-1zm-4 31c2-2 8-3 8-1l-2 2-5 1h-4l3-2zm-6-14h0c-1 0-1 0 0 0zm-21 2v-1l1 1-1 1v-1zm-2-59h1v1l-1-1zm-12 1h6c3 0 3 0 2 1l-11 1 3-2zm35 68c2 0 3 0 2 3-1 1-3 2-8 2h-6-2 1a568 568 0 01-40-2c20 0 48-2 53-3zm-31-97h2l-1 1-1-1zm6 17l-6 1 4-1h2zm30-20l-6 1-5 1-6 1h-3l-6 1h-5l1-1 3-1-1-1-4 1v3l-1-2c-1-1-2-2-5-2-5 0-5-1 1-2 12-1 41-1 37 1zm14-95l-1-1 1-1 1 1-1 1zm21 21l-3-1 3-1 2 1-2 1zm11 5h-6l5-1 1 1z"/></svg>