<svg xmlns="http://www.w3.org/2000/svg" viewBox="0 0 708.9 775.8"><path id="svg-ku" d="M632,111.6c47.1,0,76.9,19.4,76.9,67.2,0,33.1-34,204.1-114.5,327.2C495.9,657.1,348.3,716.4,261,744.4c-42,14-108.1,31.6-139.4,31.6-58.7,0-76-58.7-76-85.5,0-33.4,16.4-48,50.4-56C224.4,605.6,295.4,583,368.6,528.1c101.1-76,140.3-185.4,163-275H275.9c-70.6,84.5-118.6,123.9-136.1,137C113.5,410.1,95,419,71.5,419,34.9,419,0,378.5,0,341.8c0-20.6,8.1-35.5,24.5-47.7,87.3-65,144.8-124,204.4-240.1C247.3,19.2,261,.2,309.3.2c49.5,0,81.1,16.4,81.1,53.9,0,17.3-6.3,31.6-20.3,57.5Z"></path></svg>