<svg data-name="Layer 2 copy" xmlns="http://www.w3.org/2000/svg" viewBox="0 0 1304 622"><path id="kanji" d="M512 206l20-1q9 0 10-7t3-45l110 13-6 60a256 256 0 01-7 37q-5 16-16 22a76 76 0 01-22 9l-35 4-60 1-60-1q-61-3-76-11t-14-41v-42l-62 29h42v259q0 58-5 84t-17 34q-11 8-38 8l-89-3-4-90 37 3 6-1 1-9v-23h-64v123H50V233h230l-4-11q-3-9-7-15-130 15-239 19l-7-96 21-2h20Q97 53 117 0l119 13-20 49 80-32q32 55 63 126V17h123v51q63-19 140-51l40 89q-95 40-180 60v30l1 7c1 1 4 2 9 2a195 195 0 0020 1zM166 336h64v-27h-64zm0 66v27h64v-27zm62-286l-6-13-7-14-6-12-20 42 20-2 19-1zm284 406l20-1q11-1 13-10t4-59l109 13-4 58a249 249 0 01-6 40q-5 18-10 26t-15 15a67 67 0 01-23 7 302 302 0 01-31 3l-60 1-60-1q-61-3-76-12t-14-40V319h123v48q63-19 140-51l40 89q-95 40-180 60v47l1 7c1 1 4 2 9 2l20 1zM886 103q2-46 2-100h126q0 53-2 100h268l-1 159q-1 67-5 120l-8 90q-4 35-13 62-9 26-17 40t-25 22q-16 8-31 10t-40 2q-39 0-149-10l-4-113q95 10 123 10a20 20 0 0015-5q5-5 11-23t9-48q3-31 5-83t3-127h-148q-17 152-65 244T798 622l-83-97q75-60 112-129t51-187H721V103z"/></svg>