<svg xmlns="http://www.w3.org/2000/svg" viewBox="0 0 1304 622"><path id="kanji" d="M171 205v413H56V377q-21 30-32 42L4 269a473 473 0 0059-106q23-57 42-149l111 20a727 727 0 01-19 91h444v88H190v-63l-19 55zm163 394v19H216V413h392v205H488v-19zM223 305v-75h379v75zm0 91v-75h379v75zm16-287V30h369v79zm249 415v-36H334v36zM919 305h124v46h232v94h-183q85 38 209 66l-46 101q-123-39-212-94v97H919v-97q-89 55-213 94l-45-101q124-28 209-66H687v-94h232zm-56-88q-27-15-49-31-36 19-55 27l-75-78Q813 81 889 4l128 13-24 30h220v91a671 671 0 01-98 76q72 16 176 32l-32 95q-159-21-273-64-116 42-283 64l-29-95q107-12 189-29zm129-38a367 367 0 0074-41H908q36 23 84 41z"/></svg>