<svg xmlns="http://www.w3.org/2000/svg" viewBox="0 0 1304 622"><path id="kanji" d="M226 376v-94h46l-31-30a742 742 0 01-51 71v292H76V422q-22 26-43 43L7 334q50-38 83-73t71-91l56 33a121 121 0 0031-53q8-30 8-88V26h285v141l1 9 8 1q10 0 12-10t5-69l78 13-2 43-3 32-3 27q0 7-7 19l-8 15c-1 2-6 4-13 8s-12 6-16 6l-22 3c-11 2-21 1-28 1h-35q-53 0-68-8t-14-38v-95h-62q-2 54-17 90t-47 68h309v94q-32 59-85 106a778 778 0 00121 35l-39 98q-100-19-187-64-70 36-176 64l-46-98q65-13 120-33a481 481 0 01-58-58l65-50zM63 223L17 121q44-26 73-51t64-63l82 62q-42 53-80 86t-93 68zm357 208q37-25 63-55H353q27 29 67 55zM1277 360l-1 102a564 564 0 01-5 69q-5 31-10 45a49 49 0 01-19 24q-13 9-26 11t-37 1l-88-3-6-79q-59 70-148 92l-59-85q53-18 84-36t47-46h-46v-63q-14 37-33 76l-60-30v46q0 39-2 61a285 285 0 01-6 38q-3 15-13 22a62 62 0 01-22 8q-11 2-34 2-30 0-73-3l-7-84-8 10a109 109 0 01-7 9l-30-118a579 579 0 0074-95h-64V232h73l-53-55 55-56h-62V26h272v61a609 609 0 0033-87l101 10-8 33h201v91h-18q-20 59-46 94 24 7 74 18l-33 101q-86-17-140-42a459 459 0 01-46 19h78l-2 36zM757 517q8 0 9-3t2-20v-46a640 640 0 01-45 67l34 2zm56-355l30-41h-70l40 41zm57 230a539 539 0 0022-58h-22zm162-156l-21-26-19 26-71-51q-15 22-35 47h97v17l49-13zm4 124a103 103 0 001-11l1-11-20 5-16 4-19-63v50a273 273 0 01-9 26zm93-174q21-20 34-52h-80a156 156 0 0046 52zm-32 329l20 1 15 1h8q14 0 16-8t3-54h-28q-12 30-34 60z"/></svg>