<svg xmlns="http://www.w3.org/2000/svg" viewBox="0 0 1304 622"><path id="kanji" d="M16 249h158v217q9 14 16 20v-82h161v-20H206V148h145v-20H216l-65 79Q86 150 16 98l72-78q43 33 99 82V36h164V3h111v33h158v92H462v20h145v236H462v20h158v88H462v23h168l-7 95H469q-139 0-214-11t-112-40q-34 28-84 61L3 528l62-40V348H16zm335 266v-23H198q32 20 153 23zm-46-279h46v-19h-46zm0 79h46v-20h-46zm203-79v-19h-46v19zm0 59h-46v20h46zM945 558l-66 3q-2-91-7-167l60-7-2-16-28 6-2-8-3-11-36 3v253H756V368l-84 6-3-95 70-4a28 28 0 013-4 30 30 0 002-3q-53-65-82-97l37-102 26 32q23-53 39-101l82 23q-30 75-66 146l14 17q42-71 65-117l79 29q-31 60-66 116l46-12-19-18q67-79 108-184l112 13-14 40h174v91q-41 64-91 112 47 25 114 43l-16 105a116 116 0 00-13-4l-13-4v214h-118v-26h-69v26H955V393a142 142 0 01-19 7l9 158zm-283 16q11-86 17-180l66 3q-6 99-17 187zm214-306l-6-23-5-19-27 44zm151-19l-5-6-7-7a75 75 0 01-6-7 398 398 0 01-28 33l-53-50 19 74q38-14 80-37zm144 112a482 482 0 01-66-41 748 748 0 01-75 41zm-67-167q20-19 45-50h-86v1q22 30 41 49zm-31 305h69v-53h-69z"/></svg>