<svg width="1482" height="445" viewBox="0 0 1482 445" fill="none" xmlns="http://www.w3.org/2000/svg">
<path d="M32.4382 221.904C32.4382 358.37 100.178 439.817 213.595 439.817H213.642C294.057 439.817 343.77 403.201 378.978 317.763L368.181 400.291C347.995 415.407 285.372 444.981 211.248 444.981C84.8746 444.981 0 352.549 0 221.904C0 91.2589 93.1836 0 226.645 0C277.955 0 333.114 14.224 365.881 28.5888L376.819 105.577C337.48 35.3018 291.662 5.21077 224.298 5.21077C104.169 5.21077 32.4382 85.4379 32.4382 221.904Z" fill="white"/>
<path d="M479.767 432.823L606.515 428.551L606.468 428.504C643.272 426.814 669.889 404.985 703.407 348.465L678.527 436.109H433.057C450.333 412.074 454.417 397.943 454.417 365.928V79.0536C454.417 47.0379 450.333 32.9077 433.057 8.87247H501.126C483.851 32.9077 479.767 47.0379 479.767 79.0536V432.823Z" fill="white"/>
<path d="M934.278 428.551L780.912 432.776V223.922H879.682C893.906 223.922 906.44 244.061 917.472 261.806C919.443 264.998 921.368 268.05 923.152 270.819V168.904C920.617 172.801 917.988 177.26 915.265 181.908C904.656 200.028 893.624 218.759 879.635 218.759H780.865V12.2055L930.334 15.8671C948.633 17.697 969.417 47.3356 995.733 84.8631L995.774 84.9216L997.933 87.9729L976.668 8.87247H733.827C748.098 31.1239 754.905 47.3195 754.905 73.702V371.232C754.905 397.427 747.816 414.233 733.827 436.062H1006.29L1030.93 347.385C1002.16 390.996 974.602 426.579 934.231 428.504L934.278 428.551Z" fill="white"/>
<path fill-rule="evenodd" clip-rule="evenodd" d="M1054.45 223.077C1054.45 95.9064 1146.04 0 1267.49 0C1389.26 0 1481.08 96.5636 1481.08 223.077C1481.08 349.591 1388.93 444.981 1267.49 444.981C1146.04 444.981 1054.45 350.248 1054.45 223.077ZM1086.94 223.077C1086.94 352.736 1159.47 439.817 1267.49 439.817C1375.83 439.817 1448.64 351.375 1448.64 223.077C1448.64 94.7797 1374.14 5.16383 1267.49 5.16383C1213.64 5.16383 1167.87 26.8519 1135.15 67.9278C1104.07 106.938 1086.94 162.05 1086.94 223.077Z" fill="white"/>
</svg>
