<svg xmlns="http://www.w3.org/2000/svg" width="42" height="42" viewBox="0 0 42 42">
  <g id="组_2280" data-name="组 2280" transform="translate(-939 -998)">
    <rect id="矩形_1740" data-name="矩形 1740" width="42" height="42" rx="21" transform="translate(939 998)" fill="#fff" opacity="0.9"/>
    <g id="折叠" transform="translate(0 -1)">
      <path id="路径_656" data-name="路径 656" d="M-91.456-4424.866l7.162-2.266v13.5l-7.162,2.2Z" transform="translate(1044 5439)" opacity="0.3"/>
      <path id="联合_68" data-name="联合 68" d="M15.423,17.771,8.371,15.613,1.235,17.8A1.152,1.152,0,0,1,.4,17.741a.643.643,0,0,1-.4-.555V2.963A.732.732,0,0,1,.623,2.32L7.971.071A1.129,1.129,0,0,1,8.371,0,1.164,1.164,0,0,1,8.69.044l.027.008,7.136,2.187c0,.018,0,.036,0,.055h.008c.494,0,.894.3.894.669V17.186c0,.369-.4.669-.894.669A1.133,1.133,0,0,1,15.423,17.771Zm-.46-1.581V3.407L9.27,1.664v12.78ZM1.789,3.406V16.189l5.693-1.744V1.662Z" transform="translate(951.608 1010.948)"/>
    </g>
  </g>
</svg>
