# Blender v2.93.5 OBJ File: 'RenovatorsScreen.blend'
# www.blender.org
mtllib RenovatorsScreen.mtl
o Screen_1_Mesh.008
v -0.805162 0.895872 0.117750
v -0.805162 -0.004128 0.117750
v -1.065126 0.895872 0.184981
v -1.065126 -0.004128 0.184981
v -1.333632 0.895872 0.182638
v -1.333632 -0.004128 0.182638
v -1.592382 0.895872 0.110880
v -1.592382 -0.004128 0.110880
v -1.823744 0.895872 -0.025402
v -1.823744 -0.004128 -0.025402
v -2.011949 0.895872 -0.216921
v -2.011949 -0.004128 -0.216921
v -2.144173 0.895872 -0.450626
v -2.144173 -0.004128 -0.450626
vt 1.000000 0.929058
vt 1.000000 0.999370
vt 0.833333 0.999370
vt 0.833333 0.929058
vt 0.666667 0.999370
vt 0.666667 0.929058
vt 0.500000 0.999370
vt 0.500000 0.929058
vt 0.333333 0.999370
vt 0.333333 0.929058
vt 0.166667 0.999968
vt 0.166667 0.929656
vt 0.000000 0.999968
vt 0.000000 0.929656
vn 0.2504 -0.0000 0.9681
vn 0.1219 -0.0000 0.9925
vn -0.1392 -0.0000 0.9903
vn -0.3907 -0.0000 0.9205
vn -0.6157 -0.0000 0.7880
vn -0.7986 -0.0000 0.6018
vn -0.8704 -0.0000 0.4924
usemtl None
s 1
f 2/1/1 1/2/1 3/3/2 4/4/2
f 4/4/2 3/3/2 5/5/3 6/6/3
f 6/6/3 5/5/3 7/7/4 8/8/4
f 8/8/4 7/7/4 9/9/5 10/10/5
f 10/10/5 9/9/5 11/11/6 12/12/6
f 12/12/6 11/11/6 13/13/7 14/14/7
o Screen_4_Mesh.007
v -2.143821 0.895872 -0.450529
v -2.143821 -0.004128 -0.450529
v -2.211052 0.895872 -0.710493
v -2.211052 -0.004128 -0.710493
v -2.208709 0.895872 -0.978999
v -2.208709 -0.004128 -0.978999
v -2.136951 0.895872 -1.237749
v -2.136951 -0.004128 -1.237749
v -2.000669 0.895872 -1.469111
v -2.000669 -0.004128 -1.469111
v -1.809150 0.895872 -1.657316
v -1.809150 -0.004128 -1.657316
v -1.575445 0.895872 -1.789540
v -1.575445 -0.004127 -1.789540
vt 1.000000 0.929058
vt 1.000000 0.999370
vt 0.833333 0.999370
vt 0.833333 0.929058
vt 0.166667 0.929607
vt 0.166667 0.999920
vt 0.000000 0.999920
vt 0.000000 0.929607
vt 0.333333 0.929058
vt 0.333333 0.999370
vt 0.500000 0.929058
vt 0.500000 0.999370
vt 0.666667 0.929058
vt 0.666667 0.999370
vn -0.9681 -0.0000 0.2504
vn -0.9925 -0.0000 0.1219
vn -0.6018 0.0000 -0.7986
vn -0.4924 0.0000 -0.8704
vn -0.7880 0.0000 -0.6157
vn -0.9205 0.0000 -0.3907
vn -0.9903 -0.0000 -0.1392
usemtl None
s 1
f 16/15/8 15/16/8 17/17/9 18/18/9
f 26/19/10 25/20/10 27/21/11 28/22/11
f 24/23/12 23/24/12 25/20/10 26/19/10
f 22/25/13 21/26/13 23/24/12 24/23/12
f 20/27/14 19/28/14 21/26/13 22/25/13
f 18/18/9 17/17/9 19/28/14 20/27/14
o Screen_3_Mesh.006
v -1.575541 0.895872 -1.789188
v -1.575541 -0.004127 -1.789188
v -1.315578 0.895873 -1.856419
v -1.315578 -0.004127 -1.856419
v -1.047072 0.895873 -1.854076
v -1.047072 -0.004127 -1.854076
v -0.788322 0.895872 -1.782318
v -0.788322 -0.004127 -1.782318
v -0.556960 0.895872 -1.646036
v -0.556960 -0.004128 -1.646036
v -0.368755 0.895872 -1.454517
v -0.368755 -0.004128 -1.454517
v -0.236531 0.895872 -1.220812
v -0.236531 -0.004128 -1.220812
vt 1.000000 0.929058
vt 1.000000 0.999370
vt 0.833333 0.999370
vt 0.833333 0.929058
vt 0.166667 0.929607
vt 0.166667 0.999920
vt 0.000000 0.999920
vt 0.000000 0.929607
vt 0.333333 0.929058
vt 0.333333 0.999370
vt 0.500000 0.929058
vt 0.500000 0.999370
vt 0.666667 0.929058
vt 0.666667 0.999370
vn -0.2504 0.0000 -0.9681
vn -0.1219 0.0000 -0.9925
vn 0.7986 0.0000 -0.6018
vn 0.8704 0.0000 -0.4924
vn 0.6157 0.0000 -0.7880
vn 0.3907 0.0000 -0.9205
vn 0.1392 0.0000 -0.9903
usemtl None
s 1
f 30/29/15 29/30/15 31/31/16 32/32/16
f 40/33/17 39/34/17 41/35/18 42/36/18
f 38/37/19 37/38/19 39/34/17 40/33/17
f 36/39/20 35/40/20 37/38/19 38/37/19
f 34/41/21 33/42/21 35/40/20 36/39/20
f 32/32/16 31/31/16 33/42/21 34/41/21
o Screen_2_Mesh.005
v -0.236883 0.895872 -1.220909
v -0.236883 -0.004128 -1.220909
v -0.169652 0.895872 -0.960945
v -0.169652 -0.004128 -0.960945
v -0.171995 0.895872 -0.692439
v -0.171995 -0.004128 -0.692439
v -0.243753 0.895872 -0.433689
v -0.243753 -0.004128 -0.433689
v -0.380035 0.895872 -0.202327
v -0.380035 -0.004128 -0.202327
v -0.571554 0.895872 -0.014122
v -0.571554 -0.004128 -0.014122
v -0.805259 0.895872 0.118102
v -0.805259 -0.004128 0.118102
vt 1.000000 0.928644
vt 1.000000 0.998956
vt 0.833333 0.998956
vt 0.833333 0.928644
vt 0.166667 0.929632
vt 0.166667 0.999945
vt 0.000000 0.999945
vt 0.000000 0.929632
vt 0.333333 0.928644
vt 0.333333 0.998956
vt 0.500000 0.928644
vt 0.500000 0.998956
vt 0.666667 0.928644
vt 0.666667 0.998956
vn 0.9681 0.0000 -0.2504
vn 0.9925 0.0000 -0.1219
vn 0.6018 -0.0000 0.7986
vn 0.4924 -0.0000 0.8704
vn 0.7880 -0.0000 0.6157
vn 0.9205 -0.0000 0.3907
vn 0.9903 -0.0000 0.1392
usemtl None
s 1
f 44/43/22 43/44/22 45/45/23 46/46/23
f 54/47/24 53/48/24 55/49/25 56/50/25
f 52/51/26 51/52/26 53/48/24 54/47/24
f 50/53/27 49/54/27 51/52/26 52/51/26
f 48/55/28 47/56/28 49/54/27 50/53/27
f 46/46/23 45/45/23 47/56/28 48/55/28
o Screen_5_Mesh.004
v 1.590016 0.895872 1.500607
v 1.590016 -0.004128 1.500607
v 1.330052 0.895872 1.567838
v 1.330052 -0.004128 1.567838
v 1.061546 0.895872 1.565495
v 1.061546 -0.004128 1.565495
v 0.802796 0.895872 1.493737
v 0.802796 -0.004128 1.493737
v 0.571434 0.895872 1.357455
v 0.571434 -0.004128 1.357455
v 0.383229 0.895872 1.165936
v 0.383229 -0.004128 1.165936
v 0.251005 0.895872 0.932231
v 0.251005 -0.004128 0.932231
vt 1.000000 0.929058
vt 1.000000 0.999370
vt 0.833333 0.999370
vt 0.833333 0.929058
vt 0.666667 0.999370
vt 0.666667 0.929058
vt 0.500000 0.999370
vt 0.500000 0.929058
vt 0.333333 0.999370
vt 0.333333 0.929058
vt 0.166667 0.999952
vt 0.166667 0.929639
vt 0.000000 0.999952
vt 0.000000 0.929639
vn 0.2504 -0.0000 0.9681
vn 0.1219 -0.0000 0.9925
vn -0.1392 -0.0000 0.9903
vn -0.3907 -0.0000 0.9205
vn -0.6157 -0.0000 0.7880
vn -0.7986 -0.0000 0.6018
vn -0.8704 -0.0000 0.4924
usemtl None
s 1
f 58/57/29 57/58/29 59/59/30 60/60/30
f 60/60/30 59/59/30 61/61/31 62/62/31
f 62/62/31 61/61/31 63/63/32 64/64/32
f 64/64/32 63/63/32 65/65/33 66/66/33
f 66/66/33 65/65/33 67/67/34 68/68/34
f 68/68/34 67/67/34 69/69/35 70/70/35
o Screen_8_Mesh.003
v 0.251357 0.895872 0.932327
v 0.251357 -0.004128 0.932327
v 0.184126 0.895872 0.672364
v 0.184126 -0.004128 0.672364
v 0.186469 0.895872 0.403858
v 0.186469 -0.004128 0.403858
v 0.258227 0.895872 0.145108
v 0.258227 -0.004128 0.145107
v 0.394509 0.895872 -0.086254
v 0.394509 -0.004128 -0.086254
v 0.586029 0.895872 -0.274459
v 0.586029 -0.004128 -0.274460
v 0.819733 0.895872 -0.406683
v 0.819733 -0.004127 -0.406683
vt 1.000000 0.928644
vt 1.000000 0.998956
vt 0.833333 0.998956
vt 0.833333 0.928644
vt 0.166667 0.929661
vt 0.166667 0.999974
vt 0.000000 0.999974
vt 0.000000 0.929661
vt 0.333333 0.928644
vt 0.333333 0.998956
vt 0.500000 0.928644
vt 0.500000 0.998956
vt 0.666667 0.928644
vt 0.666667 0.998956
vn -0.9681 -0.0000 0.2504
vn -0.9925 -0.0000 0.1219
vn -0.6018 0.0000 -0.7986
vn -0.4924 0.0000 -0.8704
vn -0.7880 0.0000 -0.6157
vn -0.9205 0.0000 -0.3907
vn -0.9903 0.0000 -0.1392
usemtl None
s 1
f 72/71/36 71/72/36 73/73/37 74/74/37
f 82/75/38 81/76/38 83/77/39 84/78/39
f 80/79/40 79/80/40 81/76/38 82/75/38
f 78/81/41 77/82/41 79/80/40 80/79/40
f 76/83/42 75/84/42 77/82/41 78/81/41
f 74/74/37 73/73/37 75/84/42 76/83/42
o Screen_7_Mesh.002
v 0.819637 0.895872 -0.406331
v 0.819637 -0.004127 -0.406331
v 1.079600 0.895873 -0.473562
v 1.079600 -0.004127 -0.473563
v 1.348106 0.895873 -0.471219
v 1.348106 -0.004127 -0.471219
v 1.606857 0.895872 -0.399461
v 1.606857 -0.004127 -0.399462
v 1.838218 0.895872 -0.263179
v 1.838218 -0.004128 -0.263179
v 2.026424 0.895872 -0.071660
v 2.026424 -0.004128 -0.071660
v 2.158648 0.895872 0.162045
v 2.158648 -0.004128 0.162045
vt 1.000000 0.928644
vt 1.000000 0.998956
vt 0.833333 0.998956
vt 0.833333 0.928644
vt 0.166667 0.929661
vt 0.166667 0.999974
vt 0.000000 0.999974
vt 0.000000 0.929661
vt 0.333333 0.928644
vt 0.333333 0.998956
vt 0.500000 0.928644
vt 0.500000 0.998956
vt 0.666667 0.928644
vt 0.666667 0.998956
vn -0.2504 0.0000 -0.9681
vn -0.1219 0.0000 -0.9925
vn 0.7986 0.0000 -0.6018
vn 0.8704 0.0000 -0.4924
vn 0.6157 0.0000 -0.7880
vn 0.3907 0.0000 -0.9205
vn 0.1392 0.0000 -0.9903
usemtl None
s 1
f 86/85/43 85/86/43 87/87/44 88/88/44
f 96/89/45 95/90/45 97/91/46 98/92/46
f 94/93/47 93/94/47 95/90/45 96/89/45
f 92/95/48 91/96/48 93/94/47 94/93/47
f 90/97/49 89/98/49 91/96/48 92/95/48
f 88/88/44 87/87/44 89/98/49 90/97/49
o Screen_6_Mesh.001
v 2.158296 0.895872 0.161948
v 2.158296 -0.004128 0.161948
v 2.225527 0.895872 0.421912
v 2.225527 -0.004128 0.421912
v 2.223184 0.895872 0.690418
v 2.223184 -0.004128 0.690418
v 2.151426 0.895872 0.949168
v 2.151426 -0.004128 0.949168
v 2.015143 0.895872 1.180530
v 2.015143 -0.004128 1.180530
v 1.823624 0.895872 1.368735
v 1.823624 -0.004128 1.368735
v 1.589919 0.895872 1.500959
v 1.589919 -0.004128 1.500959
vt 1.000000 0.929058
vt 1.000000 0.999370
vt 0.833333 0.999370
vt 0.833333 0.929058
vt 0.166667 0.929639
vt 0.166667 0.999952
vt 0.000000 0.999952
vt 0.000000 0.929639
vt 0.333333 0.929058
vt 0.333333 0.999370
vt 0.500000 0.929058
vt 0.500000 0.999370
vt 0.666667 0.929058
vt 0.666667 0.999370
vn 0.9681 -0.0000 -0.2504
vn 0.9925 -0.0000 -0.1219
vn 0.6018 -0.0000 0.7986
vn 0.4924 -0.0000 0.8704
vn 0.7880 -0.0000 0.6157
vn 0.9205 -0.0000 0.3907
vn 0.9903 0.0000 0.1392
usemtl None
s 1
f 100/99/50 99/100/50 101/101/51 102/102/51
f 110/103/52 109/104/52 111/105/53 112/106/53
f 108/107/54 107/108/54 109/104/52 110/103/52
f 106/109/55 105/110/55 107/108/54 108/107/54
f 104/111/56 103/112/56 105/110/55 106/109/55
f 102/102/51 101/101/51 103/112/56 104/111/56
