<svg xmlns="http://www.w3.org/2000/svg" width="12.571" height="10" viewBox="0 0 12.571 10">
  <path id="图片-上引号" d="M12.571,10H7.279V7.343a13.118,13.118,0,0,1,.4-3.665A4.458,4.458,0,0,1,8.968,1.491,5.643,5.643,0,0,1,11.585,0l.753,1.62a5.894,5.894,0,0,0-2.213,1.444,2.658,2.658,0,0,0-.76,2.055h3.206V10ZM5.292,10H0V7.343A13.118,13.118,0,0,1,.4,3.678,4.458,4.458,0,0,1,1.689,1.491,5.636,5.636,0,0,1,4.306,0l.753,1.62A5.894,5.894,0,0,0,2.846,3.063a2.658,2.658,0,0,0-.76,2.055H5.292Zm0,0" fill="#fff" opacity="0.2"/>
</svg>
