<svg xmlns="http://www.w3.org/2000/svg" width="24" height="24" viewBox="0 0 24 24">
  <path id="大会介绍-上箭头" d="M-19680.66-13841.024v-16.89a12.366,12.366,0,0,1-1.984,2.386,12.86,12.86,0,0,1-4.156,2.6,13.4,13.4,0,0,1-4.859.906v-2a11.417,11.417,0,0,0,4.137-.771,10.84,10.84,0,0,0,3.512-2.2,10.346,10.346,0,0,0,2.434-3.447,11.43,11.43,0,0,0,.918-4.588h2a11.462,11.462,0,0,0,.916,4.588,10.346,10.346,0,0,0,2.434,3.447,10.84,10.84,0,0,0,3.512,2.2,11.42,11.42,0,0,0,4.139.771v2a13.405,13.405,0,0,1-4.861-.906,12.83,12.83,0,0,1-4.154-2.6,12.319,12.319,0,0,1-1.984-2.385v16.889Z" transform="translate(19691.66 13865.024)"/>
</svg>
