<svg xmlns="http://www.w3.org/2000/svg" width="18" height="9.962" viewBox="0 0 18 9.962">
  <g id="图标-进入" transform="translate(0 -2.858)">
    <g id="组_792" data-name="组 792" transform="translate(0 1.84)">
      <path id="路径_220" data-name="路径 220" d="M-13149.842-9578.25h-18v-1.5h18Z" transform="translate(13167.842 9585.102)"/>
      <path id="路径_221" data-name="路径 221" d="M-13132.625-9598.875a9.07,9.07,0,0,1-5.569-1.682,5.186,5.186,0,0,1-2.182-4.068h1.5a3.659,3.659,0,0,0,1.592,2.876,7.707,7.707,0,0,0,4.659,1.374Z" transform="translate(13150.582 9605.644)"/>
      <path id="路径_222" data-name="路径 222" d="M-13138.875-9599.643h-1.5a5.168,5.168,0,0,1,2.174-4.054,9.039,9.039,0,0,1,5.549-1.677v1.5a7.675,7.675,0,0,0-4.639,1.368A3.641,3.641,0,0,0-13138.875-9599.643Z" transform="translate(13150.583 9610.623)"/>
    </g>
  </g>
</svg>
