<svg xmlns="http://www.w3.org/2000/svg" width="194.941" height="54" viewBox="0 0 194.941 54">
  <g id="组_2445" data-name="组 2445" transform="translate(-877 -531.117)">
    <g id="组_2443" data-name="组 2443" transform="translate(1 1.117)">
      <path id="椭圆_167" data-name="椭圆 167" d="M7.5,1A6.5,6.5,0,1,0,14,7.5,6.507,6.507,0,0,0,7.5,1m0-1A7.5,7.5,0,1,1,0,7.5,7.5,7.5,0,0,1,7.5,0Z" transform="translate(879 530)" fill="#fff"/>
      <path id="联合_75" data-name="联合 75" d="M14,30V7.327A6.423,6.423,0,0,0,7.5,1,6.423,6.423,0,0,0,1,7.327V30H14m1,1H0V7.327A7.415,7.415,0,0,1,7.5,0,7.415,7.415,0,0,1,15,7.327Z" transform="translate(879 546)" fill="#fff"/>
      <path id="减去_19" data-name="减去 19" d="M13,7H0A7.236,7.236,0,0,1,1.9,2.05a6.178,6.178,0,0,1,9.192,0A7.235,7.235,0,0,1,13,7Z" transform="translate(884 577)" fill="rgba(255,255,255,0)"/>
      <path id="减去_19_-_轮廓" data-name="减去 19 - 轮廓" d="M11.925,6a6.15,6.15,0,0,0-1.561-3.27,5.178,5.178,0,0,0-7.727,0A6.152,6.152,0,0,0,1.076,6H11.925M13,7H0A7.236,7.236,0,0,1,1.9,2.05a6.178,6.178,0,0,1,9.192,0A7.235,7.235,0,0,1,13,7Z" transform="translate(884 577)" fill="#fff"/>
      <path id="减去_20" data-name="减去 20" d="M13,7H0A7.236,7.236,0,0,1,1.9,2.05a6.178,6.178,0,0,1,9.192,0A7.235,7.235,0,0,1,13,7Z" transform="translate(876 577)" fill="rgba(255,255,255,0)"/>
      <path id="减去_20_-_轮廓" data-name="减去 20 - 轮廓" d="M11.925,6a6.15,6.15,0,0,0-1.561-3.27,5.178,5.178,0,0,0-7.727,0A6.152,6.152,0,0,0,1.076,6H11.925M13,7H0A7.236,7.236,0,0,1,1.9,2.05a6.178,6.178,0,0,1,9.192,0A7.235,7.235,0,0,1,13,7Z" transform="translate(876 577)" fill="#fff"/>
      <path id="矩形_1853" data-name="矩形 1853" d="M1,1V3H14V1H1M0,0H15V4H0Z" transform="translate(879 557)" fill="#fff"/>
      <path id="矩形_1854" data-name="矩形 1854" d="M1,1V3H14V1H1M0,0H15V4H0Z" transform="translate(879 565)" fill="#fff"/>
    </g>
    <g id="组_2444" data-name="组 2444" transform="translate(3.558 -8.559)">
      <circle id="椭圆_171" data-name="椭圆 171" cx="11" cy="11" r="11" transform="translate(1038 545)" fill="#fff" opacity="0.1"/>
      <circle id="椭圆_172" data-name="椭圆 172" cx="5" cy="5" r="5" transform="translate(1044 551)" fill="#fff" opacity="0.4"/>
    </g>
    <path id="路径_675" data-name="路径 675" d="M-5494.206-8044.2l-1.161,0,.008-2c2.045.007,4.058-.006,5.986-.041l.037,2C-5490.913-8044.214-5492.546-8044.2-5494.206-8044.2Zm10.887-.23-.089-2c2.046-.091,4.051-.212,5.961-.359l.153,1.994C-5479.225-8044.644-5481.252-8044.522-5483.319-8044.43Zm12.035-.941-.232-1.986c2.036-.238,4.018-.517,5.891-.83l.33,1.973C-5467.2-8045.9-5469.215-8045.612-5471.284-8045.371Zm11.931-2.02-.451-1.949c1.989-.461,3.912-.984,5.715-1.554l.6,1.907C-5455.339-8048.4-5457.313-8047.863-5459.353-8047.391Zm11.583-3.7-.783-1.84a53.907,53.907,0,0,0,5.287-2.6l.978,1.745A56.006,56.006,0,0,1-5447.77-8051.093Zm10.638-5.943-1.147-1.638c1.821-1.275,3.491-2.58,4.743-3.573l1.244,1.566C-5433.566-8059.67-5435.267-8058.342-5437.132-8057.036Zm9.521-7.392-1.238-1.57c1.859-1.466,3.358-2.583,4.862-3.621l1.136,1.646C-5424.319-8066.96-5425.787-8065.867-5427.611-8064.428Zm9.768-6.666-.972-1.749a59.42,59.42,0,0,1,5.475-2.683l.789,1.838A57.249,57.249,0,0,0-5417.843-8071.094Zm10.824-4.669-.62-1.9c1.848-.6,3.813-1.161,5.838-1.66l.478,1.942C-5403.3-8076.9-5405.218-8076.351-5407.019-8075.763Zm11.509-2.862-.362-1.967c1.9-.35,3.908-.669,5.966-.948l.269,1.982C-5391.664-8079.284-5393.64-8078.97-5395.51-8078.625Zm11.794-1.615-.192-1.991c1.931-.187,3.956-.349,6.018-.482l.129,2C-5379.8-8080.585-5381.806-8080.425-5383.716-8080.241Zm11.913-.783-.077-2c1.944-.075,3.972-.13,6.026-.164l.033,2C-5367.861-8081.152-5369.874-8081.1-5371.8-8081.023Zm17.943-.136c-2.031-.039-4.044-.061-5.981-.065l0-2c1.949,0,3.972.027,6.014.066Z" transform="translate(6397 8629.117)" fill="#fff" opacity="0.4"/>
    <g id="组_2441" data-name="组 2441" transform="translate(6685.558 8014.443)">
      <path id="路径_674" data-name="路径 674" d="M-5575.187-7384.933c-3.97-.239-7.809,1.223-7.488,7.641,1.968-.021,5.609,0,5.609,0s-.512-4.321,1.589-4.411C-5575.425-7382.156-5575.187-7384.933-5575.187-7384.933Z" transform="translate(-46.844 -72.974)" fill="#fff" opacity="0.501"/>
      <g id="shubiao" transform="translate(-5630.445 -7459.138)">
        <path id="路径_671" data-name="路径 671" d="M169.085,24.489h-1.029a7.9,7.9,0,0,1-7.9-7.9V6.224A6.224,6.224,0,0,1,166.38,0h4.381a6.224,6.224,0,0,1,6.224,6.224V16.589A7.9,7.9,0,0,1,169.085,24.489ZM166.38,1.915a4.322,4.322,0,0,0-4.309,4.309V16.589a5.987,5.987,0,0,0,5.985,5.985h1.029a5.987,5.987,0,0,0,5.985-5.985V6.224a4.322,4.322,0,0,0-4.309-4.309Z" transform="translate(-160.156 0)" fill="#fff"/>
        <path id="路径_672" data-name="路径 672" d="M405.242,144.44h-.455a2.394,2.394,0,0,1-2.394-2.394v-3.519a2.394,2.394,0,0,1,2.394-2.394h.455a2.394,2.394,0,0,1,2.394,2.394v3.519A2.394,2.394,0,0,1,405.242,144.44Zm-.455-6.392a.479.479,0,0,0-.479.479v3.519a.479.479,0,0,0,.479.479h.455a.479.479,0,0,0,.479-.479v-3.519a.479.479,0,0,0-.479-.479Z" transform="translate(-396.6 -132.877)" fill="#fff"/>
        <path id="路径_673" data-name="路径 673" d="M183.238,33.146a.958.958,0,0,1-.958-.958v-2.2a.958.958,0,1,1,1.915,0v2.2A.958.958,0,0,1,183.238,33.146Zm-2.107,5.1h-5a.958.958,0,1,1,0-1.915h5a.958.958,0,0,1,0,1.915Zm9.144,0h-5a.958.958,0,1,1,0-1.915h5a.958.958,0,1,1,0,1.915Z" transform="translate(-174.812 -28.334)" fill="#fff"/>
      </g>
      <path id="shubiaodianji1" d="M3.68,9.4,5.359,4.832,9.926,3.153.34,0,3.68,9.4ZM0,8.051" transform="translate(-5633.011 -7466.884) rotate(14)" fill="#fff"/>
    </g>
  </g>
</svg>
