<svg xmlns="http://www.w3.org/2000/svg" width="15.926" height="17.941" viewBox="0 0 15.926 17.941">
  <path id="联合_104" data-name="联合 104" d="M6.171,15.926a7.042,7.042,0,0,1,.861-3.353A8.818,8.818,0,0,1,9.438,9.786a10.981,10.981,0,0,1,1.594-1.02H0V7.2H11.015A10.927,10.927,0,0,1,9.4,6.165a8.8,8.8,0,0,1-2.415-2.8A7.06,7.06,0,0,1,6.123,0h1.55a5.494,5.494,0,0,0,.679,2.619,7.26,7.26,0,0,0,1.993,2.3,12.458,12.458,0,0,0,7.6,2.277h0v1.57H17.7a12.284,12.284,0,0,0-7.319,2.266A7.217,7.217,0,0,0,8.4,13.321a5.47,5.47,0,0,0-.674,2.606Z" transform="translate(15.926) rotate(90)" fill="#fff"/>
</svg>
