<svg xmlns="http://www.w3.org/2000/svg" width="10.847" height="13.806" viewBox="0 0 10.847 13.806">
  <path id="路径_646" data-name="路径 646" d="M132.024,5.525H130.2V3.371a3.141,3.141,0,0,1,.275-1.312,3.4,3.4,0,0,1,.761-1.07,3.565,3.565,0,0,1,1.146-.725A3.852,3.852,0,0,1,133.822,0a3.512,3.512,0,0,1,1.341.264,3.787,3.787,0,0,1,1.146.725,3.587,3.587,0,0,1,.8,1.07,2.947,2.947,0,0,1,.3,1.312V5.525h-1.755V3.781a1.928,1.928,0,0,0-.508-1.429,1.866,1.866,0,0,0-1.378-.506,1.656,1.656,0,0,0-1.262.506,2,2,0,0,0-.479,1.429V5.525Zm6.25.879a.916.916,0,0,1,.674.286.935.935,0,0,1,.283.681v4.543a1.973,1.973,0,0,1-.138.74,1.912,1.912,0,0,1-.377.6,1.721,1.721,0,0,1-1.283.55h-7.323a1.682,1.682,0,0,1-.711-.147,1.7,1.7,0,0,1-.544-.388,1.724,1.724,0,0,1-.348-.564,1.913,1.913,0,0,1-.123-.689V7.372a.948.948,0,0,1,.276-.681.892.892,0,0,1,.667-.286h8.948Z" transform="translate(-128.384 0)" fill="#fff"/>
</svg>
