<svg id="图标-下载" xmlns="http://www.w3.org/2000/svg" width="38" height="38" viewBox="0 0 38 38">
  <rect id="矩形_1186" data-name="矩形 1186" width="38" height="38" fill="#fff" opacity="0"/>
  <path id="图标-下载-2" data-name="图标-下载" d="M10427.792-1541.591a12.106,12.106,0,0,1-8.618-3.568,12.113,12.113,0,0,1-3.568-8.62,12.113,12.113,0,0,1,3.568-8.62,12.1,12.1,0,0,1,8.618-3.571,12.1,12.1,0,0,1,8.62,3.571,12.114,12.114,0,0,1,3.571,8.62,12.114,12.114,0,0,1-3.571,8.62A12.109,12.109,0,0,1,10427.792-1541.591Zm-5.251-6.469v1.3h10.381v-1.3Zm1.554-6.017a.653.653,0,0,0-.479.211.643.643,0,0,0,.021.9l3.516,3.519.045.042a.861.861,0,0,0,.568.21.868.868,0,0,0,.61-.252l3.519-3.519.037-.042a.651.651,0,0,0-.037-.875l-.042-.039a.655.655,0,0,0-.417-.151.641.641,0,0,0-.458.19l-2.562,2.56v-8.807a.65.65,0,0,0-.649-.65.649.649,0,0,0-.647.65v8.809l-2.564-2.563-.042-.039A.647.647,0,0,0,10424.095-1554.077Z" transform="translate(-10409.081 1572.86)" fill="#fff"/>
</svg>
