<svg xmlns="http://www.w3.org/2000/svg" width="26" height="25.987" viewBox="0 0 26 25.987">
  <path id="排除_1" data-name="排除 1" d="M13,25.987a14.422,14.422,0,0,1-2.6-.227,12.093,12.093,0,0,1-2.384-.693,11.97,11.97,0,0,1-2.194-1.18A14.04,14.04,0,0,1,3.8,22.2a14.134,14.134,0,0,1-1.689-2.025A11.853,11.853,0,0,1,.229,15.59a14.891,14.891,0,0,1,0-5.2A11.85,11.85,0,0,1,2.111,5.813,14.145,14.145,0,0,1,3.8,3.788,14.04,14.04,0,0,1,5.826,2.1,11.97,11.97,0,0,1,8.02.92,12.093,12.093,0,0,1,10.4.227a14.981,14.981,0,0,1,5.191,0A12.092,12.092,0,0,1,17.98.92,11.969,11.969,0,0,1,20.174,2.1,14.041,14.041,0,0,1,22.2,3.788a14.143,14.143,0,0,1,1.69,2.025,11.848,11.848,0,0,1,1.883,4.578,14.89,14.89,0,0,1,0,5.2,11.852,11.852,0,0,1-1.883,4.583A14.134,14.134,0,0,1,22.2,22.2a14.041,14.041,0,0,1-2.025,1.688,11.969,11.969,0,0,1-2.194,1.18,12.092,12.092,0,0,1-2.384.693A14.425,14.425,0,0,1,13,25.987Zm.341-15.563a4.109,4.109,0,0,0-1.429.287,9.621,9.621,0,0,0-1.2.558c-.351.187-.408.3-.393.354s.124.092.218.092a.743.743,0,0,1,.683.345,2.167,2.167,0,0,1,.07,1.51,7.785,7.785,0,0,1-.659,1.812,10.232,10.232,0,0,0-1.1,3.206,2.5,2.5,0,0,0,.212,1.454,1.6,1.6,0,0,0,1.276.778,7.668,7.668,0,0,0,1.036.072,5.56,5.56,0,0,0,3.834-1.371c.077-.072.107-.13.09-.174-.025-.064-.151-.1-.374-.1a4.717,4.717,0,0,1-1.117-.128,1.089,1.089,0,0,1-.777-.48,3.029,3.029,0,0,1,.213-1.809,17.366,17.366,0,0,1,1.086-2.548,3.809,3.809,0,0,0,.425-1.5,2.572,2.572,0,0,0-.26-1.361,1.866,1.866,0,0,0-1.5-.982A2.836,2.836,0,0,0,13.34,10.424Zm.809-5.635a2.1,2.1,0,0,0-1.495.607,2.031,2.031,0,0,0-.6,1.449,2.063,2.063,0,0,0,.16.8A2.088,2.088,0,0,0,14.15,8.928a2.063,2.063,0,0,0,1.473-.621,2.115,2.115,0,0,0,.447-.663A2.028,2.028,0,0,0,15.623,5.4,2.08,2.08,0,0,0,14.15,4.789Z" fill="#fff"/>
</svg>
