<svg id="组_2549" data-name="组 2549" xmlns="http://www.w3.org/2000/svg" width="23.113" height="24.411" viewBox="0 0 23.113 24.411">
  <path id="减去_23" data-name="减去 23" d="M10.426,20.905H1.991A1.993,1.993,0,0,1,0,18.914V1.991A1.993,1.993,0,0,1,1.991,0H21.123a1.993,1.993,0,0,1,1.99,1.991V18.914a1.992,1.992,0,0,1-1.99,1.99h-1.13l.675-.994h.455a1,1,0,0,0,.995-1V1.991a1,1,0,0,0-.995-1H1.991a1,1,0,0,0-1,1V18.914a1,1,0,0,0,1,1h8.5l-.068.994Zm9.012,0H17.3l.068-.994h2.749l-.675.994Zm-2.6,0H13.582l.675-.994H16.9l-.068.994Zm-3.809,0H10.886l.068-.994H13.7l-.675.994ZM9.972,16.023h0a5.785,5.785,0,0,1-1.813-.875l.025-1.178a1.061,1.061,0,0,0-.845-1.059l-1.156-.239a5.761,5.761,0,0,1-.446-1.963l.936-.715a1.06,1.06,0,0,0,.3-1.321L6.44,7.62A5.84,5.84,0,0,1,7.7,6.047l1.143.286a1.059,1.059,0,0,0,1.22-.589l.49-1.073a5.907,5.907,0,0,1,2.013,0l.49,1.073a1.059,1.059,0,0,0,1.22.589l1.143-.286A5.84,5.84,0,0,1,16.673,7.62l-.534,1.052a1.06,1.06,0,0,0,.3,1.321l.936.715a5.782,5.782,0,0,1-.446,1.963l-1.156.239a1.06,1.06,0,0,0-.845,1.059l.025,1.178a5.783,5.783,0,0,1-1.814.874l-.471-.392.209-2.176a.457.457,0,0,0-.3-.475.452.452,0,0,0-.157-.028.458.458,0,0,0-.378.2l-1.836,2.676-.235.2Zm1.584-7.994a2.384,2.384,0,1,0,2.384,2.384A2.386,2.386,0,0,0,11.556,8.029Zm.687,7.246h0l-.008-.006a1.059,1.059,0,0,0-.941-.212l1.129-1.646-.179,1.863Z" transform="translate(0 0)" fill="#2dc84d"/>
  <path id="路径_736" data-name="路径 736" d="M313.5,142.445l-4.071,5.934h2.642l-.346,5.067,4.116-6.062h-2.815Z" transform="translate(-294.668 -129.035)" fill="#2dc84d"/>
  <path id="路径_738" data-name="路径 738" d="M313.5,142.445l-4.071,5.934h2.642l-.346,5.067,4.116-6.062h-2.815Z" transform="translate(-301.079 -129.035)" fill="#2dc84d"/>
</svg>
