<svg id="图标-返回" xmlns="http://www.w3.org/2000/svg" width="18.324" height="12.216" viewBox="0 0 18.324 12.216">
  <path id="路径_169" data-name="路径 169" d="M18.324.75H0V-.75H18.324Z" transform="translate(0 6.16)" fill="#fff"/>
  <path id="路径_170" data-name="路径 170" d="M.75,5.842H-.75A6.461,6.461,0,0,1,1.144,1.256,7.066,7.066,0,0,1,6.215-.75V.75A5.168,5.168,0,0,0,.75,5.842Z" transform="translate(11.858 6.374)" fill="#fff"/>
  <path id="路径_171" data-name="路径 171" d="M6.218,6.6A7.068,7.068,0,0,1,1.145,4.587,6.465,6.465,0,0,1-.75,0H.75A5.171,5.171,0,0,0,6.218,5.1Z" transform="translate(11.908)" fill="#fff"/>
</svg>
