<svg xmlns="http://www.w3.org/2000/svg" width="20.237" height="19.883" viewBox="0 0 20.237 19.883">
  <path id="路径_685" data-name="路径 685" d="M7.375,19.907a10.091,10.091,0,0,1-3.152-1.52l.043-2.048A1.842,1.842,0,0,0,2.8,14.5L.788,14.081a10.081,10.081,0,0,1-.776-3.412L1.639,9.425a1.842,1.842,0,0,0,.525-2.3L1.236,5.3A10.174,10.174,0,0,1,3.419,2.564l1.987.5A1.842,1.842,0,0,0,7.529,2.039L8.38.174a10.24,10.24,0,0,1,3.5,0l.851,1.865a1.842,1.842,0,0,0,2.123,1.022l1.987-.5A10.174,10.174,0,0,1,19.024,5.3L18.1,7.127a1.842,1.842,0,0,0,.524,2.3l1.627,1.243a10.081,10.081,0,0,1-.776,3.412l-2.009.415a1.842,1.842,0,0,0-1.469,1.842l.042,2.049a10.091,10.091,0,0,1-3.152,1.52l-1.577-1.312a1.842,1.842,0,0,0-2.356,0ZM10.13,14.3a4.145,4.145,0,1,0-4.145-4.145A4.145,4.145,0,0,0,10.13,14.3Z" transform="translate(-0.012 -0.023)" fill="#fff"/>
</svg>
