<svg xmlns="http://www.w3.org/2000/svg" width="40" height="40" viewBox="0 0 40 40">
  <g id="关闭" transform="translate(-460.072 9784.635)">
    <rect id="矩形_795" data-name="矩形 795" width="40" height="40" rx="20" transform="translate(460.072 -9784.635)" fill="rgba(0,0,0,0.25)"/>
    <path id="联合_69" data-name="联合 69" d="M-790.155,5406.259l-7.425-7.425-7.425,7.425a1,1,0,0,1-1.414,0,1,1,0,0,1,0-1.415l7.425-7.424-7.425-7.425a1,1,0,0,1,0-1.414,1,1,0,0,1,1.414,0l7.425,7.424,7.425-7.424a1,1,0,0,1,1.414,0,1,1,0,0,1,0,1.414l-7.425,7.425,7.425,7.425a1,1,0,0,1,0,1.414,1,1,0,0,1-.707.293A1,1,0,0,1-790.155,5406.259Z" transform="translate(1277.688 -15162.09)" fill="#fff"/>
  </g>
</svg>
