<svg id="图标-右箭头" xmlns="http://www.w3.org/2000/svg" width="13.788" height="10.536" viewBox="0 0 13.788 10.536">
  <g id="组_688" data-name="组 688">
    <path id="路径_169" data-name="路径 169" d="M13.788.5H0v-1H13.788Z" transform="translate(0 5.229)" fill="#fff"/>
    <path id="路径_170" data-name="路径 170" d="M7.375,5.768A9.271,9.271,0,0,1,1.685,4.056,5.179,5.179,0,0,1-.5,0h1A4.137,4.137,0,0,0,2.292,3.261,8.4,8.4,0,0,0,7.375,4.768Z" transform="translate(6.413)" fill="#fff"/>
    <path id="路径_171" data-name="路径 171" d="M.5,5.268h-1A5.179,5.179,0,0,1,1.685,1.213,9.27,9.27,0,0,1,7.375-.5v1A8.4,8.4,0,0,0,2.292,2.008,4.137,4.137,0,0,0,.5,5.268Z" transform="translate(6.413 5.268)" fill="#fff"/>
  </g>
</svg>
