# Blender v2.93.5 OBJ File: 'VRScreen.blend'
# www.blender.org
mtllib VRScreen.mtl
o Screen_1_Mesh.031
v -0.800000 0.001875 0.260005
v -0.800000 0.901875 0.260005
v -0.533333 0.001875 0.260005
v -0.533333 0.901875 0.260005
v -0.266667 0.001875 0.260005
v -0.266667 0.901875 0.260005
v 0.000000 0.001875 0.260005
v 0.000000 0.901875 0.260005
v 0.266667 0.001875 0.260005
v 0.266667 0.901875 0.260005
v 0.533333 0.001875 0.260005
v 0.533333 0.901875 0.260005
v 0.800000 0.001875 0.260005
v 0.800000 0.901875 0.260005
vt 0.166667 0.859350
vt 0.166667 0.999975
vt 0.000000 0.999975
vt 0.000000 0.859350
vt 0.333333 0.859350
vt 0.333333 0.999975
vt 0.500000 0.859350
vt 0.500000 0.999975
vt 0.666667 0.859350
vt 0.666667 0.999975
vt 0.833333 0.859350
vt 0.833333 0.999975
vt 1.000000 0.859350
vt 1.000000 0.999975
vn 0.0000 -0.0000 1.0000
usemtl None
s 1
f 3/1/1 4/2/1 2/3/1 1/4/1
f 5/5/1 6/6/1 4/2/1 3/1/1
f 7/7/1 8/8/1 6/6/1 5/5/1
f 9/9/1 10/10/1 8/8/1 7/7/1
f 11/11/1 12/12/1 10/10/1 9/9/1
f 13/13/1 14/14/1 12/12/1 11/11/1
o Screen_2_Mesh.032
v -0.801012 0.001875 -1.340439
v -0.801012 0.901875 -1.340439
v -0.801012 0.001875 -1.073772
v -0.801012 0.901875 -1.073772
v -0.801012 0.001875 -0.807106
v -0.801012 0.901875 -0.807106
v -0.801012 0.001875 -0.540439
v -0.801012 0.901875 -0.540439
v -0.801012 0.001875 -0.273772
v -0.801012 0.901875 -0.273772
v -0.801012 0.001875 -0.007106
v -0.801012 0.901875 -0.007106
v -0.801012 0.001875 0.259561
v -0.801012 0.901875 0.259561
vt 0.166667 0.859350
vt 0.166667 0.999975
vt 0.000000 0.999975
vt 0.000000 0.859350
vt 0.333333 0.859350
vt 0.333333 0.999975
vt 0.500000 0.859350
vt 0.500000 0.999975
vt 0.666667 0.859350
vt 0.666667 0.999975
vt 0.833333 0.859350
vt 0.833333 0.999975
vt 1.000000 0.859350
vt 1.000000 0.999975
vn -1.0000 -0.0000 -0.0000
usemtl None
s 1
f 17/15/2 18/16/2 16/17/2 15/18/2
f 19/19/2 20/20/2 18/16/2 17/15/2
f 21/21/2 22/22/2 20/20/2 19/19/2
f 23/23/2 24/24/2 22/22/2 21/21/2
f 25/25/2 26/26/2 24/24/2 23/23/2
f 27/27/2 28/28/2 26/26/2 25/25/2
o Screen_3_Mesh.033
v 0.800000 0.001875 -1.340842
v 0.800000 0.901875 -1.340843
v 0.533333 0.001875 -1.340843
v 0.533333 0.901875 -1.340843
v 0.266667 0.001875 -1.340843
v 0.266667 0.901875 -1.340843
v 0.000000 0.001875 -1.340843
v -0.000000 0.901875 -1.340843
v -0.266667 0.001875 -1.340843
v -0.266667 0.901875 -1.340843
v -0.533333 0.001875 -1.340843
v -0.533333 0.901875 -1.340843
v -0.800000 0.001875 -1.340843
v -0.800000 0.901875 -1.340843
vt 0.166667 0.859350
vt 0.166667 0.999975
vt 0.000000 0.999975
vt 0.000000 0.859350
vt 0.333333 0.859350
vt 0.333333 0.999975
vt 0.500000 0.859350
vt 0.500000 0.999975
vt 0.666667 0.859350
vt 0.666667 0.999975
vt 0.833333 0.859350
vt 0.833333 0.999975
vt 1.000000 0.859350
vt 1.000000 0.999975
vn 0.0000 -0.0000 -1.0000
usemtl None
s 1
f 31/29/3 32/30/3 30/31/3 29/32/3
f 33/33/3 34/34/3 32/30/3 31/29/3
f 35/35/3 36/36/3 34/34/3 33/33/3
f 37/37/3 38/38/3 36/36/3 35/35/3
f 39/39/3 40/40/3 38/38/3 37/37/3
f 41/41/3 42/42/3 40/40/3 39/39/3
o Screen_4_Mesh.034
v 0.801194 0.001875 0.259561
v 0.801195 0.901875 0.259561
v 0.801194 0.001875 -0.007106
v 0.801195 0.901875 -0.007106
v 0.801194 0.001875 -0.273772
v 0.801195 0.901875 -0.273772
v 0.801194 0.001875 -0.540439
v 0.801194 0.901875 -0.540439
v 0.801194 0.001875 -0.807106
v 0.801194 0.901875 -0.807106
v 0.801194 0.001875 -1.073772
v 0.801194 0.901875 -1.073772
v 0.801194 0.001875 -1.340439
v 0.801194 0.901875 -1.340439
vt 0.166667 0.859350
vt 0.166667 0.999975
vt 0.000000 0.999975
vt 0.000000 0.859350
vt 0.333333 0.859350
vt 0.333333 0.999975
vt 0.500000 0.859350
vt 0.500000 0.999975
vt 0.666667 0.859350
vt 0.666667 0.999975
vt 0.833333 0.859350
vt 0.833333 0.999975
vt 1.000000 0.859350
vt 1.000000 0.999975
vn 1.0000 -0.0000 0.0000
usemtl None
s 1
f 45/43/4 46/44/4 44/45/4 43/46/4
f 47/47/4 48/48/4 46/44/4 45/43/4
f 49/49/4 50/50/4 48/48/4 47/47/4
f 51/51/4 52/52/4 50/50/4 49/49/4
f 53/53/4 54/54/4 52/52/4 51/51/4
f 55/55/4 56/56/4 54/54/4 53/53/4
