<svg xmlns="http://www.w3.org/2000/svg" width="16.006" height="12.232" viewBox="0 0 16.006 12.232">
  <g id="组_688" data-name="组 688" transform="translate(0 0)">
    <path id="路径_169" data-name="路径 169" d="M16.006,1H0V-1H16.006Z" transform="translate(0 6.07)" fill="#acfdbd"/>
    <path id="路径_170" data-name="路径 170" d="M8.562,7.116A11.175,11.175,0,0,1,1.7,5.041,6.426,6.426,0,0,1-1,0H1A4.395,4.395,0,0,0,2.915,3.452,9.339,9.339,0,0,0,8.562,5.116Z" transform="translate(7.445)" fill="#acfdbd"/>
    <path id="路径_171" data-name="路径 171" d="M1,6.116H-1A6.426,6.426,0,0,1,1.7,1.075,11.175,11.175,0,0,1,8.562-1V1A9.338,9.338,0,0,0,2.915,2.664,4.395,4.395,0,0,0,1,6.116Z" transform="translate(7.445 6.116)" fill="#acfdbd"/>
  </g>
</svg>
