<svg xmlns="http://www.w3.org/2000/svg" xmlns:xlink="http://www.w3.org/1999/xlink" width="55.033" height="55.034" viewBox="0 0 55.033 55.034">
  <defs>
    <filter id="图标-全屏" x="0" y="0" width="55.033" height="55.034" filterUnits="userSpaceOnUse">
      <feOffset input="SourceAlpha"/>
      <feGaussianBlur stdDeviation="6" result="blur"/>
      <feFlood flood-opacity="0.224"/>
      <feComposite operator="in" in2="blur"/>
      <feComposite in="SourceGraphic"/>
    </filter>
  </defs>
  <g transform="matrix(1, 0, 0, 1, 0, 0)" filter="url(#图标-全屏)">
    <path id="图标-全屏-2" data-name="图标-全屏" d="M204.956,203.644l4.128,4.14v-1.492a.993.993,0,0,1,1.032-.952.968.968,0,0,1,.917.952v3.789a.968.968,0,0,1-.917.953h-3.784a.955.955,0,1,1,0-1.9h1.491l-4.128-4.14a.83.83,0,0,1,0-1.346.853.853,0,0,1,1.261,0Zm-5.618-.006a1.007,1.007,0,0,1,0,1.346l-4.128,4.143H196.7a.955.955,0,1,1,0,1.9h-3.784a.968.968,0,0,1-.917-.952v-3.788a.968.968,0,0,1,.917-.952.992.992,0,0,1,1.032.952v1.467l4.013-4.111A.987.987,0,0,1,199.338,203.639ZM210.115,192a.968.968,0,0,1,.917.952v3.787a.967.967,0,0,1-.917.952.992.992,0,0,1-1.032-.952v-1.513l-4.128,4.085a.854.854,0,0,1-1.261-.01.829.829,0,0,1,0-1.345l4.013-4.054h-1.376a.955.955,0,1,1,0-1.9ZM196.7,192a.992.992,0,0,1,1.032.952.981.981,0,0,1-.918.946l-.114.006h-1.489l4.128,4.057a.964.964,0,0,1-1.292,1.426l-.084-.08-4.013-4.057v1.491a.993.993,0,0,1-1.032.952.97.97,0,0,1-.911-.841l-.008-.11v-3.789a.978.978,0,0,1,.818-.945l.1-.007H196.7Z" transform="translate(-174 -174)" fill="#fff"/>
  </g>
</svg>
