<svg id="INNOlogo" xmlns="http://www.w3.org/2000/svg" width="70" height="17" viewBox="0 0 70 17">
  <g id="组_1291" data-name="组 1291" transform="translate(0)">
    <g id="组_1290" data-name="组 1290">
      <path id="路径_463" data-name="路径 463" d="M108.8-1078.651c0-3.43-2.92-5.679-7.442-5.73-4.519.05-7.44,2.3-7.44,5.73s2.921,5.678,7.44,5.728h0c4.519-.051,7.439-2.3,7.439-5.728m3.2,0c0,4.9-4.319,8.392-10.5,8.5h-.275c-6.185-.1-10.5-3.6-10.5-8.5s4.32-8.393,10.506-8.5h.273c6.186.106,10.5,3.6,10.5,8.5M70.31-1086.53a5.028,5.028,0,0,1,3.883,2.182l8.433,9.772a1.174,1.174,0,0,0,1.365.34,1.257,1.257,0,0,0,.794-1.21v-10.875h3.221v10.8a4.737,4.737,0,0,1-2.807,4.407,4.291,4.291,0,0,1-4.963-1.207l-8.558-9.915a2.9,2.9,0,0,0-2.722-1.251H67.2a3.132,3.132,0,0,1,3.112-3.047h0M42-1070.986h3.218v-15.338H42Zm25.173-7.207v2.744a1.257,1.257,0,0,1-.794,1.21,1.173,1.173,0,0,1-1.364-.34l-9.028-10.459a4.248,4.248,0,0,0-3.215-1.5A4.437,4.437,0,0,0,48.437-1082v11.013h3.221V-1082a1.139,1.139,0,0,1,1.112-1.164,1.1,1.1,0,0,1,.826.383l9.027,10.459a4.289,4.289,0,0,0,4.961,1.207,4.731,4.731,0,0,0,2.808-4.407l-.009-5.68H67.171Z" transform="translate(-41.998 1087.151)"/>
    </g>
  </g>
</svg>
