<svg xmlns="http://www.w3.org/2000/svg" width="93.368" height="52.369" viewBox="0 0 93.368 52.369">
  <g id="组_743" data-name="组 743" transform="translate(-1766.106 -38.798)">
    <g id="组_688" data-name="组 688" transform="translate(1766.106 30.867)">
      <path id="路径_169" data-name="路径 169" d="M-13074.472-9577h-93.368v-4h93.368Z" transform="translate(13167.84 9612.862)"/>
      <path id="路径_170" data-name="路径 170" d="M-13102.624-9576.19a53.849,53.849,0,0,1-15.966-2.293,39.28,39.28,0,0,1-12.274-6.2,28.692,28.692,0,0,1-7.934-9.081,22.6,22.6,0,0,1-2.826-10.867h4a18.643,18.643,0,0,0,2.342,8.96,24.72,24.72,0,0,0,6.847,7.81,35.306,35.306,0,0,0,11.031,5.554,49.86,49.86,0,0,0,14.78,2.113Z" transform="translate(13195.989 9612.558)"/>
      <path id="路径_171" data-name="路径 171" d="M-13137.624-9578.189h-4a22.589,22.589,0,0,1,2.826-10.863,28.707,28.707,0,0,1,7.934-9.082,39.316,39.316,0,0,1,12.274-6.2,53.822,53.822,0,0,1,15.966-2.294v4a49.826,49.826,0,0,0-14.779,2.114,35.307,35.307,0,0,0-11.032,5.557,24.753,24.753,0,0,0-6.847,7.81A18.64,18.64,0,0,0-13137.624-9578.189Z" transform="translate(13195.989 9638.489)"/>
    </g>
  </g>
</svg>
