<svg xmlns="http://www.w3.org/2000/svg" viewBox="0 0 46.94 49.46"><g id="Layer_2" data-name="Layer 2"><g id="圖層_1" data-name="圖層 1"><path d="M46.19,14.47c.3,0,.35.75.05.87-2.46.95-5.66,2.53-5.53,4.28s3.62,3.75,6,4.85c.29.13.23.86-.07.85-2.86,0-7.46.11-8.49,1.48s.83,4.05,2.33,6c.23.3,0,.93-.24.76-2.24-1.42-5.82-3.27-7.85-2.18-2.23,1.2-2.21,5.31-2,7.58,0,.42-.26.66-.43.36-1.06-1.89-3.36-5.42-5.79-5.58-2.65-.17-5.61,4.26-6.69,6.05-.16.26-.42.08-.43-.3-.05-1.88-.39-5.8-2.43-7s-5.84.64-7.92,1.78c-.26.14-.45-.44-.24-.75,1.15-1.73,2.63-4.5,1.66-6.19s-5.34-2-7.81-1.88c-.29,0-.36-.68-.09-.85,1.61-1,3.82-2.68,4-4.38S1.92,16.58.17,15.48c-.27-.16-.2-.85.09-.84,2.49.07,6.87-.08,7.68-1.9S7.28,8.2,6.23,6.47c-.19-.32,0-.88.26-.73,2,1.17,6,3.18,8.33,2.29s2.4-5.16,2.25-7.32c0-.4.25-.64.43-.36,1.1,1.75,3.68,5.43,5.79,5.39s5.45-4,6.69-5.65c.18-.23.43,0,.4.4-.14,2-.21,6.07,1.42,7.09s6.72-1,9.12-2.1c.27-.12.44.47.22.77-1.29,1.77-3.21,4.84-2.28,6.43S43.49,14.45,46.19,14.47Z" fill="#231916"/><path d="M8.22,48.72c.7-.71,5-5,5.66-5.66,1.68.84,3.76,1,5.09-.32,1.18-1.17,1.28-3.16.32-5.09L39.85,17.1a.85.85,0,0,0-.33-1.4,7,7,0,0,0-7.13,1.68L15.7,34.06c-1.93-1-3.92-.86-5.09.32-1.33,1.32-1.17,3.39-.32,5.09-.61.62-5,5-5.66,5.66a2.54,2.54,0,0,0,3.59,3.59Zm-2.39-1.2a.84.84,0,0,1,0-1.19l.59-.6,1.2,1.19-.6.6A.84.84,0,0,1,5.83,47.52Zm3-4.18L10,44.53l-1.2,1.2-1.19-1.2ZM33.59,18.57A5.23,5.23,0,0,1,37.52,17L16,38.56h0l-1.19-1.2Zm-21.79,17a2.5,2.5,0,0,1,2.62-.22L13,36.77A.84.84,0,0,0,13,38l2.39,2.39a.84.84,0,0,0,1.19,0L18,38.93a2.5,2.5,0,0,1-.22,2.62c-1,1-3.23.36-4.78-1.2a5.71,5.71,0,0,1-1.61-2.8A2.21,2.21,0,0,1,11.8,35.57Zm0,6a6.64,6.64,0,0,0,.63.56L11.2,43.34,10,42.14l1.22-1.22Q11.5,41.24,11.8,41.55Z" fill="#231916"/><path d="M31.83,37.36l-1.2,1.2s0,0,0,0L9.08,17A5.23,5.23,0,0,1,13,18.56Z" fill="#fff"/><path d="M5.83,47.52a.84.84,0,0,1,0-1.19l.59-.6,1.2,1.19-.6.6A.84.84,0,0,1,5.83,47.52Z" fill="#fff"/><rect x="7.97" y="43.69" width="1.69" height="1.69" transform="translate(-28.91 19.28) rotate(-45.01)" fill="#fff"/><path d="M33.59,18.57A5.23,5.23,0,0,1,37.52,17L16,38.56h0l-1.19-1.2Z" fill="#fff"/><path d="M11.8,35.57a2.5,2.5,0,0,1,2.62-.22L13,36.77A.84.84,0,0,0,13,38l2.39,2.39a.84.84,0,0,0,1.19,0L18,38.93a2.5,2.5,0,0,1-.22,2.62c-1,1-3.23.36-4.78-1.2a5.71,5.71,0,0,1-1.61-2.8A2.21,2.21,0,0,1,11.8,35.57Z" fill="#fff"/><path d="M11.8,41.55a6.64,6.64,0,0,0,.63.56L11.2,43.34,10,42.14l1.22-1.22Q11.5,41.24,11.8,41.55Z" fill="#fff"/><path d="M39.59,47.52l-.59-.6,1.19-1.19.6.6a.84.84,0,0,1,0,1.19A.85.85,0,0,1,39.59,47.52Z" fill="#fff"/><rect x="36.96" y="43.69" width="1.69" height="1.69" transform="translate(-20.42 39.78) rotate(-45.01)" fill="#fff"/><path d="M35.22,37.55a5.77,5.77,0,0,1-1.6,2.8c-1.56,1.56-3.77,2.2-4.78,1.2a2.5,2.5,0,0,1-.23-2.62L30,40.35a.85.85,0,0,0,1.2,0L33.62,38a.84.84,0,0,0,0-1.19L32.2,35.35a2.49,2.49,0,0,1,2.61.22A2.18,2.18,0,0,1,35.22,37.55Z" fill="#fff"/><path d="M35.38,40.92l1.23,1.22-1.2,1.2-1.22-1.23a8.37,8.37,0,0,0,1.19-1.19Z" fill="#fff"/><path d="M42,48.72a2.52,2.52,0,0,0,0-3.59l-5.66-5.66c.85-1.7,1-3.77-.31-5.09s-3.17-1.28-5.1-.32L14.21,17.37a6.93,6.93,0,0,0-7.12-1.68.84.84,0,0,0-.56.61.86.86,0,0,0,.23.79L27.33,37.65c-1,1.93-.86,3.92.31,5.09,1.33,1.33,3.41,1.16,5.1.32.67.66,5,4.95,5.66,5.66A2.55,2.55,0,0,0,42,48.72Zm-2.39-1.2-.59-.6,1.19-1.19.6.6a.84.84,0,0,1,0,1.19A.85.85,0,0,1,39.59,47.52Zm-.59-3-1.2,1.2-1.19-1.2,1.19-1.19Zm-7.17-7.17-1.2,1.2s0,0,0,0L9.08,17A5.23,5.23,0,0,1,13,18.56Zm3.39.19a5.77,5.77,0,0,1-1.6,2.8c-1.56,1.56-3.77,2.2-4.78,1.2a2.5,2.5,0,0,1-.23-2.62L30,40.35a.85.85,0,0,0,1.2,0L33.62,38a.84.84,0,0,0,0-1.19L32.2,35.35a2.49,2.49,0,0,1,2.61.22A2.18,2.18,0,0,1,35.22,37.55Zm.16,3.37,1.23,1.22-1.2,1.2-1.22-1.23a8.37,8.37,0,0,0,1.19-1.19Z" fill="#231916"/></g></g></svg>