<svg xmlns="http://www.w3.org/2000/svg" viewBox="0 0 44.02 46.38"><g id="Layer_2" data-name="Layer 2"><g id="圖層_1" data-name="圖層 1"><path d="M43.32,13.57c.28,0,.33.71,0,.81-2.31.89-5.31,2.38-5.19,4s3.4,3.52,5.66,4.55c.27.12.22.8-.06.8-2.69,0-7,.1-8,1.39s.77,3.79,2.18,5.64c.22.29,0,.87-.22.71-2.11-1.33-5.46-3.07-7.37-2-2.08,1.12-2.07,5-1.89,7.11,0,.39-.24.62-.4.33-1-1.77-3.16-5.08-5.43-5.22-2.48-.16-5.26,4-6.28,5.67-.15.24-.39.07-.4-.28,0-1.77-.37-5.45-2.28-6.59s-5.48.6-7.43,1.67c-.25.13-.42-.41-.23-.7,1.08-1.62,2.48-4.22,1.56-5.81s-5-1.84-7.32-1.76c-.27,0-.34-.64-.09-.8C1.74,22.13,3.81,20.56,4,19S1.8,15.55.16,14.52c-.25-.16-.19-.8.08-.79,2.34.06,6.45-.07,7.21-1.78S6.83,7.69,5.84,6.07c-.18-.3,0-.82.24-.68,1.89,1.09,5.64,3,7.82,2.14S16.14,2.69,16,.67c0-.38.24-.6.4-.34,1,1.64,3.45,5.09,5.43,5.05S27,1.61,28.11.08c.17-.22.41,0,.38.38-.13,1.86-.2,5.69,1.33,6.65s6.3-1,8.56-2c.25-.11.41.44.21.72-1.22,1.66-3,4.54-2.15,6S40.79,13.55,43.32,13.57Z" fill="#fff"/><path d="M7.71,45.69,13,40.38c1.59.79,3.53.95,4.78-.3s1.2-3,.3-4.77L37.37,16a.83.83,0,0,0,.21-.75.81.81,0,0,0-.52-.57,6.53,6.53,0,0,0-6.68,1.58L14.73,31.94c-1.82-.9-3.68-.8-4.78.3s-1.1,3.18-.3,4.78L4.34,42.33a2.37,2.37,0,0,0,0,3.36A2.4,2.4,0,0,0,7.71,45.69ZM5.46,44.57a.79.79,0,0,1,0-1.12L6,42.89,7.15,44l-.57.56A.79.79,0,0,1,5.46,44.57Zm2.81-3.93,1.12,1.12L8.27,42.89,7.15,41.76ZM31.5,17.42A4.93,4.93,0,0,1,35.19,16L15,36.16s0,0,0,0L13.87,35ZM11.07,33.36a2.32,2.32,0,0,1,2.45-.21l-1.33,1.33a.79.79,0,0,0,0,1.12l2.24,2.24a.79.79,0,0,0,1.12,0l1.33-1.33A2.32,2.32,0,0,1,16.67,39c-.94.95-3,.34-4.48-1.12a5.38,5.38,0,0,1-1.51-2.63A2.07,2.07,0,0,1,11.07,33.36Zm0,5.6a7.55,7.55,0,0,0,.59.54l-1.15,1.14L9.39,39.52l1.15-1.15A5.88,5.88,0,0,0,11.07,39Z" fill="#fff"/><path d="M29.85,35l-1.12,1.12s0,0,0,0L8.52,16a4.93,4.93,0,0,1,3.69,1.45Z" fill="#231916"/><path d="M5.46,44.57a.79.79,0,0,1,0-1.12L6,42.89,7.15,44l-.57.56A.79.79,0,0,1,5.46,44.57Z" fill="#231916"/><rect x="7.47" y="40.97" width="1.58" height="1.58" transform="translate(-27.11 18.08) rotate(-45.01)" fill="#231916"/><path d="M31.5,17.42A4.93,4.93,0,0,1,35.19,16L15,36.16s0,0,0,0L13.87,35Z" fill="#231916"/><path d="M11.07,33.36a2.32,2.32,0,0,1,2.45-.21l-1.33,1.33a.79.79,0,0,0,0,1.12l2.24,2.24a.79.79,0,0,0,1.12,0l1.33-1.33A2.32,2.32,0,0,1,16.67,39c-.94.95-3,.34-4.48-1.12a5.38,5.38,0,0,1-1.51-2.63A2.07,2.07,0,0,1,11.07,33.36Z" fill="#231916"/><path d="M11.07,39a7.55,7.55,0,0,0,.59.54l-1.15,1.14L9.39,39.52l1.15-1.15A5.88,5.88,0,0,0,11.07,39Z" fill="#231916"/><path d="M37.13,44.57,36.57,44l1.12-1.12.56.56a.79.79,0,0,1-1.12,1.12Z" fill="#231916"/><rect x="34.66" y="40.97" width="1.58" height="1.58" transform="translate(-19.15 37.31) rotate(-45.01)" fill="#231916"/><path d="M33,35.21a5.29,5.29,0,0,1-1.5,2.63C30.07,39.3,28,39.91,27.05,39a2.34,2.34,0,0,1-.22-2.45l1.34,1.33a.79.79,0,0,0,1.12,0l2.24-2.24a.79.79,0,0,0,0-1.12L30.2,33.15a2.32,2.32,0,0,1,2.45.21A2.06,2.06,0,0,1,33,35.21Z" fill="#231916"/><path d="M33.18,38.37l1.15,1.15-1.12,1.12L32.06,39.5c.2-.17.4-.35.59-.54A5.88,5.88,0,0,0,33.18,38.37Z" fill="#231916"/><path d="M39.37,45.69a2.37,2.37,0,0,0,0-3.36L34.07,37c.79-1.6.94-3.54-.3-4.78s-3-1.2-4.78-.3L13.33,16.29a6.53,6.53,0,0,0-6.68-1.58.79.79,0,0,0-.52.57.75.75,0,0,0,.21.74L25.63,35.31c-.9,1.81-.81,3.67.3,4.77s3.19,1.09,4.77.3L36,45.69A2.39,2.39,0,0,0,39.37,45.69Zm-2.24-1.12L36.57,44l1.12-1.12.56.56a.79.79,0,0,1-1.12,1.12Zm-.56-2.81-1.12,1.13-1.12-1.13,1.12-1.12ZM29.85,35l-1.12,1.12s0,0,0,0L8.52,16a4.93,4.93,0,0,1,3.69,1.45Zm3.18.17a5.29,5.29,0,0,1-1.5,2.63C30.07,39.3,28,39.91,27.05,39a2.34,2.34,0,0,1-.22-2.45l1.34,1.33a.79.79,0,0,0,1.12,0l2.24-2.24a.79.79,0,0,0,0-1.12L30.2,33.15a2.32,2.32,0,0,1,2.45.21A2.06,2.06,0,0,1,33,35.21Zm.15,3.16,1.15,1.15-1.12,1.12L32.06,39.5c.2-.17.4-.35.59-.54A5.88,5.88,0,0,0,33.18,38.37Z" fill="#fff"/></g></g></svg>