<?xml version="1.0" encoding="utf-8"?>
<!-- Generator: Adobe Illustrator 24.2.3, SVG Export Plug-In . SVG Version: 6.00 Build 0)  -->
<svg version="1.1" id="Layer_1" xmlns="http://www.w3.org/2000/svg" xmlns:xlink="http://www.w3.org/1999/xlink" x="0px" y="0px"
	 viewBox="0 0 1000 1000" style="enable-background:new 0 0 1000 1000;" xml:space="preserve">
<style type="text/css">
	.st0{fill:#FFFFFF;}
</style>
<g>
	<g transform="translate(0.000000,511.000000) scale(0.100000,-0.100000)">
		<path class="st0" d="M7654,4977.2c-128.3-51.3-194.5-100.5-359.1-265.1l-166.7-168.9L7297,4400
			c487.4-410.4,891.4-938.4,1180-1539.1c324.9-677.6,459.6-1280.5,455.3-2045.7c-2.1-743.9-149.6-1374.5-474.6-2039.3
			c-917-1870.4-2975.6-2907.2-5040.5-2535.2C2391.1-3575.5,1427-3024,740.8-2235.2L557-2023.6l-164.6-175.3
			C-3.1-2620,1.2-2842.3,413.8-3246.3c878.6-861.5,2028.6-1389.5,3302.7-1517.7c333.5-34.2,1105.2-17.1,1415.1,32.1
			c305.7,47,823,179.6,1092.3,277.9c277.9,102.6,803.8,361.3,1045.3,513c346.3,218,679.8,485.3,994,801.6
			c478.8,478.8,788.8,912.8,1079.5,1507c260.8,534.4,425.4,1058.1,515.2,1646c49.2,322.8,57.7,1259.1,12.8,1560.5
			c-158.2,1056-557.9,1979.5-1207.8,2789.6c-254.4,318.5-515.2,562.2-645.6,604.9C7897.7,5009.2,7748,5013.5,7654,4977.2z"/>
		<path class="st0" d="M3861.8,1234.2L1031.6-1596.1l138.9-168.9c596.4-711.8,1400.2-1194.9,2315.1-1387.3
			c359.1-77,981.2-94.1,1361.7-40.6c906.3,128.3,1701.5,534.4,2347.1,1199.2C7795-1375.9,8175.5-602.1,8295.2,248.7
			c42.8,290.7,40.6,852.9-2.1,1150c-121.8,829.4-491.7,1590.4-1073.1,2197.5c-183.8,192.4-489.5,468.1-519.4,468.1
			C6696.3,4064.4,5418,2790.4,3861.8,1234.2z M6717.7,2672.8c72.7-27.8,171-117.6,211.6-194.5c47-91.9,38.5-275.8-19.2-361.3
			c-117.6-173.1-378.4-303.5-619.9-305.7c-132.5-2.1-151.8,4.3-190.3,51.3c-89.8,109-6.4,446.8,164.6,671.2
			C6367.1,2668.5,6565.9,2730.5,6717.7,2672.8z M7252.1,855.8c136.8-66.3,207.4-194.5,194.5-359.1
			c-17.1-230.9-203.1-386.9-429.7-357c-233,32.1-515.2,188.1-579.3,320.6c-32.1,66.3-32.1,83.4-6.4,145.4
			c38.5,89.8,162.5,177.4,348.4,241.5C6965.6,913.5,7128.1,915.6,7252.1,855.8z M6281.6-741c344.2-160.3,459.6-408.3,301.4-649.9
			c-94.1-145.4-299.3-207.4-463.9-138.9c-141.1,59.9-305.7,305.7-357,540.8c-32.1,136.8-12.8,230.9,59.8,288.6
			C5903.2-636.3,6095.6-653.4,6281.6-741z M3241.9-999.7c44.9-36.3,51.3-57.7,49.2-188.1c-2.1-241.5-132.5-502.3-305.7-619.9
			c-85.5-57.7-269.3-66.3-361.3-19.2c-196.7,102.6-269.3,320.6-173.1,517.3C2566.4-1070.2,3081.6-869.3,3241.9-999.7z
			 M4686.9-1358.8c102.6-68.4,243.7-348.4,273.6-545.1c49.2-327.1-292.9-560.1-579.3-391.2c-179.6,104.7-226.6,335.6-126.1,617.8
			C4368.4-1354.5,4515.9-1247.6,4686.9-1358.8z"/>
	</g>
</g>
</svg>
