<svg width="181" height="100" viewBox="0 0 181 100" fill="none" xmlns="http://www.w3.org/2000/svg">
<path d="M56.8945 43.911C52.1226 44.9722 48.9583 49.0285 48.8851 54.0056C48.818 58.572 50.6358 62.1105 54.8785 64.1548C57.265 65.3047 59.825 65.475 62.4232 65.1296C64.6924 64.8279 66.6882 63.9346 68.3456 62.3286C68.6977 61.9875 68.8005 61.7263 68.4119 61.3293C67.908 60.8146 67.4525 60.2516 66.9962 59.6931C66.7577 59.401 66.5904 59.2848 66.2577 59.6204C64.2808 61.6142 61.8048 62.0496 59.1388 61.7685C56.0891 61.4469 53.6921 59.3389 52.9561 56.5018C52.7648 55.764 52.9991 55.7104 53.6248 55.7172C56.23 55.7452 58.8357 55.729 61.4411 55.729H67.868C70.2814 55.729 70.2729 55.7297 70.0876 53.3406C69.5667 46.6205 63.9284 42.3466 56.8945 43.9108V43.911ZM65.6802 52.934C63.654 52.9026 61.627 52.922 59.6005 52.922C57.5449 52.922 55.4891 52.9089 53.4338 52.9308C52.9087 52.9364 52.8024 52.783 52.9047 52.2747C53.562 49.0099 56.214 46.8977 59.6897 46.9064C62.9572 46.9146 65.6468 49.1068 66.2726 52.2126C66.393 52.8096 66.2721 52.943 65.6802 52.934Z" fill="white"/>
<path d="M91.2152 51.2431C91.132 47.3034 88.8993 44.7299 85.0494 43.8661C83.6229 43.5461 82.1703 43.5499 80.729 43.6496C78.242 43.8214 75.9066 44.5059 73.8151 45.9115C73.4279 46.1717 73.246 46.4034 73.5544 46.8729C73.9485 47.4726 74.283 48.1141 74.6079 48.7552C74.8076 49.1494 74.9598 49.2398 75.3755 48.9495C77.5903 47.4027 80.063 46.8127 82.7546 47.0482C85.7402 47.3095 87.4586 49.2701 87.3241 52.2485C87.3017 52.7452 87.0992 52.7959 86.6967 52.7931C84.8441 52.7799 82.9913 52.7974 81.1387 52.7837C79.9468 52.7748 78.7715 52.8959 77.6099 53.1509C74.7488 53.7791 72.9343 55.7382 72.6902 58.4527C72.4455 61.174 73.8603 63.4378 76.5681 64.555C78.8114 65.4806 81.1354 65.4529 83.4656 64.9539C85.0518 64.6142 86.3927 63.8167 87.561 62.3785C87.561 63.2122 87.5819 63.8068 87.5543 64.399C87.5332 64.8506 87.624 65.0904 88.1617 65.0629C88.999 65.0203 89.8412 65.0266 90.6793 65.0616C91.1472 65.081 91.2621 64.9135 91.2602 64.4703C91.2407 60.0611 91.308 55.6506 91.215 51.2431H91.2152ZM85.8808 60.652C84.3219 61.9493 82.5196 62.3599 80.5553 62.2324C79.8666 62.1877 79.1827 62.0576 78.5428 61.7684C77.1266 61.1281 76.4807 60.018 76.6124 58.4466C76.7173 57.1944 77.5334 56.2999 78.9616 55.9068C80.5741 55.463 82.2286 55.625 83.7293 55.5958C84.794 55.5958 85.7197 55.6248 86.6423 55.5848C87.1869 55.5611 87.297 55.7655 87.3274 56.2752C87.4266 57.9363 87.2947 59.4755 85.881 60.652H85.8808Z" fill="white"/>
<path d="M117.967 50.8862C117.684 47.6831 116.049 45.1971 112.888 44.2072C108.799 42.9263 104.95 43.3991 101.622 46.737C101.622 45.9591 101.583 45.3027 101.633 44.653C101.683 44.0079 101.53 43.7056 100.799 43.7772C100.082 43.8475 99.3477 43.8447 98.6304 43.7774C97.9482 43.7136 97.8356 43.9721 97.8384 44.5928C97.8633 50.0394 97.8529 55.4862 97.8529 60.9329C97.8529 62.0856 97.8805 63.2393 97.8407 64.3907C97.8223 64.9253 97.98 65.0958 98.5199 65.0638C99.2988 65.0175 100.088 64.9947 100.863 65.068C101.645 65.1421 101.822 64.8714 101.815 64.1157C101.782 60.5141 101.735 56.9095 101.846 53.3107C101.962 49.5696 104.284 47.3216 108.031 47.087C111.129 46.893 113.315 48.367 113.959 51.1112C114.11 51.7538 114.193 52.4099 114.191 53.079C114.179 56.7966 114.206 60.5144 114.166 64.2317C114.159 64.9427 114.384 65.1061 115.04 65.0647C115.876 65.0118 116.718 65.0381 117.557 65.0577C117.947 65.0669 118.141 64.9713 118.134 64.5342C118.053 59.9842 118.368 55.4237 117.967 50.8858L117.967 50.8862Z" fill="white"/>
<path d="M35.3649 60.2434C34.7224 59.9213 34.1247 59.5068 33.5237 59.1083C33.1917 58.8883 32.9871 58.8243 32.6948 59.2233C30.2916 62.5027 25.6822 62.378 23.179 60.7261C20.6122 59.0323 19.7806 56.5161 20.0288 53.6075C20.2765 50.7046 21.6929 48.4943 24.5166 47.507C27.2558 46.5493 29.8642 46.8558 32.0971 48.9304C32.4625 49.2699 32.618 49.9907 33.1527 49.9302C33.6184 49.8775 34.0402 49.4272 34.4783 49.1478C36.2551 48.0153 36.2642 47.9842 34.7366 46.4356C32.6078 44.2775 29.9496 43.5913 26.996 43.6099C19.3668 43.6581 14.386 50.1911 16.4804 57.7107C17.7713 62.3446 21.8743 65.1677 27.1871 65.2367C27.5917 65.2367 27.9993 65.2692 28.4002 65.2315C31.3232 64.9558 33.8005 63.8555 35.5672 61.4099C35.9361 60.899 36.0278 60.5755 35.3651 60.2432L35.3649 60.2434Z" fill="white"/>
<path d="M43.2022 35.3036C42.4556 35.3687 41.6945 35.3697 40.9483 35.3031C40.2704 35.2426 40.1511 35.4918 40.1547 36.1161C40.1819 40.7817 40.1695 45.4476 40.1695 50.1134C40.1695 54.8367 40.1791 59.5602 40.157 64.2836C40.1544 64.8593 40.2608 65.1108 40.9023 65.0647C41.7082 65.0068 42.524 65.0122 43.3307 65.0635C43.9275 65.1014 44.0505 64.8727 44.0437 64.3263C44.0162 62.109 44.0322 59.8911 44.0322 57.6733C44.0322 50.5018 44.0233 43.3303 44.047 36.1587C44.0493 35.4983 43.9038 35.2424 43.2023 35.3035L43.2022 35.3036Z" fill="white"/>
<path d="M138.124 43.6296C136.825 43.6647 135.524 43.6584 134.224 43.6315C133.764 43.6219 133.634 43.7764 133.637 44.2225C133.662 47.587 133.665 50.9517 133.674 54.3162C133.674 57.8432 133.673 61.37 133.673 64.897C133.785 65.1471 134.015 65.0636 134.2 65.0647C135.497 65.072 136.794 65.0728 138.091 65.0642C138.304 65.0628 138.566 65.1556 138.696 64.8726C138.699 61.3521 138.702 57.8317 138.705 54.3117C138.71 50.9754 138.71 47.6392 138.727 44.3031C138.729 43.8614 138.665 43.6148 138.124 43.6294L138.124 43.6296Z" fill="white"/>
<path d="M125.974 58.6335C124.004 58.6444 122.68 59.9693 122.666 61.9443C122.652 63.8936 124.013 65.2801 125.947 65.2858C127.894 65.2915 129.284 63.9366 129.303 62.0137C129.322 60.0127 127.953 58.6227 125.974 58.6337V58.6335Z" fill="white"/>
<path d="M136.215 34.1262C134.361 34.132 132.986 35.3986 132.97 37.1163C132.952 38.8927 134.311 40.1637 136.225 40.1625C138.133 40.1612 139.516 38.819 139.487 36.9973C139.46 35.3654 138.042 34.1207 136.215 34.1262Z" fill="white"/>
<path d="M165.811 52.818C165.572 50.6708 164.782 48.7474 163.321 47.1475C160.178 43.7051 156.177 42.8992 151.77 43.6552C146.547 44.551 142.784 49.219 143.056 54.3163C142.904 57.7985 144.195 60.6795 146.907 62.8325C150.452 65.647 154.521 65.9466 158.685 64.6547C162.717 63.4037 165.614 59.6421 165.806 55.8593C166.051 54.8464 166.076 53.8327 165.811 52.8183L165.811 52.818ZM156.709 60.5891C152.831 62.1578 148.824 59.3167 148.324 56.0823C148.233 55.494 148.03 54.9226 148.038 54.3166C148.271 50.7823 149.98 48.7032 152.543 47.9569C156.903 46.6873 160.684 49.6128 160.774 54.294C160.759 57.8761 158.753 59.762 156.709 60.5891Z" fill="white"/>
</svg>
