<svg width="181" height="100" viewBox="0 0 181 100" fill="none" xmlns="http://www.w3.org/2000/svg">
<g clip-path="url(#clip0_1058_30376)">
<path d="M144.986 48.4049C144.985 50.84 145.009 53.2755 144.98 55.7104C144.905 62.0232 140.972 65.834 134.503 65.987C131.005 66.0696 127.617 65.7852 124.427 64.1905C123.431 63.693 123.269 63.226 123.841 62.3336C124.376 61.4975 124.909 60.6373 125.27 59.7226C125.727 58.5656 126.292 58.8589 127.158 59.2687C129.946 60.5891 132.803 61.5064 135.858 59.9759C137.368 59.2194 137.832 57.824 137.938 56.3856C138.026 55.1971 137.218 55.9747 136.889 56.1935C134.637 57.6913 132.154 57.8928 129.608 57.3506C126.243 56.6339 123.785 53.7909 123.682 50.4359C123.57 46.8313 123.654 43.2212 123.617 39.6141C123.608 38.7514 124.021 38.5404 124.803 38.5561C126.323 38.587 127.847 38.6073 129.366 38.5491C130.358 38.5109 130.636 38.9199 130.622 39.8294C130.582 42.3992 130.545 44.9725 130.637 47.5398C130.69 48.991 131.009 50.4608 132.541 51.1965C134.963 52.3592 137.679 50.6377 137.768 47.8423C137.849 45.2742 137.79 42.702 137.796 40.1314C137.801 38.3538 137.805 38.3303 139.672 38.3682C141.05 38.3961 142.427 38.5472 143.804 38.5448C144.713 38.5431 145.009 38.8844 144.999 39.7462C144.965 42.6321 144.986 45.5185 144.985 48.4046L144.986 48.4049Z" fill="#F9FAFA"/>
<path d="M65.5196 58.6655C64.5059 58.6582 63.4853 58.5772 62.4798 58.6628C61.3316 58.7606 61.0806 58.2763 61.0997 57.2547C61.157 54.1896 61.0327 51.1193 61.1528 48.0576C61.3147 43.9294 63.3563 40.8491 67.1458 39.0369C70.8409 37.2696 74.4422 37.7149 77.6691 40.1574C80.6419 42.4073 81.9243 45.5022 81.7857 49.1665C81.4719 50.4264 81.2438 51.7059 80.6303 52.8827C78.7146 56.5565 75.5688 58.3595 71.4525 58.6003C69.4807 58.7156 67.4975 58.6498 65.5196 58.6658V58.6655ZM76.0731 48.3171C76.0811 45.7842 74.1082 43.7883 71.6014 43.7935C69.1503 43.7986 66.9911 45.9345 67.0395 48.3068C67.0907 50.8284 69.0684 52.7151 71.6468 52.7021C74.1461 52.6896 76.0653 50.7883 76.0731 48.3171Z" fill="#F9FAFA"/>
<path d="M83.8336 48.3493C84.3362 45.4015 85.2727 42.6578 87.7712 40.7045C91.4361 37.8395 95.3964 37.6337 99.5675 39.5239C102.5 41.3867 104.524 43.8899 104.791 47.3805C104.983 49.8932 104.855 52.4296 104.859 54.9555C104.863 57.4061 103.617 58.631 101.12 58.6301C98.7685 58.6284 96.4167 58.5986 94.0655 58.623C89.6201 58.6691 85.9388 55.453 84.6547 51.5895C84.3038 50.534 84.1032 49.4306 83.8336 48.3491V48.3493ZM99.0392 48.2296C99.0043 45.7064 96.9376 43.6905 94.4659 43.7685C92.0001 43.8463 89.8443 46.0152 89.9251 48.3372C90.0156 50.9367 92.0118 52.7633 94.7081 52.714C97.1916 52.6685 99.074 50.7195 99.0395 48.2296H99.0392Z" fill="#F9FAFA"/>
<path d="M114.814 48.3439C114.816 49.2458 114.782 50.1491 114.823 51.0491C114.912 53.0106 116.067 53.8859 117.948 53.2736C118.98 52.938 119.342 53.2272 119.58 54.1508C119.769 54.8883 120.027 55.6288 120.386 56.3002C120.982 57.4131 120.699 58.0518 119.472 58.3367C116.416 59.0466 113.375 59.4239 110.561 57.59C108.788 56.4354 107.914 54.6424 107.876 52.669C107.766 46.8093 107.843 40.9463 107.829 35.0847C107.828 34.3795 108.014 33.9859 108.835 34.003C110.494 34.0374 112.154 34.0376 113.813 34.0003C114.637 33.9819 114.836 34.3743 114.813 35.0807C114.783 36.0267 114.851 36.9766 114.796 37.9205C114.743 38.8335 115.047 39.2679 116.044 39.191C116.822 39.1311 117.612 39.2156 118.393 39.1701C119.253 39.12 119.57 39.4965 119.488 40.2928C119.47 40.4713 119.497 40.6538 119.485 40.8334C119.409 41.9929 119.965 43.4216 119.237 44.2428C118.525 45.0467 117.059 44.492 115.928 44.5215C115.095 44.5434 114.762 44.821 114.802 45.6385C114.847 46.5382 114.813 47.4415 114.814 48.3434V48.3439Z" fill="#F9FAFA"/>
<path d="M87.5366 61.0086C87.3237 61.2423 87.1818 61.4143 87.0229 61.5701C85.8249 62.7463 84.603 63.9004 83.4327 65.1027C82.9102 65.6395 82.5261 65.7056 81.9787 65.1292C80.8551 63.9465 79.6778 62.8124 78.5171 61.6635C78.1584 61.3084 77.9454 61.0403 78.4775 60.5823C80.9381 58.4656 84.4475 58.4023 86.9189 60.4815C87.1162 60.6476 87.311 60.816 87.5366 61.0086Z" fill="#F9FAFA"/>
<path d="M54.7343 39.5401C56.009 40.4474 57.1619 41.4631 57.9628 42.8228C58.3112 43.4143 58.2562 43.7778 57.5773 44.0881C56.2849 44.6789 55.0177 45.324 53.7543 45.9735C53.19 46.2636 52.7995 46.3053 52.3742 45.6937C51.2506 44.0778 49.6291 43.4308 47.69 43.8549C45.9155 44.2431 44.8353 45.4034 44.4451 47.1628C44.0021 49.1605 44.3668 50.95 45.9777 52.3291C47.7569 53.8521 50.5673 53.5577 52.108 51.6C52.7835 50.7414 53.2861 50.706 54.1429 51.2089C55.1275 51.7872 56.1521 52.3232 57.2131 52.7489C58.3915 53.2218 58.2656 53.8217 57.6894 54.6939C56.0668 57.1499 53.653 58.353 50.8203 58.7517C44.9701 59.5756 39.8406 57.2818 37.7254 52.3058C36.9162 50.4026 37.1304 48.4149 37.0004 46.451C37.4412 44.7953 38.1837 43.2951 39.3245 41.9818C42.3632 38.4836 48.3913 37.1063 53.0887 38.8614C53.6445 39.0691 54.1863 39.3129 54.7346 39.5401H54.7343Z" fill="#F9FAFA"/>
</g>
<defs>
<clipPath id="clip0_1058_30376">
<rect width="108" height="32" fill="white" transform="translate(37 34)"/>
</clipPath>
</defs>
</svg>
