<svg width="181" height="100" viewBox="0 0 181 100" fill="none" xmlns="http://www.w3.org/2000/svg">
<path d="M27.6406 43.2209L26.1849 45.2875C25.8877 44.988 25.3611 44.7071 24.6051 44.438C23.8899 44.1785 23.1355 44.0431 22.3747 44.0377C20.7816 44.0377 19.517 44.5956 18.5808 45.7112C17.6447 46.8268 17.1766 48.3566 17.1766 50.3007C17.1766 52.2339 17.6548 53.7068 18.6113 54.7195C19.5677 55.7321 20.894 56.2384 22.59 56.2384C23.9053 56.2384 25.2316 55.7298 26.5687 54.7125L27.7249 57.1793C26.1521 58.1981 24.2018 58.7076 21.8738 58.7076C19.6208 58.7076 17.7593 57.9516 16.2895 56.4397C14.8198 54.9278 14.0841 52.8815 14.0825 50.3007C14.0825 47.6685 14.8463 45.5551 16.3738 43.9605C17.9013 42.3659 19.996 41.5678 22.6579 41.5663C23.6073 41.5834 24.5466 41.7656 25.4336 42.1046C26.2236 42.3578 26.9685 42.7346 27.6406 43.2209Z" fill="white"/>
<path d="M29.7375 50.0995C29.7375 47.5515 30.424 45.4927 31.7971 43.9231C33.1701 42.3534 34.9777 41.5733 37.2198 41.5826C39.5837 41.5826 41.4194 42.3355 42.7269 43.8411C44.0344 45.3468 44.6874 47.4368 44.6858 50.1112C44.6858 52.7746 44.0172 54.8747 42.6801 56.4116C41.3429 57.9485 39.5228 58.7177 37.2198 58.7193C34.8654 58.7193 33.0297 57.9391 31.7128 56.3788C30.3959 54.8185 29.7375 52.7254 29.7375 50.0995ZM32.8222 50.0995C32.8222 54.2451 34.2881 56.3172 37.2198 56.3156C37.8533 56.3357 38.4813 56.1933 39.0442 55.902C39.6071 55.6107 40.0861 55.1803 40.4356 54.6516C41.2157 53.5407 41.6058 52.0233 41.6058 50.0995C41.6058 46.0068 40.1462 43.9605 37.2269 43.9605C36.599 43.9453 35.9772 44.0872 35.4181 44.3733C34.859 44.6594 34.3801 45.0807 34.0252 45.5988C33.2247 46.6863 32.8237 48.1865 32.8222 50.0995Z" fill="white"/>
<path d="M57.935 58.3986V48.7888C57.935 47.0319 57.6705 45.8001 57.1416 45.0933C56.6127 44.3865 55.7256 44.0346 54.4805 44.0377C53.7387 44.0563 53.0139 44.2633 52.3741 44.6392C51.7015 44.9886 51.1246 45.4972 50.6937 46.1207V58.3986H47.7705V41.8775H49.7763L50.7007 44.0073C51.6681 42.3799 53.2479 41.5663 55.4401 41.5663C59.0615 41.5663 60.8715 43.7663 60.8699 48.1663V58.394L57.935 58.3986Z" fill="white"/>
<path d="M73.9625 37.7279C73.4263 37.5338 72.8617 37.4294 72.2915 37.419C71.8693 37.4106 71.4507 37.4981 71.0672 37.6748C70.6837 37.8516 70.3453 38.113 70.0774 38.4394C69.4814 39.1618 69.1716 40.078 69.2068 41.0139C69.2078 41.3035 69.2336 41.5924 69.284 41.8775H72.6472V44.3467H69.2887V58.3893H66.3585V44.3467H63.9525V41.8775H66.3585C66.3585 39.7711 66.8773 38.1157 67.9149 36.9111C68.9525 35.7066 70.3255 35.1051 72.034 35.1067C72.9677 35.1213 73.8936 35.2792 74.7794 35.5747L73.9625 37.7279Z" fill="white"/>
<path d="M78.126 58.3986V44.356H75.8605V41.8775H81.0586V58.3986H78.126ZM79.7315 35.6309C79.971 35.627 80.2087 35.6721 80.4301 35.7634C80.6515 35.8548 80.8518 35.9905 81.0188 36.1622C81.1962 36.3282 81.3384 36.5282 81.4369 36.7502C81.5354 36.9723 81.5882 37.2119 81.5923 37.4548C81.5963 37.6977 81.5514 37.939 81.4603 38.1642C81.3692 38.3894 81.2337 38.594 81.0619 38.7658C80.8902 38.9376 80.6856 39.073 80.4604 39.1641C80.2351 39.2553 79.9939 39.3001 79.751 39.2961C79.5081 39.2921 79.2685 39.2392 79.0464 39.1407C78.8243 39.0422 78.6244 38.9 78.4584 38.7226C78.2023 38.471 78.027 38.1488 77.9551 37.7971C77.8831 37.4454 77.9177 37.0802 78.0544 36.7482C78.1911 36.4163 78.4237 36.1327 78.7224 35.9336C79.0212 35.7346 79.3726 35.6292 79.7315 35.6309Z" fill="white"/>
<path d="M85.1147 62.918L86.7039 60.5776C88.4108 61.7197 89.9844 62.2908 91.4245 62.2908C92.7508 62.2908 93.7969 62.0622 94.563 61.605C95.3291 61.1479 95.7122 60.5791 95.7122 59.8988C95.7122 58.5632 94.7456 57.8947 92.8124 57.8931C92.2078 57.9272 91.6068 58.0086 91.0149 58.1365C90.3498 58.2735 89.674 58.3518 88.9951 58.3705C86.6547 58.3705 85.4845 57.4866 85.4845 55.7188C85.4845 55.1727 85.7599 54.6789 86.3107 54.2373C86.9126 53.7711 87.6104 53.4442 88.3539 53.2801C86.0306 52.1879 84.869 50.2961 84.869 47.6046C84.8489 46.7983 84.9992 45.997 85.3102 45.2529C85.6212 44.5088 86.0857 43.8387 86.6734 43.2865C87.2658 42.719 87.965 42.2748 88.7303 41.9795C89.4956 41.6842 90.3119 41.5438 91.132 41.5663C92.7562 41.5663 94.0255 41.9002 94.9398 42.568L96.3979 40.815L98.3124 42.6194L96.5524 43.9441C97.3029 44.9224 97.6789 46.198 97.6805 47.7707C97.7246 49.3187 97.1657 50.8233 96.1218 51.9671C95.0826 53.0983 93.7197 53.7459 92.033 53.9097L89.6107 54.1578C89.2081 54.2174 88.8148 54.3283 88.4405 54.4878C87.9583 54.6797 87.7149 54.9278 87.7149 55.2367C87.7149 55.658 88.2205 55.8686 89.2268 55.8686C89.9214 55.8429 90.613 55.7646 91.2958 55.6346C91.9824 55.5038 92.6779 55.4255 93.3764 55.4005C95.0038 55.4005 96.2715 55.7906 97.1796 56.5708C98.0877 57.3509 98.5425 58.4283 98.5441 59.8029C98.5441 61.3242 97.863 62.5529 96.5009 63.4891C95.1388 64.4252 93.4139 64.8933 91.3262 64.8933C90.1846 64.8725 89.0531 64.6743 87.9724 64.3059C86.9491 64.0059 85.9832 63.5368 85.1147 62.918ZM91.3309 43.9301C90.862 43.9154 90.3956 44.0046 89.9651 44.1911C89.5346 44.3776 89.1507 44.6569 88.8407 45.009C88.1973 45.7291 87.8524 46.6673 87.8764 47.6326C87.8381 48.667 88.1701 49.6811 88.8126 50.4927C89.1154 50.8646 89.5005 51.161 89.9376 51.3584C90.3747 51.5558 90.8517 51.6488 91.3309 51.6301C91.7955 51.6522 92.2587 51.5636 92.6823 51.3715C93.1059 51.1794 93.4778 50.8894 93.7673 50.5254C94.354 49.7905 94.6473 48.827 94.6473 47.635C94.6748 46.6741 94.3407 45.7378 93.7111 45.0114C93.4203 44.6648 93.0556 44.3878 92.6437 44.2007C92.2318 44.0136 91.7832 43.9211 91.3309 43.9301Z" fill="white"/>
<path d="M104.355 41.8775V52.4095C104.355 54.9605 105.461 56.2353 107.672 56.2337C108.621 56.24 109.548 55.9486 110.323 55.4005C111.046 54.9456 111.603 54.2703 111.913 53.4744V41.8775H114.841V58.3986H111.908V56.1167C111.58 56.7627 110.919 57.3564 109.926 57.8978C109.04 58.4075 108.04 58.686 107.019 58.7076C105.209 58.7076 103.823 58.188 102.862 57.1488C101.901 56.1097 101.42 54.6344 101.42 52.7231V41.8775H104.355Z" fill="white"/>
<path d="M127.811 44.7001C127.253 44.2864 126.582 44.0551 125.887 44.0377C124.848 44.0377 123.94 44.516 123.163 45.4724C122.377 46.4495 121.962 47.6733 121.993 48.9269V58.3986H119.065V41.8775H121.998V44.5152C123.068 42.5492 124.656 41.5663 126.763 41.5663C127.525 41.5932 128.284 41.6856 129.031 41.8424L127.811 44.7001Z" fill="white"/>
<path d="M145.027 50.4248H133.119C133.119 52.358 133.648 53.8402 134.706 54.8716C135.642 55.7781 136.846 56.2306 138.317 56.229C139.993 56.229 141.391 55.7407 142.511 54.7639L143.747 56.8703C143.293 57.3244 142.598 57.7144 141.664 58.0405C140.407 58.4876 139.08 58.7071 137.746 58.6888C136.768 58.7096 135.795 58.5339 134.887 58.1721C133.978 57.8103 133.15 57.2697 132.454 56.5824C130.839 55.0222 130.033 52.9345 130.034 50.3195C130.034 47.5952 130.862 45.4108 132.517 43.7662C133.198 43.0613 134.016 42.5026 134.92 42.1243C135.824 41.746 136.796 41.5561 137.776 41.5662C140.131 41.5662 141.977 42.2294 143.314 43.5556C144.61 44.8304 145.259 46.5217 145.259 48.6297C145.265 49.2359 145.187 49.84 145.027 50.4248ZM137.914 44.0377C136.733 44.0101 135.586 44.4358 134.708 45.2276C133.831 46.0193 133.29 47.1169 133.196 48.295H142.343C142.376 47.2003 141.977 46.1365 141.231 45.3343C140.419 44.4715 139.314 44.0393 137.914 44.0377Z" fill="white"/>
<path d="M165.298 49.3341C164.597 48.522 163.777 47.8212 162.866 47.2558C161.799 46.5677 160.647 45.992 159.545 45.346C158.674 44.8335 157.79 44.3069 157.087 43.5697C156.268 42.7107 155.817 41.5358 156.126 40.3445C156.687 38.1726 159.636 37.6437 161.373 38.732C161.714 38.9536 161.999 39.253 162.202 39.6058C162.405 39.9585 162.522 40.3545 162.543 40.7611C162.564 41.0182 162.564 41.2765 162.543 41.5335C162.488 42.174 162.312 42.7983 162.023 43.3731C161.808 43.7987 161.549 44.201 161.251 44.5737C161.485 44.7211 161.719 44.8616 161.953 45.002C162.367 45.236 162.789 45.4701 163.217 45.7041C163.421 45.8165 163.624 45.9382 163.835 46.0482C164.652 45.3044 165.283 44.3783 165.675 43.345C166.625 40.7167 165.745 37.653 163.32 36.1926C162.074 35.4773 160.658 35.1126 159.222 35.1371C155.971 35.1371 152.727 36.8362 152.435 40.6699C152.314 42.1247 152.73 43.5734 153.605 44.7422C154.508 45.9311 155.847 46.6965 157.16 47.3518C158.541 48.0399 159.985 48.646 161.197 49.622C162.026 50.289 163.662 51.8688 163.507 54.0946C163.35 56.3624 161.274 57.9188 159.028 57.7971C156.921 57.6848 155.112 56.2173 154.969 54.0946C154.913 53.22 155.08 52.3455 155.454 51.5529C155.93 50.586 156.61 49.7339 157.448 49.0556C157.448 49.0556 156.474 48.6343 155.711 48.2435C155.338 48.0564 154.976 47.8494 154.625 47.6233C153.832 48.2688 153.149 49.0396 152.603 49.9052C151.733 51.3035 151.337 52.9449 151.473 54.5861C151.81 59.1288 155.517 61.172 159.224 61.172C163.128 61.172 166.739 58.7122 166.983 54.5861C167.111 52.6846 166.509 50.8059 165.298 49.3341Z" fill="white"/>
</svg>
