<svg width="181" height="100" viewBox="0 0 181 100" fill="none" xmlns="http://www.w3.org/2000/svg">
<path fill-rule="evenodd" clip-rule="evenodd" d="M38.0032 46.182V35.4391L35.1924 33.6656C33.1773 32.3942 30.5964 32.3823 28.5694 33.635L18.8889 39.6176C17.0911 40.7287 16 42.6699 16 44.7575V55.4033C16 57.5616 17.1657 59.5579 19.0618 60.6461L28.7441 66.2037C30.6855 67.318 33.0895 67.3073 35.0206 66.1756L44.4416 60.6546C46.3102 59.5595 47.455 57.5785 47.455 55.4398V44.7204C47.455 42.653 46.3849 40.7278 44.615 39.6111L41.2073 37.4609V57.2419H41.6238C42.1711 57.2419 42.4472 57.2556 42.8654 57.4594C43.2837 57.6631 43.5155 58.1287 43.5155 58.7006C43.5155 59.2727 43.359 59.6055 43.147 59.8139C42.9347 60.0226 42.3665 60.2108 42.0092 60.2108L38.7127 60.2113C38.3261 60.2108 38.0614 60.0017 37.9666 59.8864C37.8716 59.7712 37.8055 59.5265 37.8055 59.1971V58.5733C37.1885 59.1971 36.825 59.4307 35.8199 59.8864C34.8147 60.3421 33.5238 60.6176 32.3511 60.6176C30.2402 60.6176 28.2881 59.8094 26.864 58.3328C25.44 56.856 24.6051 54.77 24.6051 52.5741C24.6051 50.3014 25.2336 48.4101 26.7526 46.9005C28.2716 45.3908 30.6113 44.3019 32.8786 44.3019C34.0291 44.3019 35.0622 44.4843 35.978 44.8851C36.8938 45.2858 37.6318 45.7536 38.0032 46.182ZM29.4304 48.7761C28.46 49.6818 28.1019 51.0739 28.1019 52.3461C28.1019 53.6183 28.6754 54.9883 29.4304 55.7729C30.1855 56.5575 31.5401 57.3038 32.9709 57.3038C34.4121 57.3038 35.7752 56.7135 36.7047 55.7729C37.6341 54.8323 37.9698 53.4245 37.9865 52.1605C38.0032 50.8965 37.3783 49.5788 36.4541 48.6536C35.5297 47.7284 34.4226 47.3883 32.9709 47.3883C31.4983 47.3883 30.4009 47.8704 29.4304 48.7761Z" fill="white"/>
<path fill-rule="evenodd" clip-rule="evenodd" d="M60.0911 59.6845C61.169 59.2564 62.1658 58.636 63.0815 57.8235L63.2156 58.8281C63.2826 59.1796 63.4167 59.4485 63.6177 59.6352C63.8188 59.8218 64.0756 59.9152 64.3883 59.9152H67.0186C67.4654 59.9152 67.8005 59.8163 68.0238 59.6187C68.2472 59.4211 68.3589 59.1246 68.3589 58.7294C68.3589 58.3011 68.2248 58.0048 67.9568 57.8401C67.6888 57.6754 67.1583 57.593 66.3652 57.593H65.5443V50.1324C65.5443 48.211 65.0417 46.7589 64.0365 45.7763C63.0313 44.7936 61.5458 44.3023 59.5802 44.3023C57.6591 44.3023 56.0815 44.5273 54.8473 44.9775C53.6132 45.4277 52.9962 45.9766 52.9962 46.6244C52.9962 47.0307 53.1022 47.3628 53.3144 47.6208C53.5267 47.8789 53.7947 48.0079 54.1186 48.0079C54.4648 48.0079 55.1741 47.7773 56.2463 47.3161C57.3184 46.855 58.2903 46.6244 59.1614 46.6244C60.457 46.6244 61.4119 46.9264 62.0262 47.5302C62.6404 48.1341 62.9476 49.0673 62.9476 50.33V50.4452C62.2552 50.2697 61.5794 50.1406 60.9205 50.0582C60.2614 49.9759 59.608 49.9348 58.9603 49.9348C56.5031 49.9348 54.596 50.4123 53.2391 51.3676C51.8821 52.3228 51.2035 53.6678 51.2035 55.4026C51.2035 56.8629 51.7144 58.0487 52.7365 58.9599C53.7584 59.8713 55.1015 60.3269 56.7656 60.3269C57.9049 60.3269 59.0133 60.1128 60.0911 59.6845ZM61.1633 52.1993C61.7385 52.2927 62.3333 52.438 62.9476 52.6358V54.4144C62.9476 55.2049 62.3417 55.9652 61.1299 56.6953C59.918 57.4255 58.6028 57.7906 57.1845 57.7906C56.2239 57.7906 55.4337 57.5491 54.8139 57.066C54.1939 56.5829 53.884 55.9681 53.884 55.2214C53.884 54.2552 54.3811 53.4867 55.3751 52.9158C56.3692 52.3448 57.7262 52.0593 59.4461 52.0593C60.0158 52.0593 60.5882 52.1059 61.1633 52.1993Z" fill="white"/>
<path d="M63.0815 57.8235L63.4953 57.7682L63.3916 56.9903L62.8047 57.5111L63.0815 57.8235ZM63.2156 58.8281L62.8012 58.8835L62.8055 58.9064L63.2156 58.8281ZM65.5443 57.593H65.1268V58.0106H65.5443V57.593ZM64.0365 45.7762L63.7448 46.0749L64.0365 45.7762ZM54.8473 44.9775L54.7043 44.5851L54.8473 44.9775ZM53.3144 47.6208L52.992 47.8861L53.3144 47.6208ZM56.2462 47.3161L56.0814 46.9325L56.2462 47.3161ZM62.0262 47.5302L61.7335 47.8281L62.0262 47.5302ZM62.9476 50.4452L62.8449 50.8501L63.365 50.9821V50.4452H62.9476ZM53.2391 51.3676L52.9988 51.026L53.2391 51.3676ZM52.7365 58.9599L53.0142 58.6482L52.7365 58.9599ZM62.9476 52.6358H63.365V52.3312L63.0753 52.2382L62.9476 52.6358ZM61.1633 52.1993L61.0965 52.6115L61.1633 52.1993ZM54.8139 57.066L54.5572 57.3954L54.8139 57.066ZM62.8047 57.5111C61.923 58.2932 60.9674 58.887 59.937 59.2964L60.2452 60.0727C61.3705 59.6255 62.4084 58.9787 63.3585 58.136L62.8047 57.5111ZM63.6294 58.7729L63.4953 57.7682L62.6677 57.8788L62.8018 58.8834L63.6294 58.7729ZM63.9017 59.329C63.7832 59.2191 63.681 59.0402 63.6257 58.7499L62.8055 58.9064C62.8841 59.3187 63.0501 59.678 63.3337 59.9412L63.9017 59.329ZM64.3883 59.4976C64.165 59.4976 64.0146 59.4339 63.9017 59.329L63.3337 59.9412C63.6229 60.2097 63.9862 60.3328 64.3883 60.3328V59.4976ZM67.0186 59.4976H64.3883V60.3328H67.0186V59.4976ZM67.7472 59.3058C67.6304 59.4092 67.4128 59.4976 67.0186 59.4976V60.3328C67.518 60.3328 67.9705 60.2233 68.3004 59.9315L67.7472 59.3058ZM67.9414 58.7293C67.9414 59.0461 67.8543 59.2111 67.7472 59.3058L68.3004 59.9315C68.6401 59.6309 68.7763 59.2032 68.7763 58.7293H67.9414ZM67.7384 58.1958C67.8399 58.2583 67.9414 58.3878 67.9414 58.7293H68.7763C68.7763 58.2144 68.6097 57.751 68.1752 57.4841L67.7384 58.1958ZM66.3652 58.0106C66.7494 58.0106 67.0571 58.0306 67.2939 58.0674C67.5377 58.1051 67.6736 58.1561 67.7384 58.1958L68.1752 57.4841C67.972 57.3593 67.7087 57.2865 67.4218 57.242C67.1281 57.1964 66.7741 57.1754 66.3652 57.1754V58.0106ZM65.5443 58.0106H66.3652V57.1754H65.5443V58.0106ZM65.1268 50.1323V57.593H65.9617V50.1323H65.1268ZM63.7448 46.0749C64.6436 46.9537 65.1268 48.281 65.1268 50.1323H65.9617C65.9617 48.1409 65.4398 46.5642 64.3283 45.4776L63.7448 46.0749ZM59.5801 44.7198C61.4809 44.7198 62.8442 45.1945 63.7448 46.0749L64.3283 45.4776C63.2184 44.3926 61.6109 43.8846 59.5801 43.8846V44.7198ZM54.9904 45.3698C56.1627 44.9422 57.6874 44.7198 59.5801 44.7198V43.8846C57.6308 43.8846 56.0003 44.1125 54.7043 44.5851L54.9904 45.3698ZM53.4136 46.6244C53.4136 46.4508 53.4906 46.2575 53.7364 46.0389C53.9892 45.8139 54.3969 45.5863 54.9904 45.3698L54.7043 44.5851C54.0636 44.8189 53.5457 45.0908 53.1815 45.4148C52.8101 45.7452 52.5787 46.1502 52.5787 46.6244H53.4136ZM53.6368 47.3555C53.4986 47.1874 53.4136 46.9555 53.4136 46.6244H52.5787C52.5787 47.1058 52.7059 47.5382 52.992 47.8861L53.6368 47.3555ZM54.1186 47.5902C53.9239 47.5902 53.7726 47.5206 53.6368 47.3555L52.992 47.8861C53.2807 48.2371 53.6654 48.4254 54.1186 48.4254V47.5902ZM56.0814 46.9325C55.5513 47.1605 55.1188 47.328 54.7812 47.4378C54.4315 47.5514 54.2213 47.5902 54.1186 47.5902V48.4254C54.3622 48.4254 54.6796 48.3489 55.0391 48.2321C55.4107 48.1113 55.869 47.9329 56.411 47.6998L56.0814 46.9325ZM59.1613 46.2068C58.2178 46.2068 57.189 46.4561 56.0814 46.9325L56.411 47.6998C57.448 47.2538 58.3625 47.042 59.1613 47.042V46.2068ZM62.3188 47.2324C61.5947 46.5206 60.512 46.2068 59.1613 46.2068V47.042C60.4018 47.042 61.2291 47.3321 61.7335 47.8281L62.3188 47.2324ZM63.365 50.3299C63.365 49.0075 63.0436 47.945 62.3188 47.2324L61.7335 47.8281C62.2371 48.3232 62.5302 49.1273 62.5302 50.3299H63.365ZM63.365 50.4452V50.3299H62.5302V50.4452H63.365ZM60.8687 50.4726C61.5092 50.5526 62.168 50.6784 62.8449 50.8501L63.0501 50.0405C62.3421 49.8609 61.6495 49.7284 60.9722 49.6439L60.8687 50.4726ZM58.9603 50.3523C59.5903 50.3523 60.2265 50.3924 60.8687 50.4726L60.9722 49.6439C60.2965 49.5594 59.6257 49.5171 58.9603 49.5171V50.3523ZM53.4792 51.709C54.7396 50.8219 56.55 50.3523 58.9603 50.3523V49.5171C56.4563 49.5171 54.4525 50.0027 52.9988 51.026L53.4792 51.709ZM51.6209 55.4026C51.6209 53.7963 52.2391 52.582 53.4792 51.709L52.9988 51.026C51.5249 52.0635 50.786 53.5391 50.786 55.4026H51.6209ZM53.0142 58.6482C52.0876 57.8218 51.6209 56.7526 51.6209 55.4026H50.786C50.786 56.9729 51.3414 58.2753 52.4586 59.2716L53.0142 58.6482ZM56.7655 59.9093C55.1807 59.9093 53.9441 59.4773 53.0142 58.6482L52.4586 59.2716C53.5727 60.2651 55.0221 60.7445 56.7655 60.7445V59.9093ZM59.937 59.2964C58.9074 59.7055 57.8511 59.9093 56.7655 59.9093V60.7445C57.9586 60.7445 59.1193 60.52 60.2452 60.0727L59.937 59.2964ZM63.0753 52.2382C62.4433 52.0348 61.8282 51.8841 61.2302 51.787L61.0965 52.6115C61.649 52.7011 62.2232 52.8414 62.8197 53.0333L63.0753 52.2382ZM63.365 54.4144V52.6358H62.5302V54.4144H63.365ZM61.3453 57.0531C62.5838 56.3069 63.365 55.4382 63.365 54.4144H62.5302C62.5302 54.9716 62.0995 55.6236 60.9145 56.3377L61.3453 57.0531ZM57.1845 58.2082C58.6786 58.2082 60.0682 57.8225 61.3453 57.0531L60.9145 56.3377C59.7678 57.0286 58.5272 57.373 57.1845 57.373V58.2082ZM54.5572 57.3954C55.2656 57.9474 56.1522 58.2082 57.1845 58.2082V57.373C56.2957 57.373 55.6019 57.1507 55.0704 56.7366L54.5572 57.3954ZM53.4665 55.2214C53.4665 56.1045 53.8421 56.838 54.5572 57.3954L55.0704 56.7366C54.5459 56.3277 54.3014 55.8316 54.3014 55.2214H53.4665ZM55.1672 52.5536C54.0723 53.1825 53.4665 54.0751 53.4665 55.2214H54.3014C54.3014 54.4351 54.6898 53.7908 55.583 53.2779L55.1672 52.5536ZM59.446 51.6417C57.6869 51.6417 56.2484 51.9325 55.1672 52.5536L55.583 53.2779C56.4897 52.757 57.7652 52.4769 59.446 52.4769V51.6417ZM61.2302 51.787C60.6334 51.6901 60.0387 51.6417 59.446 51.6417V52.4769C59.9929 52.4769 60.5429 52.5217 61.0965 52.6115L61.2302 51.787Z" fill="white"/>
<path fill-rule="evenodd" clip-rule="evenodd" d="M83.7056 45.6197C84.2528 45.6197 84.652 45.713 84.9033 45.8997C85.1546 46.0864 85.2804 46.3828 85.2804 46.789C85.2804 47.1733 85.1631 47.4615 84.9285 47.6537C84.6939 47.8458 84.3421 47.9419 83.8731 47.9419H77.088V53.4426C77.088 55.2433 77.3253 56.4291 77.8 57C78.2746 57.571 79.0873 57.8564 80.2376 57.8564C81.254 57.8564 82.4714 57.5655 83.8898 56.9835C85.3083 56.4015 86.1851 56.1107 86.52 56.1107C86.8328 56.1107 87.0981 56.2205 87.3158 56.4401C87.5337 56.6596 87.6426 56.9285 87.6426 57.2471C87.6426 57.6094 87.5057 57.9251 87.2322 58.194C86.9585 58.463 86.4921 58.7237 85.8332 58.9763C84.7387 59.4046 83.753 59.7174 82.8762 59.915C81.9996 60.1126 81.1759 60.2115 80.4051 60.2115C79.0983 60.2115 78.0011 60.0056 77.1131 59.5938C76.2253 59.1822 75.5633 58.57 75.1279 57.7576C74.9044 57.3734 74.7453 56.9177 74.6503 56.3907C74.5555 55.8637 74.508 55.0512 74.508 53.9532V47.9419H71.6599C71.1908 47.9419 70.8502 47.8513 70.638 47.6701C70.4257 47.489 70.3197 47.1953 70.3197 46.789C70.3197 46.3389 70.4648 46.0315 70.7552 45.8668C71.0456 45.7021 71.6656 45.6197 72.6148 45.6197H74.508V41.3707C74.508 40.8985 74.6112 40.5499 74.818 40.3249C75.0245 40.0998 75.3456 39.9872 75.7813 39.9872C76.2727 39.9872 76.6133 40.1245 76.8032 40.399C76.993 40.6735 77.088 41.2993 77.088 42.2765V45.6197H83.7056Z" fill="white" stroke="white" stroke-width="0.5"/>
<path fill-rule="evenodd" clip-rule="evenodd" d="M97.3934 57.593H102.956C103.391 57.593 103.712 57.6835 103.919 57.8648C104.126 58.0459 104.229 58.3342 104.229 58.7294C104.229 59.1796 104.131 59.4897 103.936 59.6598C103.74 59.83 103.38 59.9152 102.855 59.9152H91.8985C91.4628 59.9152 91.1334 59.8163 90.91 59.6187C90.6865 59.4211 90.5748 59.1246 90.5748 58.7294C90.5748 58.345 90.6894 58.0596 90.9183 57.873C91.1472 57.6862 91.5019 57.593 91.9821 57.593H94.8973V47.0362H93.758C92.6746 47.0362 91.999 46.9511 91.7308 46.7809C91.4628 46.6107 91.3287 46.3005 91.3287 45.8504C91.3287 45.4661 91.4376 45.1779 91.6555 44.9858C91.8733 44.7936 92.2056 44.6975 92.6522 44.6975H96.472C96.7736 44.6975 97.0025 44.7552 97.159 44.8705C97.3153 44.9858 97.3934 45.1532 97.3934 45.3728V48.1726C98.4546 46.866 99.5603 45.8943 100.711 45.2575C101.861 44.6207 103.101 44.3023 104.43 44.3023C105.424 44.3023 106.228 44.4999 106.842 44.8952C107.457 45.2904 107.764 45.801 107.764 46.4268C107.764 46.8331 107.61 47.1926 107.303 47.5056C106.996 47.8185 106.658 47.9749 106.29 47.9749C106.033 47.9749 105.6 47.8075 104.991 47.4726C104.382 47.1377 103.838 46.9703 103.358 46.9703C102.486 46.9703 101.568 47.275 100.602 47.8843C99.6356 48.4937 98.5663 49.4572 97.3934 50.7746V57.593Z" fill="white" stroke="white" stroke-width="0.5"/>
<path fill-rule="evenodd" clip-rule="evenodd" d="M117.397 39.9542C117.397 38.7684 117.506 38.0218 117.724 37.7144C117.942 37.407 118.408 37.2533 119.123 37.2533C119.815 37.2533 120.273 37.3823 120.497 37.6403C120.72 37.8983 120.832 38.5104 120.832 39.4766C120.832 40.4208 120.728 41.0055 120.522 41.2306C120.315 41.4557 119.849 41.5682 119.123 41.5682C118.408 41.5682 117.942 41.4639 117.724 41.2553C117.506 41.0467 117.397 40.613 117.397 39.9542Z" fill="white" stroke="white" stroke-width="0.5"/>
<path fill-rule="evenodd" clip-rule="evenodd" d="M120.497 57.5928H125.875C126.311 57.5928 126.632 57.6834 126.838 57.8646C127.045 58.0458 127.148 58.334 127.148 58.7292C127.148 59.1794 127.05 59.4896 126.855 59.6598C126.66 59.83 126.299 59.915 125.774 59.915H112.774C112.327 59.915 111.992 59.8163 111.769 59.6185C111.545 59.4209 111.434 59.1246 111.434 58.7292C111.434 58.345 111.551 58.0595 111.785 57.8728C112.02 57.6862 112.372 57.5928 112.841 57.5928H117.951V47.0361H114.684C114.226 47.0361 113.877 46.9345 113.637 46.7314C113.397 46.5283 113.277 46.2345 113.277 45.8503C113.277 45.466 113.388 45.1778 113.611 44.9856C113.835 44.7935 114.17 44.6974 114.617 44.6974H119.526C119.827 44.6974 120.064 44.7578 120.238 44.8786C120.411 44.9994 120.497 45.164 120.497 45.3727V57.5928Z" fill="white" stroke="white" stroke-width="0.5"/>
<path fill-rule="evenodd" clip-rule="evenodd" d="M143.886 45.6857V45.6198C143.886 45.2575 143.992 44.9912 144.204 44.8211C144.416 44.6509 144.746 44.5658 145.192 44.5658C145.65 44.5658 145.966 44.6975 146.139 44.961C146.312 45.2246 146.399 45.768 146.399 46.5915V49.6548C146.399 50.0611 146.293 50.3657 146.08 50.5689C145.868 50.772 145.55 50.8735 145.125 50.8735C144.824 50.8735 144.564 50.7883 144.346 50.6183C144.129 50.4481 143.863 50.094 143.551 49.5559C143.015 48.6666 142.364 47.9941 141.599 47.5385C140.834 47.0828 139.954 46.855 138.96 46.855C137.218 46.855 135.802 47.3601 134.713 48.3702C133.624 49.3804 133.08 50.6868 133.08 52.2899C133.08 53.9258 133.602 55.2625 134.646 56.3001C135.691 57.3378 137.034 57.8564 138.675 57.8564C139.424 57.8564 140.136 57.7549 140.811 57.5518C141.487 57.3486 142.127 57.044 142.73 56.6377C142.942 56.5059 143.227 56.3028 143.584 56.0284C144.31 55.4464 144.88 55.1556 145.293 55.1556C145.639 55.1556 145.921 55.2627 146.139 55.4766C146.357 55.6908 146.466 55.9681 146.466 56.3083C146.466 57.1758 145.631 58.0624 143.961 58.9681C142.291 59.8739 140.518 60.3269 138.642 60.3269C136.218 60.3269 134.199 59.5637 132.586 58.0377C130.972 56.5114 130.165 54.6065 130.165 52.3228C130.165 50.039 130.969 48.1314 132.577 46.5997C134.186 45.0681 136.196 44.3023 138.608 44.3023C139.457 44.3023 140.309 44.4148 141.163 44.6399C142.018 44.865 142.925 45.2136 143.886 45.6857Z" fill="white" stroke="white" stroke-width="0.5"/>
<path fill-rule="evenodd" clip-rule="evenodd" d="M151.442 58.7294V55.7978C151.442 55.3148 151.534 54.9688 151.718 54.7602C151.902 54.5516 152.201 54.4473 152.614 54.4473C153.072 54.4473 153.435 54.7547 153.703 55.3696C153.882 55.7429 154.044 56.0228 154.189 56.2096C154.658 56.8024 155.351 57.2773 156.266 57.6341C157.182 57.9909 158.193 58.1695 159.299 58.1695C160.483 58.1695 161.432 57.9333 162.147 57.4612C162.862 56.9892 163.219 56.3688 163.219 55.6002C163.219 54.8207 162.932 54.2663 162.356 53.9369C161.781 53.6075 160.796 53.4428 159.399 53.4428H158.478C156.199 53.4428 154.463 53.0529 153.268 52.2733C152.073 51.4939 151.475 50.3629 151.475 48.8807C151.475 47.4314 152.059 46.306 153.226 45.5045C154.393 44.703 156.032 44.3023 158.143 44.3023C159.003 44.3023 159.88 44.4203 160.773 44.6564C161.667 44.8924 162.136 45.0105 162.18 45.0105C162.303 45.0105 162.538 44.9034 162.884 44.6893C163.23 44.4752 163.571 44.3682 163.906 44.3682C164.286 44.3682 164.568 44.5054 164.752 44.7799C164.936 45.0544 165.028 45.4661 165.028 46.0151V47.942C165.028 48.5239 164.939 48.9439 164.76 49.2018C164.582 49.4599 164.297 49.5888 163.906 49.5888C163.571 49.5888 163.158 49.3089 162.666 48.749C162.32 48.3647 162.035 48.0737 161.812 47.8761C161.22 47.3381 160.589 46.9511 159.919 46.715C159.249 46.479 158.461 46.3609 157.556 46.3609C156.507 46.3609 155.661 46.5888 155.018 47.0444C154.376 47.5001 154.055 48.0792 154.055 48.7819C154.055 49.4736 154.385 49.9677 155.043 50.2642C155.702 50.5607 157.121 50.7307 159.299 50.7746C161.622 50.8296 163.32 51.2277 164.392 51.9686C165.464 52.7098 166 53.8545 166 55.4026C166 56.8848 165.408 58.0706 164.224 58.9599C163.04 59.8492 161.443 60.2939 159.433 60.2939C158.796 60.2939 158.087 60.2362 157.305 60.121C156.523 60.0057 155.541 59.8108 154.357 59.5363C153.966 59.7889 153.631 59.9783 153.351 60.1046C153.072 60.2307 152.838 60.2939 152.648 60.2939C152.257 60.2939 151.958 60.1594 151.751 59.8905C151.545 59.6214 151.442 59.2343 151.442 58.7294Z" fill="white" stroke="white" stroke-width="0.5"/>
</svg>
