<svg width="300" height="140" viewBox="0 0 300 140" fill="none" xmlns="http://www.w3.org/2000/svg">
<path fill-rule="evenodd" clip-rule="evenodd" d="M36.3892 43H36.5143C37.0145 43.0615 37.3271 43.3075 37.3896 43.8611V43.9841V85.0694V85.5C37.3271 89.0058 36.1391 91.835 33.9508 94.0492C31.6374 96.3864 28.6987 97.555 24.9473 97.555C21.1958 97.555 18.2571 96.3864 15.9437 94.0492C13.7554 91.835 12.6299 88.9443 12.5049 85.5V85.0694V76.0282H19.195V85.3155V85.6845C19.2575 87.3451 19.7577 88.6982 20.6956 89.6823C21.696 90.7279 23.0715 91.2814 24.8847 91.2814C26.6354 91.2814 28.0735 90.7279 29.0739 89.6823C30.0743 88.6982 30.5745 87.3451 30.637 85.6845V85.3155V69.8162V69.4472C30.5745 67.7865 30.0743 66.4334 29.0739 65.4493C28.011 64.4038 26.6354 63.8502 24.8847 63.8502C23.134 63.8502 21.696 64.4038 20.6956 65.4493C19.7577 66.4334 19.2575 67.7865 19.195 69.4472V69.5087H12.6299V69.0781C12.8175 65.8184 13.8804 63.1121 15.8187 61.021C17.9445 58.6838 20.7581 57.5152 24.322 57.5152C26.823 57.5152 28.9488 58.3763 30.5745 60.0984L30.8246 60.4059V43.9841V43.8611C30.8871 43.369 31.1372 43.0615 31.6999 43H31.8249H36.3892Z" fill="white"/>
<path fill-rule="evenodd" clip-rule="evenodd" d="M56.334 57.5153C59.9605 57.5153 62.8991 58.6839 65.15 61.021C67.4009 63.3582 68.5263 66.3105 68.5263 69.9393V85.377V85.8691C68.4638 89.2519 67.3384 92.0196 65.2125 94.1723C63.0242 96.4479 60.023 97.555 56.334 97.555C52.5826 97.555 49.5189 96.3864 47.2055 94.1108C44.8921 91.8351 43.7041 88.8213 43.7041 85.1925C43.7041 83.1014 44.2043 81.1947 45.2672 79.4726C46.3301 77.7504 47.7682 76.3973 49.6439 75.4132C51.5197 74.4291 53.6455 73.9371 56.0214 73.9371H61.8987V69.6933V69.3242C61.8362 67.7251 61.336 66.4335 60.3981 65.4494C59.3977 64.4038 58.0222 63.8503 56.2715 63.8503C54.6459 63.8503 53.3954 64.3423 52.4575 65.2649C51.5197 66.1875 51.0195 67.4791 50.9569 69.1397C50.8944 69.5087 50.8319 69.7548 50.6443 69.8778C50.5193 70.0008 50.2067 70.0623 49.894 70.0623H45.3923H45.2672C45.0171 70.0623 44.8295 69.9393 44.7045 69.7548C44.5169 69.5702 44.4544 69.3242 44.4544 69.0167C44.7045 65.6339 45.955 62.8662 48.0808 60.775C50.0816 58.5608 52.8952 57.5153 56.334 57.5153ZM61.8362 79.7801H56.209H55.8339C54.2082 79.8416 52.8952 80.3336 51.9573 81.3177C50.8944 82.3633 50.3317 83.5934 50.3317 85.131C50.3317 86.9762 50.8319 88.4523 51.8948 89.5594C52.9577 90.6665 54.3958 91.22 56.209 91.22C57.9597 91.22 59.3352 90.6665 60.3356 89.6209C61.336 88.5753 61.8362 87.1607 61.8362 85.377V79.7801Z" fill="white"/>
<path fill-rule="evenodd" clip-rule="evenodd" d="M91.4107 97.4935C92.161 97.4935 92.4736 97.1244 92.4736 96.4479V92.081C92.4736 91.4045 92.0985 91.0354 91.4107 91.0354H90.5353C86.5338 91.0354 84.533 88.5137 84.533 83.4703V63.5427H90.5353C91.2231 63.5427 91.5357 63.1737 91.5357 62.4971V58.3763C91.5357 57.6997 91.2231 57.3307 90.5353 57.3307H84.533V46.9978C84.533 46.2598 84.2204 45.8907 83.5326 45.8907H79.0308C78.2805 45.8907 77.9679 46.2598 77.9679 46.9978V57.3307H73.5912C72.9034 57.3307 72.5908 57.6997 72.5908 58.3763V62.5586C72.5908 63.2352 72.9034 63.6042 73.5912 63.6042H77.9679V83.4088C77.9679 87.8372 79.0308 91.2815 81.2192 93.8032C83.4076 96.3249 86.4087 97.555 90.2852 97.555H91.4107V97.4935Z" fill="white"/>
<path fill-rule="evenodd" clip-rule="evenodd" d="M109.918 97.6166C113.482 97.6166 116.42 96.448 118.671 94.1108C120.922 91.7736 122.048 88.7599 122.048 85.0696V58.3149C122.048 57.6383 121.672 57.3308 120.985 57.3308H116.483C115.733 57.3308 115.42 57.6383 115.42 58.3149V85.3156C115.42 87.1608 114.92 88.6369 113.982 89.744C113.044 90.8511 111.668 91.4046 109.98 91.4046C108.292 91.4046 106.917 90.8511 105.979 89.744C105.041 88.6369 104.541 87.1608 104.541 85.3156V58.3149C104.541 57.6383 104.166 57.3308 103.478 57.3308H98.976C98.2257 57.3308 97.9131 57.6383 97.9131 58.3149V85.0696C97.9131 88.7599 99.0385 91.7736 101.289 94.1108C103.415 96.448 106.354 97.6166 109.918 97.6166Z" fill="white"/>
<path fill-rule="evenodd" clip-rule="evenodd" d="M141.118 97.6167C144.682 97.6167 147.621 96.4481 149.871 94.1109C152.122 91.7738 153.248 88.76 153.248 85.0697V58.315C153.248 57.6385 152.873 57.3309 152.185 57.3309H147.683C146.933 57.3309 146.62 57.6385 146.62 58.315V85.3157C146.62 87.1609 146.12 88.637 145.182 89.7441C144.244 90.8512 142.869 91.4047 141.181 91.4047C139.492 91.4047 138.117 90.8512 137.179 89.7441C136.241 88.637 135.741 87.1609 135.741 85.3157V58.315C135.741 57.6385 135.366 57.3309 134.678 57.3309H130.051C129.301 57.3309 128.988 57.6385 128.988 58.315V85.0697C128.988 88.76 130.114 91.7738 132.365 94.1109C134.615 96.4481 137.554 97.6167 141.118 97.6167Z" fill="white"/>
<path fill-rule="evenodd" clip-rule="evenodd" d="M0 69.5085H6.62759V76.0281H0V69.5085Z" fill="white"/>
<path fill-rule="evenodd" clip-rule="evenodd" d="M200.453 85.7463V96.7557C200.453 97.4938 200.141 97.8013 199.453 97.8013H194.951C194.201 97.8013 193.888 97.4323 193.888 96.7557V85.7463H200.453ZM188.761 57.5155C192.325 57.5155 195.139 58.6841 197.265 61.0213C199.39 63.3585 200.453 66.3722 200.453 70.0625V79.2268H193.826V69.8165C193.826 68.0944 193.451 66.7413 192.7 65.6957L192.513 65.4497C191.637 64.4041 190.387 63.8505 188.761 63.8505C187.136 63.8505 185.885 64.4041 184.947 65.4497C184.009 66.4952 183.572 67.9714 183.572 69.8165V96.7557C183.572 97.4938 183.259 97.8013 182.571 97.8013H178.069C177.319 97.8013 177.007 97.4323 177.007 96.7557V69.8165C177.007 67.9714 176.569 66.4952 175.694 65.4497C174.818 64.4041 173.568 63.8505 171.942 63.8505C170.316 63.8505 169.066 64.4041 168.128 65.4497C167.19 66.4952 166.753 67.9714 166.753 69.8165V96.7557C166.753 97.4938 166.377 97.8013 165.69 97.8013H161.25C160.5 97.8013 160.188 97.4323 160.188 96.7557V70.0625C160.188 66.3722 161.25 63.3585 163.439 61.0213C165.627 58.6841 168.441 57.5155 172.005 57.5155C173.755 57.5155 175.381 57.946 176.819 58.8071C178.257 59.6682 179.445 60.7753 180.383 62.2514C181.321 60.8368 182.509 59.6682 183.947 58.8071C185.385 57.946 187.01 57.5155 188.761 57.5155Z" fill="white"/>
<path fill-rule="evenodd" clip-rule="evenodd" d="M206.706 79.1041H213.334V85.6852H206.706V79.1041Z" fill="white"/>
</svg>
