<svg width="300" height="140" viewBox="0 0 300 140" fill="none" xmlns="http://www.w3.org/2000/svg">
<path d="M6.64591 63.5296H0V55.701H6.64591V51.4605C6.64591 49.4599 6.97492 47.6984 7.63293 46.1762C8.29096 44.6105 9.19023 43.3057 10.3308 42.2619C11.4713 41.1746 12.7874 40.37 14.2789 39.8481C15.8142 39.2827 17.4592 39 19.2139 39C20.4861 39 21.5609 39.0652 22.4383 39.1957C23.3593 39.3262 24.1928 39.5002 24.9387 39.7176V47.6114C23.8857 47.22 22.6576 47.0243 21.2538 47.0243C19.2797 47.0243 17.854 47.4592 16.9767 48.3291C16.0994 49.1554 15.6607 50.5689 15.6607 52.5695V55.701H24.9387V63.5296H15.6607V88.3201H6.64591V63.5296ZM34.7431 50.3514C33.9534 50.3514 33.2076 50.1992 32.5057 49.8948C31.8478 49.5903 31.2555 49.1989 30.7291 48.7205C30.2027 48.1986 29.786 47.5897 29.4789 46.8938C29.1718 46.1979 29.0184 45.4586 29.0184 44.6757C29.0184 43.8929 29.1718 43.1535 29.4789 42.4576C29.786 41.7618 30.2027 41.1746 30.7291 40.6962C31.2555 40.1743 31.8478 39.7611 32.5057 39.4567C33.2076 39.1522 33.9534 39 34.7431 39C36.366 39 37.7259 39.5654 38.8227 40.6962C39.9633 41.7835 40.5334 43.11 40.5334 44.6757C40.5334 46.2414 39.9633 47.5897 38.8227 48.7205C37.7259 49.8078 36.366 50.3514 34.7431 50.3514ZM30.2686 55.701H39.2832V88.3201H30.2686V55.701Z" fill="white"/>
<path d="M48.6045 55.701H57.6193V59.4195C58.4966 58.1148 59.7468 57.0492 61.37 56.2228C62.993 55.3965 64.8795 54.9833 67.0288 54.9833C69.0029 54.9833 70.7795 55.3313 72.3587 56.0271C73.9381 56.723 75.2758 57.7016 76.3726 58.9628C77.4694 60.1806 78.3029 61.6593 78.8731 63.399C79.4432 65.1387 79.7284 67.0742 79.7284 69.2051V88.3201H70.7138V70.7057C70.7138 68.3572 70.2093 66.5087 69.2003 65.1605C68.2353 63.8123 66.8095 63.1381 64.9232 63.1381C62.8176 63.1381 61.0629 63.8993 59.659 65.4214C58.2992 66.9436 57.6193 69.2705 57.6193 72.4018V88.3201H48.6045V55.701Z" fill="white"/>
<path d="M130.109 70.9015C130.109 68.466 129.692 66.5739 128.859 65.2257C128.069 63.8339 126.775 63.1381 124.977 63.1381C123.046 63.1381 121.489 63.8557 120.305 65.2909C119.12 66.7263 118.484 68.9442 118.396 71.9451V88.3201H109.382V70.9015C109.382 68.466 108.965 66.5739 108.131 65.2257C107.342 63.8339 106.048 63.1381 104.249 63.1381C102.275 63.1381 100.674 63.8993 99.4458 65.4214C98.2612 66.9436 97.6691 69.2705 97.6691 72.4018V88.3201H88.6543V55.701H97.6691V59.4195C98.5464 58.1583 99.7088 57.1144 101.156 56.2881C102.648 55.4183 104.403 54.9833 106.421 54.9833C108.789 54.9833 110.829 55.527 112.54 56.6143C114.251 57.6581 115.611 59.1151 116.62 60.9852C117.146 59.9849 117.782 59.1151 118.528 58.3757C119.318 57.6363 120.173 57.0275 121.094 56.549C122.016 56.0271 122.959 55.6357 123.924 55.3747C124.933 55.1138 125.898 54.9833 126.819 54.9833C130.767 54.9833 133.794 56.2881 135.9 58.8976C138.049 61.4636 139.124 64.9648 139.124 69.4009V88.3201H130.109V70.9015Z" fill="white"/>
<path d="M161.402 89.0377C159.208 89.0377 157.169 88.581 155.282 87.6676C153.396 86.7543 151.751 85.5365 150.347 84.0143C148.987 82.4485 147.913 80.6437 147.123 78.5994C146.333 76.5118 145.938 74.3155 145.938 72.0105C145.938 69.7054 146.333 67.5308 147.123 65.4866C147.913 63.399 148.987 61.5941 150.347 60.0719C151.751 58.5062 153.396 57.2667 155.282 56.3533C157.169 55.44 159.208 54.9833 161.402 54.9833C163.683 54.9833 165.635 55.4617 167.258 56.4186C168.925 57.3319 170.132 58.3105 170.877 59.3543V55.701H179.892V88.3201H170.877V84.6667C170.132 85.7104 168.925 86.7107 167.258 87.6676C165.635 88.581 163.683 89.0377 161.402 89.0377ZM163.31 80.8828C165.81 80.8828 167.807 80.0564 169.298 78.4037C170.833 76.7076 171.601 74.5764 171.601 72.0105C171.601 69.4445 170.833 67.3351 169.298 65.6824C167.807 63.9862 165.81 63.1381 163.31 63.1381C160.81 63.1381 158.792 63.9862 157.256 65.6824C155.765 67.3351 155.019 69.4445 155.019 72.0105C155.019 74.5764 155.765 76.7076 157.256 78.4037C158.792 80.0564 160.81 80.8828 163.31 80.8828Z" fill="white"/>
<path d="M189.314 101.955V55.701H198.329V59.3543C199.075 58.3105 200.281 57.3319 201.948 56.4186C203.615 55.4617 205.589 54.9833 207.87 54.9833C210.064 54.9833 212.104 55.44 213.99 56.3533C215.876 57.2667 217.499 58.5062 218.859 60.0719C220.263 61.5941 221.36 63.399 222.149 65.4866C222.939 67.5308 223.334 69.7054 223.334 72.0105C223.334 74.3155 222.939 76.5118 222.149 78.5994C221.36 80.6437 220.263 82.4485 218.859 84.0143C217.499 85.5365 215.876 86.7543 213.99 87.6676C212.104 88.581 210.064 89.0377 207.87 89.0377C205.589 89.0377 203.615 88.581 201.948 87.6676C200.281 86.7107 199.075 85.7104 198.329 84.6667V101.955H189.314ZM205.897 80.8828C208.397 80.8828 210.393 80.0564 211.884 78.4037C213.42 76.7076 214.187 74.5764 214.187 72.0105C214.187 69.4445 213.42 67.3351 211.884 65.6824C210.393 63.9862 208.397 63.1381 205.897 63.1381C203.396 63.1381 201.378 63.9862 199.843 65.6824C198.351 67.3351 197.605 69.4445 197.605 72.0105C197.605 74.5764 198.351 76.7076 199.843 78.4037C201.378 80.0564 203.396 80.8828 205.897 80.8828Z" fill="white"/>
</svg>
