<svg width="134" height="36" viewBox="0 0 134 36" fill="none" xmlns="http://www.w3.org/2000/svg">
<mask id="mask0_278_2257" style="mask-type:alpha" maskUnits="userSpaceOnUse" x="47" y="16" width="41" height="17">
<path d="M50.2258 16.1301H47.7004V32.4183H55.8915V30.382H50.2258V16.1301Z" fill="#9417FF"/>
<path d="M61.1696 30.8346C60.0772 30.8346 59.4178 30.1559 59.4178 29.1377C59.4178 27.9611 60.1007 26.9884 62.4214 26.9884H63.4911V28.6175C63.1043 29.8388 62.3081 30.8346 61.1704 30.8346H61.1696ZM66.3571 32.4183C66.0156 31.581 65.8797 30.7215 65.8797 29.6134V24.2974C65.8797 21.8772 64.4694 20.4289 61.7158 20.4289C59.099 20.4289 57.6433 22.0126 57.5066 23.8226H59.7819C59.9187 22.6914 60.6234 22.2389 61.6025 22.2389C62.7855 22.2389 63.4911 22.9853 63.4911 24.4105V25.1801H62.0119C58.7583 25.1801 57.0292 26.7407 57.0292 29.1386C57.0292 31.2879 58.7357 32.6454 60.6243 32.6454C61.9666 32.6454 62.8081 32.306 63.5364 31.1525C63.6044 31.7635 63.7411 32.1706 63.8552 32.4192H66.3579L66.3571 32.4183Z" fill="#9417FF"/>
<path d="M75.5718 26.4235C75.5718 29.5001 74.8662 30.6082 73.0917 30.6082C72.3182 30.6082 71.4079 30.088 70.7937 28.8437V24.2287C71.3852 22.9844 72.2955 22.4642 73.0691 22.4642C74.8209 22.4642 75.5718 23.6408 75.5718 26.4235ZM77.9604 26.4012C77.9604 22.5781 76.618 20.4288 73.9106 20.4288C72.6823 20.4288 71.6126 20.949 70.7937 21.9671V16.1309H68.4043V32.419H70.7476V31.0393C71.5665 32.1028 72.6815 32.6453 73.9559 32.6453C76.618 32.6453 77.9604 30.2928 77.9604 26.4012Z" fill="#9417FF"/>
<path d="M85.5827 29.3639C85.5827 30.3366 84.8318 30.8345 83.6941 30.8345C82.465 30.8345 81.7602 30.2012 81.6008 28.7983H79.5529C79.6435 30.993 80.8046 32.6445 83.6941 32.6445C86.3336 32.6445 87.9713 31.2193 87.9713 29.2285C87.9713 24.7267 82.3517 26.061 82.3517 23.754C82.3517 22.6904 83.0573 22.238 83.9668 22.238C85.0818 22.238 85.7186 22.9167 85.8101 24.0479H87.858C87.7439 21.7177 86.243 20.428 83.9676 20.428C81.7837 20.428 79.9631 21.6946 79.9631 23.8217C79.9631 28.0072 85.5827 26.7852 85.5827 29.3639Z" fill="#9417FF"/>
</mask>
<g mask="url(#mask0_278_2257)">
<path fill-rule="evenodd" clip-rule="evenodd" d="M47.7004 16.1301H50.2258V30.382H55.8915V32.4183H47.7004V16.1301ZM59.4178 29.1378C59.4178 30.1559 60.0773 30.8346 61.1696 30.8346H61.1705C62.3081 30.8346 63.1044 29.8388 63.4911 28.6175V26.9884H62.4214C60.1008 26.9884 59.4178 27.9611 59.4178 29.1378ZM65.8797 29.6134C65.8797 30.7215 66.0157 31.5811 66.3571 32.4183L66.358 32.4192H63.8553C63.7411 32.1706 63.6044 31.7635 63.5364 31.1525C62.8082 32.306 61.9667 32.6454 60.6243 32.6454C58.7357 32.6454 57.0292 31.2879 57.0292 29.1386C57.0292 26.7407 58.7584 25.1801 62.012 25.1801H63.4911V24.4105C63.4911 22.9853 62.7855 22.2389 61.6026 22.2389C60.6235 22.2389 59.9187 22.6914 59.7819 23.8226H57.5066C57.6434 22.0126 59.099 20.4289 61.7158 20.4289C64.4694 20.4289 65.8797 21.8772 65.8797 24.2974V29.6134ZM75.5718 26.4235C75.5718 29.5001 74.8662 30.6082 73.0917 30.6082C72.3182 30.6082 71.4079 30.088 70.7937 28.8437V24.2287C71.3852 22.9844 72.2955 22.4642 73.0691 22.4642C74.8209 22.4642 75.5718 23.6408 75.5718 26.4235ZM77.9604 26.4012C77.9604 22.5781 76.618 20.4288 73.9106 20.4288C72.6823 20.4288 71.6126 20.949 70.7937 21.9671V16.1309H68.4043V32.419H70.7476V31.0393C71.5664 32.1028 72.6815 32.6453 73.9559 32.6453C76.618 32.6453 77.9604 30.2928 77.9604 26.4012ZM83.6941 30.8345C84.8318 30.8345 85.5827 30.3366 85.5827 29.3639C85.5827 28.2299 84.496 27.8309 83.2783 27.3838C81.727 26.8142 79.9631 26.1666 79.9631 23.8217C79.9631 21.6946 81.7837 20.428 83.9676 20.428C86.243 20.428 87.7439 21.7177 87.858 24.0479H85.8101C85.7186 22.9167 85.0818 22.2379 83.9668 22.2379C83.0573 22.2379 82.3517 22.6904 82.3517 23.754C82.3517 24.7165 83.3299 25.0452 84.47 25.4283C86.0626 25.9635 87.9713 26.6048 87.9713 29.2285C87.9713 31.2193 86.3336 32.6445 83.6941 32.6445C80.8046 32.6445 79.6435 30.993 79.5529 28.7983H81.6008C81.7602 30.2012 82.465 30.8345 83.6941 30.8345Z" fill="url(#paint0_linear_278_2257)"/>
</g>
<mask id="mask1_278_2257" style="mask-type:alpha" maskUnits="userSpaceOnUse" x="47" y="2" width="87" height="12">
<path d="M50.5228 7.57817C51.3014 7.79533 52.3459 8.18342 52.3459 9.18832C52.3459 9.9422 51.8232 10.3418 50.72 10.3418C49.5353 10.3418 48.8616 9.81669 48.8616 8.8572H47.7004C47.7004 10.4335 48.8616 11.3699 50.72 11.3699C52.3459 11.3699 53.5071 10.7531 53.5071 9.16602C53.5071 7.9101 52.8913 7.12154 50.8475 6.55097C49.5236 6.18518 49.1284 5.76324 49.1284 5.14643C49.1284 4.35869 49.6393 3.94748 50.6612 3.94748C51.7763 3.94748 52.3216 4.45034 52.3216 5.43212H53.4828C53.4828 4.02758 52.3912 2.92029 50.6604 2.92029C49.1276 2.92029 47.9656 3.65105 47.9656 5.15881C47.9656 6.30078 48.6393 7.05466 50.5203 7.57982L50.5228 7.57817Z" fill="white"/>
<path d="M55.3135 3.6609C55.3135 3.24969 55.6499 2.91858 56.0686 2.91858C56.4872 2.91858 56.8237 3.24969 56.8237 3.6609C56.8237 4.07211 56.4872 4.40322 56.0686 4.40322C55.6499 4.40322 55.3135 4.07211 55.3135 3.6609ZM56.6022 11.255H55.5568V5.31647H56.6022V11.2542V11.255Z" fill="white"/>
<path d="M61.1377 12.7397C60.4992 12.7397 60.1502 12.3971 59.9875 11.8835H58.8607C59.047 12.8198 59.9287 13.6538 61.1369 13.6538C62.7276 13.6538 63.622 12.6943 63.622 11.1304V5.31652H62.6118V6.01343C62.194 5.47671 61.7057 5.20258 60.928 5.20258C59.2089 5.20258 58.6283 6.584 58.6283 8.24039C58.6283 9.81669 59.4069 11.1411 60.9045 11.1411C61.6478 11.1411 62.1588 10.8786 62.5766 10.365V11.1989C62.5766 12.2154 62.0774 12.7406 61.1369 12.7406L61.1377 12.7397ZM59.6745 8.22883C59.6745 6.80117 60.1737 6.11582 61.1839 6.11582C61.8693 6.11582 62.2637 6.49235 62.5774 7.12072V9.22217C62.2754 9.85054 61.8576 10.2271 61.1721 10.2271C60.1385 10.2271 59.6737 9.47319 59.6737 8.22883H59.6745Z" fill="white"/>
<path d="M65.7422 5.31652V11.2543H66.7876V7.14384C67.0426 6.57327 67.3447 6.11582 68.0301 6.11582C68.901 6.11582 69.1686 6.6641 69.1686 7.54349V11.2551H70.214V7.54349C70.214 6.77805 70.6788 6.11582 71.4566 6.11582C72.4206 6.11582 72.5951 6.65254 72.5951 7.50881V11.2543H73.6405V7.30403C73.6405 5.89948 73.1178 5.20258 71.7703 5.20258C70.876 5.20258 70.4003 5.59066 69.9816 6.17279C69.6678 5.52213 69.2618 5.20258 68.4018 5.20258C67.6467 5.20258 67.2171 5.46515 66.7641 5.97875V5.31652H65.7422Z" fill="white"/>
<path d="M77.6407 10.4558C76.9435 10.4558 76.5718 10.1585 76.5718 9.51943C76.5718 8.83408 77.1062 8.51453 78.3949 8.51453H79.1148V9.4509C78.848 10.0446 78.29 10.4558 77.6398 10.4558H77.6407ZM80.4051 11.2551C80.2306 10.8323 80.161 10.3988 80.161 9.83898V7.1554C80.161 5.93334 79.4411 5.20258 78.0358 5.20258C76.7001 5.20258 75.841 5.92178 75.7714 7.02989H76.8168C76.8629 6.45849 77.2698 6.11665 77.9779 6.11665C78.8253 6.11665 79.1164 6.45932 79.1164 7.2132V7.60129H78.1877C76.4342 7.60129 75.5281 8.34361 75.5281 9.61109C75.5281 10.6961 76.399 11.3699 77.4796 11.3699C78.165 11.3699 78.6525 11.1188 79.1399 10.616C79.1752 10.924 79.2331 11.1296 79.291 11.2551H80.406H80.4051Z" fill="white"/>
<path d="M88.1634 7.57817C88.9412 7.79533 89.9866 8.18342 89.9866 9.18832C89.9866 9.9422 89.4639 10.3418 88.3606 10.3418C87.1759 10.3418 86.5022 9.81669 86.5022 8.8572H85.3411C85.3411 10.4335 86.5022 11.3699 88.3606 11.3699C89.9866 11.3699 91.1477 10.7531 91.1477 9.16602C91.1477 7.9101 90.5319 7.12154 88.4881 6.55097C87.1642 6.18518 86.769 5.76324 86.769 5.14643C86.769 4.35869 87.28 3.94748 88.3019 3.94748C89.4169 3.94748 89.9622 4.45034 89.9622 5.43212H91.1234C91.1234 4.02758 90.0319 2.92029 88.301 2.92029C86.7682 2.92029 85.6062 3.65105 85.6062 5.15881C85.6062 6.30078 86.2799 7.05466 88.1609 7.57982L88.1634 7.57817Z" fill="white"/>
<path d="M95.242 11.369C97.1122 11.369 97.681 10.033 97.681 8.34278V8.17186C97.681 6.37922 96.9259 5.20258 95.242 5.20258C93.5582 5.20258 92.8031 6.3784 92.8031 8.17186V8.34278C92.8031 10.033 93.3719 11.369 95.242 11.369ZM95.242 6.11582C96.3101 6.11582 96.6356 6.77805 96.6356 8.20571V8.39976C96.6356 9.78119 96.3218 10.455 95.242 10.455C94.1623 10.455 93.8485 9.78119 93.8485 8.39976V8.20571C93.8485 6.77805 94.174 6.11582 95.242 6.11582Z" fill="white"/>
<path d="M102.587 2.98711C102.378 2.9417 102.17 2.91858 101.961 2.91858C100.672 2.91858 100.08 3.6609 100.08 4.93994V5.31647H99.1039V6.22971H100.08V11.2542H101.125V6.23054H102.403V5.31729H101.125V4.9292C101.125 4.19844 101.369 3.83265 102.054 3.83265C102.239 3.83265 102.425 3.84421 102.588 3.86733V2.98794L102.587 2.98711Z" fill="white"/>
<path d="M107.147 10.341C106.984 10.3641 106.798 10.3757 106.612 10.3757C105.927 10.3757 105.683 9.97605 105.683 9.24528V6.23059H106.961V5.31734H105.683V3.71875H104.638V5.31734H103.662V6.23059H104.638V9.23372C104.638 10.5128 105.23 11.2551 106.52 11.2551C106.729 11.2551 106.938 11.232 107.147 11.1865V10.3418V10.341Z" fill="white"/>
<path d="M112.715 5.31647H111.867L110.578 9.56479L109.556 5.31647H108.453L110.102 11.255H110.961L112.274 6.94974L113.621 11.255H114.469L116.118 5.31647H115.015L114.028 9.65644L112.715 5.31647Z" fill="white"/>
<path d="M119.538 10.4558C118.841 10.4558 118.47 10.1585 118.47 9.51943C118.47 8.83408 119.005 8.51453 120.293 8.51453H121.013V9.4509C120.747 10.0446 120.189 10.4558 119.538 10.4558ZM122.303 11.2551C122.128 10.8323 122.059 10.3988 122.059 9.83898V7.1554C122.059 5.93334 121.339 5.20258 119.934 5.20258C118.598 5.20258 117.739 5.92178 117.669 7.02989H118.714C118.761 6.45849 119.168 6.11665 119.876 6.11665C120.723 6.11665 121.014 6.45932 121.014 7.2132V7.60129H120.085C118.332 7.60129 117.426 8.34361 117.426 9.61109C117.426 10.6961 118.297 11.3699 119.377 11.3699C120.063 11.3699 120.55 11.1188 121.038 10.616C121.074 10.924 121.132 11.1296 121.189 11.2551H122.305H122.303Z" fill="white"/>
<path d="M127.209 5.31652C127.07 5.24799 126.861 5.20258 126.629 5.20258C125.99 5.20258 125.549 5.53369 125.212 6.07041V5.31652H124.19V11.2543H125.235V7.22393C125.444 6.6418 125.885 6.11665 126.571 6.11665C126.815 6.11665 127.036 6.15133 127.209 6.19674V5.31735V5.31652Z" fill="white"/>
<path d="M130.862 6.11573C131.745 6.11573 132.163 6.69786 132.221 7.82827H129.504C129.631 6.73172 130.027 6.11573 130.863 6.11573H130.862ZM132.151 9.59861C131.988 10.1122 131.64 10.4549 131.001 10.4549C129.944 10.4549 129.527 9.80421 129.469 8.74234H133.278V8.23948C133.278 6.32133 132.453 5.20166 130.862 5.20166C129.387 5.20166 128.365 6.51455 128.412 8.30801V8.4905C128.412 10.1238 129.189 11.3681 131.001 11.3681C132.21 11.3681 133.092 10.5341 133.278 9.59778H132.151V9.59861Z" fill="white"/>
</mask>
<g mask="url(#mask1_278_2257)">
<path fill-rule="evenodd" clip-rule="evenodd" d="M55.3134 3.6609C55.3134 3.24969 55.6499 2.91858 56.0685 2.91858C56.4872 2.91858 56.8236 3.24969 56.8236 3.6609C56.8236 4.07211 56.4872 4.40322 56.0685 4.40322C55.6499 4.40322 55.3134 4.07211 55.3134 3.6609ZM56.6021 11.255H55.5568V5.31647H56.6021V11.2542V11.255ZM50.5228 7.57817C51.3014 7.79534 52.3459 8.18342 52.3459 9.18832C52.3459 9.9422 51.8232 10.3419 50.72 10.3419C49.5353 10.3419 48.8616 9.8167 48.8616 8.85721H47.7004C47.7004 10.4335 48.8616 11.3699 50.72 11.3699C52.3459 11.3699 53.5071 10.7531 53.5071 9.16603C53.5071 7.91011 52.8913 7.12155 50.8475 6.55098C49.5236 6.18519 49.1284 5.76324 49.1284 5.14643C49.1284 4.3587 49.6393 3.94749 50.6612 3.94749C51.7763 3.94749 52.3216 4.45035 52.3216 5.43213H53.4828C53.4828 4.02758 52.3912 2.92029 50.6604 2.92029C49.1276 2.92029 47.9656 3.65106 47.9656 5.15882C47.9656 6.30079 48.6393 7.05467 50.5203 7.57982L50.5228 7.57817ZM59.9875 11.8835C60.1502 12.3971 60.4993 12.7397 61.1377 12.7397L61.1369 12.7406C62.0774 12.7406 62.5766 12.2154 62.5766 11.1989V10.365C62.1588 10.8786 61.6478 11.1411 60.9045 11.1411C59.4069 11.1411 58.6283 9.81669 58.6283 8.24039C58.6283 6.584 59.2089 5.20258 60.928 5.20258C61.7057 5.20258 62.194 5.47671 62.6118 6.01343V5.31652H63.622V11.1304C63.622 12.6943 62.7276 13.6538 61.1369 13.6538C59.9287 13.6538 59.047 12.8198 58.8607 11.8835H59.9875ZM61.1839 6.11582C60.1737 6.11582 59.6745 6.80117 59.6745 8.22883H59.6737C59.6737 9.47319 60.1385 10.2271 61.1721 10.2271C61.8576 10.2271 62.2754 9.85054 62.5774 9.22217V7.12072C62.2637 6.49235 61.8693 6.11582 61.1839 6.11582ZM65.7422 5.31652V11.2543H66.7876V7.14384C67.0426 6.57327 67.3447 6.11582 68.0301 6.11582C68.901 6.11582 69.1686 6.6641 69.1686 7.54349V11.2551H70.214V7.54349C70.214 6.77805 70.6788 6.11582 71.4566 6.11582C72.4206 6.11582 72.5951 6.65254 72.5951 7.50881V11.2543H73.6405V7.30403C73.6405 5.89948 73.1178 5.20258 71.7703 5.20258C70.876 5.20258 70.4003 5.59066 69.9816 6.17279C69.6678 5.52213 69.2618 5.20258 68.4018 5.20258C67.6467 5.20258 67.2171 5.46515 66.7641 5.97875V5.31652H65.7422ZM76.5718 9.51943C76.5718 10.1584 76.9434 10.4557 77.6403 10.4558C78.2903 10.4556 78.8481 10.0445 79.1148 9.4509V8.51453H78.395C77.1063 8.51453 76.5718 8.83409 76.5718 9.51943ZM80.1611 9.83898C80.1611 10.3988 80.2307 10.8323 80.4052 11.2551H79.291C79.2331 11.1296 79.1752 10.924 79.14 10.616C78.6525 11.1188 78.1651 11.3699 77.4796 11.3699C76.399 11.3699 75.5281 10.6961 75.5281 9.61109C75.5281 8.34361 76.4342 7.60129 78.1877 7.60129H79.1165V7.2132C79.1165 6.45932 78.8254 6.11665 77.978 6.11665C77.2699 6.11665 76.863 6.45849 76.8168 7.02989H75.7714C75.8411 5.92178 76.7002 5.20258 78.0359 5.20258C79.4412 5.20258 80.1611 5.93334 80.1611 7.1554V9.83898ZM88.1634 7.57817C88.9412 7.79534 89.9866 8.18342 89.9866 9.18832C89.9866 9.9422 89.4639 10.3419 88.3606 10.3419C87.1759 10.3419 86.5022 9.8167 86.5022 8.85721H85.3411C85.3411 10.4335 86.5022 11.3699 88.3606 11.3699C89.9866 11.3699 91.1477 10.7531 91.1477 9.16603C91.1477 7.91011 90.5319 7.12155 88.4881 6.55098C87.1642 6.18519 86.769 5.76324 86.769 5.14643C86.769 4.3587 87.28 3.94749 88.3019 3.94749C89.4169 3.94749 89.9622 4.45035 89.9622 5.43213H91.1234C91.1234 4.02758 90.0319 2.92029 88.301 2.92029C86.7682 2.92029 85.6062 3.65106 85.6062 5.15882C85.6062 6.30079 86.2799 7.05467 88.1609 7.57982L88.1634 7.57817ZM97.681 8.34278C97.681 10.033 97.1122 11.369 95.242 11.369C93.3719 11.369 92.8031 10.033 92.8031 8.34278V8.17186C92.8031 6.3784 93.5582 5.20258 95.242 5.20258C96.9259 5.20258 97.681 6.37922 97.681 8.17186V8.34278ZM96.6356 8.20571C96.6356 6.77805 96.3101 6.11582 95.242 6.11582C94.174 6.11582 93.8485 6.77805 93.8485 8.20571V8.39976C93.8485 9.78119 94.1623 10.455 95.242 10.455C96.3218 10.455 96.6356 9.78119 96.6356 8.39976V8.20571ZM102.587 2.98711C102.378 2.9417 102.17 2.91858 101.961 2.91858C100.672 2.91858 100.08 3.6609 100.08 4.93994V5.31647H99.1039V6.22971H100.08V11.2542H101.125V6.23054H102.403V5.31729H101.125V4.9292C101.125 4.19844 101.369 3.83265 102.054 3.83265C102.239 3.83265 102.425 3.84421 102.588 3.86733V2.98794L102.587 2.98711ZM106.612 10.3757C106.798 10.3757 106.984 10.3641 107.147 10.341V10.3418V11.1865C106.938 11.232 106.729 11.2551 106.52 11.2551C105.23 11.2551 104.638 10.5128 104.638 9.23372V6.23059H103.662V5.31734H104.638V3.71875H105.683V5.31734H106.961V6.23059H105.683V9.24528C105.683 9.97604 105.927 10.3757 106.612 10.3757ZM112.715 5.31644H111.867L110.578 9.56476L109.556 5.31644H108.453L110.102 11.255H110.961L112.274 6.94971L113.621 11.255H114.469L116.118 5.31644H115.015L114.028 9.65641L112.715 5.31644ZM118.47 9.51943C118.47 10.1585 118.841 10.4558 119.538 10.4558C120.189 10.4558 120.746 10.0446 121.013 9.4509V8.51453H120.293C119.005 8.51453 118.47 8.83409 118.47 9.51943ZM122.059 9.83898C122.059 10.3988 122.128 10.8323 122.303 11.2551H121.189C121.132 11.1296 121.074 10.924 121.038 10.616C120.55 11.1188 120.063 11.3699 119.377 11.3699C118.297 11.3699 117.426 10.6961 117.426 9.61109C117.426 8.34361 118.332 7.60129 120.085 7.60129H121.014V7.2132C121.014 6.45932 120.723 6.11665 119.876 6.11665C119.167 6.11665 118.761 6.45849 118.714 7.02989H117.669C117.739 5.92178 118.598 5.20258 119.933 5.20258C121.339 5.20258 122.059 5.93334 122.059 7.1554V9.83898ZM127.209 5.31652C127.07 5.24799 126.861 5.20258 126.629 5.20258C125.99 5.20258 125.549 5.53369 125.212 6.07041V5.31652H124.19V11.2543H125.235V7.22393C125.444 6.6418 125.885 6.11665 126.571 6.11665C126.815 6.11665 127.036 6.15133 127.209 6.19674V5.31735V5.31652ZM132.221 7.82825C132.163 6.69784 131.745 6.11571 130.862 6.11571H130.863C130.027 6.11571 129.631 6.7317 129.504 7.82825H132.221ZM131.002 10.4549C131.64 10.4549 131.988 10.1122 132.151 9.59859V9.59776H133.278C133.092 10.5341 132.21 11.3681 131.002 11.3681C129.189 11.3681 128.412 10.1237 128.412 8.49048V8.30799C128.365 6.51453 129.387 5.20164 130.862 5.20164C132.453 5.20164 133.278 6.32131 133.278 8.23946V8.74232H129.469C129.527 9.80419 129.944 10.4549 131.002 10.4549Z" fill="white"/>
</g>
<defs>
<linearGradient id="paint0_linear_278_2257" x1="61.4347" y1="28.4623" x2="88.7289" y2="30.2033" gradientUnits="userSpaceOnUse">
<stop stop-color="#9417FF"/>
<stop offset="1" stop-color="#9417FF" stop-opacity="0.44"/>
</linearGradient>
</defs>
</svg>
