<svg width="28" height="27" viewBox="0 0 28 27" fill="none" xmlns="http://www.w3.org/2000/svg">
<path d="M26.5778 0.842716C24.3218 -1.37832 18.9291 1.06695 13.7209 5.1129C11.8128 3.62661 9.92444 2.38717 8.17 1.49992C4.72153 -0.244863 2.19229 -0.471684 0.856108 0.842716C-0.480078 2.15776 -0.248954 4.64633 1.52387 8.0409C2.42539 9.76629 3.68344 11.6242 5.19231 13.5001C3.68344 15.3767 2.42539 17.2346 1.52387 18.9593C-0.248954 22.3533 -0.479421 24.8425 0.856108 26.1575C1.42801 26.7204 2.21724 27.0002 3.20412 27.0002C4.52389 27.0002 6.19625 26.4987 8.16934 25.5003C9.92378 24.6124 11.8135 23.373 13.7222 21.8854C17.5745 24.8774 21.5266 26.997 24.2364 26.997C25.1898 26.997 25.9902 26.7346 26.5772 26.1569C28.8333 23.9358 26.3487 18.6272 22.2357 13.4995C26.3487 8.37241 28.8333 3.06311 26.5772 0.842069L26.5778 0.842716ZM19.5391 14.2756C18.7886 15.1241 17.9796 15.9816 17.109 16.8385C15.9954 17.9351 14.8575 18.9542 13.7216 19.8899C12.6034 18.9729 11.4635 17.959 10.325 16.8385C9.46679 15.9945 8.65523 15.1363 7.8916 14.2756H19.5391ZM7.89226 12.7247C8.65589 11.8645 9.46745 11.0064 10.325 10.1624C11.4629 9.04253 12.6027 8.02668 13.7203 7.1097C14.8562 8.04607 15.9947 9.06579 17.109 10.1624C17.9796 11.0193 18.7886 11.8768 19.5391 12.7253H7.89226V12.7247ZM24.2246 1.54192C24.7702 1.54192 25.1918 1.67245 25.4629 1.93934C26.6908 3.14841 25.0663 7.37853 21.2134 12.2678C20.2705 11.1686 19.264 10.0894 18.2232 9.0645C17.1549 8.01311 16.063 7.03216 14.9698 6.12035C18.8398 3.16715 22.3027 1.54192 24.2246 1.54192ZM2.92572 7.33135C1.57771 4.75167 1.21199 2.68572 1.97036 1.93934C2.23169 1.68215 2.65257 1.55614 3.19952 1.55614C4.23827 1.55614 5.73138 2.01043 7.44905 2.87894C9.03409 3.68089 10.7399 4.78785 12.4721 6.11582C11.3526 7.04573 10.2534 8.03831 9.21006 9.0645C8.1398 10.1178 7.1411 11.1951 6.21267 12.273C4.86335 10.5682 3.73925 8.89002 2.92506 7.33071L2.92572 7.33135ZM7.44971 24.1206C4.82921 25.4467 2.72939 25.8066 1.97102 25.0602C1.21264 24.3139 1.57837 22.2479 2.92572 19.6682C3.7399 18.1089 4.86401 16.4307 6.21333 14.726C7.14176 15.8045 8.14045 16.8811 9.21071 17.9344C10.2541 18.9613 11.3545 19.9519 12.474 20.8818C10.7413 22.2111 9.03409 23.3187 7.44905 24.12L7.44971 24.1206ZM25.4642 25.0602C24.2364 26.2693 19.9396 24.6706 14.9717 20.8786C16.065 19.9668 17.1563 18.9858 18.2246 17.9344C19.2653 16.9102 20.2718 15.831 21.2147 14.7318C25.0683 19.6217 26.6927 23.8512 25.4642 25.0596V25.0602Z" fill="white"/>
</svg>
