<svg width="181" height="100" viewBox="0 0 181 100" fill="none" xmlns="http://www.w3.org/2000/svg">
<path fill-rule="evenodd" clip-rule="evenodd" d="M37.2526 62.3772H41.3472C41.4252 62.3791 41.5028 62.3655 41.5755 62.3372C41.6482 62.3089 41.7145 62.2664 41.7707 62.2123C41.8269 62.1582 41.8718 62.0934 41.9027 62.0218C41.9337 61.9502 41.9502 61.8732 41.9512 61.7952V38.1767C41.95 38.0988 41.9334 38.0219 41.9023 37.9505C41.8712 37.8791 41.8263 37.8145 41.7701 37.7606C41.714 37.7066 41.6477 37.6643 41.5751 37.6361C41.5025 37.6078 41.4251 37.5943 41.3472 37.5962H37.2526C37.1744 37.5941 37.0966 37.6075 37.0236 37.6357C36.9506 37.6639 36.884 37.7063 36.8275 37.7604C36.771 37.8146 36.7259 37.8794 36.6946 37.9511C36.6633 38.0228 36.6466 38.1 36.6454 38.1782V47.0558C36.6454 47.3768 36.378 47.6379 36.0413 47.6379H26.9083C26.8304 47.6394 26.753 47.6255 26.6805 47.597C26.608 47.5685 26.5418 47.5261 26.4857 47.472C26.4296 47.418 26.3847 47.3534 26.3536 47.282C26.3225 47.2106 26.3057 47.1337 26.3043 47.0558V38.1782C26.3028 38.1002 26.286 38.0232 26.2548 37.9517C26.2236 37.8802 26.1785 37.8156 26.1223 37.7615C26.066 37.7074 25.9996 37.665 25.9269 37.6366C25.8542 37.6082 25.7767 37.5945 25.6987 37.5962H21.604C21.5261 37.5943 21.4485 37.6079 21.3758 37.6362C21.3031 37.6645 21.2367 37.707 21.1805 37.7611C21.1244 37.8152 21.0795 37.88 21.0485 37.9516C21.0175 38.0232 21.001 38.1002 21 38.1782V61.7952C21 62.1192 21.269 62.3772 21.604 62.3772H25.6987C25.8561 62.3802 26.0083 62.3206 26.1218 62.2114C26.2353 62.1023 26.301 61.9526 26.3043 61.7952V52.3371C26.3043 52.0161 26.5733 51.7566 26.9083 51.7566H36.0413C36.3764 51.7566 36.6454 52.0161 36.6454 52.3386V61.7952C36.6454 62.1192 36.9175 62.3772 37.2526 62.3772V62.3772ZM45.2908 47.9368C44.5342 49.3873 44.1566 51.0423 44.1566 52.8987V53.1221C44.1566 56.0954 45.0061 58.4458 46.7065 60.1748C48.4085 61.9037 50.6831 62.7674 53.5366 62.7674C56.3933 62.7674 58.6647 61.899 60.3589 60.1653C62.0562 58.4316 62.9009 56.1301 62.9009 53.2605L62.8679 51.9799C62.6712 49.3322 61.7306 47.2352 60.0427 45.6919C58.3501 44.1454 56.1699 43.373 53.5036 43.373C51.6222 43.373 49.9753 43.771 48.5548 44.5686C47.1546 45.3403 46.0173 46.5134 45.2892 47.9368H45.2908ZM50.5022 57.3288C49.7944 56.3865 49.4404 55.0304 49.4404 53.2511C49.4404 51.2547 49.7944 49.7838 50.5022 48.8304C51.2101 47.8786 52.2106 47.4019 53.5036 47.4019C54.8061 47.4019 55.8191 47.8802 56.5364 48.8398C57.2584 49.7995 57.6155 51.1461 57.6155 52.8893C57.6155 54.9297 57.2584 56.4164 56.5364 57.3461C55.8191 58.2743 54.8202 58.7384 53.5366 58.7384C52.2216 58.7384 51.2085 58.2696 50.5022 57.3288V57.3288ZM76.473 60.4784C75.2948 62.0044 73.6652 62.7674 71.5856 62.7674C69.6697 62.7674 68.2083 62.1774 67.2031 61.0054C66.1964 59.8318 65.6804 58.1154 65.6584 55.85V43.9755C65.6584 43.6404 65.9101 43.373 66.2216 43.373H69.8647C70.1778 43.373 70.4294 43.6404 70.4294 43.9755V55.688C70.4294 57.6734 71.2773 58.6645 72.973 58.6645C74.5901 58.6645 75.7038 58.0667 76.3063 56.8679V43.9755C76.3063 43.6404 76.5596 43.373 76.8726 43.373H80.5299C80.8429 43.373 81.0962 43.6404 81.0962 43.9755V61.8125C81.0962 62.146 80.8429 62.4166 80.5299 62.4166H76.6036L76.4715 60.4784H76.473ZM93.7056 55.8107C94.2924 56.1615 94.5865 56.6445 94.5865 57.2533C94.5865 57.8417 94.349 58.3152 93.8739 58.6786C93.402 59.0405 92.6989 59.2245 91.7739 59.2245C90.7798 59.2245 89.987 58.9886 89.3971 58.5166C88.804 58.0446 88.4847 57.3634 88.4422 56.4746H83.8521C83.8521 57.6041 84.1872 58.6582 84.8589 59.632C85.5258 60.6042 86.4508 61.372 87.6274 61.9289C88.8072 62.4874 90.1537 62.7674 91.6701 62.7674C93.918 62.7674 95.7458 62.2388 97.1631 61.1863C98.5804 60.1323 99.2899 58.7526 99.2899 57.0472C99.2899 54.6607 98.0126 52.9852 95.4564 52.0177C94.4637 51.6582 93.4444 51.3768 92.4079 51.176C91.2029 50.929 90.3472 50.6364 89.8391 50.2966C89.331 49.9552 89.0762 49.51 89.0762 48.9563C89.0762 48.3679 89.298 47.8849 89.7479 47.5026C90.1946 47.125 90.8254 46.9347 91.6402 46.9347C92.5888 46.9347 93.2856 47.1675 93.7324 47.6332C94.1775 48.1004 94.4025 48.692 94.4025 49.4078H99.2411C99.2411 47.619 98.5537 46.167 97.1726 45.05C95.7962 43.933 93.9542 43.373 91.6575 43.373C89.5025 43.373 87.7564 43.9283 86.4256 45.0406C85.0885 46.1528 84.42 47.5388 84.42 49.1985C84.42 52.0429 86.5751 53.9339 90.8852 54.8668C92.1782 55.1437 93.1205 55.4599 93.7056 55.8107V55.8107ZM111.141 62.7674C108.294 62.7674 105.972 61.9273 104.18 60.2456C102.39 58.5622 101.495 56.3188 101.495 53.5185V53.0356C101.495 51.1556 101.873 49.477 102.626 47.9966C103.381 46.5162 104.451 45.3741 105.835 44.5733C107.216 43.7741 108.796 43.373 110.569 43.373C113.227 43.373 115.319 44.1784 116.848 45.7925C118.374 47.4066 119.138 49.6941 119.138 52.6548V54.6969H106.759C106.925 55.9177 107.432 56.8962 108.277 57.634C109.121 58.3719 110.191 58.7416 111.486 58.7416C113.483 58.7416 115.049 58.0399 116.173 56.6492L118.725 59.3944C117.946 60.4579 116.891 61.2823 115.563 61.877C114.232 62.4701 112.761 62.7674 111.141 62.7674V62.7674ZM110.55 47.4004C109.519 47.4004 108.684 47.737 108.044 48.4072C107.404 49.079 106.993 50.0402 106.812 51.2877H114.036V50.8913C114.012 49.7775 113.699 48.9185 113.101 48.3112C112.502 47.7056 111.651 47.3988 110.55 47.3988V47.4004ZM141.073 38.3969V61.759C141.073 62.0768 141.348 62.3332 141.685 62.3332H149.149C151.43 62.3237 153.475 61.8298 155.29 60.8544C157.064 59.9152 158.528 58.4819 159.504 56.7279C160.501 54.9549 161 52.9302 161 50.6506V49.5226C161 47.243 160.492 45.2105 159.479 43.4186C158.495 41.6602 157.025 40.2234 155.244 39.2811C153.434 38.3057 151.386 37.8211 149.092 37.8211H141.683C141.347 37.8211 141.071 38.0791 141.071 38.3953L141.073 38.3969ZM146.445 58.2775V41.9146H149.094C151.208 41.9146 152.812 42.558 153.909 43.8418C155.01 45.1255 155.556 47.0133 155.556 49.5084V50.8032C155.534 53.2055 154.966 55.0493 153.857 56.3409C152.748 57.6325 151.14 58.2759 149.043 58.2759H146.445V58.2775ZM133.351 37.8227H136.659C137.269 37.8227 137.76 38.3057 137.76 38.9003V61.2555C137.759 61.3986 137.729 61.5401 137.673 61.6717C137.617 61.8033 137.535 61.9226 137.433 62.0227C137.331 62.1228 137.21 62.2017 137.077 62.255C136.944 62.3083 136.802 62.3349 136.659 62.3332H133.351C133.208 62.3349 133.066 62.3083 132.933 62.255C132.8 62.2018 132.679 62.1229 132.576 62.0228C132.474 61.9227 132.392 61.8035 132.336 61.6718C132.28 61.5402 132.25 61.3987 132.248 61.2555V38.9003C132.248 38.3057 132.742 37.8227 133.349 37.8227H133.351ZM123.976 55.3073C123.433 55.7965 123.162 56.4337 123.162 57.2187C123.162 57.9943 123.43 58.622 123.964 59.1066C124.502 59.5895 125.185 59.8302 126.013 59.8302C126.853 59.8302 127.54 59.5895 128.076 59.1066C128.611 58.622 128.882 57.9943 128.882 57.2187C128.882 56.4337 128.61 55.7965 128.067 55.3073C127.524 54.818 126.84 54.5742 126.013 54.5742C125.195 54.5742 124.518 54.818 123.974 55.3073H123.976ZM123.976 43.4799C123.433 43.9676 123.162 44.6063 123.162 45.3914C123.162 46.1654 123.43 46.7947 123.964 47.2776C124.502 47.7622 125.185 48.0029 126.013 48.0029C126.853 48.0029 127.54 47.7622 128.076 47.2776C128.611 46.7947 128.882 46.1654 128.882 45.3898C128.882 44.6063 128.61 43.9692 128.067 43.4799C127.524 42.9907 126.84 42.7468 126.013 42.7468C125.195 42.7468 124.518 42.9907 123.974 43.4799H123.976Z" fill="white"/>
</svg>
