<svg width="136" height="76" viewBox="0 0 136 76" fill="none" xmlns="http://www.w3.org/2000/svg">
<g>
<path d="M52.2388 51.9866L55.1419 48.107L56.4263 47.887V46.4619H51.7373V47.887L52.4411 47.9838L50.1626 51.2916H49.1333V48.1333L50.3385 47.887V46.4619H45.5V47.887L46.7668 48.1333V56.6228L45.5 56.8603V58.2855H50.3385V56.8603L49.1333 56.6228V53.3502H50.4617L52.7314 56.7636L52.0012 56.8603V58.2855H56.6902V56.8603L55.5026 56.658L52.2388 51.9866Z" fill="white"/>
<path d="M65.1093 46.4619H62.6812L59.0831 56.746L58.2385 56.8691V58.2943H62.2677V56.8691L61.4496 56.7196L61.9686 55.0921H65.8043L66.3233 56.7196L65.5051 56.8691V58.2943H69.5343V56.8691L68.6898 56.746L65.1181 46.4619H65.1093ZM62.5228 53.3502L63.8512 49.1802H63.904L65.2324 53.3502H62.5228Z" fill="white"/>
<path d="M78.015 46.4619H75.5869L71.9888 56.746L71.1443 56.8691V58.2943H75.1735V56.8691L74.3553 56.7196L74.8744 55.0921H78.71L79.2291 56.7196L78.4109 56.8691V58.2943H82.4401V56.8691L81.5955 56.746L78.0238 46.4619H78.015ZM75.4286 53.3502L76.757 49.1802H76.8098L78.1382 53.3502H75.4286Z" fill="white"/>
<path d="M89.3547 51.3972C88.4485 51.1069 87.8063 50.8342 87.4368 50.579C87.0673 50.3239 86.8826 49.9896 86.8826 49.5937C86.8826 49.1627 87.0585 48.8108 87.4104 48.5293C87.7623 48.2565 88.2638 48.1158 88.9148 48.1158C89.3547 48.1158 89.7769 48.1598 90.1728 48.2653C90.5687 48.3621 90.8678 48.4765 91.0701 48.6084L91.3781 50.2359H93.1551V47.8167C92.6449 47.3592 92.0203 46.9897 91.2725 46.717C90.5247 46.4443 89.6978 46.3035 88.7916 46.3035C87.56 46.3211 86.5395 46.629 85.7301 47.2448C84.9208 47.8519 84.5161 48.6348 84.5161 49.5937C84.5161 50.5526 84.8768 51.3268 85.5982 51.8811C86.3196 52.4353 87.3753 52.9191 88.7828 53.3238C89.5922 53.5701 90.1552 53.8253 90.4719 54.1068C90.7974 54.3795 90.9558 54.749 90.9558 55.2064C90.9558 55.6639 90.7886 56.007 90.4455 56.2709C90.1112 56.5348 89.6098 56.6668 88.9588 56.6668C88.4573 56.6668 87.9999 56.6052 87.5952 56.4733C87.1905 56.3413 86.865 56.183 86.6275 55.9894L86.3724 54.3091H84.5337V56.7812C85.0352 57.309 85.6686 57.7137 86.4251 58.0128C87.1817 58.3119 88.0263 58.4615 88.9588 58.4615C90.2696 58.4615 91.3253 58.1712 92.1258 57.5817C92.9264 56.9923 93.3311 56.2006 93.3311 55.1889C93.3311 54.1772 92.9968 53.4382 92.3194 52.84C91.642 52.2417 90.6567 51.7667 89.3459 51.406L89.3547 51.3972Z" fill="white"/>
<path d="M71.5401 36.9167L71.9711 37.1367L72.1559 37.2422L72.3406 37.3566L72.7189 37.6117L73.0884 37.902L73.4227 38.1923L73.7394 38.5179L74.0297 38.8434L74.32 39.2216L74.4344 39.3976L74.5752 39.5999L74.6807 39.7847L74.7863 39.9694L75.0062 40.4093L75.0854 40.594L75.1734 40.7964L75.3317 41.2362L75.3845 41.4474L75.4461 41.6673L75.5429 42.116L75.6132 42.5646L75.6308 42.7846L75.6484 43.0309L75.6572 43.242V43.4004H80.5925L94.5276 43.1101L94.5188 42.5822L76.7305 42.9517L94.4572 41.4562L94.4132 40.9371L76.6777 42.4327L94.2812 39.8199L94.2372 39.5559L94.2021 39.3008L76.5985 41.9224L93.9997 38.1923L93.9469 37.9372L93.8941 37.6821L76.493 41.4122L93.6214 36.5824L93.5511 36.3273L93.4807 36.081L76.3698 40.9019L93.1376 35.0077L92.9616 34.5151L76.1939 40.4093L92.557 33.4594L92.4514 33.2218L92.3546 32.9755L75.9739 39.9342L91.8796 31.955L91.7564 31.7175L91.642 31.4888L75.754 39.4592L91.1054 30.4947L90.9734 30.2659L90.8415 30.046L75.4813 39.0105L90.2432 29.0871L89.9529 28.656L75.1822 38.5882L89.2931 27.7411L89.1348 27.53L88.9764 27.3276L74.8919 38.1572L88.255 26.4479L87.9119 26.0608L74.5312 37.7789L87.1466 25.2338L86.7771 24.8644L74.1705 37.4006L85.9589 24.0902L85.7566 23.9142L85.5631 23.7383L73.7658 37.0663L84.6921 23.0257L84.4898 22.8586L84.2874 22.7002L73.3611 36.732L83.3725 22.0316L82.9414 21.7413L72.9213 36.4505L81.9913 21.1343L81.7626 21.0023L81.5427 20.8704L72.4726 36.1778L80.5486 20.3249L80.0823 20.0874L72.0151 35.9314L79.0618 19.6123L78.5868 19.4012L71.5313 35.7291L77.5311 18.9877L77.0472 18.8118L71.0386 35.5619L75.9651 18.4687L75.4637 18.3191L70.5372 35.4036L74.3728 18.0464L74.1177 17.9848L73.8626 17.932L70.0269 35.3068L72.7541 17.7209L72.2351 17.6417L69.5167 35.21L71.1178 17.501L70.8539 17.4834L70.5988 17.457L68.9976 35.1661L69.4727 17.3954L68.9448 17.3778L68.4698 35.1573L67.8188 17.3778L67.2997 17.4042L67.9507 35.1749L66.1737 17.4746L65.6546 17.5274L67.4317 35.2452L64.5286 17.6769L64.0183 17.7649L66.9127 35.3156L62.9099 17.9848L62.3996 18.0992L66.4112 35.4388L61.3087 18.3895L61.0624 18.4687L60.8073 18.5391L65.9098 35.5795L59.7428 18.8997L59.2502 19.0757L65.4171 35.7555L58.2033 19.5068L57.9658 19.6123L57.7282 19.7179L64.9421 35.9754L56.7077 20.2018L56.479 20.3249L56.2503 20.4481L64.4846 36.2217L55.265 21.0023L55.0362 21.1343L54.8163 21.275L64.0271 36.4857L53.875 21.8821L53.4439 22.1812L63.6137 36.8024L52.5378 22.8586L52.3354 23.0169L52.1243 23.1841L63.1738 37.0927L51.271 23.9142L50.8751 24.2573L62.8219 37.4798L50.0657 25.0491L49.705 25.4186L62.4436 37.8317L48.9397 26.2543L48.7725 26.4479L48.5966 26.6502L62.1093 38.2363L47.8928 27.53L47.7344 27.7411L47.5761 27.9434L61.775 38.641L46.9251 28.8672L46.7843 29.0871L46.6436 29.307L61.5023 39.0897L46.0541 30.2659L45.9222 30.4947L45.7902 30.7234L61.2384 39.5383L45.2624 31.7175L45.0336 32.1838L61.0008 40.0046L44.5674 33.213L44.4706 33.4594L44.3738 33.6969L60.7985 40.4797L43.978 34.7526L43.89 34.9989L43.802 35.2452L60.6577 40.9899L43.4765 36.3273L43.4061 36.5824L43.3357 36.8288L60.517 41.4914L43.0806 37.9284L42.9751 38.4387L60.4114 42.0016L42.7815 39.5559L42.7463 39.8111L42.7111 40.075L60.3498 42.5206L42.5968 41.1922L42.5704 41.4562L42.5528 41.7113L60.2883 43.0397L42.5 42.8461V43.3652L45.4031 43.4004H61.3703V43.0749L61.3879 42.8549L61.4055 42.635L61.4671 42.1863L61.5639 41.7377L61.6782 41.2978L61.819 40.8843L62.0037 40.4445L62.1005 40.2509L62.1885 40.0574L62.4172 39.6615L62.6811 39.2568L62.8043 39.0897L62.9539 38.8961L63.0946 38.7378L63.2178 38.5882L63.5697 38.2275L63.8864 37.9372L64.0711 37.7965L64.2559 37.6469L64.4318 37.5237L64.6341 37.383L65.0124 37.1543L65.206 37.0575L65.3995 36.9607L65.8218 36.7672L66.2617 36.6088L66.6927 36.4769L66.9039 36.4241L67.1326 36.3713L67.3525 36.3361L67.5549 36.3097L68.0299 36.2569L68.2499 36.2481L68.4698 36.2393L68.9448 36.2569L69.156 36.2745L69.3847 36.2921L69.6047 36.3273L69.8246 36.3625L70.0533 36.4153L70.2645 36.4593L70.7219 36.5912L70.9243 36.6616L71.1354 36.7408L71.3465 36.8288L71.5401 36.9167Z" fill="white"/>
</g>
</svg>
