<svg width="181" height="100" viewBox="0 0 181 100" fill="none" xmlns="http://www.w3.org/2000/svg">
<path d="M62.6151 46.3085C62.3074 45.844 61.8459 45.6892 61.2305 45.6892H60.4612C60.1536 45.6892 59.8458 45.6892 59.5382 45.0698C59.2305 44.6054 59.0766 43.986 59.0766 43.057V24.0128C59.0766 23.3935 58.9228 22.929 58.4613 22.6193C58.1535 22.1548 57.6921 22 57.0767 22C56.4613 22 55.9997 22.1548 55.692 22.6193C55.2305 22.929 55.0766 23.3935 55.0766 24.0128V43.2119C55.0766 45.0698 55.5382 46.6182 56.4613 47.8568C57.5381 49.0955 58.7689 49.7148 60.3074 49.7148H60.769C61.3844 49.7148 61.8459 49.56 62.3074 49.2503C62.7689 48.9406 62.9228 48.3214 62.9228 47.8568C63.0767 47.0827 62.9228 46.6182 62.6151 46.3085Z" fill="white"/>
<path fill-rule="evenodd" clip-rule="evenodd" d="M81.8463 39.341C81.8463 39.9603 81.6924 40.4248 81.2309 40.7345C80.9232 41.0442 80.4617 41.199 79.8463 41.199H67.077C67.3847 42.4376 68.0001 43.5214 68.9231 44.4505C70.0001 45.5343 71.3847 45.9987 73.2309 45.9987C74.0001 45.9987 74.7693 45.8439 75.3847 45.6891C76.154 45.3795 76.7694 45.0698 77.077 44.7601C77.8462 44.1408 78.7693 44.1408 79.5385 44.6052C80.0001 45.0698 80.1539 45.5343 80.1539 45.9987C80.1539 46.4633 80.0001 46.9277 79.5385 47.2374C78.7693 47.8568 77.6924 48.476 76.4616 48.9406C75.2309 49.405 74.0001 49.5599 72.9231 49.5599C71.077 49.5599 69.2308 49.0954 67.6923 48.3212C66.1539 47.5471 64.9232 46.3084 64.1539 44.7601C63.2308 43.2118 62.9231 41.5086 62.9231 39.6507C62.9231 37.7927 63.3847 35.9347 64.1539 34.5412C64.9232 32.9929 66.1539 31.7543 67.5385 30.9801C69.2308 30.0511 70.9232 29.7415 72.7693 29.7415C74.6155 29.7415 76.154 30.206 77.5386 30.9801C78.9232 31.7543 80.0001 32.9929 80.7693 34.3864C81.5386 35.9347 81.8463 37.6378 81.8463 39.341ZM68.9231 34.8509C68.1539 35.6251 67.5385 36.554 67.2309 37.7927H77.8462C77.5386 36.554 77.077 35.6251 76.3078 34.8509C75.3847 33.922 74.1539 33.4574 72.6155 33.4574C71.2308 33.4574 69.8462 33.922 68.9231 34.8509Z" fill="white"/>
<path fill-rule="evenodd" clip-rule="evenodd" d="M119.077 30.9802C120.616 31.9092 121.847 33.1478 122.77 34.5413C123.693 36.0896 124.154 37.7927 124.154 39.6507V47.5471C124.154 48.1665 124 48.6309 123.539 48.9406C123.231 49.2503 122.616 49.5599 122.154 49.5599C121.693 49.5599 121.077 49.405 120.77 48.9406C120.308 48.6309 120.154 48.0116 120.154 47.5471V47.3923C119.539 47.8568 118.924 48.3212 118.154 48.7858C116.924 49.405 115.385 49.7147 113.847 49.7147C112 49.7147 110.308 49.2503 108.924 48.3212C107.385 47.3923 106.308 46.1536 105.385 44.7601C104.462 43.2119 104.154 41.5087 104.154 39.6507C104.154 37.7927 104.616 36.0896 105.539 34.5413C106.462 32.9929 107.693 31.7543 109.231 30.9802C110.77 30.0512 112.462 29.5867 114.308 29.5867C115.847 29.7415 117.539 30.206 119.077 30.9802ZM117.077 34.2316C116.154 33.6123 115.077 33.4575 114 33.4575C112.924 33.4575 111.847 33.7672 110.924 34.2316C110 34.851 109.231 35.4702 108.77 36.5541C108.308 37.4831 108 38.5669 108 39.8056C108 41.0442 108.308 42.1281 108.77 43.057C109.231 43.986 110 44.7601 110.924 45.2246C111.847 45.844 112.924 45.9988 114 45.9988C115.077 45.9988 116.154 45.6892 117.077 45.2246C118 44.6054 118.77 43.986 119.231 43.057C119.693 42.1281 120 41.0442 120 39.8056C120 38.5669 119.693 37.4831 119.231 36.5541C118.77 35.6251 118 34.851 117.077 34.2316Z" fill="white"/>
<path d="M133.076 46.3085C132.769 45.844 132.307 45.6892 131.692 45.6892H130.922C130.615 45.6892 130.307 45.6892 129.999 45.0698C129.692 44.6054 129.538 43.986 129.538 43.057V24.0128C129.538 23.3935 129.384 22.929 128.923 22.6193C128.461 22.1548 127.999 22 127.538 22C126.922 22 126.461 22.1548 126.153 22.6193C125.692 22.929 125.538 23.5483 125.538 24.0128V43.2119C125.538 45.0698 125.999 46.6182 126.922 47.8568C127.999 49.0955 129.23 49.7148 130.769 49.7148H131.23C131.846 49.7148 132.307 49.56 132.769 49.2503C133.23 48.9406 133.384 48.3214 133.384 47.8568C133.538 47.0827 133.384 46.6182 133.076 46.3085Z" fill="white"/>
<path d="M59.077 61.9463C58.3078 60.5529 57.2309 59.4691 55.8463 58.6949C54.4616 57.9208 52.9232 57.6111 51.2309 57.6111C49.8462 57.6111 48.6155 57.9208 47.5386 58.3852C46.9232 58.6949 46.3078 59.0046 45.8462 59.4691C45.8462 59.1594 45.5385 58.6949 45.3847 58.54C45.077 58.2304 44.4616 57.9208 44.0001 57.9208C43.3847 57.9208 42.9232 58.0756 42.6155 58.54C41.8462 58.6949 41.6924 59.3143 41.6924 59.7787V75.5715C41.6924 76.1908 41.8462 76.6553 42.3078 76.965C42.6155 77.2746 43.2309 77.5843 43.6924 77.5843C44.3078 77.5843 44.7693 77.4295 45.077 76.965C45.3847 76.6553 45.6924 76.1908 45.6924 75.5715V65.6623C45.6924 64.8882 45.8462 64.2688 46.3078 63.4947C46.7693 62.8754 47.3847 62.4108 48.1539 61.9463C48.9232 61.6367 49.8462 61.327 50.7693 61.327C52.4616 61.327 53.6924 61.7916 54.6155 62.7205C55.6924 63.8043 56.1539 65.043 56.1539 66.9009V75.5715C56.1539 76.1908 56.3078 76.6553 56.7693 76.965C57.0771 77.2746 57.6924 77.5843 58.154 77.5843C58.7694 77.5843 59.2308 77.4295 59.5386 76.965C59.8462 76.6553 60.154 76.036 60.154 75.5715V66.9009C60.154 64.8882 59.8462 63.3398 59.077 61.9463Z" fill="white"/>
<path fill-rule="evenodd" clip-rule="evenodd" d="M76.6153 59.0048C78.1538 59.9338 79.3846 61.0176 80.3077 62.5658C81.2308 64.1141 81.6923 65.8173 81.6923 67.6753C81.6923 69.5333 81.2308 71.2364 80.4616 72.7847C79.5384 74.333 78.3077 75.5716 76.7693 76.3459C75.2308 77.2748 73.5384 77.5845 71.5385 77.5845C69.6923 77.5845 67.8462 77.12 66.3076 76.3459C64.7692 75.4169 63.5385 74.333 62.6153 72.7847C61.6922 71.2364 61.3846 69.5333 61.3846 67.6753C61.3846 65.8173 61.8461 64.1141 62.6153 62.5658C63.5385 61.0176 64.7692 59.7789 66.3076 59.0048C67.8462 58.0757 69.5385 57.7661 71.5385 57.7661C73.3846 57.6113 75.0769 58.0757 76.6153 59.0048ZM68.3077 73.2492C69.2307 73.8685 70.3077 74.0234 71.3846 74.0234C72.6154 74.0234 73.6923 73.7137 74.4615 73.2492C75.3846 72.7847 76.1539 72.0105 76.6153 71.0815C77.0769 70.1526 77.3846 69.0688 77.3846 67.8301C77.3846 66.5915 77.0769 65.5076 76.6153 64.5787C76.1539 63.6497 75.3846 62.8755 74.4615 62.4111C73.5384 61.9465 72.4615 61.6368 71.3846 61.6368C70.3077 61.6368 69.2307 61.9465 68.3077 62.4111C67.3846 63.0303 66.6154 63.6497 66.1538 64.5787C65.6923 65.5076 65.3846 66.5915 65.3846 67.8301C65.3846 69.0688 65.6923 70.1526 66.1538 71.0815C66.6154 71.8558 67.3846 72.6299 68.3077 73.2492Z" fill="white"/>
<path fill-rule="evenodd" clip-rule="evenodd" d="M101.693 34.6961C100.77 33.1478 99.6933 31.9092 98.1548 30.9802C96.6164 30.0512 94.9241 29.5867 93.078 29.5867C91.078 29.7415 89.3857 30.0512 87.8471 30.9802C86.3087 31.9092 85.078 32.9929 84.1548 34.5413C83.2317 36.0896 82.7703 37.7927 82.7703 39.6507C82.7703 41.5087 83.2317 43.2119 84.001 44.7601C84.7702 46.3085 86.001 47.5471 87.5395 48.4761C89.0779 49.405 90.6164 49.8696 92.4626 49.8696C94.001 49.8696 95.5395 49.5599 96.7702 48.9406C97.5394 48.6309 98.1548 48.1665 98.7702 47.5471V59.9337C98.1548 59.4691 97.5394 59.0046 96.7702 58.5402C95.5395 57.9208 94.001 57.6112 92.4626 57.6112C90.6164 57.6112 88.9241 58.0756 87.5395 59.0046C86.001 59.9337 84.9241 61.1722 84.001 62.5657C83.0779 64.1141 82.7703 65.8173 82.7703 67.6752C82.7703 69.5331 83.2317 71.2363 84.1548 72.7847C85.078 74.3329 86.3087 75.5716 87.8471 76.3458C89.3857 77.2747 91.078 77.7392 92.9241 77.7392C94.7703 77.7392 96.4626 77.2747 98.001 76.3458C99.5395 75.4167 100.77 74.1781 101.693 72.7847C102.616 71.2363 103.078 69.5331 103.078 67.6752V39.8056C102.924 37.9476 102.463 36.2445 101.693 34.6961ZM92.7702 33.4575C94.001 33.4575 95.0779 33.7672 96.001 34.3864C96.9241 35.0058 97.6934 35.7799 98.1548 36.7089C98.6164 37.638 98.9241 38.7218 98.9241 39.9604C98.9241 40.27 98.9241 40.4249 98.9241 40.5797C98.9241 40.7346 98.9241 40.7346 98.9241 40.8894C98.7702 42.4376 98.001 43.6763 96.9241 44.7601C95.8472 45.6892 94.4625 46.1536 92.9241 46.1536H92.7702C91.5394 46.1536 90.6164 45.844 89.6933 45.3795C88.7703 44.7601 88.001 43.986 87.5395 43.057C87.0779 42.1281 86.7702 41.0442 86.7702 39.8056C86.7702 38.5669 87.0779 37.4831 87.6933 36.5541C88.3087 35.6251 88.9241 34.851 90.001 34.3864C90.7702 33.7672 91.6934 33.4575 92.7702 33.4575ZM98.1548 70.7718C98.6164 69.8428 98.9241 68.759 98.9241 67.5203C98.9241 67.2107 98.9241 67.0559 98.9241 66.9011C98.9241 66.7462 98.9241 66.7462 98.9241 66.5914C98.7702 65.043 98.001 63.8044 96.9241 62.7206C95.8472 61.6368 94.4625 61.1722 92.9241 61.1722C91.6934 61.1722 90.7702 61.4819 89.8471 61.9464C88.9241 62.4109 88.1549 63.1851 87.6933 64.1141C87.2318 65.043 86.9241 66.1268 86.9241 67.3655C86.9241 68.6042 87.2318 69.688 87.6933 70.6169C88.1549 71.546 88.9241 72.3201 89.8471 72.9394C90.7702 73.5588 91.8472 73.7136 92.9241 73.7136C94.001 73.7136 95.0779 73.4039 96.001 72.9394C96.9241 72.475 97.6934 71.7008 98.1548 70.7718Z" fill="white"/>
<path fill-rule="evenodd" clip-rule="evenodd" d="M122.769 67.3657C122.769 67.9849 122.616 68.4495 122.154 68.7591C121.846 69.0687 121.385 69.2236 120.77 69.2236H108C108.308 70.4622 108.923 71.5461 109.846 72.475C110.923 73.5588 112.308 74.0234 114.154 74.0234C114.923 74.0234 115.693 73.8685 116.308 73.7137C117.077 73.4041 117.693 73.0944 118 72.7847C118.77 72.1654 119.693 72.1654 120.462 72.6299C120.923 73.0944 121.077 73.5588 121.077 74.0234C121.077 74.4879 120.923 74.9523 120.462 75.262C119.693 75.8813 118.616 76.5007 117.385 76.9651C116.154 77.4296 114.923 77.5845 113.846 77.5845C112 77.5845 110.154 77.12 108.616 76.3458C107.077 75.5717 105.846 74.3331 105.077 72.7847C104.154 71.2364 103.846 69.5333 103.846 67.6752C103.846 65.8173 104.308 63.9594 105.077 62.5659C105.846 61.0175 107.077 59.7789 108.462 59.0048C109.846 58.0758 111.539 57.7661 113.385 57.7661C115.231 57.7661 116.769 58.2305 118.154 59.0048C119.539 59.7789 120.616 61.0175 121.385 62.411C122.462 63.8045 122.769 65.5076 122.769 67.3657ZM109.846 62.7207C109.077 63.4948 108.462 64.4238 108.154 65.6625H118.77C118.462 64.4238 118 63.4948 117.231 62.7207C116.308 61.7917 115.077 61.3272 113.539 61.3272C112.154 61.3272 110.923 61.7917 109.846 62.7207Z" fill="white"/>
<path d="M138.308 67.8299C137.231 66.9009 135.385 66.1268 132.769 65.6623C130.769 65.3527 129.692 64.8882 129.385 64.5785C128.923 64.2688 128.615 63.8043 128.615 63.185C128.615 62.8754 128.769 62.4108 129.385 61.7916C130 61.327 130.923 61.1722 132 61.1722C133.692 61.1722 135.077 61.6367 136 62.8754C136.462 63.3398 137.077 63.6495 137.692 63.6495C138.154 63.6495 138.462 63.4947 138.769 63.3398C139.385 63.0302 139.692 62.4108 139.692 61.7916C139.692 61.4819 139.539 61.0173 139.385 60.7078C138.615 59.7787 137.692 59.0046 136.462 58.3852C135.231 57.7659 133.846 57.6111 132.308 57.6111C130.308 57.6111 128.462 58.0756 127.077 59.0046C125.692 60.0884 124.923 61.4819 124.923 63.3398C124.923 64.7333 125.539 66.1268 126.769 67.0558C128 67.9847 129.692 68.759 132 69.0686C133.539 69.3782 134.769 69.6879 135.385 70.1524C136 70.6169 136.308 71.0814 136.308 71.5459C136.308 72.1652 136 72.6297 135.385 73.0942C134.769 73.5587 133.692 73.7135 132.308 73.7135C131.385 73.7135 130.462 73.5587 129.539 73.2491C128.769 72.9394 128.154 72.4748 127.692 72.0104C126.923 71.2363 125.846 71.0814 124.923 71.7007C124.308 72.1652 124.154 72.7845 124.154 73.2491C124.154 73.7135 124.308 74.0232 124.615 74.4877C125.539 75.4167 126.615 76.1908 128 76.6553C129.385 77.1199 130.769 77.4295 132.308 77.4295C133.846 77.4295 135.077 77.1199 136.308 76.6553C137.539 76.1908 138.462 75.4167 139.231 74.4877C140 73.5586 140.308 72.4748 140.308 71.2363C140.154 70.1524 139.539 68.9137 138.308 67.8299Z" fill="white"/>
</svg>
