<svg width="142" height="38" viewBox="0 0 142 38" xmlns="http://www.w3.org/2000/svg">
    <path d="M49.569 32.21c.453 0 1.162.13 1.418.251v.638h-.066c-.297-.097-.931-.226-1.352-.226h-.19c-.774 0-1.228.283-1.228.977 0 .546.31.746.714.884l.193.06.8.227c.634.178 1.385.5 1.385 1.671 0 1.042-.767 1.704-2.061 1.704h-.256c-.279 0-.656-.048-.982-.106l-.304-.06a3.122 3.122 0 0 1-.321-.084v-.662h.066c.313.089 1.063.25 1.541.25h.256c.775 0 1.294-.283 1.294-1.042 0-.617-.302-.835-.798-.979l-.941-.248-.192-.059c-.553-.19-1.16-.595-1.16-1.556 0-.977.766-1.64 1.995-1.64h.189zm24.929 1.704v4.418h-.71v-.824l-.32.315c-.33.315-.71.573-1.287.573-.709 0-1.286-.444-1.286-1.518v-.694c0-1.39 1.154-2.27 2.383-2.27h1.22zm6.967-.064c.898 0 1.541.38 1.541 1.268 0 .783-.51 1.26-1.41 1.26h-1.351v.25c0 .824.51 1.139 1.22 1.139.358 0 .72-.095.97-.183l.183-.07.067-.03h.066v.63c-.19.089-.775.282-1.286.282-1.097 0-1.93-.508-1.93-1.768v-.88c0-1.204.833-1.898 1.93-1.898zm-27.106 0c1.385 0 1.962.888 1.962 2.213 0 1.445-.643 2.333-1.962 2.333-1.385 0-1.962-.888-1.962-2.333 0-1.325.643-2.213 1.962-2.213zm5.623-1.575v.63h-.51c-.578 0-.776.25-.776.824v.185h1.163v.63h-1.163v3.788h-.709v-3.788h-.709v-.63h.71v-.185c0-.953.585-1.454 1.483-1.454h.511zm2.009.63v1.01h1.286v.63H61.99v2.147c0 .816.255 1.01.964 1.01h.454v.63h-.577c-.965 0-1.55-.444-1.55-1.518v-2.27h-.71v-.63h.71v-1.009h.709zm3.083 1.01v1.138c0 1.26.412 2.302.8 2.77.388-.468.808-1.51.808-2.77v-1.138h.709v1.138c0 1.26.42 2.302.808 2.77.379-.468.8-1.51.8-2.77v-1.138h.708v1.138c0 1.51-.643 2.835-1.096 3.279h-.767c-.23-.25-.709-1.042-.808-1.518-.099.476-.577 1.267-.808 1.518h-.766c-.454-.444-1.097-1.769-1.097-3.279v-1.138h.71zm11.93 0v.977l.066-.097c.339-.509.734-.88 1.32-.88h.288v.758h-.322a1.25 1.25 0 0 0-.84.316l-.511.5v2.843h-.71v-4.417h.71zM19.334 0 19.419 0c.086 0 .175.004.265.013l.184.025.189.039c1.277.309 2.877 1.652 4.21 5.752.657 2.02 1.145 4.418 1.443 7.03 2.666.292 5.114.77 7.177 1.413 3.688 1.152 5.191 2.506 5.712 3.668l.078.192c.046.126.081.25.107.37l.03.18c.004.029.008.058.01.087l.012.17.002.084-.002.083-.011.17-.024.176a2.66 2.66 0 0 1-.124.461l-.078.192c-.101.226-.24.46-.424.697l-.17.204c-.634.72-1.704 1.47-3.45 2.175l-.518.2c-.357.132-.74.263-1.15.39-2.063.645-4.511 1.123-7.177 1.414-.298 2.613-.786 5.01-1.443 7.03-1.333 4.1-2.933 5.444-4.21 5.753l-.19.04-.183.024c-.06.006-.12.01-.178.012l-.087.001c-.086 0-.174-.004-.265-.013l-.184-.025-.189-.039c-1.277-.309-2.877-1.652-4.21-5.752-.658-2.02-1.145-4.418-1.443-7.031-2.667-.29-5.114-.769-7.178-1.413-.41-.128-.792-.259-1.15-.391l-.517-.2C1.206 21.94.227 20.554.037 19.452l-.024-.176-.012-.17v-.167l.012-.17.01-.088.031-.178c.265-1.268 1.593-2.887 5.896-4.23 2.064-.644 4.511-1.122 7.178-1.414.298-2.612.785-5.01 1.442-7.03 1.334-4.1 2.934-5.443 4.211-5.752l.19-.04.183-.024c.06-.006.12-.01.179-.012zM54.359 34.48c-.964 0-1.253.606-1.253 1.583s.289 1.704 1.253 1.704c.965 0 1.253-.727 1.253-1.704s-.288-1.583-1.253-1.583zm19.43.064h-.511c-.973 0-1.674.63-1.674 1.64v.694c0 .695.322.889.701.889.453 0 .973-.444 1.228-.695l.256-.258v-2.27zm-49.405-9.232c-1.6.135-3.266.206-4.965.206a59.4 59.4 0 0 1-4.965-.206c.28 2.345.71 4.406 1.232 6.11l.13.412.083.248.084.243.113.312.152.395.07.172c.046.11.092.221.138.326.72 1.638 1.55 2.72 2.356 3.096l.13.054.03.01c.15.05.299.077.447.077 1.386 0 2.859-2.206 3.904-5.932l.153-.57c.2-.776.383-1.61.542-2.5l.116-.676.054-.346.103-.706c.032-.239.063-.48.093-.725zm57.08 9.168c-.728 0-1.166.336-1.215 1.116l-.004.208h1.154c.709 0 .907-.25.907-.686 0-.477-.33-.638-.841-.638zm34.759-23.64c2.603 0 4.734 1.889 4.842 4.249l.004.187v11.717h-3.514l.002-11.716c0-.632-.53-1.155-1.206-1.215l-.128-.005h-4.653v12.936h-3.507l-.003-12.936h-5.848v12.936h-3.49V10.84h17.501zm20.63 0c2.593 0 4.717 1.89 4.824 4.248l.004.187-.016 11.718h-12.3c-2.594 0-4.713-1.888-4.82-4.249l-.005-.187v-.823c0-2.384 2.053-4.334 4.62-4.432l.204-.004h8.818v-2.022c0-.632-.526-1.155-1.201-1.215l-.128-.005h-11.11V10.84h11.11zm-42.94 0v3.213h-12.28c-.692 0-1.261.486-1.326 1.104l-.006.117.003 7.284c0 .633.528 1.155 1.203 1.214l.128.006h8.797v-3.264h-5.684v-3.212h9.2v9.69H81.635c-2.593 0-4.712-1.888-4.82-4.246l-.003-.188-.005-7.284c0-2.383 2.054-4.332 4.622-4.43l.204-.004h12.28zm-30.633 0v3.211H51.04c-.69 0-1.257.486-1.321 1.105l-.006.117v.8c0 .633.527 1.154 1.2 1.213l.127.006h8.444l.086.007c2.54.082 4.542 1.926 4.648 4.236l.005.194v.832c0 2.38-2.055 4.33-4.622 4.428l-.204.004H46.905v-3.215h12.492c.69 0 1.258-.485 1.323-1.1l.006-.117v-.832c0-.632-.527-1.156-1.2-1.216l-.129-.006H51.04c-2.592 0-4.714-1.888-4.821-4.246l-.005-.188v-.8c0-2.383 2.056-4.331 4.623-4.43l.203-.003h12.24zm8.537 0v16.153h-3.472l.001-16.153h3.47zm-47.228 3.998-9.441 9.248a58.71 58.71 0 0 0 4.271.155c1.8 0 3.505-.08 5.1-.222a55.454 55.454 0 0 0 .115-8.512l-.045-.67zm1.25-.68c.138 1.568.21 3.2.21 4.865a55.82 55.82 0 0 1-.21 4.863l.74-.091c.244-.032.484-.066.721-.1l.7-.11c.576-.094 1.13-.197 1.662-.307l.628-.137.604-.143.583-.15.559-.157c.455-.133.887-.272 1.291-.417l.474-.175.227-.09.434-.182c.141-.062.277-.124.409-.186l.38-.19c1.471-.767 2.282-1.613 2.282-2.428s-.81-1.66-2.281-2.428l-.381-.19-.409-.187-.434-.182-.227-.09-.474-.175a20.876 20.876 0 0 0-.246-.086l-.51-.168-.535-.163a26.927 26.927 0 0 0-.277-.079l-.57-.154c-.195-.05-.393-.099-.594-.147l-.616-.14-.638-.133c-.433-.086-.88-.167-1.34-.242l-.7-.11a45.252 45.252 0 0 0-.359-.05l-.73-.096a48.53 48.53 0 0 0-.372-.045zm-12.841 0-.372.045-.73.095-.359.052-.7.109c-.46.075-.908.156-1.34.242l-.638.133-.616.14-.3.073-.582.15c-.19.052-.377.104-.559.157l-.535.163-.51.168c-.084.028-.166.057-.247.086l-.473.175-.227.09-.435.182c-1.967.861-3.07 1.854-3.07 2.805 0 .14.026.282.075.424l.032.088.03.067c.347.732 1.316 1.485 2.784 2.155l.42.184.364.146.252.098c1.974.732 4.609 1.34 7.736 1.7a55.82 55.82 0 0 1-.21-4.862c0-1.666.073-3.297.21-4.865zm125.181 6.355h-8.815c-.688 0-1.258.485-1.322 1.104l-.007.117v.823c0 .635.53 1.156 1.202 1.215l.127.006h8.81l.005-3.265zm-118.76-6.71c-1.8 0-3.506.08-5.101.222A55.553 55.553 0 0 0 14.2 22.5l.046.663 9.4-9.209a58.83 58.83 0 0 0-4.227-.152zm0-12.526c-1.248 0-2.566 1.787-3.579 4.861l-.165.525c-.028.089-.055.18-.081.27l-.157.56a35.377 35.377 0 0 0-.788 3.81l-.102.705c-.033.239-.064.48-.093.725a59.4 59.4 0 0 1 4.965-.206c1.699 0 3.364.071 4.965.206-.03-.245-.06-.486-.093-.725l-.103-.706a35.97 35.97 0 0 0-.712-3.521l-.153-.57-.16-.548-.166-.525c-1.013-3.074-2.33-4.861-3.578-4.861z" fill="#FFF" fill-rule="nonzero"/>
</svg>
