<svg width="122" height="32" viewBox="0 0 122 32" fill="none" xmlns="http://www.w3.org/2000/svg">
<mask id="mask0_130_6400" style="mask-type:alpha" maskUnits="userSpaceOnUse" x="43" y="14" width="37" height="16">
<path d="M45.5033 14.0854H43.1975V29.1932H50.6763V27.3045H45.5033V14.0854Z" fill="#9417FF"/>
<path d="M55.4955 27.7242C54.4981 27.7242 53.896 27.0947 53.896 26.1503C53.896 25.059 54.5195 24.1568 56.6384 24.1568H57.6151V25.6678C57.262 26.8006 56.535 27.7242 55.4962 27.7242H55.4955ZM60.2319 29.1932C59.9201 28.4166 59.796 27.6193 59.796 26.5915V21.6607C59.796 19.4159 58.5083 18.0726 55.9942 18.0726C53.6049 18.0726 52.2758 19.5415 52.151 21.2204H54.2285C54.3533 20.1711 54.9968 19.7514 55.8907 19.7514C56.9709 19.7514 57.6151 20.4437 57.6151 21.7657V22.4795H56.2646C53.2939 22.4795 51.7151 23.927 51.7151 26.1511C51.7151 28.1447 53.2732 29.4038 54.9975 29.4038C56.2232 29.4038 56.9915 29.089 57.6565 28.0191C57.7185 28.5859 57.8434 28.9634 57.9476 29.194H60.2326L60.2319 29.1932Z" fill="#9417FF"/>
<path d="M68.6452 23.6329C68.6452 26.4865 68.001 27.5144 66.3808 27.5144C65.6745 27.5144 64.8434 27.0319 64.2826 25.8777V21.5971C64.8227 20.443 65.6538 19.9604 66.3601 19.9604C67.9596 19.9604 68.6452 21.0518 68.6452 23.6329ZM70.8261 23.6122C70.8261 20.0661 69.6004 18.0725 67.1284 18.0725C66.007 18.0725 65.0303 18.5551 64.2826 19.4994V14.0861H62.101V29.1939H64.2405V27.9142C64.9881 28.9006 66.0062 29.4038 67.1698 29.4038C69.6004 29.4038 70.8261 27.2218 70.8261 23.6122Z" fill="#9417FF"/>
<path d="M77.7855 26.3602C77.7855 27.2624 77.0999 27.7243 76.0612 27.7243C74.9389 27.7243 74.2955 27.1368 74.1499 25.8356H72.28C72.3628 27.8713 73.423 29.4031 76.0612 29.4031C78.4711 29.4031 79.9664 28.0812 79.9664 26.2346C79.9664 22.059 74.8355 23.2967 74.8355 21.1568C74.8355 20.1704 75.4798 19.7507 76.3101 19.7507C77.3282 19.7507 77.9096 20.3802 77.9931 21.4295H79.863C79.7588 19.2681 78.3884 18.0718 76.3109 18.0718C74.3169 18.0718 72.6546 19.2467 72.6546 21.2196C72.6546 25.1019 77.7855 23.9684 77.7855 26.3602Z" fill="#9417FF"/>
</mask>
<g mask="url(#mask0_130_6400)">
<path fill-rule="evenodd" clip-rule="evenodd" d="M43.1975 14.0854H45.5033V27.3045H50.6763V29.1932H43.1975V14.0854ZM53.896 26.1504C53.896 27.0947 54.4981 27.7242 55.4955 27.7242H55.4962C56.535 27.7242 57.2619 26.8006 57.6151 25.6678V24.1568H56.6384C54.5195 24.1568 53.896 25.059 53.896 26.1504ZM59.796 26.5915C59.796 27.6193 59.9201 28.4166 60.2319 29.1932L60.2326 29.194H57.9475C57.8434 28.9634 57.7185 28.5859 57.6564 28.0191C56.9915 29.089 56.2232 29.4038 54.9975 29.4038C53.2732 29.4038 51.7151 28.1447 51.7151 26.1511C51.7151 23.927 53.2939 22.4795 56.2646 22.4795H57.6151V21.7657C57.6151 20.4438 56.9708 19.7514 55.8907 19.7514C54.9968 19.7514 54.3533 20.1711 54.2284 21.2204H52.1509C52.2758 19.5415 53.6049 18.0726 55.9941 18.0726C58.5083 18.0726 59.796 19.4159 59.796 21.6607V26.5915ZM68.6452 23.6329C68.6452 26.4866 68.001 27.5144 66.3808 27.5144C65.6745 27.5144 64.8434 27.0319 64.2827 25.8777V21.5972C64.8227 20.443 65.6539 19.9605 66.3601 19.9605C67.9596 19.9605 68.6452 21.0518 68.6452 23.6329ZM70.8261 23.6122C70.8261 20.0662 69.6005 18.0726 67.1285 18.0726C66.007 18.0726 65.0303 18.5551 64.2827 19.4994V14.0861H62.101V29.194H64.2405V27.9142C64.9882 28.9006 66.0062 29.4038 67.1698 29.4038C69.6005 29.4038 70.8261 27.2218 70.8261 23.6122ZM76.0612 27.7242C77.1 27.7242 77.7856 27.2624 77.7856 26.3602C77.7856 25.3084 76.7934 24.9383 75.6816 24.5236C74.2651 23.9953 72.6547 23.3946 72.6547 21.2196C72.6547 19.2467 74.317 18.0718 76.3109 18.0718C78.3884 18.0718 79.7589 19.2681 79.8631 21.4294H77.9932C77.9097 20.3802 77.3282 19.7506 76.3102 19.7506C75.4798 19.7506 74.8356 20.1703 74.8356 21.1568C74.8356 22.0496 75.7287 22.3544 76.7696 22.7098C78.2238 23.2062 79.9665 23.8011 79.9665 26.2346C79.9665 28.0811 78.4712 29.4031 76.0612 29.4031C73.423 29.4031 72.3628 27.8713 72.2801 25.8356H74.15C74.2955 27.1368 74.939 27.7242 76.0612 27.7242Z" fill="url(#paint0_linear_130_6400)"/>
</g>
<path d="M31.0075 0.99874C28.3754 -1.6336 22.084 1.2645 16.0078 6.0597C13.7817 4.29817 11.5786 2.8292 9.53171 1.77764C5.50849 -0.290242 2.55772 -0.559067 0.998833 0.99874C-0.56005 2.55731 -0.290405 5.50673 1.77789 9.52992C2.82966 11.5748 4.29738 13.7767 6.05773 16.0001C4.29738 18.2242 2.82966 20.4261 1.77789 22.4703C-0.290405 26.4927 -0.559284 29.4429 0.998833 31.0015C1.66605 31.6686 2.58683 32.0002 3.73818 32.0002C5.27791 32.0002 7.229 31.4059 9.53094 30.2226C11.5778 29.1702 13.7824 27.7013 16.0093 25.9382C20.5036 29.4843 25.1144 31.9964 28.2758 31.9964C29.3881 31.9964 30.3219 31.6854 31.0068 31.0007C33.6389 28.3684 30.7402 22.0766 25.9417 15.9993C30.7402 9.92282 33.6389 3.63032 31.0068 0.997974L31.0075 0.99874ZM22.7956 16.9192C21.92 17.9248 20.9763 18.9411 19.9605 19.9567C18.6613 21.2564 17.3338 22.4642 16.0085 23.5732C14.704 22.4864 13.3741 21.2847 12.0458 19.9567C11.0446 18.9564 10.0978 17.9393 9.20691 16.9192H22.7956ZM9.20767 15.081C10.0986 14.0617 11.0454 13.0446 12.0458 12.0443C13.3734 10.717 14.7032 9.51307 16.007 8.42628C17.3323 9.53605 18.6606 10.7446 19.9605 12.0443C20.9763 13.0599 21.92 14.0762 22.7956 15.0818H9.20767V15.081ZM28.2621 1.82743C28.8986 1.82743 29.3904 1.98213 29.7068 2.29844C31.1393 3.73141 29.2441 8.74489 24.749 14.5396C23.649 13.2368 22.4747 11.9578 21.2605 10.7431C20.0141 9.49699 18.7402 8.33437 17.4648 7.25371C21.9798 3.75362 26.0199 1.82743 28.2621 1.82743ZM3.41338 8.68898C1.84071 5.63157 1.41402 3.18304 2.2988 2.29844C2.60368 1.99362 3.09471 1.84428 3.73282 1.84428C4.94468 1.84428 6.68665 2.38269 8.6906 3.41204C10.5398 4.3625 12.53 5.67446 14.5508 7.24835C13.2447 8.35046 11.9623 9.52686 10.7451 10.7431C9.49647 11.9915 8.33133 13.2682 7.24815 14.5457C5.67395 12.5253 4.3625 10.5363 3.41261 8.68821L3.41338 8.68898ZM8.69137 28.5874C5.63412 30.159 3.18433 30.5856 2.29956 29.701C1.41479 28.8164 1.84147 26.3679 3.41338 23.3105C4.36326 21.4624 5.67472 19.4734 7.24892 17.453C8.3321 18.7312 9.49724 20.0072 10.7459 21.2556C11.9631 22.4726 13.247 23.6467 14.5531 24.7488C12.5315 26.3242 10.5398 27.6369 8.6906 28.5866L8.69137 28.5874ZM29.7083 29.701C28.2758 31.134 23.2629 29.2392 17.4671 24.745C18.7425 23.6643 20.0157 22.5017 21.262 21.2556C22.4762 20.0417 23.6505 18.7626 24.7505 17.4599C29.2464 23.2553 31.1416 28.268 29.7083 29.7002V29.701Z" fill="white"/>
<path d="M31.0075 0.99874C28.3754 -1.6336 22.084 1.2645 16.0078 6.0597C13.7817 4.29817 11.5786 2.8292 9.53171 1.77764C5.50849 -0.290242 2.55772 -0.559067 0.998833 0.99874C-0.56005 2.55731 -0.290405 5.50673 1.77789 9.52992C2.82966 11.5748 4.29738 13.7767 6.05773 16.0001C4.29738 18.2242 2.82966 20.4261 1.77789 22.4703C-0.290405 26.4927 -0.559284 29.4429 0.998833 31.0015C1.66605 31.6686 2.58683 32.0002 3.73818 32.0002C5.27791 32.0002 7.229 31.4059 9.53094 30.2226C11.5778 29.1702 13.7824 27.7013 16.0093 25.9382C20.5036 29.4843 25.1144 31.9964 28.2758 31.9964C29.3881 31.9964 30.3219 31.6854 31.0068 31.0007C33.6389 28.3684 30.7402 22.0766 25.9417 15.9993C30.7402 9.92282 33.6389 3.63032 31.0068 0.997974L31.0075 0.99874ZM22.7956 16.9192C21.92 17.9248 20.9763 18.9411 19.9605 19.9567C18.6613 21.2564 17.3338 22.4642 16.0085 23.5732C14.704 22.4864 13.3741 21.2847 12.0458 19.9567C11.0446 18.9564 10.0978 17.9393 9.20691 16.9192H22.7956ZM9.20767 15.081C10.0986 14.0617 11.0454 13.0446 12.0458 12.0443C13.3734 10.717 14.7032 9.51307 16.007 8.42628C17.3323 9.53605 18.6606 10.7446 19.9605 12.0443C20.9763 13.0599 21.92 14.0762 22.7956 15.0818H9.20767V15.081ZM28.2621 1.82743C28.8986 1.82743 29.3904 1.98213 29.7068 2.29844C31.1393 3.73141 29.2441 8.74489 24.749 14.5396C23.649 13.2368 22.4747 11.9578 21.2605 10.7431C20.0141 9.49699 18.7402 8.33437 17.4648 7.25371C21.9798 3.75362 26.0199 1.82743 28.2621 1.82743ZM3.41338 8.68898C1.84071 5.63157 1.41402 3.18304 2.2988 2.29844C2.60368 1.99362 3.09471 1.84428 3.73282 1.84428C4.94468 1.84428 6.68665 2.38269 8.6906 3.41204C10.5398 4.3625 12.53 5.67446 14.5508 7.24835C13.2447 8.35046 11.9623 9.52686 10.7451 10.7431C9.49647 11.9915 8.33133 13.2682 7.24815 14.5457C5.67395 12.5253 4.3625 10.5363 3.41261 8.68821L3.41338 8.68898ZM8.69137 28.5874C5.63412 30.159 3.18433 30.5856 2.29956 29.701C1.41479 28.8164 1.84147 26.3679 3.41338 23.3105C4.36326 21.4624 5.67472 19.4734 7.24892 17.453C8.3321 18.7312 9.49724 20.0072 10.7459 21.2556C11.9631 22.4726 13.247 23.6467 14.5531 24.7488C12.5315 26.3242 10.5398 27.6369 8.6906 28.5866L8.69137 28.5874ZM29.7083 29.701C28.2758 31.134 23.2629 29.2392 17.4671 24.745C18.7425 23.6643 20.0157 22.5017 21.262 21.2556C22.4762 20.0417 23.6505 18.7626 24.7505 17.4599C29.2464 23.2553 31.1416 28.268 29.7083 29.7002V29.701Z" fill="white"/>
<mask id="mask1_130_6400" style="mask-type:alpha" maskUnits="userSpaceOnUse" x="43" y="1" width="79" height="11">
<path d="M45.7745 6.15311C46.4853 6.35454 47.4391 6.71451 47.4391 7.64659C47.4391 8.34584 46.9618 8.71653 45.9545 8.71653C44.8728 8.71653 44.2577 8.22942 44.2577 7.33947H43.1975C43.1975 8.80154 44.2577 9.67005 45.9545 9.67005C47.4391 9.67005 48.4992 9.09794 48.4992 7.62591C48.4992 6.461 47.937 5.72958 46.0709 5.20035C44.8621 4.86107 44.5013 4.4697 44.5013 3.89759C44.5013 3.16693 44.9678 2.78552 45.9009 2.78552C46.9189 2.78552 47.4168 3.25195 47.4168 4.16258H48.477C48.477 2.85981 47.4804 1.83276 45.9001 1.83276C44.5005 1.83276 43.4396 2.51057 43.4396 3.90907C43.4396 4.96829 44.0547 5.66754 45.7722 6.15465L45.7745 6.15311Z" fill="white"/>
<path d="M50.1486 2.51977C50.1486 2.13836 50.4557 1.83124 50.838 1.83124C51.2202 1.83124 51.5274 2.13836 51.5274 2.51977C51.5274 2.90118 51.2202 3.2083 50.838 3.2083C50.4557 3.2083 50.1486 2.90118 50.1486 2.51977ZM51.3252 9.5636H50.3707V4.05536H51.3252V9.56284V9.5636Z" fill="white"/>
<path d="M55.4664 10.9407C54.8834 10.9407 54.5648 10.6229 54.4162 10.1465H53.3874C53.5574 11.015 54.3625 11.7885 55.4656 11.7885C56.918 11.7885 57.7346 10.8986 57.7346 9.44799V4.0554H56.8123V4.7018C56.4308 4.20398 55.985 3.94971 55.2749 3.94971C53.7053 3.94971 53.1752 5.23103 53.1752 6.76739C53.1752 8.22947 53.886 9.45794 55.2534 9.45794C55.9321 9.45794 56.3986 9.21439 56.7801 8.73801V9.51155C56.7801 10.4544 56.3243 10.9415 55.4656 10.9415L55.4664 10.9407ZM54.1304 6.75667C54.1304 5.43246 54.5862 4.79677 55.5085 4.79677C56.1344 4.79677 56.4944 5.14602 56.7809 5.72885V7.67803C56.5051 8.26087 56.1236 8.61011 55.4978 8.61011C54.554 8.61011 54.1297 7.91086 54.1297 6.75667H54.1304Z" fill="white"/>
<path d="M59.6704 4.0554V9.56287H60.6249V5.7503C60.8578 5.22107 61.1335 4.79677 61.7594 4.79677C62.5545 4.79677 62.7989 5.30532 62.7989 6.12099V9.56364H63.7534V6.12099C63.7534 5.41101 64.1778 4.79677 64.8879 4.79677C65.7681 4.79677 65.9274 5.2946 65.9274 6.08882V9.56287H66.8819V5.89888C66.8819 4.59611 66.4046 3.94971 65.1744 3.94971C64.3578 3.94971 63.9234 4.30967 63.5412 4.84962C63.2547 4.2461 62.8839 3.94971 62.0987 3.94971C61.4093 3.94971 61.0171 4.19326 60.6034 4.66964V4.0554H59.6704Z" fill="white"/>
<path d="M70.5342 8.82226C69.8977 8.82226 69.5583 8.54654 69.5583 7.95375C69.5583 7.31806 70.0463 7.02167 71.2229 7.02167H71.8802V7.89018C71.6366 8.44085 71.1271 8.82226 70.5335 8.82226H70.5342ZM73.0583 9.56363C72.899 9.1715 72.8354 8.76941 72.8354 8.25014V5.76102C72.8354 4.62751 72.1781 3.94971 70.895 3.94971C69.6755 3.94971 68.8911 4.61679 68.8275 5.64461H69.782C69.8241 5.11462 70.1956 4.79754 70.8422 4.79754C71.6159 4.79754 71.8817 5.11538 71.8817 5.81463V6.1746H71.0337C69.4327 6.1746 68.6053 6.86313 68.6053 8.03876C68.6053 9.04513 69.4005 9.67009 70.3871 9.67009C71.013 9.67009 71.4581 9.43726 71.9031 8.97084C71.9353 9.25652 71.9882 9.44722 72.041 9.56363H73.0591H73.0583Z" fill="white"/>
<path d="M80.1419 6.15311C80.852 6.35454 81.8065 6.71451 81.8065 7.64659C81.8065 8.34584 81.3292 8.71653 80.3219 8.71653C79.2403 8.71653 78.6251 8.22942 78.6251 7.33947H77.5649C77.5649 8.80154 78.6251 9.67005 80.3219 9.67005C81.8065 9.67005 82.8667 9.09794 82.8667 7.62591C82.8667 6.461 82.3044 5.72958 80.4383 5.20035C79.2295 4.86107 78.8687 4.4697 78.8687 3.89759C78.8687 3.16693 79.3352 2.78552 80.2683 2.78552C81.2863 2.78552 81.7843 3.25195 81.7843 4.16258H82.8445C82.8445 2.85981 81.8478 1.83276 80.2675 1.83276C78.868 1.83276 77.807 2.51057 77.807 3.90907C77.807 4.96829 78.4221 5.66754 80.1396 6.15465L80.1419 6.15311Z" fill="white"/>
<path d="M86.6049 9.66933C88.3124 9.66933 88.8318 8.43013 88.8318 6.86236V6.70383C88.8318 5.04109 88.1424 3.94971 86.6049 3.94971C85.0675 3.94971 84.3781 5.04033 84.3781 6.70383V6.86236C84.3781 8.43013 84.8974 9.66933 86.6049 9.66933ZM86.6049 4.79677C87.5801 4.79677 87.8773 5.41101 87.8773 6.73523V6.91521C87.8773 8.19653 87.5908 8.82149 86.6049 8.82149C85.619 8.82149 85.3325 8.19653 85.3325 6.91521V6.73523C85.3325 5.41101 85.6298 4.79677 86.6049 4.79677Z" fill="white"/>
<path d="M93.3116 1.89481C93.1208 1.85268 92.9301 1.83124 92.7393 1.83124C91.5627 1.83124 91.0219 2.51977 91.0219 3.70612V4.05536H90.131V4.90243H91.0219V9.56283H91.9764V4.9032H93.143V4.05613H91.9764V3.69616C91.9764 3.01836 92.1993 2.67907 92.8244 2.67907C92.9937 2.67907 93.1637 2.68979 93.3123 2.71124V1.89557L93.3116 1.89481Z" fill="white"/>
<path d="M97.4742 8.71575C97.3256 8.7372 97.1563 8.74792 96.9862 8.74792C96.3604 8.74792 96.1382 8.37723 96.1382 7.69943V4.90318H97.3049V4.05612H96.1382V2.57336H95.1837V4.05612H94.2928V4.90318H95.1837V7.6887C95.1837 8.87506 95.7246 9.56359 96.902 9.56359C97.0927 9.56359 97.2834 9.54214 97.4742 9.50002V8.71652V8.71575Z" fill="white"/>
<path d="M102.558 4.05536H101.785L100.607 7.99583L99.6743 4.05536H98.667L100.173 9.56359H100.957L102.156 5.57028L103.386 9.56359H104.16L105.665 4.05536H104.658L103.757 8.08084L102.558 4.05536Z" fill="white"/>
<path d="M108.789 8.82226C108.152 8.82226 107.813 8.54654 107.813 7.95375C107.813 7.31806 108.301 7.02167 109.478 7.02167H110.135V7.89018C109.892 8.44085 109.382 8.82226 108.789 8.82226ZM111.313 9.56363C111.153 9.1715 111.09 8.76941 111.09 8.25014V5.76102C111.09 4.62751 110.433 3.94971 109.149 3.94971C107.93 3.94971 107.145 4.61679 107.082 5.64461H108.036C108.079 5.11462 108.45 4.79754 109.097 4.79754C109.87 4.79754 110.136 5.11538 110.136 5.81463V6.1746H109.288C107.687 6.1746 106.86 6.86313 106.86 8.03876C106.86 9.04513 107.655 9.67009 108.642 9.67009C109.267 9.67009 109.712 9.43726 110.158 8.97084C110.19 9.25652 110.243 9.44722 110.296 9.56363H111.314H111.313Z" fill="white"/>
<path d="M115.792 4.0554C115.665 3.99183 115.475 3.94971 115.262 3.94971C114.679 3.94971 114.276 4.25683 113.969 4.75465V4.0554H113.036V9.56287H113.99V5.82459C114.181 5.28464 114.584 4.79754 115.21 4.79754C115.432 4.79754 115.634 4.82971 115.792 4.87183V4.05616V4.0554Z" fill="white"/>
<path d="M119.128 4.79675C119.934 4.79675 120.315 5.33669 120.369 6.38519H117.888C118.004 5.3681 118.365 4.79675 119.129 4.79675H119.128ZM120.304 8.02724C120.156 8.50362 119.838 8.82147 119.255 8.82147C118.29 8.82147 117.908 8.21795 117.855 7.23302H121.333V6.7666C121.333 4.98745 120.58 3.94891 119.128 3.94891C117.781 3.94891 116.848 5.16667 116.89 6.83017V6.99943C116.89 8.51435 117.6 9.66853 119.255 9.66853C120.358 9.66853 121.164 8.89499 121.333 8.02648H120.304V8.02724Z" fill="white"/>
</mask>
<g mask="url(#mask1_130_6400)">
<path fill-rule="evenodd" clip-rule="evenodd" d="M50.1485 2.51977C50.1485 2.13836 50.4557 1.83124 50.838 1.83124C51.2202 1.83124 51.5274 2.13836 51.5274 2.51977C51.5274 2.90118 51.2202 3.2083 50.838 3.2083C50.4557 3.2083 50.1485 2.90118 50.1485 2.51977ZM51.3252 9.5636H50.3707V4.05536H51.3252V9.56284V9.5636ZM45.7745 6.15312C46.4853 6.35455 47.4391 6.71452 47.4391 7.6466C47.4391 8.34585 46.9618 8.71653 45.9545 8.71653C44.8728 8.71653 44.2577 8.22943 44.2577 7.33948H43.1975C43.1975 8.80155 44.2577 9.67006 45.9545 9.67006C47.4391 9.67006 48.4992 9.09794 48.4992 7.62592C48.4992 6.46101 47.937 5.72959 46.0709 5.20036C44.8621 4.86108 44.5013 4.46971 44.5013 3.89759C44.5013 3.16694 44.9678 2.78553 45.9009 2.78553C46.9189 2.78553 47.4168 3.25195 47.4168 4.16259H48.477C48.477 2.85982 47.4804 1.83277 45.9001 1.83277C44.5005 1.83277 43.4396 2.51058 43.4396 3.90908C43.4396 4.9683 44.0547 5.66755 45.7722 6.15465L45.7745 6.15312ZM54.4161 10.1464C54.5647 10.6228 54.8834 10.9407 55.4663 10.9407L55.4656 10.9414C56.3243 10.9414 56.7801 10.4543 56.7801 9.51153V8.73799C56.3986 9.21437 55.9321 9.45792 55.2534 9.45792C53.886 9.45792 53.1751 8.22944 53.1751 6.76737C53.1751 5.231 53.7052 3.94968 55.2748 3.94968C55.985 3.94968 56.4308 4.20395 56.8123 4.70178V4.05537H57.7346V9.44796C57.7346 10.8985 56.918 11.7885 55.4656 11.7885C54.3625 11.7885 53.5574 11.015 53.3873 10.1464H54.4161ZM55.5085 4.79675C54.5862 4.79675 54.1304 5.43243 54.1304 6.75664H54.1296C54.1296 7.91083 54.554 8.61008 55.4978 8.61008C56.1236 8.61008 56.5051 8.26084 56.7809 7.678V5.72883C56.4944 5.14599 56.1343 4.79675 55.5085 4.79675ZM59.6703 4.05537V9.56284H60.6248V5.75027C60.8577 5.22105 61.1335 4.79675 61.7593 4.79675C62.5545 4.79675 62.7988 5.3053 62.7988 6.12096V9.56361H63.7533V6.12096C63.7533 5.41099 64.1777 4.79675 64.8878 4.79675C65.768 4.79675 65.9273 5.29457 65.9273 6.08879V9.56284H66.8818V5.89886C66.8818 4.59609 66.4046 3.94968 65.1743 3.94968C64.3577 3.94968 63.9234 4.30965 63.5411 4.84959C63.2546 4.24608 62.8839 3.94968 62.0987 3.94968C61.4093 3.94968 61.017 4.19323 60.6034 4.66961V4.05537H59.6703ZM69.5583 7.95372C69.5583 8.54638 69.8975 8.82211 70.5338 8.82223C71.1274 8.82209 71.6366 8.44072 71.8802 7.89015V7.02164H71.2229C70.0463 7.02164 69.5583 7.31804 69.5583 7.95372ZM72.8354 8.25012C72.8354 8.76939 72.899 9.17148 73.0584 9.56361H72.0411C71.9882 9.44719 71.9354 9.25649 71.9032 8.97081C71.4581 9.43724 71.013 9.67007 70.3872 9.67007C69.4005 9.67007 68.6054 9.04511 68.6054 8.03873C68.6054 6.8631 69.4327 6.17457 71.0337 6.17457H71.8817V5.81461C71.8817 5.11536 71.6159 4.79751 70.8422 4.79751C70.1957 4.79751 69.8242 5.11459 69.782 5.64458H68.8275C68.8911 4.61677 69.6755 3.94968 70.8951 3.94968C72.1782 3.94968 72.8354 4.62749 72.8354 5.761V8.25012ZM80.1419 6.15312C80.852 6.35455 81.8065 6.71452 81.8065 7.6466C81.8065 8.34585 81.3293 8.71653 80.3219 8.71653C79.2403 8.71653 78.6252 8.22943 78.6252 7.33948H77.565C77.565 8.80155 78.6251 9.67006 80.3219 9.67006C81.8065 9.67006 82.8667 9.09794 82.8667 7.62592C82.8667 6.46101 82.3044 5.72959 80.4384 5.20036C79.2296 4.86108 78.8688 4.46971 78.8688 3.89759C78.8688 3.16694 79.3353 2.78553 80.2683 2.78553C81.2864 2.78553 81.7843 3.25195 81.7843 4.16259H82.8445C82.8445 2.85982 81.8479 1.83277 80.2675 1.83277C78.868 1.83277 77.807 2.51058 77.807 3.90908C77.807 4.9683 78.4221 5.66755 80.1396 6.15465L80.1419 6.15312ZM88.8318 6.86234C88.8318 8.4301 88.3124 9.6693 86.6049 9.6693C84.8974 9.6693 84.3781 8.4301 84.3781 6.86234V6.7038C84.3781 5.0403 85.0675 3.94968 86.6049 3.94968C88.1424 3.94968 88.8318 5.04107 88.8318 6.7038V6.86234ZM87.8773 6.7352C87.8773 5.41099 87.5801 4.79675 86.6049 4.79675C85.6298 4.79675 85.3326 5.41099 85.3326 6.7352V6.91518C85.3326 8.19651 85.6191 8.82147 86.6049 8.82147C87.5908 8.82147 87.8773 8.19651 87.8773 6.91518V6.7352ZM93.3116 1.89481C93.1208 1.85268 92.9301 1.83124 92.7394 1.83124C91.5627 1.83124 91.0219 2.51977 91.0219 3.70612V4.05536H90.131V4.90243H91.0219V9.56283H91.9764V4.9032H93.1431V4.05613H91.9764V3.69616C91.9764 3.01836 92.1993 2.67907 92.8244 2.67907C92.9937 2.67907 93.1637 2.68979 93.3123 2.71124V1.89557L93.3116 1.89481ZM96.9863 8.74793C97.1563 8.74793 97.3256 8.73721 97.4742 8.71577V8.71653V9.50003C97.2835 9.54216 97.0927 9.5636 96.902 9.5636C95.7246 9.5636 95.1838 8.87507 95.1838 7.68872V4.9032H94.2929V4.05613H95.1838V2.57338H96.1383V4.05613H97.3049V4.9032H96.1383V7.69944C96.1383 8.37725 96.3604 8.74793 96.9863 8.74793ZM102.558 4.05538H101.785L100.607 7.99585L99.6743 4.05538H98.667L100.173 9.56362H100.957L102.155 5.5703L103.386 9.56362H104.16L105.665 4.05538H104.658L103.757 8.08087L102.558 4.05538ZM107.813 7.95372C107.813 8.54651 108.152 8.82223 108.789 8.82223C109.382 8.82223 109.892 8.44082 110.135 7.89015V7.02164H109.478C108.301 7.02164 107.813 7.31804 107.813 7.95372ZM111.09 8.25012C111.09 8.76939 111.153 9.17148 111.313 9.56361H110.296C110.243 9.44719 110.19 9.25649 110.158 8.97081C109.712 9.43724 109.267 9.67007 108.641 9.67007C107.655 9.67007 106.86 9.04511 106.86 8.03873C106.86 6.8631 107.687 6.17457 109.288 6.17457H110.136V5.81461C110.136 5.11536 109.87 4.79751 109.097 4.79751C108.45 4.79751 108.078 5.11459 108.036 5.64458H107.082C107.145 4.61677 107.93 3.94968 109.149 3.94968C110.432 3.94968 111.09 4.62749 111.09 5.761V8.25012ZM115.792 4.05537C115.665 3.9918 115.475 3.94968 115.262 3.94968C114.679 3.94968 114.276 4.2568 113.969 4.75462V4.05537H113.035V9.56284H113.99V5.82456C114.181 5.28462 114.584 4.79751 115.21 4.79751C115.432 4.79751 115.634 4.82968 115.792 4.8718V4.05614V4.05537ZM120.369 6.38519C120.315 5.33669 119.934 4.79675 119.128 4.79675H119.129C118.365 4.79675 118.004 5.3681 117.888 6.38519H120.369ZM119.255 8.82147C119.838 8.82147 120.156 8.50362 120.304 8.02724V8.02648H121.333C121.164 8.89499 120.358 9.66853 119.255 9.66853C117.6 9.66853 116.89 8.51435 116.89 6.99943V6.83017C116.848 5.16667 117.781 3.94891 119.128 3.94891C120.58 3.94891 121.333 4.98745 121.333 6.7666V7.23302H117.855C117.908 8.21795 118.29 8.82147 119.255 8.82147Z" fill="url(#paint1_linear_130_6400)"/>
</g>
<defs>
<linearGradient id="paint0_linear_130_6400" x1="55.7375" y1="25.5238" x2="80.6613" y2="27.0889" gradientUnits="userSpaceOnUse">
<stop stop-color="#9417FF"/>
<stop offset="1" stop-color="#9417FF" stop-opacity="0.44"/>
</linearGradient>
<linearGradient id="paint1_linear_130_6400" x1="87.9666" y1="6.47622" x2="122.85" y2="6.47622" gradientUnits="userSpaceOnUse">
<stop stop-color="white"/>
<stop offset="1" stop-color="white" stop-opacity="0"/>
</linearGradient>
</defs>
</svg>
