<svg width="181" height="100" viewBox="0 0 181 100" fill="none" xmlns="http://www.w3.org/2000/svg">
<path d="M70.9997 58.6825V56.2637H64.4213V42.8584H61.8217V58.6825H70.9997ZM78.6179 58.9764C80.3058 58.9764 81.6546 58.479 82.6643 57.4844C83.674 56.4897 84.1789 55.171 84.1789 53.5284V46.4753H81.6697V53.1667C81.6697 54.2216 81.3984 55.0542 80.8558 55.6646C80.3133 56.275 79.5673 56.5801 78.6179 56.5801C77.6835 56.5801 76.945 56.2787 76.4025 55.6759C75.8599 55.0731 75.5887 54.2367 75.5887 53.1667V46.4753H73.0794V53.5284C73.0794 55.171 73.5843 56.4897 74.594 57.4844C75.6037 58.479 76.945 58.9764 78.6179 58.9764ZM90.0565 58.6825V52.1494C90.0565 51.0643 90.3654 50.1751 90.9833 49.4819C91.6012 48.7886 92.3849 48.442 93.3343 48.442C94.2536 48.442 94.9506 48.7321 95.4254 49.3123C95.9001 49.8926 96.1375 50.7328 96.1375 51.8329V58.6825H98.6467V51.3356C98.6467 49.8134 98.2285 48.5777 97.3921 47.6282C96.5557 46.6788 95.4291 46.204 94.0125 46.204C93.1233 46.204 92.3133 46.3773 91.5824 46.724C90.8514 47.0706 90.2524 47.5529 89.7852 48.1707L89.2879 46.4753H87.5472V58.6825H90.0565ZM107.531 58.9764C109.294 58.9764 110.763 58.3811 111.939 57.1905L112.188 58.6825H114.222V46.4753H112.278L111.984 47.9899C110.809 46.7843 109.324 46.1814 107.531 46.1814C105.707 46.1814 104.189 46.788 102.976 48.0012C101.763 49.2144 101.156 50.7365 101.156 52.5676C101.156 54.3987 101.763 55.9246 102.976 57.1453C104.189 58.366 105.707 58.9764 107.531 58.9764ZM107.723 56.5801C106.57 56.5801 105.609 56.2034 104.841 55.4499C104.087 54.6813 103.71 53.7243 103.71 52.5789C103.71 51.8254 103.884 51.1434 104.23 50.5331C104.577 49.9227 105.055 49.4442 105.666 49.0976C106.276 48.751 106.958 48.5777 107.712 48.5777C108.872 48.5777 109.825 48.9544 110.571 49.7079C111.317 50.4615 111.69 51.4147 111.69 52.5676C111.69 53.7205 111.317 54.6775 110.571 55.4385C109.825 56.1996 108.876 56.5801 107.723 56.5801ZM120.303 58.6825V52.172C120.303 49.9114 121.343 48.7811 123.423 48.7811H124.734V46.4075H123.649C122.036 46.4075 120.793 46.9877 119.919 48.1481L119.489 46.4753H117.794V58.6825H120.303ZM136.105 58.6825V56.2637H129.526V42.8584H126.927V58.6825H136.105ZM140.92 44.5764V41.9993H138.32V44.5764H140.92ZM140.875 58.6825V46.4753H138.365V58.6825H140.875ZM149.985 63.3619C151.236 63.3619 152.321 63.1095 153.24 62.6046C154.159 62.0998 154.864 61.3764 155.354 60.4345C155.843 59.4925 156.088 58.3736 156.088 57.0775V46.4753H154.438L154.031 48.0577C152.856 46.8069 151.371 46.1814 149.578 46.1814C147.89 46.1814 146.462 46.7692 145.294 47.9447C144.126 49.1202 143.542 50.5594 143.542 52.2624C143.542 53.9654 144.126 55.4009 145.294 56.5688C146.462 57.7368 147.89 58.3208 149.578 58.3208C151.145 58.3208 152.494 57.8385 153.624 56.874V57.4166C153.624 58.5619 153.285 59.4662 152.607 60.1293C151.929 60.7924 151.047 61.1239 149.962 61.1239C149.179 61.1239 148.466 60.9431 147.826 60.5814C147.185 60.2197 146.752 59.7073 146.526 59.0442H144.017C144.333 60.4006 145.019 61.4593 146.074 62.2203C147.129 62.9814 148.432 63.3619 149.985 63.3619ZM149.872 55.9924C148.787 55.9924 147.886 55.6382 147.17 54.9299C146.454 54.2216 146.097 53.3324 146.097 52.2624C146.097 51.1924 146.454 50.2995 147.17 49.5836C147.886 48.8678 148.787 48.5098 149.872 48.5098C150.957 48.5098 151.854 48.864 152.562 49.5723C153.27 50.2806 153.624 51.1773 153.624 52.2624C153.624 52.7899 153.53 53.2872 153.342 53.7544C153.153 54.2216 152.893 54.6172 152.562 54.9412C152.23 55.2652 151.831 55.5214 151.364 55.7098C150.897 55.8982 150.399 55.9924 149.872 55.9924ZM162.169 58.6825V52.1494C162.169 51.0643 162.478 50.1751 163.096 49.4819C163.714 48.7886 164.498 48.442 165.447 48.442C166.065 48.442 166.581 48.5739 166.996 48.8376C167.41 49.1014 167.723 49.4819 167.934 49.9792C168.145 50.4766 168.25 51.0944 168.25 51.8329V58.6825H170.76V51.3356C170.76 49.7532 170.345 48.5023 169.516 47.583C168.687 46.6637 167.557 46.204 166.125 46.204C164.483 46.204 163.164 46.7541 162.169 47.8543V42.0898H159.66V58.6825H162.169ZM181 58.6825V56.3993H179.621C178.883 56.3993 178.318 56.2034 177.926 55.8116C177.534 55.4197 177.338 54.8621 177.338 54.1387V48.6229H180.932V46.4753H177.315V43.627H176.886L172.636 48.1481V48.6229H174.829V54.3422C174.829 55.2313 175.002 56.0037 175.349 56.6593C175.695 57.3148 176.193 57.8159 176.841 58.1626C177.489 58.5092 178.257 58.6825 179.146 58.6825H181Z" fill="white"/>
<path d="M37.2593 61.2044C31.35 68.2467 20.8138 69.1685 13.7714 63.2593C6.72903 57.35 5.80723 46.8138 11.7165 39.7714C17.6257 32.7291 28.162 31.8073 35.2043 37.7165C42.2467 43.6257 43.1685 54.162 37.2593 61.2044ZM13.845 41.5575C8.92082 47.426 9.68902 56.2065 15.5575 61.1307C21.4259 66.0549 30.2065 65.2867 35.1307 59.4183C40.0549 53.5498 39.2867 44.7693 33.4183 39.8451C27.5498 34.9208 18.7693 35.689 13.845 41.5575Z" fill="white"/>
<path d="M19.0057 45.564C19.7079 44.7271 19.5987 43.4795 18.7619 42.7773C17.925 42.0751 16.6774 42.1842 15.9752 43.0211C15.273 43.8579 15.3821 45.1056 16.219 45.8078C17.0558 46.51 18.3035 46.4008 19.0057 45.564Z" fill="white"/>
<path d="M31.8826 57.0612C29.6953 59.668 26.2594 60.9338 22.9175 60.3641C22.1772 60.238 21.6849 59.5336 21.8189 58.7916C21.9528 58.0477 22.661 57.5497 23.4003 57.6749C25.7891 58.0831 28.2436 57.1789 29.8051 55.318C31.3674 53.4561 31.8317 50.8818 31.014 48.6012C30.7604 47.8951 31.124 47.1116 31.8383 46.8511C32.5457 46.5902 33.3258 46.9516 33.5776 47.6599C34.7208 50.8499 34.0708 54.4535 31.8826 57.0612Z" fill="white"/>
<path fill-rule="evenodd" clip-rule="evenodd" d="M45.1984 51.673C44.5054 51.673 43.9442 51.1148 43.9442 50.4255C43.9442 39.7138 35.1837 30.9999 24.4148 30.9999C13.6458 30.9999 4.88533 39.7138 4.88533 50.4255C4.88533 51.1148 4.32113 51.673 3.6312 51.673C2.94128 51.673 2.37708 51.1148 2.37708 50.4255C2.37708 38.3383 12.266 28.5019 24.4179 28.5019C36.5697 28.5019 46.4586 38.3383 46.4586 50.4255C46.4556 51.1148 45.8914 51.673 45.1984 51.673Z" fill="white"/>
</svg>
