<svg width="136" height="76" viewBox="0 0 136 76" fill="none" xmlns="http://www.w3.org/2000/svg">
<path d="M53.6649 43.9311L51.7913 48.2688H50.5734L48.7061 43.9311H50.0426L51.2292 46.7568L52.4408 43.9311H53.6649Z" fill="#F9FAFA"/>
<path d="M57.9303 47.3207V48.2688H54.4204V43.9311H57.8491V44.8792H55.6444V45.6104H57.5868V46.5275H55.6444V47.3207H57.9303Z" fill="#F9FAFA"/>
<path d="M63.2754 43.9311V48.2688H62.2574L60.3276 45.9574V48.2688H59.116V43.9311H60.134L62.0638 46.2425V43.9311H63.2754Z" fill="#F9FAFA"/>
<path d="M65.5779 44.904H64.2351V43.9311H68.1509V44.904H66.8144V48.2688H65.5779V44.904Z" fill="#F9FAFA"/>
<path d="M71.0613 48.3555C70.4118 48.3555 69.9059 48.18 69.5437 47.8288C69.1856 47.4777 69.0066 46.9799 69.0066 46.3354V43.9311H70.2432V46.2982C70.2432 46.9923 70.52 47.3393 71.0738 47.3393C71.6234 47.3393 71.8982 46.9923 71.8982 46.2982V43.9311H73.116V46.3354C73.116 46.9799 72.9349 47.4777 72.5727 47.8288C72.2146 48.18 71.7108 48.3555 71.0613 48.3555Z" fill="#F9FAFA"/>
<path d="M76.3644 47.1162H75.69V48.2688H74.4534V43.9311H76.4519C76.8474 43.9311 77.1909 43.9972 77.4824 44.1294C77.7738 44.2575 77.9987 44.4434 78.1569 44.6871C78.3151 44.9267 78.3942 45.2097 78.3942 45.536C78.3942 45.85 78.3192 46.1247 78.1694 46.3602C78.0236 46.5915 77.8134 46.7733 77.5386 46.9055L78.4816 48.2688H77.1576L76.3644 47.1162ZM77.1451 45.536C77.1451 45.3336 77.0806 45.1766 76.9515 45.0651C76.8224 44.9535 76.6309 44.8978 76.3769 44.8978H75.69V46.1681H76.3769C76.6309 46.1681 76.8224 46.1144 76.9515 46.007C77.0806 45.8954 77.1451 45.7385 77.1451 45.536Z" fill="#F9FAFA"/>
<path d="M83.0861 47.3207V48.2688H79.5762V43.9311H83.0049V44.8792H80.8003V45.6104H82.7426V46.5275H80.8003V47.3207H83.0861Z" fill="#F9FAFA"/>
<path d="M88.7685 48.3556C88.3107 48.3556 87.8985 48.2606 87.5319 48.0705C87.1697 47.8764 86.8843 47.6078 86.6763 47.2649C86.4683 46.9221 86.364 46.5337 86.364 46.1C86.364 45.6662 86.4683 45.2778 86.6763 44.935C86.8843 44.5921 87.1697 44.3257 87.5319 44.1356C87.8985 43.9415 88.3107 43.8444 88.7685 43.8444C89.1682 43.8444 89.5285 43.9146 89.8489 44.055C90.1693 44.1955 90.436 44.3979 90.6483 44.6623L89.8614 45.3687C89.5785 45.03 89.235 44.8606 88.8309 44.8606C88.5936 44.8606 88.3813 44.9122 88.1939 45.0155C88.0109 45.1188 87.8673 45.2654 87.763 45.4555C87.663 45.6414 87.6131 45.8562 87.6131 46.1C87.6131 46.3437 87.663 46.5606 87.763 46.7506C87.8673 46.9365 88.0109 47.0811 88.1939 47.1844C88.3813 47.2877 88.5936 47.3393 88.8309 47.3393C89.235 47.3393 89.5785 47.1699 89.8614 46.8312L90.6483 47.5376C90.436 47.802 90.1693 48.0044 89.8489 48.1449C89.5285 48.2854 89.1682 48.3556 88.7685 48.3556Z" fill="#F9FAFA"/>
<path d="M94.5555 47.426H92.7069L92.3634 48.2688H91.1018L93.0316 43.9311H94.2495L96.1855 48.2688H94.899L94.5555 47.426ZM94.1933 46.5213L93.6312 45.1333L93.0691 46.5213H94.1933Z" fill="#F9FAFA"/>
<path d="M99.0342 43.9311C99.4295 43.9311 99.773 43.9972 100.065 44.1294C100.356 44.2575 100.581 44.4434 100.739 44.6871C100.897 44.9267 100.976 45.2097 100.976 45.536C100.976 45.8624 100.897 46.1454 100.739 46.385C100.581 46.6246 100.356 46.8105 100.065 46.9427C99.773 47.0708 99.4295 47.1348 99.0342 47.1348H98.2722V48.2688H97.0356V43.9311H99.0342ZM98.9592 46.1681C99.2134 46.1681 99.4045 46.1144 99.5338 46.007C99.6631 45.8954 99.7274 45.7385 99.7274 45.536C99.7274 45.3336 99.6631 45.1766 99.5338 45.0651C99.4045 44.9535 99.2134 44.8978 98.9592 44.8978H98.2722V46.1681H98.9592Z" fill="#F9FAFA"/>
<path d="M102.079 43.9311H103.315V48.2688H102.079V43.9311Z" fill="#F9FAFA"/>
<path d="M105.625 44.904H104.283V43.9311H108.199V44.904H106.862V48.2688H105.625V44.904Z" fill="#F9FAFA"/>
<path d="M111.868 47.426H110.02L109.676 48.2688H108.415L110.344 43.9311H111.562L113.498 48.2688H112.212L111.868 47.426ZM111.506 46.5213L110.944 45.1333L110.382 46.5213H111.506Z" fill="#F9FAFA"/>
<path d="M114.348 43.9311H115.585V47.2959H117.671V48.2688H114.348V43.9311Z" fill="#F9FAFA"/>
<path d="M33.3986 27.4045H27.478L26.0166 34.413L24.7613 27.4045H18.5035L17.5667 40.2317H22.3631L22.4005 32.8142L23.862 40.2317H28.0776L29.4266 32.7213L29.5765 40.2317H34.2979L33.3986 27.4045Z" fill="#F9FAFA"/>
<path d="M49.9711 33.8367C49.9711 29.6353 46.9734 27.2 42.8514 27.2C38.7295 27.2 35.7505 29.6353 35.7505 33.8367C35.7505 38.0381 38.7295 40.4548 42.8514 40.4548C46.9734 40.4548 49.9711 38.0381 49.9711 33.8367ZM45.0998 33.7437C45.0998 35.1566 44.3129 36.2162 42.8514 36.2162C41.4088 36.2162 40.5844 35.1566 40.5844 33.7437C40.5844 32.3123 41.4088 31.2527 42.8514 31.2527C44.3129 31.2527 45.0998 32.3123 45.0998 33.7437Z" fill="#F9FAFA"/>
<path d="M64.623 40.2317V27.4045H59.8827V31.7546C59.8827 32.3309 59.9952 33.7437 59.9952 33.7437L56.9599 27.4045H51.845V40.2317H56.5852V35.8816C56.5852 35.1751 56.4728 33.8553 56.4728 33.8553L59.508 40.2317H64.623Z" fill="#F9FAFA"/>
<path d="M76.7739 40.2317V36.5508H71.8088V35.5655H76.3429V32.0148H71.8088V31.0481H76.5865V27.4045H66.9937V40.2317H76.7739Z" fill="#F9FAFA"/>
<path d="M88.6486 31.1225V27.4045H77.9878V31.1225H80.8919V40.2317H85.7258V31.1225H88.6486Z" fill="#F9FAFA"/>
<path d="M93.4026 38.447H96.5878L97 40.2317H102.171L97.8618 27.4231H92.4096L88.1003 40.2317H93.0092L93.4026 38.447ZM95.0327 31.829L95.8945 35.4168H94.0959L95.0327 31.829Z" fill="#F9FAFA"/>
<path fill-rule="evenodd" clip-rule="evenodd" d="M112.019 38.2854C112.708 39.4504 113.98 40.2321 115.435 40.2321H118.056V37.7989C118.056 35.618 116.282 33.85 114.094 33.85H111.473V36.2832C111.473 37.014 111.672 37.6984 112.019 38.2854ZM112.722 35.0894V36.2832C112.722 37.785 113.942 38.9928 115.435 38.9928H116.807V37.7989C116.807 36.2972 115.587 35.0894 114.094 35.0894H112.722ZM111.173 33.85H108.551C107.799 33.85 107.096 34.0589 106.497 34.4217C105.354 35.1142 104.589 36.3677 104.589 37.7989V40.2321H107.211C108.666 40.2321 109.937 39.4504 110.626 38.2854C110.973 37.6984 111.173 37.014 111.173 36.2832V33.85ZM109.924 35.0894V36.2832C109.924 37.785 108.704 38.9928 107.211 38.9928H105.838V37.7989C105.838 36.2972 107.059 35.0894 108.551 35.0894H109.924ZM106.497 33.0292C107.096 33.392 107.799 33.6009 108.551 33.6009H111.173V31.1677C111.173 28.9867 109.399 27.2188 107.211 27.2188H104.589V29.6519C104.589 31.0832 105.354 32.3366 106.497 33.0292ZM105.838 28.4581V29.6519C105.838 31.1537 107.059 32.3615 108.551 32.3615H109.924V31.1677C109.924 29.6659 108.704 28.4581 107.211 28.4581H105.838Z" fill="#F9FAFA"/>
<path d="M111.473 31.1677C111.473 28.9867 113.247 27.2188 115.435 27.2188H118.055V29.6519C118.055 31.8329 116.282 33.6009 114.094 33.6009H111.473V31.1677Z" fill="#F9FAFA"/>
</svg>
