<svg width="181" height="100" viewBox="0 0 181 100" fill="none" xmlns="http://www.w3.org/2000/svg">
<path d="M13.1745 53.298C11.5866 50.6903 11.4478 47.9504 11.5318 45.1652C11.5595 44.2453 11.5361 43.3241 11.5363 42.4033C11.5363 42.0798 11.5352 41.7564 11.5367 41.4329C11.5468 39.5819 12.8302 38.1975 14.5304 38.2026C16.3146 38.2082 17.6355 39.5357 17.6572 41.4099C17.6836 43.6988 17.6628 45.9882 17.6657 48.2775C17.6679 49.95 18.2659 51.3823 19.4269 52.5801C20.1135 53.2884 20.9355 53.7791 21.9562 54.116C21.9694 53.8209 21.9906 53.5637 21.9906 53.3063C21.9926 48.5039 22.0031 43.7015 21.9777 38.8991C21.9745 38.2989 22.1515 38.1503 22.7275 38.164C24.3193 38.2015 25.9127 38.1952 27.5047 38.1664C28.0001 38.1575 28.1296 38.317 28.1283 38.7994C28.1129 44.2239 28.1341 49.6484 28.1109 55.0728C28.1002 57.5805 26.177 59.4395 23.6698 59.4178C20.6131 59.3915 17.9209 58.3724 15.6438 56.3303C15.1784 55.913 15.0204 55.9612 14.8142 56.5252C14.5248 57.3171 14.126 58.0692 13.835 58.8606C13.6688 59.3126 13.4252 59.4444 12.9576 59.4359C7.59501 59.3394 2.722 55.4726 1.41442 50.265C1.134 49.1472 1.02027 48.0117 1.01491 46.8661C1.00284 44.2286 1.02407 41.5906 1.00016 38.9534C0.995471 38.4046 1.08865 38.1651 1.72165 38.185C3.31255 38.235 4.9068 38.2218 6.49859 38.1899C7.01764 38.1794 7.17494 38.3275 7.17025 38.8528C7.14612 41.5649 7.14612 44.2773 7.16332 46.9894C7.18209 49.9415 8.714 52.1098 11.3839 53.0098C11.9021 53.1845 12.4381 53.2551 13.1745 53.2978V53.298Z" fill="white"/>
<path d="M153.056 42.29C152.897 47.1541 153.317 51.8857 152.831 56.5945C152.509 59.7159 150.334 61.8207 147.202 62.3742C143.756 62.9833 140.5 61.6254 139.186 58.9162C138.64 57.7905 138.24 57.7284 139.81 57.2804C140.167 57.1788 140.515 57.0463 140.864 56.9187C141.777 56.5846 142.583 56.1433 143.094 57.6095C143.45 58.6331 145.257 58.9795 146.705 58.6101C147.821 58.3254 148.763 57.4053 148.79 56.2644C148.864 53.0652 148.832 49.8635 148.854 46.6627C148.856 46.3001 148.726 46.1352 148.372 46.0619C147.499 45.882 146.642 45.594 145.762 45.4861C144.124 45.2852 142.78 46.5863 142.648 48.404C142.509 50.3149 143.758 51.9136 145.583 51.8678C146.685 51.8401 146.809 52.2827 146.699 53.1305C146.69 53.2037 146.698 53.2793 146.698 53.3537C146.698 55.473 146.472 55.6725 144.281 55.4869C140.121 55.134 137.64 51.2589 138.719 46.8011C139.622 43.0712 143.197 40.9856 146.749 42.1139C147.287 42.2847 147.853 42.4782 148.198 42.9065C148.741 43.5795 149.285 43.5668 150.018 43.2711C150.94 42.8998 151.911 42.6522 153.056 42.2896L153.056 42.29Z" fill="white"/>
<path d="M54.4371 50.0204C55.142 47.5659 55.8068 45.3272 56.4174 43.0738C56.5828 42.4638 56.8449 42.2453 57.49 42.28C58.6295 42.341 59.7746 42.2969 61.025 42.2969C59.4924 46.6934 58.1245 51.0017 56.4505 55.1881C55.9402 56.4644 54.2977 55.4323 53.2066 55.7002C52.6525 55.8363 52.4409 55.5023 52.2979 55.0013C51.6057 52.5759 50.8806 50.1598 50.1651 47.733C49.8186 47.8188 49.9001 48.1707 49.8217 48.4304C49.1681 50.5975 48.4889 52.7575 47.8836 54.9383C47.7068 55.5747 47.4121 55.7554 46.793 55.7188C45.7571 55.6576 44.4439 56.045 43.7553 55.5447C43.0691 55.046 42.9949 53.692 42.6743 52.7057C41.6413 49.5302 40.6448 46.3426 39.5727 43.1802C39.3035 42.3861 39.5014 42.2409 40.2495 42.2862C41.3582 42.3535 42.7156 41.9674 43.514 42.4799C44.3248 43.0006 44.2545 44.4806 44.5554 45.5435C44.9587 46.968 45.3118 48.4067 45.6943 49.8696C46.2645 48.0313 46.8097 46.2248 47.3871 44.4288C47.8342 43.0376 48.8386 42.2945 50.1765 42.307C51.4745 42.3191 52.4639 43.033 52.8775 44.4004C53.4242 46.2078 53.8915 48.0391 54.4369 50.0204H54.4371Z" fill="white"/>
<path d="M88.5107 43.3652C88.5107 41.7788 88.5507 40.3731 88.4939 38.9715C88.4651 38.2563 88.7176 38.0493 89.3852 38.1206C90.4419 38.2332 91.7892 37.6661 92.4857 38.3597C93.0829 38.9545 92.6515 40.2726 92.655 41.2693C92.6711 45.695 92.6365 50.1209 92.683 54.5462C92.6924 55.452 92.4734 55.7248 91.5325 55.7458C90.4231 55.7706 89.5993 55.5081 89.0156 54.5435C88.8427 54.2577 88.7102 53.9315 88.2128 54.3715C84.5795 57.5856 79.3635 55.9729 78.1674 51.2683C77.6604 49.2739 77.7594 47.29 78.6531 45.3907C80.2105 42.0816 84.7951 40.5856 88.5104 43.3652H88.5107ZM85.1751 52.2003C87.1571 52.2065 88.4839 50.913 88.4919 48.9667C88.5002 47.0093 87.1571 45.6092 85.2578 45.5949C83.3711 45.5809 82.066 46.8904 82.036 48.8274C82.0041 50.888 83.2196 52.194 85.1751 52.2003Z" fill="white"/>
<path d="M160.247 43.5746C161.887 42.1111 163.587 41.6168 165.487 42.0105C167.818 42.4936 169.169 43.9316 169.305 46.4268C169.463 49.3186 169.361 52.224 169.395 55.1233C169.401 55.6594 169.137 55.7222 168.706 55.7128C167.814 55.6936 166.919 55.6705 166.03 55.7199C165.433 55.7532 165.265 55.5412 165.273 54.9665C165.301 53.0708 165.286 51.1745 165.281 49.2784C165.28 48.8704 165.279 48.4586 165.226 48.0552C165.004 46.3732 164.123 45.5838 162.602 45.6769C161.163 45.765 160.255 46.7644 160.233 48.3768C160.205 50.4583 160.182 52.5419 160.246 54.6219C160.272 55.4889 160.049 55.8104 159.152 55.7237C158.195 55.6312 156.9 56.0399 156.345 55.5537C155.698 54.987 156.144 53.6658 156.138 52.6749C156.115 48.5855 156.113 44.4956 156.137 40.4062C156.147 38.7034 157.494 37.7325 158.967 38.3199C159.817 38.6589 160.218 39.3288 160.24 40.2301C160.252 40.7503 160.246 41.2709 160.247 41.7915C160.248 42.3025 160.247 42.8135 160.247 43.5746Z" fill="white"/>
<path d="M68.824 55.9666C64.4511 55.9628 61.4395 53.0697 61.4645 48.8963C61.4896 44.7608 64.5675 41.8684 68.9221 41.8887C73.1996 41.9086 76.2103 44.8196 76.213 48.9383C76.2156 53.126 73.2256 55.9702 68.8238 55.9664L68.824 55.9666ZM65.633 48.9682C65.6516 50.9734 66.9735 52.3082 68.9065 52.2736C70.7778 52.24 72.0663 50.8887 72.0686 48.9575C72.071 46.9624 70.7434 45.5773 68.8412 45.59C66.9205 45.603 65.6147 46.978 65.633 48.9684V48.9682Z" fill="white"/>
<path d="M102.978 48.9845C102.978 47.2356 102.978 45.487 102.978 43.7381C102.978 42.3235 103.652 41.8699 105 42.3776C105.663 42.6274 108.307 42.5941 108.914 42.3284C112.605 40.7127 116.142 42.894 116.228 46.8862C116.285 49.5639 116.22 52.2441 116.253 54.9227C116.262 55.5651 116.058 55.7566 115.434 55.7186C114.4 55.6556 113.061 56.0499 112.407 55.5391C111.709 54.9935 112.221 53.5943 112.187 52.5698C112.141 51.2319 112.204 49.8903 112.165 48.5519C112.107 46.6015 111.254 45.6354 109.679 45.6548C108.042 45.6749 107.122 46.6893 107.089 48.6183C107.053 50.7014 107.05 52.7861 107.097 54.8688C107.113 55.574 106.895 55.7675 106.216 55.7208C105.18 55.6495 103.818 56.0591 103.186 55.5418C102.526 55.0002 103.016 53.5872 102.986 52.5562C102.951 51.3666 102.978 50.1752 102.978 48.9845H102.978Z" fill="white"/>
<path d="M123.299 55.9932C121.759 55.9416 119.9 55.4744 118.687 53.6218C118.297 53.0268 118.213 52.5598 119.111 52.381C119.543 52.295 119.948 52.0821 120.377 51.9666C121.146 51.7588 121.908 51.1836 122.511 52.4058C122.851 53.0954 124.717 53.0878 125.415 52.6177C125.772 52.377 125.868 52.0508 125.835 51.6562C125.792 51.1602 125.419 50.9568 125.022 50.8536C124.053 50.6013 123.07 50.4011 122.095 50.1708C119.571 49.5744 118.518 48.3893 118.547 46.1866C118.574 44.1723 119.925 42.6379 122.153 42.1077C123.63 41.7562 125.092 41.76 126.533 42.299C127.244 42.5646 127.861 42.9679 128.363 43.5281C129.487 44.7832 129.4 45.1179 127.851 45.6284C127.499 45.7444 127.134 45.8242 126.792 45.9629C126.135 46.2295 125.605 46.5298 125.213 45.4966C124.906 44.6909 123.411 44.6554 122.774 45.2946C122.172 45.8988 122.361 46.7229 123.283 47.0144C124.481 47.3936 125.734 47.5947 126.946 47.9323C129.005 48.5057 130.034 49.9547 129.769 51.8615C129.561 53.3541 128.824 54.4937 127.464 55.2033C126.315 55.8028 125.088 56.0265 123.299 55.9934L123.299 55.9932Z" fill="white"/>
<path d="M176.708 42.299C177.517 42.299 178.327 42.2815 179.136 42.303C180.315 42.3343 181.018 43.0075 181 44.0485C180.982 45.033 180.268 45.765 179.153 45.6617C177.942 45.5496 177.701 46.0007 177.739 47.1195C177.824 49.6448 177.741 52.1755 177.781 54.703C177.793 55.4455 177.642 55.7995 176.813 55.7226C176.038 55.6509 175.249 55.6605 174.473 55.721C173.775 55.7755 173.592 55.5336 173.602 54.8494C173.639 52.1357 173.582 49.4207 173.638 46.7077C173.655 45.8845 173.465 45.6271 172.612 45.668C171.106 45.7402 171.103 45.6818 171.103 44.1732C171.103 44.0617 171.103 43.9502 171.103 43.8385C171.104 42.3066 171.105 42.2601 172.586 42.3159C173.383 42.3459 173.735 42.1828 173.635 41.3008C173.548 40.53 173.668 39.7372 173.602 38.9619C173.541 38.2326 173.842 38.0346 174.496 38.1226C174.715 38.1521 174.942 38.1273 175.165 38.1273C176.923 38.1273 177.79 38.9905 177.765 40.717C177.757 41.2659 177.404 41.7934 176.707 42.2994L176.708 42.299Z" fill="white"/>
<path d="M97.9256 38.1282H98.2605C99.9032 38.1282 100.245 38.5874 99.8992 40.2228C99.8168 40.6127 99.554 40.6629 99.2868 40.7566C98.4111 41.0633 97.5316 41.3585 96.6531 41.6568C96.4406 41.729 96.2053 41.7922 96.286 42.0923C96.3474 42.3215 96.5682 42.2952 96.7402 42.2976C97.5216 42.3084 98.3052 42.3412 99.0841 42.297C99.6887 42.2626 99.9106 42.4165 99.905 43.0788C99.8724 47.0236 99.8805 50.9689 99.8988 54.914C99.9012 55.4654 99.7866 55.7298 99.1668 55.6971C98.2759 55.6502 97.3793 55.6529 96.4882 55.6965C95.8777 55.7262 95.735 55.4708 95.7372 54.9122C95.7537 50.9671 95.6822 47.0201 95.8058 43.0788C95.8275 42.3857 95.8889 41.7167 95.7593 41.0314C95.7184 40.8156 95.7506 40.5859 95.7497 40.3626C95.7436 38.8732 96.4689 38.1285 97.9256 38.1285V38.1282Z" fill="white"/>
<path d="M136.156 49.1537C136.156 51.0866 136.14 53.0196 136.166 54.9522C136.173 55.5146 136.026 55.753 135.42 55.7183C134.35 55.6573 132.965 56.064 132.287 55.5362C131.563 54.9725 132.072 53.5239 132.06 52.4653C132.025 49.3805 132.069 46.2947 132.031 43.2101C132.023 42.4987 132.19 42.2221 132.941 42.2831C133.973 42.3669 135.344 41.9618 135.958 42.4844C136.6 43.0305 136.123 44.442 136.149 45.474C136.18 46.6998 136.156 47.9272 136.156 49.1537H136.156Z" fill="white"/>
<path d="M132.088 41.9283C132.068 41.6427 132.051 41.4966 132.049 41.3502C131.988 37.817 131.987 37.8306 135.541 38.1119C136.044 38.1517 136.136 38.3338 136.166 38.7771C136.282 40.4994 136.297 40.4987 134.603 41.0752C133.801 41.3482 132.999 41.6195 132.088 41.9283H132.088Z" fill="white"/>
</svg>
