# Blender v3.3.0 OBJ File: ''
# www.blender.org
o mainSquareScreen.001
v -22.602654 7.198271 -122.142181
v 29.022282 7.198271 -122.142181
v 30.609819 8.785809 -122.142181
v 30.609819 34.519810 -122.142174
v 29.022282 36.107346 -122.142174
v -22.602654 36.107346 -122.142174
v -24.190189 34.519810 -122.142174
v -24.190189 8.785809 -122.142181
vt 0.028970 0.000000
vt 0.971030 0.000000
vt 1.000000 0.054915
vt 1.000000 0.945085
vt 0.971030 1.000000
vt 0.028970 1.000000
vt 0.000000 0.945085
vt 0.000000 0.054915
vn 0.0000 -0.0000 1.0000
s 1
f 1/1/1 2/2/1 3/3/1 4/4/1 5/5/1 6/6/1 7/7/1 8/8/1
