<svg width="263" height="30" viewBox="0 0 263 30" fill="none" xmlns="http://www.w3.org/2000/svg">
<path d="M155.365 29.9474H145.126C140.491 29.9474 137.18 26.5263 137.18 21.7368V8.31581C137.18 3.47371 140.542 0.0526123 145.228 0.0526123H165.4C170.188 0.0526123 173.499 3.47371 173.499 8.36842V21.7368C173.499 26.6315 170.188 30 165.451 30C162.089 30 158.727 29.9474 155.365 29.9474ZM155.365 6.36831H145.33C143.853 6.36831 143.343 6.89448 143.343 8.36842V21.6316C143.343 23.1052 143.904 23.6843 145.33 23.6843H165.298C166.775 23.6843 167.336 23.1581 167.336 21.6316V8.47366C167.336 6.94743 166.827 6.42093 165.349 6.42093C162.089 6.36831 158.727 6.36831 155.365 6.36831H155.365Z" fill="white"/>
<path d="M131.27 29.9474H104.069C100.452 29.9474 97.4467 27.5263 96.6316 23.9474C96.4788 23.3686 96.4279 22.7369 96.4279 22.1051C96.4279 17.3683 96.377 12.684 96.4279 7.94716C96.4282 3.47372 99.7903 0.052617 104.12 0H130.812C130.965 0 131.118 0 131.322 0.052617V6.36832H104.069C103.101 6.42093 102.541 6.9471 102.541 7.94716V22.1051C102.541 23.0526 103.102 23.5787 104.018 23.684H131.322C131.271 25.7893 131.271 27.8417 131.271 29.947L131.27 29.9474Z" fill="white"/>
<path d="M42.1777 6.36832V0H70.3471C75.0845 0 78.4974 3.52634 78.4974 8.36843V29.8948H72.3339V8.78936C72.3339 8.47366 72.3339 8.15763 72.283 7.84193C72.1302 7.05234 71.57 6.47355 70.7549 6.42093H43.0947C42.8404 6.36832 42.5855 6.36832 42.1781 6.36832H42.1777Z" fill="white"/>
<path d="M263 29.9474H256.836V8.89459C256.836 8.57889 256.836 8.26285 256.785 7.94715C256.684 7.10495 256.072 6.52616 255.257 6.47354H226.68V0.105225H254.799C259.536 0.105225 262.949 3.63156 262.949 8.47365V29.3156C263 29.4735 263 29.684 263 29.9474H263Z" fill="white"/>
<path d="M90.4177 29.9474H84.356V0.105225H90.4177V29.9474Z" fill="white"/>
<path d="M48.2395 29.9474H42.1777V11.8948C42.3814 11.8948 42.5342 11.8422 42.7382 11.8422H47.7302C48.0358 11.8422 48.3413 11.7895 48.3413 12.3157V29.684C48.3413 29.7892 48.2901 29.8418 48.2395 29.9471V29.9474Z" fill="white"/>
<path d="M226.731 11.8948H232.793V29.9474H226.731V11.8948Z" fill="white"/>
<path d="M221.993 29.9474H209.259C209.004 29.9474 208.8 29.8421 208.546 29.7369C198.969 24.5265 189.392 19.3158 179.816 14.1053C179.408 13.8949 179.255 13.6318 179.306 13.2105C179.357 12.7896 179.306 12.3683 179.306 11.8421H207.017C208.597 11.8421 209.055 11.3686 209.055 9.7368V8.21058C209.055 6.94744 208.495 6.36832 207.272 6.36832H179.357V0H207.272C211.908 0 215.168 3.4211 215.219 8.15796V10.6316C215.015 14.7894 211.857 18 207.781 18.1052C205.642 18.1578 203.502 18.1052 201.414 18.1052H200.701C200.701 18.1578 200.65 18.2105 200.65 18.3157C207.782 22.1577 214.913 25.9472 222.045 29.7895C222.045 29.8948 222.045 29.9474 221.993 29.9474Z" fill="white"/>
<path d="M30.2071 0.0526123V6.42093H36.3706V12.7892H30.2071V21.9999C30.2071 23.3683 29.9015 23.684 28.5771 23.684H7.79382C6.46944 23.684 6.16357 23.3683 6.16357 21.9999V0.0526123H0V22.263C0 26.7894 3.10741 29.9997 7.48795 29.9997H28.8318C33.3145 29.947 36.371 26.789 36.371 22.21V0.0526123H30.2071Z" fill="white"/>
<path d="M42.5342 6.42096H36.3706V12.7893H42.5342V6.42096Z" fill="white"/>
</svg>
