<svg width="41" height="41" viewBox="0 0 41 41" fill="none" xmlns="http://www.w3.org/2000/svg">
<g>
<path d="M20.34 40.3801C31.4078 40.3801 40.38 31.4078 40.38 20.34C40.38 9.27226 31.4078 0.300049 20.34 0.300049C9.27222 0.300049 0.300003 9.27226 0.300003 20.34C0.300003 31.4078 9.27222 40.3801 20.34 40.3801Z" stroke="white" stroke-width="0.6" stroke-miterlimit="10"/>
<path d="M20.34 37.31C29.2207 37.31 36.42 29.7123 36.42 20.34C36.42 10.9677 29.2207 3.37 20.34 3.37C11.4593 3.37 4.25999 10.9677 4.25999 20.34C4.25999 29.7123 11.4593 37.31 20.34 37.31Z" stroke="white" stroke-width="0.6" stroke-miterlimit="10"/>
<path d="M20.34 34.51C26.1666 34.51 30.89 28.1659 30.89 20.34C30.89 12.5142 26.1666 6.17004 20.34 6.17004C14.5134 6.17004 9.78999 12.5142 9.78999 20.34C9.78999 28.1659 14.5134 34.51 20.34 34.51Z" stroke="white" stroke-width="0.6" stroke-miterlimit="10"/>
<path d="M20.34 31.78C22.7811 31.78 24.76 26.6582 24.76 20.34C24.76 14.0219 22.7811 8.90002 20.34 8.90002C17.8989 8.90002 15.92 14.0219 15.92 20.34C15.92 26.6582 17.8989 31.78 20.34 31.78Z" stroke="white" stroke-width="0.6" stroke-miterlimit="10"/>
</g>
</svg>
