<svg width="51" height="24" viewBox="0 0 51 24" fill="none" xmlns="http://www.w3.org/2000/svg">
<g>
<path d="M37.59 11.9301H50.62" stroke="white" stroke-width="0.6" stroke-miterlimit="10"/>
<path d="M44.1 18.45V5.41003" stroke="white" stroke-width="0.6" stroke-miterlimit="10"/>
<path d="M0 23.21V20.11L5.95 8.89002C6.25 8.33002 6.42 7.84002 6.47 7.42002C6.51 7.00002 6.53 6.48002 6.53 5.85002C6.53 5.57002 6.53 5.27002 6.51 4.96002C6.5 4.65002 6.44 4.37002 6.33 4.14002C6.22 3.91002 6.06 3.70002 5.85 3.54002C5.63 3.38002 5.32 3.30002 4.91 3.30002C4.41 3.30002 4.02 3.44002 3.73 3.72002C3.44 4.00002 3.29 4.41002 3.29 4.95002V6.83002H0V5.02002C0 4.33002 0.13 3.68002 0.39 3.08002C0.65 2.48002 1 1.95002 1.46 1.50002C1.89 1.05002 2.41 0.690019 3.01 0.42002C3.61 0.150019 4.26 0.0200195 4.95 0.0200195C5.81 0.0200195 6.55 0.18002 7.16 0.49002C7.77 0.80002 8.29 1.23002 8.7 1.77002C9.09 2.31002 9.37 2.92002 9.56 3.61002C9.74 4.30002 9.83 5.03002 9.83 5.81002C9.83 6.37002 9.82 6.84002 9.8 7.22002C9.78 7.60002 9.74 7.96002 9.67 8.30002C9.61 8.65002 9.5 8.99002 9.35 9.34002C9.2 9.68002 8.99 10.1 8.74 10.6L3.88 19.92H9.83V23.22H0V23.21Z" fill="white"/>
<path d="M12.03 4.95C12.03 4.17 12.16 3.48 12.43 2.88C12.7 2.28 13.06 1.76 13.51 1.33C13.96 0.9 14.48 0.57 15.08 0.34C15.67 0.11 16.29 0 16.94 0C17.59 0 18.21 0.11 18.8 0.34C19.39 0.57 19.92 0.9 20.37 1.33C20.82 1.76 21.18 2.28 21.45 2.88C21.72 3.48 21.85 4.17 21.85 4.95V18.46C21.85 19.24 21.72 19.93 21.45 20.53C21.18 21.13 20.82 21.65 20.37 22.08C19.92 22.51 19.39 22.84 18.8 23.07C18.21 23.3 17.59 23.41 16.94 23.41C16.29 23.41 15.67 23.3 15.08 23.07C14.49 22.84 13.96 22.52 13.51 22.08C13.06 21.65 12.7 21.13 12.43 20.53C12.16 19.93 12.03 19.24 12.03 18.46V4.95ZM15.33 18.46C15.33 18.93 15.48 19.33 15.78 19.64C16.08 19.95 16.47 20.11 16.94 20.11C17.41 20.11 17.8 19.95 18.1 19.64C18.4 19.33 18.55 18.93 18.55 18.46V4.95C18.55 4.48 18.4 4.08 18.1 3.77C17.8 3.46 17.41 3.3 16.94 3.3C16.47 3.3 16.08 3.46 15.78 3.77C15.48 4.08 15.33 4.48 15.33 4.95V18.46Z" fill="white"/>
<path d="M24.05 4.95C24.05 4.17 24.18 3.48 24.45 2.88C24.72 2.28 25.08 1.76 25.53 1.33C25.98 0.9 26.5 0.57 27.1 0.34C27.69 0.11 28.31 0 28.96 0C29.61 0 30.23 0.11 30.82 0.34C31.41 0.57 31.94 0.9 32.39 1.33C32.84 1.76 33.2 2.28 33.47 2.88C33.74 3.48 33.87 4.17 33.87 4.95V18.46C33.87 19.24 33.74 19.93 33.47 20.53C33.2 21.13 32.84 21.65 32.39 22.08C31.94 22.51 31.41 22.84 30.82 23.07C30.23 23.3 29.61 23.41 28.96 23.41C28.31 23.41 27.69 23.3 27.1 23.07C26.51 22.84 25.98 22.52 25.53 22.08C25.08 21.65 24.72 21.13 24.45 20.53C24.18 19.93 24.05 19.24 24.05 18.46V4.95ZM27.35 18.46C27.35 18.93 27.5 19.33 27.8 19.64C28.1 19.95 28.49 20.11 28.96 20.11C29.43 20.11 29.82 19.95 30.12 19.64C30.42 19.33 30.57 18.93 30.57 18.46V4.95C30.57 4.48 30.42 4.08 30.12 3.77C29.82 3.46 29.43 3.3 28.96 3.3C28.49 3.3 28.1 3.46 27.8 3.77C27.5 4.08 27.35 4.48 27.35 4.95V18.46Z" fill="white"/>
</g>
</svg>
