<svg width="41" height="41" viewBox="0 0 41 41" fill="none" xmlns="http://www.w3.org/2000/svg">
<g>
<path d="M7.1 27.11C10.8555 27.11 13.9 24.0655 13.9 20.31C13.9 16.5545 10.8555 13.51 7.1 13.51C3.34446 13.51 0.299999 16.5545 0.299999 20.31C0.299999 24.0655 3.34446 27.11 7.1 27.11Z" stroke="white" stroke-width="0.6" stroke-miterlimit="10"/>
<path d="M20.31 24.47C22.6075 24.47 24.47 22.6075 24.47 20.31C24.47 18.0125 22.6075 16.15 20.31 16.15C18.0125 16.15 16.15 18.0125 16.15 20.31C16.15 22.6075 18.0125 24.47 20.31 24.47Z" stroke="white" stroke-width="0.6" stroke-miterlimit="10"/>
<path d="M7.1 22.49C8.30398 22.49 9.28 21.514 9.28 20.31C9.28 19.106 8.30398 18.13 7.1 18.13C5.89602 18.13 4.92 19.106 4.92 20.31C4.92 21.514 5.89602 22.49 7.1 22.49Z" fill="white" stroke="white" stroke-width="0.6" stroke-miterlimit="10"/>
<path d="M33.52 27.11C37.2755 27.11 40.32 24.0655 40.32 20.31C40.32 16.5545 37.2755 13.51 33.52 13.51C29.7645 13.51 26.72 16.5545 26.72 20.31C26.72 24.0655 29.7645 27.11 33.52 27.11Z" stroke="white" stroke-width="0.6" stroke-miterlimit="10"/>
<path d="M33.52 22.49C34.724 22.49 35.7 21.514 35.7 20.31C35.7 19.106 34.724 18.13 33.52 18.13C32.316 18.13 31.34 19.106 31.34 20.31C31.34 21.514 32.316 22.49 33.52 22.49Z" fill="white" stroke="white" stroke-width="0.6" stroke-miterlimit="10"/>
<path d="M20.31 40.32C24.0655 40.32 27.11 37.2755 27.11 33.52C27.11 29.7644 24.0655 26.72 20.31 26.72C16.5545 26.72 13.51 29.7644 13.51 33.52C13.51 37.2755 16.5545 40.32 20.31 40.32Z" stroke="white" stroke-width="0.6" stroke-miterlimit="10"/>
<path d="M20.31 35.7C21.514 35.7 22.49 34.7239 22.49 33.52C22.49 32.316 21.514 31.34 20.31 31.34C19.106 31.34 18.13 32.316 18.13 33.52C18.13 34.7239 19.106 35.7 20.31 35.7Z" fill="white" stroke="white" stroke-width="0.6" stroke-miterlimit="10"/>
<path d="M20.31 13.9C24.0655 13.9 27.11 10.8556 27.11 7.10005C27.11 3.34451 24.0655 0.300049 20.31 0.300049C16.5545 0.300049 13.51 3.34451 13.51 7.10005C13.51 10.8556 16.5545 13.9 20.31 13.9Z" stroke="white" stroke-width="0.6" stroke-miterlimit="10"/>
<path d="M20.31 9.28004C21.514 9.28004 22.49 8.30402 22.49 7.10004C22.49 5.89606 21.514 4.92004 20.31 4.92004C19.106 4.92004 18.13 5.89606 18.13 7.10004C18.13 8.30402 19.106 9.28004 20.31 9.28004Z" fill="white" stroke="white" stroke-width="0.6" stroke-miterlimit="10"/>
</g>
</svg>
