<svg width="41" height="35" viewBox="0 0 41 35" fill="none" xmlns="http://www.w3.org/2000/svg">
<g>
<path d="M21.16 4.83006L10.47 19.1401C10.28 19.4001 10.47 19.7701 10.78 19.7701H18.65C18.87 19.7701 19.04 19.9501 19.04 20.1601V29.1901C19.04 29.5701 19.52 29.7301 19.75 29.4301L30.43 15.3601C30.63 15.1001 30.44 14.7301 30.12 14.7301H22.25C22.03 14.7301 21.86 14.5501 21.86 14.3401V5.07006C21.86 4.69006 21.38 4.53006 21.15 4.83006H21.16Z" fill="white"/>
<path d="M12.52 6.95996C9.49999 9.31996 7.54999 12.99 7.54999 17.12C7.54999 21.25 9.49999 24.92 12.52 27.28" stroke="white" stroke-width="0.6" stroke-miterlimit="10"/>
<path d="M9.36999 0.300049C3.90999 3.91005 0.299988 10.09 0.299988 17.13C0.299988 24.17 3.90999 30.35 9.36999 33.96" stroke="white" stroke-width="0.6" stroke-linecap="round" stroke-linejoin="round"/>
<path d="M28.16 27.29C31.18 24.93 33.13 21.26 33.13 17.13C33.13 13 31.18 9.32997 28.16 6.96997" stroke="white" stroke-width="0.6" stroke-miterlimit="10"/>
<path d="M31.31 33.9501C36.77 30.3401 40.38 24.1601 40.38 17.1201C40.38 10.0801 36.77 3.91005 31.31 0.300049" stroke="white" stroke-width="0.6" stroke-linecap="round" stroke-linejoin="round"/>
</g>
</svg>
