<svg width="41" height="37" viewBox="0 0 41 37" fill="none" xmlns="http://www.w3.org/2000/svg">
<g>
<path d="M20.34 17.5201C31.4078 17.5201 40.38 13.6652 40.38 8.91005C40.38 4.15488 31.4078 0.300049 20.34 0.300049C9.2722 0.300049 0.299988 4.15488 0.299988 8.91005C0.299988 13.6652 9.2722 17.5201 20.34 17.5201Z" stroke="white" stroke-width="0.6" stroke-miterlimit="10"/>
<path d="M20.34 26.76C31.4078 26.76 40.38 22.9052 40.38 18.15C40.38 13.3949 31.4078 9.54004 20.34 9.54004C9.2722 9.54004 0.299988 13.3949 0.299988 18.15C0.299988 22.9052 9.2722 26.76 20.34 26.76Z" stroke="white" stroke-width="0.6" stroke-miterlimit="10"/>
<path d="M20.34 36.01C31.4078 36.01 40.38 32.1552 40.38 27.4C40.38 22.6449 31.4078 18.79 20.34 18.79C9.2722 18.79 0.299988 22.6449 0.299988 27.4C0.299988 32.1552 9.2722 36.01 20.34 36.01Z" stroke="white" stroke-width="0.6" stroke-miterlimit="10"/>
</g>
</svg>
