<svg width="42" height="41" viewBox="0 0 42 41" fill="none" xmlns="http://www.w3.org/2000/svg">
<g>
<path d="M20.84 26.67C24.336 26.67 27.17 23.836 27.17 20.34C27.17 16.844 24.336 14.01 20.84 14.01C17.344 14.01 14.51 16.844 14.51 20.34C14.51 23.836 17.344 26.67 20.84 26.67Z" stroke="white" stroke-width="0.6" stroke-miterlimit="10"/>
<path d="M20.84 33.43C28.0694 33.43 33.93 27.5694 33.93 20.34C33.93 13.1106 28.0694 7.25 20.84 7.25C13.6106 7.25 7.75 13.1106 7.75 20.34C7.75 27.5694 13.6106 33.43 20.84 33.43Z" stroke="white" stroke-width="0.6" stroke-miterlimit="10"/>
<path d="M20.84 40.3801C31.9078 40.3801 40.88 31.4078 40.88 20.34C40.88 9.27226 31.9078 0.300049 20.84 0.300049C9.7722 0.300049 0.799988 9.27226 0.799988 20.34C0.799988 31.4078 9.7722 40.3801 20.84 40.3801Z" stroke="white" stroke-width="0.6" stroke-miterlimit="10"/>
<path d="M19.93 9.69004C21.2831 9.69004 22.38 8.59314 22.38 7.24004C22.38 5.88694 21.2831 4.79004 19.93 4.79004C18.5769 4.79004 17.48 5.88694 17.48 7.24004C17.48 8.59314 18.5769 9.69004 19.93 9.69004Z" fill="white"/>
<path d="M2.45 15.5801C3.8031 15.5801 4.9 14.4832 4.9 13.1301C4.9 11.777 3.8031 10.6801 2.45 10.6801C1.0969 10.6801 0 11.777 0 13.1301C0 14.4832 1.0969 15.5801 2.45 15.5801Z" fill="white"/>
<path d="M13.05 32.76C14.4031 32.76 15.5 31.6631 15.5 30.31C15.5 28.9569 14.4031 27.86 13.05 27.86C11.6969 27.86 10.6 28.9569 10.6 30.31C10.6 31.6631 11.6969 32.76 13.05 32.76Z" fill="white"/>
<path d="M39.41 31C40.7631 31 41.86 29.9031 41.86 28.55C41.86 27.1969 40.7631 26.1 39.41 26.1C38.0569 26.1 36.96 27.1969 36.96 28.55C36.96 29.9031 38.0569 31 39.41 31Z" fill="white"/>
</g>
</svg>
