<svg width="44" height="40" viewBox="0 0 44 40" fill="none" xmlns="http://www.w3.org/2000/svg">
<g>
<path d="M27.66 16.38H15.11C12.575 16.38 10.52 18.435 10.52 20.97V27.43C10.52 29.965 12.575 32.02 15.11 32.02H27.66C30.195 32.02 32.25 29.965 32.25 27.43V20.97C32.25 18.435 30.195 16.38 27.66 16.38Z" fill="white"/>
<path d="M16.12 17.8799V12.0299C16.12 9.49994 18.17 7.43994 20.71 7.43994H21.97C24.5 7.43994 26.56 9.48994 26.56 12.0299V14.8599" stroke="white" stroke-width="3" stroke-miterlimit="10"/>
<path d="M0.300003 8.77005V2.63005C0.300003 1.34005 1.34 0.300049 2.63 0.300049H8.78" stroke="white" stroke-width="0.6" stroke-miterlimit="10"/>
<path d="M8.77 39.1601H2.63C1.34 39.1601 0.300003 38.1201 0.300003 36.8301V30.6801" stroke="white" stroke-width="0.6" stroke-miterlimit="10"/>
<path d="M42.95 30.6899V36.8399C42.95 38.1299 41.91 39.1699 40.62 39.1699H34.47" stroke="white" stroke-width="0.6" stroke-miterlimit="10"/>
<path d="M34.48 0.300049H40.63C41.92 0.300049 42.96 1.34005 42.96 2.63005V8.78005" stroke="white" stroke-width="0.6" stroke-miterlimit="10"/>
<path d="M0.300003 19.73H42.95" stroke="white" stroke-width="0.6" stroke-miterlimit="10"/>
</g>
</svg>
