<svg width="512" height="512" fill="none" xmlns="http://www.w3.org/2000/svg"><path d="M34.834 260.263c9.572-8.782 16.884-17.032 25.26-33.132 1.064-1.464 5.053-9.846 5.983-11.31 5.983-14.636 9.307-22.753 16.487-35.527 7.312-13.039 17.15-25.547 21.937-31.534 14.89-18.363 37.492-35.128 67.805-46.039 66.477-23.684 138.803-8.915 172.174 46.837 7.179 11.975 9.971 19.693 13.162 33.265 2.792 11.975 4.388 28.474 3.59 34.329-.133.665-.266 0-.399.399 0 0-4.254-19.427-9.44-31.003-3.855-8.516-9.705-17.963-11.699-20.757-41.083-59.344-125.109-65.199-184.804-23.684-17.816 12.374-26.99 22.353-38.291 40.183-4.919 7.851-7.844 12.774-11.301 21.556-3.323 8.116-4.786 12.906-6.381 21.555-10.238 54.421 17.151 105.117 51.186 131.994 7.712 6.121 14.758 10.778 25.261 15.967 15.024 7.452 29.649 11.31 40.95 13.04 66.077 9.58 94.529-9.979 154.092-42.978l30.845-17.83c27.92-13.971 69.002-35.26 103.968-14.104 2.66 1.597 4.787 2.794 6.648 4.125V294.06c-33.77-19.427-61.291-11.843-99.581 4.657-5.451 2.395-12.498 6.12-20.342 10.378-4.52 2.395-7.844 4.657-11.7 6.52-38.556 18.495-58.233 35.793-99.98 45.107-12.897 2.927-30.579 2.927-30.579 2.927-21.804.133-49.592-6.52-74.321-24.35-17.416-12.507-26.723-21.821-36.695-40.715-5.717-10.512-8.243-17.032-10.769-28.874-4.653-22.354-3.456-37.124 4.654-58.413 5.318-13.971 14.226-25.813 20.208-32.599 12.764-14.504 27.389-25.681 49.193-33.132 33.371-11.443 64.083-9.048 90.275 7.185 9.173 5.589 12.763 8.25 19.012 15.568 5.451 6.52 7.711 9.98 11.168 18.495 2.792 7.052 6.514 18.362 6.514 24.35-.132-.266-.398.133-.531-.133-1.995-3.992-4.654-10.778-9.307-17.697-5.451-8.249-8.908-12.108-16.486-17.83-6.249-4.79-10.902-7.318-17.417-9.846-13.561-5.322-29.914-7.451-43.342-6.653-7.712.399-13.562 1.065-21.938 3.46-6.78 1.862-18.613 6.786-28.451 14.237-8.509 6.387-13.163 12.507-18.747 19.826-35.764 47.235-13.428 115.761 45.47 136.518 33.105 11.709 61.291 8.382 94.928-6.653 12.896-5.722 19.81-10.778 32.573-17.564 13.828-7.451 21.14-11.31 35.366-18.894 46.267-24.749 84.956-41.381 130.692-20.092v-20.491c-9.971-4.391-24.995-7.718-39.354-8.117-29.914-.798-47.73 7.984-75.783 20.225-9.572 4.258-14.89 7.318-24.064 11.975-57.436 29.007-89.743 53.091-135.479 39.386-9.971-2.927-19.677-7.185-29.648-15.701-8.376-7.185-14.226-15.435-17.683-22.088-4.121-7.85-4.919-15.568-6.116-23.152-.133-1.331-1.595-14.637 5.186-29.539 16.752-36.724 58.366-48.7 89.078-34.329 3.058 1.463 4.52 2.661 7.046 4.923 4.388 3.992 6.781 7.584 8.908 12.374 0 0-.266.4-.798-.266-1.063-1.197-3.324-4.923-10.503-8.515-14.758-7.186-26.723-6.653-42.013-.533-7.844 3.194-13.295 6.919-17.949 11.843-2.924 3.06-7.179 8.515-9.971 13.838-3.856 7.451-5.451 14.503-5.052 22.886.665 13.439 5.052 24.216 15.821 34.196 11.7 10.911 26.059 13.439 38.689 13.306 23.666-.266 51.187-14.371 57.835-17.697 18.347-9.58 35.631-18.894 59.828-29.672 19.544-8.782 30.446-14.637 51.187-20.624 7.179-2.129 14.492-3.859 18.48-4.657 20.608-3.992 45.603-1.464 62.621 5.721V0H0v278.625c12.232-1.73 26.457-10.911 34.834-18.362Z" fill="#fff"/><path d="M505.618 338.623c-10.104-8.781-20.607-12.64-31.376-13.572-36.695-2.927-69.801 24.749-111.016 47.769-18.347 10.245-30.978 17.696-48.262 24.083-29.914 11.044-49.458 17.298-82.031 16.366-42.146-1.33-66.211-9.58-102.374-34.595-11.035-7.584-22.336-19.027-33.37-33.93-14.625-19.559-21.406-33.93-27.522-56.284-1.595-5.854-3.19-12.374-4.387-20.358-.4-3.06-.4-4.923-.931-7.983-.266-1.597-.532-4.524-.93-4.125-14.227 13.306-21.406 18.628-38.158 23.418-9.573 2.795-15.555 3.992-25.261 3.194v229.393h511.601V344.877a45.197 45.197 0 0 0-5.983-6.254Z" fill="#fff"/></svg>