<svg xmlns="http://www.w3.org/2000/svg" xmlns:xlink="http://www.w3.org/1999/xlink">
  <symbol id="plyr-enter-fullscreen" viewBox="0 0 26 26">
    <polygon points="4.9,5.2 4.9,7.2 4.9,11.2 6.9,11.2 6.9,7.2 10.9,7.2 10.9,5.2 6.9,5.2" />
    <polygon points="18.9,5.2 14.9,5.2 14.9,7.2 18.9,7.2 18.9,11.2 20.9,11.2 20.9,7.2 20.9,5.2" />
    <polygon points="18.9,19.2 14.9,19.2 14.9,21.2 18.9,21.2 20.9,21.2 20.9,19.2 20.9,15.2 18.9,15.2" />
    <polygon points="6.9,15.2 4.9,15.2 4.9,19.2 4.9,21.2 6.9,21.2 10.9,21.2 10.9,19.2 6.9,19.2" />
  </symbol>

  <symbol id="plyr-exit-fullscreen" viewBox="0 0 26 26">
    <polygon points="9.9,10.2 5.9,10.2 5.9,12.2 9.9,12.2 11.9,12.2 11.9,10.2 11.9,6.2 9.9,6.2" />
    <polygon points="15.9,10.2 15.9,6.2 13.9,6.2 13.9,10.2 13.9,12.2 15.9,12.2 19.9,12.2 19.9,10.2" />
    <polygon points="13.9,14.2 13.9,16.2 13.9,20.2 15.9,20.2 15.9,16.2 19.9,16.2 19.9,14.2 15.9,14.2" />
    <polygon points="5.9,14.2 5.9,16.2 9.9,16.2 9.9,20.2 11.9,20.2 11.9,16.2 11.9,14.2 9.9,14.2" />
  </symbol>

  <symbol id="plyr-muted" viewBox="0 0 26 26">
    <path d="M13.2,5.3L7.6,8.4v9.4l5.6,3.3c0.1,0.1,0.2,0.1,0.3,0.1c0.1,0,0.2,0,0.3-0.1c0.2-0.1,0.3-0.3,0.3-0.5V5.8c0-0.2-0.1-0.4-0.3-0.5C13.7,5.2,13.4,5.2,13.2,5.3z" />
    <path d="M2.4,11v4.3c0,1.1,0.9,2.1,2.1,2.1h1.2V8.9H4.5C3.3,8.9,2.4,9.8,2.4,11z" />
  </symbol>

  <symbol id="plyr-volume" viewBox="0 0 26 26">
    <path d="M16.6,9.8c-0.3,0.3-0.3,0.8,0,1.1c0.6,0.6,0.9,1.4,0.9,2.3c0,0.9-0.3,1.7-0.9,2.3c-0.3,0.3-0.3,0.8,0,1.1c0.1,0.1,0.3,0.2,0.5,0.2c0.2,0,0.4-0.1,0.5-0.2c0.9-0.9,1.3-2.1,1.3-3.3c0-1.2-0.5-2.4-1.3-3.3C17.3,9.6,16.9,9.6,16.6,9.8z" />
    <path d="M21,7.5c-0.3-0.3-0.8-0.3-1.1,0c-0.3,0.3-0.3,0.8,0,1.1c1.3,1.2,2,2.9,2,4.6c0,1.8-0.7,3.4-2,4.6c-0.3,0.3-0.3,0.8,0,1.1c0.1,0.2,0.3,0.2,0.5,0.2c0.2,0,0.4-0.1,0.5-0.2c1.6-1.5,2.5-3.5,2.5-5.7C23.4,11,22.6,9,21,7.5z" />
    <path d="M13.2,5.3L7.6,8.4v9.4l5.6,3.3c0.1,0.1,0.2,0.1,0.3,0.1c0.1,0,0.2,0,0.3-0.1c0.2-0.1,0.3-0.3,0.3-0.5V5.8c0-0.2-0.1-0.4-0.3-0.5C13.7,5.2,13.4,5.2,13.2,5.3z" />
    <path d="M2.4,11v4.3c0,1.1,0.9,2.1,2.1,2.1h1.2V8.9H4.5C3.3,8.9,2.4,9.8,2.4,11z" />
  </symbol>

  <symbol id="plyr-play" viewBox="0 0 26 26">
    <path d="M8.7,7.5v11.3l8.5-5.7L8.7,7.5z" />
  </symbol>

  <symbol id="plyr-pause" viewBox="0 0 26 26">
    <rect x="9.5" y="8.2" width="2" height="10" />
    <rect x="14.3" y="8.2" width="2" height="10" />
  </symbol>
</svg>
